<?xml version="1.0" encoding="utf-8"?>
<!-- Generator: Adobe Illustrator 19.2.0, SVG Export Plug-In . SVG Version: 6.00 Build 0)  -->
<svg version="1.1" id="Layer_1" xmlns="http://www.w3.org/2000/svg" xmlns:xlink="http://www.w3.org/1999/xlink" x="0px" y="0px"
	 width="97.8px" height="97.8px" viewBox="0 0 97.8 97.8" style="enable-background:new 0 0 97.8 97.8;" xml:space="preserve">
<style type="text/css">
	.st0{fill:#D71920;}
</style>
<path id="red_card_icon" class="st0" d="M9.6,17c-0.1-4.1,3.2-7.5,7.3-7.6s7.5,3.2,7.6,7.3c0.1,4.1-3.2,7.5-7.3,7.6
	c-2,0-4-0.8-5.4-2.2C10.3,20.8,9.5,18.9,9.6,17z M50.9,2.7C49.1,0.9,46.6-0.1,44,0H9.6C4.3,0.1,0,4.3-0.1,9.6v34.5
	c-0.1,2.6,0.9,5.1,2.8,6.9l44.1,44.1c3.9,3.7,9.9,3.7,13.8,0L95,60.6c3.7-3.9,3.7-9.9,0-13.8L50.9,2.7z"/>
</svg>
