<?xml version="1.0" encoding="utf-8"?>
<!-- Generator: Adobe Illustrator 19.2.0, SVG Export Plug-In . SVG Version: 6.00 Build 0)  -->
<svg version="1.1" id="Layer_1" xmlns="http://www.w3.org/2000/svg" xmlns:xlink="http://www.w3.org/1999/xlink" x="0px" y="0px"
	 width="98px" height="97.8px" viewBox="0 0 98 97.8" style="enable-background:new 0 0 98 97.8;" xml:space="preserve">
<style type="text/css">
	.st0{fill:#FFD400;}
</style>
<path id="yellow_card_icon" class="st0" d="M9.7,17c-0.1-4.1,3.2-7.5,7.4-7.6c4.1-0.1,7.5,3.2,7.6,7.4c0.1,4.1-3.2,7.5-7.4,7.6
	c-2,0-4-0.8-5.4-2.2C10.5,20.8,9.7,18.9,9.7,17z M51.1,2.7c-1.8-1.8-4.3-2.8-6.9-2.8H9.7C4.4,0.1,0.2,4.3,0.1,9.6v34.5
	C0,46.7,1,49.2,2.8,51L47,95.1c3.9,3.7,9.9,3.7,13.8,0l34.5-34.5c3.7-3.9,3.7-9.9,0-13.8L51.1,2.7z"/>
</svg>
