<?xml version="1.0" standalone="no"?>
<!DOCTYPE svg PUBLIC "-//W3C//DTD SVG 1.1//EN" "http://www.w3.org/Graphics/SVG/1.1/DTD/svg11.dtd" >
<svg xmlns="http://www.w3.org/2000/svg">
<metadata>
<json>
<![CDATA[
{
	"fontFamily": "SupotsuIcons",
	"majorVersion": 1,
	"minorVersion": 0,
	"version": "Version 1.0",
	"fontId": "SupotsuIcons",
	"psName": "SupotsuIcons",
	"subFamily": "Regular",
	"fullName": "SupotsuIcons",
	"description": "Font generated by IcoMoon."
}
]]>
</json>
</metadata>
<defs>
<font id="SupotsuIcons" horiz-adv-x="1024">
<font-face units-per-em="1024" ascent="960" descent="-64" />
<missing-glyph horiz-adv-x="1024" />
<glyph unicode="&#x20;" horiz-adv-x="512" d="" />
<glyph unicode="&#xe900;" glyph-name="add_blu" data-tags="add_blu" d="M409.6 960h204.8v-1024h-204.8v1024zM1024 550.4v-204.8h-1024v204.8h1024z" />
<glyph unicode="&#xe901;" d="M1023.639 448.181c0-282.67-229.149-511.819-511.819-511.819s-511.819 229.149-511.819 511.819c0 282.67 229.149 511.819 511.819 511.819s511.819-229.149 511.819-511.819z" />
<glyph unicode="&#xe902;" d="M467.031 192.090v212.385h-210.94v88.855h210.94v210.579h89.939v-210.94h210.94v-88.855h-210.94v-212.385h-89.939z" />
<glyph unicode="&#xe903;" glyph-name="add_circle_wht" data-tags="add_circle_wht" d="M511.819 960c-282.819 0-511.819-229-511.819-511.819s229-511.819 511.819-511.819 511.819 229 511.819 511.819-229 511.819-511.819 511.819zM767.91 404.114h-210.94v-212.385h-89.939v212.746h-210.94v88.855h210.94v210.579h89.939v-210.94h210.94v-88.855z" />
<glyph unicode="&#xe904;" d="M1023.639 448.181c0-282.67-229.149-511.819-511.819-511.819s-511.819 229.149-511.819 511.819c0 282.67 229.149 511.819 511.819 511.819s511.819-229.149 511.819-511.819z" />
<glyph unicode="&#xe905;" d="M467.031 192.090v212.385h-210.94v88.855h210.94v210.579h89.939v-210.94h210.94v-88.855h-210.94v-212.385h-89.939z" />
<glyph unicode="&#xe906;" glyph-name="add_event_icon" data-tags="add_event_icon" d="M153.567 35.023v563.35h715.873v-563.35h-715.873zM819.009 856.063v103.322h-103.322v-103.322h-408.368v103.322h-103.322v-103.322h-50.431c-0.471 0.008-1.027 0.013-1.584 0.013-28.322 0-53.828-12.055-71.667-31.315l-0.058-0.064c-18.538-18.402-30.014-43.896-30.014-72.071 0-0.176 0-0.352 0.001-0.527v0.027-717.103c0-0.004 0-0.009 0-0.014 0-28.134 11.477-53.587 30.004-71.934l0.008-0.008c17.897-19.323 43.403-31.378 71.725-31.378 0.557 0 1.113 0.005 1.668 0.014l-0.084-0.001h715.873c56.241 1.999 101.323 47.081 103.317 103.136l0.005 0.186v717.103c-1.673 56.504-46.875 101.92-103.135 103.932l-0.187 0.005h-50.431z" />
<glyph unicode="&#xe907;" glyph-name="add_friend-1" data-tags="add_friend (1)" d="M384.023 960h255.955v-1024h-255.955v1024zM1024.053 575.977v-255.955h-1024v255.955h1024z" />
<glyph unicode="&#xe908;" glyph-name="add_friend" data-tags="add_friend" d="M384.023 960h255.955v-1024h-255.955v1024zM1024.053 575.977v-255.955h-1024v255.955h1024z" />
<glyph unicode="&#xe909;" glyph-name="add_hover" data-tags="add_hover" d="M384.023 960h255.955v-1024h-255.955v1024zM1024.053 575.977v-255.955h-1024v255.955h1024z" />
<glyph unicode="&#xe90a;" glyph-name="add_image" data-tags="add_image" d="M665.6 478.72h-122.88v122.88h-61.44v-122.88h-122.88v-61.44h122.88v-122.88h61.44v122.88h122.88z" />
<glyph unicode="&#xe90b;" glyph-name="add_photo_icon_drk" data-tags="add_photo_icon_drk" d="M306.17 407.99c-0.903 113.437 91.038 207.004 205.378 207.004 114.34 0.903 207.184-91.038 207.907-205.378 0.903-114.34-91.038-207.184-205.378-207.907-55.093 0-107.656 21.676-147.034 60.15-40.1 38.294-61.776 90.858-60.873 146.131zM313.576 736.198h-130.235c-21.676 0-41.726-9.212-56.718-25.108-14.992-14.992-24.205-35.946-24.205-57.621v-491.86c0-21.676 8.309-42.629 24.205-57.621 14.27-15.896 35.043-25.108 56.718-25.108h657.318c21.676 0 41.726 9.212 56.718 25.108 14.992 14.992 24.205 35.946 24.205 57.621v491.86c0 21.676-8.309 42.629-24.205 57.621-14.27 15.896-35.043 25.108-56.718 25.108h-131.138l-75.143 80.923h-245.478l-75.323-80.923zM511.548 276.852c72.614 0 131.138 58.525 131.861 130.235 0 72.614-58.525 131.138-130.235 131.861-72.614 0-131.138-58.525-131.861-130.235 0-35.043 13.367-68.459 38.475-93.567 24.205-24.927 57.621-38.294 91.761-38.294z" />
<glyph unicode="&#xe90c;" glyph-name="add_photo_icon" data-tags="add_photo_icon" d="M306.17 407.99c-0.903 113.437 91.038 207.004 205.378 207.004 114.34 0.903 207.184-91.038 207.907-205.378 0.903-114.34-91.038-207.184-205.378-207.907-55.093 0-107.656 21.676-147.034 60.15-40.1 38.294-61.776 90.858-60.873 146.131zM313.576 736.198h-130.235c-21.676 0-41.726-9.212-56.718-25.108-14.992-14.992-24.205-35.946-24.205-57.621v-491.86c0-21.676 8.309-42.629 24.205-57.621 14.27-15.896 35.043-25.108 56.718-25.108h657.318c21.676 0 41.726 9.212 56.718 25.108 14.992 14.992 24.205 35.946 24.205 57.621v491.86c0 21.676-8.309 42.629-24.205 57.621-14.27 15.896-35.043 25.108-56.718 25.108h-131.138l-75.143 80.923h-245.478l-75.323-80.923zM511.548 276.852c72.614 0 131.138 58.525 131.861 130.235 0 72.614-58.525 131.138-130.235 131.861-72.614 0-131.138-58.525-131.861-130.235 0-35.043 13.367-68.459 38.475-93.567 24.205-24.927 57.621-38.294 91.761-38.294z" />
<glyph unicode="&#xe90d;" glyph-name="add_wht" data-tags="add_wht" d="M409.6 960h204.8v-1024h-204.8v1024zM1024 550.4v-204.8h-1024v204.8h1024z" />
<glyph unicode="&#xe90e;" glyph-name="add" data-tags="add" d="M384.023 960h255.955v-1024h-255.955v1024zM1024.053 575.977v-255.955h-1024v255.955h1024z" />
<glyph unicode="&#xe90f;" glyph-name="album_icon_gry" data-tags="album_icon_gry" d="M123.904 144.896c-24.576 0-49.152 0-72.704 0-33.792 0-51.2 17.408-51.2 51.2 0 209.92 0 419.84 0 629.76 0 32.768 18.432 50.176 50.176 50.176 266.24 0 532.48 0 798.72 0 25.6 0 51.2-17.408 50.176-50.176-1.024-21.504 0-43.008 0-64.512 0-3.072 0-6.144 1.024-11.264 25.6 0 50.176 0 75.776 0 7.168 0 14.336-1.024 20.48-3.072 18.432-7.168 28.672-22.528 28.672-45.056 0-137.216 0-275.456 0-412.672 0-73.728 0-147.456 0-221.184 0-30.72-18.432-49.152-49.152-49.152-266.24 0-532.48 0-798.72 0-28.672 0-53.248 18.432-51.2 51.2 1.024 23.552 0 47.104 0 70.656-1.024 1.024-1.024 2.048-2.048 4.096zM940.032 103.936c0 188.416 0 375.808 0 563.2-243.712 0-486.4 0-730.112 0 0-188.416 0-375.808 0-563.2 243.712 0 486.4 0 730.112 0zM124.928 228.864c0 3.072 0 6.144 0 8.192 0 41.984 0 84.992 0 126.976 0 112.64 0 226.304 0 338.944 0 24.576 13.312 41.984 35.84 46.080 7.168 1.024 14.336 1.024 21.504 1.024 206.848 0 413.696 0 620.544 0 3.072 0 7.168 0 10.24 0 0 14.336 0 27.648 0 41.984-243.712 0-486.4 0-730.112 0 0-188.416 0-375.808 0-563.2 14.336 0 27.648 0 41.984 0zM898.048 153.088c-216.064 0-430.080 0-646.144 0 2.048 3.072 3.072 6.144 5.12 8.192 51.2 74.752 103.424 148.48 154.624 223.232 12.288 18.432 24.576 18.432 37.888 1.024 18.432-23.552 36.864-48.128 54.272-71.68 14.336-18.432 25.6-18.432 38.912 0 45.056 59.392 91.136 119.808 136.192 179.2 14.336 18.432 24.576 18.432 38.912 0 57.344-76.8 115.712-152.576 173.056-229.376 4.096-5.12 6.144-12.288 6.144-18.432 1.024-30.72 1.024-61.44 1.024-92.16zM388.096 616.96c40.96 0 73.728-32.768 73.728-72.704 0-40.96-32.768-73.728-73.728-73.728-39.936 0-72.704 32.768-72.704 73.728 0 39.936 31.744 72.704 72.704 72.704z" />
<glyph unicode="&#xe910;" glyph-name="album_icon_red" data-tags="album_icon_red" d="M123.904 144.896c-24.576 0-49.152 0-72.704 0-33.792 0-51.2 17.408-51.2 51.2 0 209.92 0 419.84 0 629.76 0 32.768 18.432 50.176 50.176 50.176 266.24 0 532.48 0 798.72 0 25.6 0 51.2-17.408 50.176-50.176-1.024-21.504 0-43.008 0-64.512 0-3.072 0-6.144 1.024-11.264 25.6 0 50.176 0 75.776 0 7.168 0 14.336-1.024 20.48-3.072 18.432-7.168 28.672-22.528 28.672-45.056 0-137.216 0-275.456 0-412.672 0-73.728 0-147.456 0-221.184 0-30.72-18.432-49.152-49.152-49.152-266.24 0-532.48 0-798.72 0-28.672 0-53.248 18.432-51.2 51.2 1.024 23.552 0 47.104 0 70.656-1.024 1.024-1.024 2.048-2.048 4.096zM940.032 103.936c0 188.416 0 375.808 0 563.2-243.712 0-486.4 0-730.112 0 0-188.416 0-375.808 0-563.2 243.712 0 486.4 0 730.112 0zM124.928 228.864c0 3.072 0 6.144 0 8.192 0 41.984 0 84.992 0 126.976 0 112.64 0 226.304 0 338.944 0 24.576 13.312 41.984 35.84 46.080 7.168 1.024 14.336 1.024 21.504 1.024 206.848 0 413.696 0 620.544 0 3.072 0 7.168 0 10.24 0 0 14.336 0 27.648 0 41.984-243.712 0-486.4 0-730.112 0 0-188.416 0-375.808 0-563.2 14.336 0 27.648 0 41.984 0zM898.048 153.088c-216.064 0-430.080 0-646.144 0 2.048 3.072 3.072 6.144 5.12 8.192 51.2 74.752 103.424 148.48 154.624 223.232 12.288 18.432 24.576 18.432 37.888 1.024 18.432-23.552 36.864-48.128 54.272-71.68 14.336-18.432 25.6-18.432 38.912 0 45.056 59.392 91.136 119.808 136.192 179.2 14.336 18.432 24.576 18.432 38.912 0 57.344-76.8 115.712-152.576 173.056-229.376 4.096-5.12 6.144-12.288 6.144-18.432 1.024-30.72 1.024-61.44 1.024-92.16zM388.096 616.96c40.96 0 73.728-32.768 73.728-72.704 0-40.96-32.768-73.728-73.728-73.728-39.936 0-72.704 32.768-72.704 73.728 0 39.936 31.744 72.704 72.704 72.704z" />
<glyph unicode="&#xe911;" glyph-name="american_football_icon_drk" data-tags="american_football_icon_drk" d="M684.544 281.088c61.952 22.528 119.296 52.736 174.592 87.552 6.144 3.584 11.776 7.68 17.92 11.776 17.408 11.264 34.304 6.656 43.008-12.288 19.456-43.52 38.912-86.528 58.368-130.048 13.824-30.72 27.648-61.44 41.472-92.16 8.704-19.456 3.584-32.768-15.36-41.984-58.368-27.136-118.272-46.592-182.784-48.64-43.52-1.536-84.992 5.632-121.344 31.744-2.56 2.048-7.168 2.56-10.752 1.536-53.76-13.312-108.032-21.504-162.816-25.088-7.168-0.512-14.336-3.072-20.48-7.168-63.488-38.4-127.488-39.936-192-4.608-20.992 11.776-41.472 24.576-62.464 36.352-16.896 9.728-29.184 8.704-43.52-4.096-33.28-29.184-76.8-25.6-105.472 8.192-48.64 55.296-74.752 120.32-89.6 190.464-20.48 98.816-18.432 197.12 11.776 293.888 39.936 128 125.952 214.016 249.344 260.608 162.816 60.928 315.392 36.864 452.608-70.144 30.208-23.552 56.832-52.736 83.968-80.384 17.408-17.92 12.288-46.592-10.24-61.952-43.008-29.696-86.528-58.88-129.536-88.064-14.848-10.24-30.208-19.968-45.056-30.72-2.56-2.048-5.12-7.68-4.096-10.752 19.456-70.144 39.936-139.776 59.904-209.92 0.512-1.536 1.536-2.048 2.56-4.096zM405.504 140.288c41.984 0 75.776 33.28 75.264 74.752 0 40.96-34.304 74.752-75.264 74.24-40.448-0.512-74.24-33.792-74.24-74.24 0.512-40.96 33.28-74.752 74.24-74.752zM882.176 318.976c-58.88-36.864-119.296-67.584-183.808-90.624 7.168-25.6 14.336-49.664 21.504-74.752 70.144 23.040 134.144 54.784 191.488 101.376-9.728 21.504-19.456 42.496-29.184 64zM581.12 252.928c18.432 4.096 33.792 7.68 50.688 11.264-18.432 64.512-36.864 128-55.296 192.512-17.408-20.992-29.696-62.976-23.552-92.16 7.68-36.864 18.432-73.216 28.16-111.616zM934.4 203.776c-50.176-38.912-103.936-67.072-160.768-90.624 66.048-12.288 126.976 6.144 187.904 30.208-9.728 20.992-17.92 39.936-27.136 60.416zM564.736 119.296c35.84 6.144 69.12 12.288 103.424 18.432-7.68 26.112-14.336 49.664-21.504 74.24-18.944-4.096-36.864-7.68-54.784-11.264-1.536-0.512-4.096-3.072-4.096-5.12-2.56-26.112-9.728-50.176-23.040-76.288z" />
<glyph unicode="&#xe912;" glyph-name="american_football_icon_wht" data-tags="american_football_icon_wht" d="M684.544 281.088c61.952 22.528 119.296 52.736 174.592 87.552 6.144 3.584 11.776 7.68 17.92 11.776 17.408 11.264 34.304 6.656 43.008-12.288 19.456-43.52 38.912-86.528 58.368-130.048 13.824-30.72 27.648-61.44 41.472-92.16 8.704-19.456 3.584-32.768-15.36-41.984-58.368-27.136-118.272-46.592-182.784-48.64-43.52-1.536-84.992 5.632-121.344 31.744-2.56 2.048-7.168 2.56-10.752 1.536-53.76-13.312-108.032-21.504-162.816-25.088-7.168-0.512-14.336-3.072-20.48-7.168-63.488-38.4-127.488-39.936-192-4.608-20.992 11.776-41.472 24.576-62.464 36.352-16.896 9.728-29.184 8.704-43.52-4.096-33.28-29.184-76.8-25.6-105.472 8.192-48.64 55.296-74.752 120.32-89.6 190.464-20.48 98.816-18.432 197.12 11.776 293.888 39.936 128 125.952 214.016 249.344 260.608 162.816 60.928 315.392 36.864 452.608-70.144 30.208-23.552 56.832-52.736 83.968-80.384 17.408-17.92 12.288-46.592-10.24-61.952-43.008-29.696-86.528-58.88-129.536-88.064-14.848-10.24-30.208-19.968-45.056-30.72-2.56-2.048-5.12-7.68-4.096-10.752 19.456-70.144 39.936-139.776 59.904-209.92 0.512-1.536 1.536-2.048 2.56-4.096zM405.504 140.288c41.984 0 75.776 33.28 75.264 74.752 0 40.96-34.304 74.752-75.264 74.24-40.448-0.512-74.24-33.792-74.24-74.24 0.512-40.96 33.28-74.752 74.24-74.752zM882.176 318.976c-58.88-36.864-119.296-67.584-183.808-90.624 7.168-25.6 14.336-49.664 21.504-74.752 70.144 23.040 134.144 54.784 191.488 101.376-9.728 21.504-19.456 42.496-29.184 64zM581.12 252.928c18.432 4.096 33.792 7.68 50.688 11.264-18.432 64.512-36.864 128-55.296 192.512-17.408-20.992-29.696-62.976-23.552-92.16 7.68-36.864 18.432-73.216 28.16-111.616zM934.4 203.776c-50.176-38.912-103.936-67.072-160.768-90.624 66.048-12.288 126.976 6.144 187.904 30.208-9.728 20.992-17.92 39.936-27.136 60.416zM564.736 119.296c35.84 6.144 69.12 12.288 103.424 18.432-7.68 26.112-14.336 49.664-21.504 74.24-18.944-4.096-36.864-7.68-54.784-11.264-1.536-0.512-4.096-3.072-4.096-5.12-2.56-26.112-9.728-50.176-23.040-76.288z" />
<glyph unicode="&#xe913;" glyph-name="american_football_icon" data-tags="american_football_icon" d="M684.544 281.088c61.952 22.528 119.296 52.736 174.592 87.552 6.144 3.584 11.776 7.68 17.92 11.776 17.408 11.264 34.304 6.656 43.008-12.288 19.456-43.52 38.912-86.528 58.368-130.048 13.824-30.72 27.648-61.44 41.472-92.16 8.704-19.456 3.584-32.768-15.36-41.984-58.368-27.136-118.272-46.592-182.784-48.64-43.52-1.536-84.992 5.632-121.344 31.744-2.56 2.048-7.168 2.56-10.752 1.536-53.76-13.312-108.032-21.504-162.816-25.088-7.168-0.512-14.336-3.072-20.48-7.168-63.488-38.4-127.488-39.936-192-4.608-20.992 11.776-41.472 24.576-62.464 36.352-16.896 9.728-29.184 8.704-43.52-4.096-33.28-29.184-76.8-25.6-105.472 8.192-48.64 55.296-74.752 120.32-89.6 190.464-20.48 98.816-18.432 197.12 11.776 293.888 39.936 128 125.952 214.016 249.344 260.608 162.816 60.928 315.392 36.864 452.608-70.144 30.208-23.552 56.832-52.736 83.968-80.384 17.408-17.92 12.288-46.592-10.24-61.952-43.008-29.696-86.528-58.88-129.536-88.064-14.848-10.24-30.208-19.968-45.056-30.72-2.56-2.048-5.12-7.68-4.096-10.752 19.456-70.144 39.936-139.776 59.904-209.92 0.512-1.536 1.536-2.048 2.56-4.096zM405.504 140.288c41.984 0 75.776 33.28 75.264 74.752 0 40.96-34.304 74.752-75.264 74.24-40.448-0.512-74.24-33.792-74.24-74.24 0.512-40.96 33.28-74.752 74.24-74.752zM882.176 318.976c-58.88-36.864-119.296-67.584-183.808-90.624 7.168-25.6 14.336-49.664 21.504-74.752 70.144 23.040 134.144 54.784 191.488 101.376-9.728 21.504-19.456 42.496-29.184 64zM581.12 252.928c18.432 4.096 33.792 7.68 50.688 11.264-18.432 64.512-36.864 128-55.296 192.512-17.408-20.992-29.696-62.976-23.552-92.16 7.68-36.864 18.432-73.216 28.16-111.616zM934.4 203.776c-50.176-38.912-103.936-67.072-160.768-90.624 66.048-12.288 126.976 6.144 187.904 30.208-9.728 20.992-17.92 39.936-27.136 60.416zM564.736 119.296c35.84 6.144 69.12 12.288 103.424 18.432-7.68 26.112-14.336 49.664-21.504 74.24-18.944-4.096-36.864-7.68-54.784-11.264-1.536-0.512-4.096-3.072-4.096-5.12-2.56-26.112-9.728-50.176-23.040-76.288z" />
<glyph unicode="&#xe914;" glyph-name="archery_icon_drk" data-tags="archery_icon_drk" d="M891.392 649.728c110.592-187.904 78.336-452.608-112.64-606.72-190.976-154.624-467.456-139.776-640 33.792-173.056 174.592-185.856 452.608-28.672 641.536 157.184 189.44 419.84 217.6 605.696 107.52-24.064-22.528-46.080-44.544-70.144-64.512-5.12-4.096-17.92-2.56-26.112 1.024-145.92 58.368-312.32 23.040-417.28-93.696-101.888-113.152-128-245.248-75.264-387.072 51.712-139.264 157.184-221.184 304.128-241.152 205.312-28.16 394.24 121.344 419.84 325.12 8.192 66.56-0.512 130.048-25.6 191.488-4.608 11.776-5.632 19.968 5.12 29.696 20.48 19.968 39.424 40.96 60.928 62.976zM744.448 501.76c43.52-122.368-7.168-260.096-118.784-329.216-113.152-69.632-259.584-50.688-352.256 45.568-91.648 95.744-104.448 243.712-29.696 354.304 69.632 103.424 211.456 152.064 324.608 106.496-26.112-24.576-49.664-47.104-74.752-69.12-4.608-4.096-13.312-5.632-19.968-5.632-114.688-5.12-195.584-98.816-184.32-214.016 10.24-103.936 111.616-180.224 219.648-164.352 84.992 12.288 155.648 91.136 158.72 177.664 0.512 16.384 5.632 27.136 16.896 37.888 19.968 18.944 38.912 38.912 59.904 60.416zM907.776 960c4.096-28.672 8.704-50.688 9.728-73.728 1.024-22.016 9.728-31.744 32.256-33.28 23.552-1.536 46.592-6.144 74.752-9.728-45.056-45.056-86.528-87.552-129.536-128.512-5.12-4.608-16.896-4.608-25.088-3.072-17.408 2.56-30.208-2.048-43.008-15.36-78.848-80.384-158.72-159.744-238.592-239.616-10.24-10.24-15.36-19.968-14.336-35.84 4.608-57.344-36.864-102.4-92.672-103.936-57.344-1.536-99.328 39.936-98.816 97.792 0.512 55.808 45.568 98.304 102.4 93.696 16.896-1.536 27.136 4.096 37.888 15.36 78.848 79.36 157.696 158.72 237.568 237.056 13.824 13.824 17.408 26.624 16.384 45.056-0.512 10.24 3.584 24.064 10.752 31.232 37.376 40.96 77.312 79.872 120.32 122.88z" />
<glyph unicode="&#xe915;" glyph-name="archery_icon_wht" data-tags="archery_icon_wht" d="M891.392 649.728c110.592-187.904 78.336-452.608-112.64-606.72-190.976-154.624-467.456-139.776-640 33.792-173.056 174.592-185.856 452.608-28.672 641.536 157.184 189.44 419.84 217.6 605.696 107.52-24.064-22.528-46.080-44.544-70.144-64.512-5.12-4.096-17.92-2.56-26.112 1.024-145.92 58.368-312.32 23.040-417.28-93.696-101.888-113.152-128-245.248-75.264-387.072 51.712-139.264 157.184-221.184 304.128-241.152 205.312-28.16 394.24 121.344 419.84 325.12 8.192 66.56-0.512 130.048-25.6 191.488-4.608 11.776-5.632 19.968 5.12 29.696 20.48 19.968 39.424 40.96 60.928 62.976zM744.448 501.76c43.52-122.368-7.168-260.096-118.784-329.216-113.152-69.632-259.584-50.688-352.256 45.568-91.648 95.744-104.448 243.712-29.696 354.304 69.632 103.424 211.456 152.064 324.608 106.496-26.112-24.576-49.664-47.104-74.752-69.12-4.608-4.096-13.312-5.632-19.968-5.632-114.688-5.12-195.584-98.816-184.32-214.016 10.24-103.936 111.616-180.224 219.648-164.352 84.992 12.288 155.648 91.136 158.72 177.664 0.512 16.384 5.632 27.136 16.896 37.888 19.968 18.944 38.912 38.912 59.904 60.416zM907.776 960c4.096-28.672 8.704-50.688 9.728-73.728 1.024-22.016 9.728-31.744 32.256-33.28 23.552-1.536 46.592-6.144 74.752-9.728-45.056-45.056-86.528-87.552-129.536-128.512-5.12-4.608-16.896-4.608-25.088-3.072-17.408 2.56-30.208-2.048-43.008-15.36-78.848-80.384-158.72-159.744-238.592-239.616-10.24-10.24-15.36-19.968-14.336-35.84 4.608-57.344-36.864-102.4-92.672-103.936-57.344-1.536-99.328 39.936-98.816 97.792 0.512 55.808 45.568 98.304 102.4 93.696 16.896-1.536 27.136 4.096 37.888 15.36 78.848 79.36 157.696 158.72 237.568 237.056 13.824 13.824 17.408 26.624 16.384 45.056-0.512 10.24 3.584 24.064 10.752 31.232 37.376 40.96 77.312 79.872 120.32 122.88z" />
<glyph unicode="&#xe916;" glyph-name="archery_icon" data-tags="archery_icon" d="M891.392 649.728c110.592-187.904 78.336-452.608-112.64-606.72-190.976-154.624-467.456-139.776-640 33.792-173.056 174.592-185.856 452.608-28.672 641.536 157.184 189.44 419.84 217.6 605.696 107.52-24.064-22.528-46.080-44.544-70.144-64.512-5.12-4.096-17.92-2.56-26.112 1.024-145.92 58.368-312.32 23.040-417.28-93.696-101.888-113.152-128-245.248-75.264-387.072 51.712-139.264 157.184-221.184 304.128-241.152 205.312-28.16 394.24 121.344 419.84 325.12 8.192 66.56-0.512 130.048-25.6 191.488-4.608 11.776-5.632 19.968 5.12 29.696 20.48 19.968 39.424 40.96 60.928 62.976zM744.448 501.76c43.52-122.368-7.168-260.096-118.784-329.216-113.152-69.632-259.584-50.688-352.256 45.568-91.648 95.744-104.448 243.712-29.696 354.304 69.632 103.424 211.456 152.064 324.608 106.496-26.112-24.576-49.664-47.104-74.752-69.12-4.608-4.096-13.312-5.632-19.968-5.632-114.688-5.12-195.584-98.816-184.32-214.016 10.24-103.936 111.616-180.224 219.648-164.352 84.992 12.288 155.648 91.136 158.72 177.664 0.512 16.384 5.632 27.136 16.896 37.888 19.968 18.944 38.912 38.912 59.904 60.416zM907.776 960c4.096-28.672 8.704-50.688 9.728-73.728 1.024-22.016 9.728-31.744 32.256-33.28 23.552-1.536 46.592-6.144 74.752-9.728-45.056-45.056-86.528-87.552-129.536-128.512-5.12-4.608-16.896-4.608-25.088-3.072-17.408 2.56-30.208-2.048-43.008-15.36-78.848-80.384-158.72-159.744-238.592-239.616-10.24-10.24-15.36-19.968-14.336-35.84 4.608-57.344-36.864-102.4-92.672-103.936-57.344-1.536-99.328 39.936-98.816 97.792 0.512 55.808 45.568 98.304 102.4 93.696 16.896-1.536 27.136 4.096 37.888 15.36 78.848 79.36 157.696 158.72 237.568 237.056 13.824 13.824 17.408 26.624 16.384 45.056-0.512 10.24 3.584 24.064 10.752 31.232 37.376 40.96 77.312 79.872 120.32 122.88z" />
<glyph unicode="&#xe917;" glyph-name="athletics_icon_drk" data-tags="athletics_icon_drk" d="M388.096-64c-203.776 0-356.352 129.536-382.976 306.176-17.92 117.248 13.312 221.696 95.744 306.688 101.888 105.472 205.824 208.896 310.784 310.784 79.36 76.8 176.128 108.544 286.208 97.28 168.448-16.896 301.056-144.384 323.072-312.32 15.36-118.272-19.968-221.696-104.448-306.688-98.304-99.328-197.632-198.144-296.448-296.448-71.168-69.632-157.696-103.936-231.936-105.472zM662.016 922.112c-80.896 0.512-164.352-30.208-220.672-86.016-106.496-104.96-213.504-209.92-317.44-317.952-69.12-71.68-95.232-160.768-82.944-259.584 20.48-163.328 153.6-273.92 298.496-283.136 94.208-6.144 177.664 21.504 245.76 87.040 104.448 101.376 206.848 204.288 308.736 308.224 74.24 76.288 102.912 168.96 88.064 274.944-22.528 156.672-159.744 275.456-320 276.48zM660.48 883.712c140.8 0 261.12-102.4 282.624-241.152 14.848-96.256-12.288-179.712-80.384-248.832-98.816-100.352-197.632-200.192-298.496-297.984-79.36-77.312-175.616-101.888-281.6-70.656-105.472 30.72-173.056 102.4-198.144 209.408-24.576 102.912 3.072 194.048 77.312 269.824 97.28 99.328 196.096 197.12 294.912 294.912 16.384 15.872 34.816 30.208 53.76 42.496 44.032 27.648 97.792 41.984 150.016 41.984zM114.688 293.376c0.512-6.656 1.024-19.456 3.072-31.744 29.184-187.392 246.784-274.432 396.8-158.72 9.728 7.68 18.944 15.872 27.648 24.576 96.768 96.768 194.048 193.536 290.816 290.816 62.464 62.464 88.064 138.752 71.168 224.768-17.92 94.208-74.752 159.744-165.888 189.44-92.16 30.208-178.176 12.288-247.808-55.296-104.448-100.352-205.824-203.776-307.712-307.2-46.080-47.104-67.072-104.96-68.096-176.64zM152.576 297.472c1.024 57.856 18.944 107.008 58.368 146.944 101.376 102.4 202.24 204.8 305.152 304.64 59.904 58.368 133.632 73.728 212.48 46.592 76.8-26.112 124.416-81.92 138.752-162.304 12.8-70.144-6.656-132.608-56.832-183.296-99.328-100.864-199.168-201.216-300.032-300.032-60.928-59.392-135.168-76.288-215.552-48.64-79.36 27.136-125.44 85.504-140.288 168.448-1.536 9.216-1.536 19.456-2.048 27.648zM192 300.544c0-7.68-1.024-15.36 0-22.528 10.752-68.096 47.616-116.736 112.64-139.776 66.048-23.552 128-10.752 178.176 38.4 100.864 99.328 200.192 199.68 300.032 300.032 38.4 38.912 54.784 87.040 48.128 140.8-8.704 68.608-47.104 117.76-112.64 141.312-66.048 23.552-128 10.752-178.176-38.912-100.864-99.328-200.192-199.68-300.032-300.032-32.256-32.768-48.128-73.216-48.128-119.296z" />
<glyph unicode="&#xe918;" glyph-name="athletics_icon_wht" data-tags="athletics_icon_wht" d="M388.096-64c-203.776 0-356.352 129.536-382.976 306.176-17.92 117.248 13.312 221.696 95.744 306.688 101.888 105.472 205.824 208.896 310.784 310.784 79.36 76.8 176.128 108.544 286.208 97.28 168.448-16.896 301.056-144.384 323.072-312.32 15.36-118.272-19.968-221.696-104.448-306.688-98.304-99.328-197.632-198.144-296.448-296.448-71.168-69.632-157.696-103.936-231.936-105.472zM662.016 922.112c-80.896 0.512-164.352-30.208-220.672-86.016-106.496-104.96-213.504-209.92-317.44-317.952-69.12-71.68-95.232-160.768-82.944-259.584 20.48-163.328 153.6-273.92 298.496-283.136 94.208-6.144 177.664 21.504 245.76 87.040 104.448 101.376 206.848 204.288 308.736 308.224 74.24 76.288 102.912 168.96 88.064 274.944-22.528 156.672-159.744 275.456-320 276.48zM660.48 883.712c140.8 0 261.12-102.4 282.624-241.152 14.848-96.256-12.288-179.712-80.384-248.832-98.816-100.352-197.632-200.192-298.496-297.984-79.36-77.312-175.616-101.888-281.6-70.656-105.472 30.72-173.056 102.4-198.144 209.408-24.576 102.912 3.072 194.048 77.312 269.824 97.28 99.328 196.096 197.12 294.912 294.912 16.384 15.872 34.816 30.208 53.76 42.496 44.032 27.648 97.792 41.984 150.016 41.984zM114.688 293.376c0.512-6.656 1.024-19.456 3.072-31.744 29.184-187.392 246.784-274.432 396.8-158.72 9.728 7.68 18.944 15.872 27.648 24.576 96.768 96.768 194.048 193.536 290.816 290.816 62.464 62.464 88.064 138.752 71.168 224.768-17.92 94.208-74.752 159.744-165.888 189.44-92.16 30.208-178.176 12.288-247.808-55.296-104.448-100.352-205.824-203.776-307.712-307.2-46.080-47.104-67.072-104.96-68.096-176.64zM152.576 297.472c1.024 57.856 18.944 107.008 58.368 146.944 101.376 102.4 202.24 204.8 305.152 304.64 59.904 58.368 133.632 73.728 212.48 46.592 76.8-26.112 124.416-81.92 138.752-162.304 12.8-70.144-6.656-132.608-56.832-183.296-99.328-100.864-199.168-201.216-300.032-300.032-60.928-59.392-135.168-76.288-215.552-48.64-79.36 27.136-125.44 85.504-140.288 168.448-1.536 9.216-1.536 19.456-2.048 27.648zM192 300.544c0-7.68-1.024-15.36 0-22.528 10.752-68.096 47.616-116.736 112.64-139.776 66.048-23.552 128-10.752 178.176 38.4 100.864 99.328 200.192 199.68 300.032 300.032 38.4 38.912 54.784 87.040 48.128 140.8-8.704 68.608-47.104 117.76-112.64 141.312-66.048 23.552-128 10.752-178.176-38.912-100.864-99.328-200.192-199.68-300.032-300.032-32.256-32.768-48.128-73.216-48.128-119.296z" />
<glyph unicode="&#xe919;" glyph-name="athletics_icon" data-tags="athletics_icon" d="M388.096-64c-203.776 0-356.352 129.536-382.976 306.176-17.92 117.248 13.312 221.696 95.744 306.688 101.888 105.472 205.824 208.896 310.784 310.784 79.36 76.8 176.128 108.544 286.208 97.28 168.448-16.896 301.056-144.384 323.072-312.32 15.36-118.272-19.968-221.696-104.448-306.688-98.304-99.328-197.632-198.144-296.448-296.448-71.168-69.632-157.696-103.936-231.936-105.472zM662.016 922.112c-80.896 0.512-164.352-30.208-220.672-86.016-106.496-104.96-213.504-209.92-317.44-317.952-69.12-71.68-95.232-160.768-82.944-259.584 20.48-163.328 153.6-273.92 298.496-283.136 94.208-6.144 177.664 21.504 245.76 87.040 104.448 101.376 206.848 204.288 308.736 308.224 74.24 76.288 102.912 168.96 88.064 274.944-22.528 156.672-159.744 275.456-320 276.48zM660.48 883.712c140.8 0 261.12-102.4 282.624-241.152 14.848-96.256-12.288-179.712-80.384-248.832-98.816-100.352-197.632-200.192-298.496-297.984-79.36-77.312-175.616-101.888-281.6-70.656-105.472 30.72-173.056 102.4-198.144 209.408-24.576 102.912 3.072 194.048 77.312 269.824 97.28 99.328 196.096 197.12 294.912 294.912 16.384 15.872 34.816 30.208 53.76 42.496 44.032 27.648 97.792 41.984 150.016 41.984zM114.688 293.376c0.512-6.656 1.024-19.456 3.072-31.744 29.184-187.392 246.784-274.432 396.8-158.72 9.728 7.68 18.944 15.872 27.648 24.576 96.768 96.768 194.048 193.536 290.816 290.816 62.464 62.464 88.064 138.752 71.168 224.768-17.92 94.208-74.752 159.744-165.888 189.44-92.16 30.208-178.176 12.288-247.808-55.296-104.448-100.352-205.824-203.776-307.712-307.2-46.080-47.104-67.072-104.96-68.096-176.64zM152.576 297.472c1.024 57.856 18.944 107.008 58.368 146.944 101.376 102.4 202.24 204.8 305.152 304.64 59.904 58.368 133.632 73.728 212.48 46.592 76.8-26.112 124.416-81.92 138.752-162.304 12.8-70.144-6.656-132.608-56.832-183.296-99.328-100.864-199.168-201.216-300.032-300.032-60.928-59.392-135.168-76.288-215.552-48.64-79.36 27.136-125.44 85.504-140.288 168.448-1.536 9.216-1.536 19.456-2.048 27.648zM192 300.544c0-7.68-1.024-15.36 0-22.528 10.752-68.096 47.616-116.736 112.64-139.776 66.048-23.552 128-10.752 178.176 38.4 100.864 99.328 200.192 199.68 300.032 300.032 38.4 38.912 54.784 87.040 48.128 140.8-8.704 68.608-47.104 117.76-112.64 141.312-66.048 23.552-128 10.752-178.176-38.912-100.864-99.328-200.192-199.68-300.032-300.032-32.256-32.768-48.128-73.216-48.128-119.296z" />
<glyph unicode="&#xe91a;" glyph-name="audio_icon" data-tags="audio_icon" d="M28.467 476.279v-377.394c1.216-88.427 72.577-159.788 160.889-161.003l0.116-0.001h161.004v430.203h-213.814v108.195c0 207.006 167.812 374.818 374.818 374.818s374.818-167.812 374.818-374.818v-108.195h-213.814v-430.203h161.004c88.427 1.216 159.788 72.577 161.003 160.889l0.001 0.116v377.394c0 266.761-216.252 483.013-483.013 483.013s-483.013-216.252-483.013-483.013v0 0z" />
<glyph unicode="&#xe91b;" glyph-name="aussie_rules_football_icon_drk" data-tags="aussie_rules_football_icon_drk" d="M811.008 960c31.232-4.608 62.464-9.216 93.696-14.336 10.24-1.536 20.48-5.12 36.352-9.728-125.44-49.152-232.96-117.76-333.824-202.24-18.944 15.872-37.888 31.232-58.368 48.128-9.728-11.776-18.944-22.528-28.672-33.792 16.896-14.848 32.768-28.672 50.176-43.52-8.192-7.68-15.872-14.848-24.576-23.552-17.92 14.336-35.328 28.672-53.76 43.52-9.728-11.264-18.944-21.504-29.696-33.28 15.872-13.312 31.232-26.624 49.152-41.984-10.24-7.68-19.968-14.848-30.208-23.040-12.8 10.24-28.672 23.040-46.080 37.376-9.728-11.264-18.944-22.016-29.184-33.792 14.848-13.824 29.184-27.648 44.032-41.472-6.144-7.168-11.776-14.336-18.432-22.016-17.408 13.824-32.768 26.624-50.176 40.448-10.24-11.776-18.944-22.016-28.672-33.792 14.336-13.824 28.672-26.624 44.032-40.96-7.68-9.216-14.848-16.896-22.016-25.6-15.36 13.312-29.696 25.6-45.056 38.912-7.168-9.728-13.824-18.432-21.504-29.184 14.848-13.824 28.672-26.624 44.032-40.96-119.808-141.312-223.744-291.328-313.344-452.096-2.56-0.512-4.608-0.512-7.168-1.024-6.144 34.304-12.288 68.096-17.92 102.4-2.048 11.264-3.072 22.016-5.12 33.28 0 27.136 0 54.784 0 81.92 1.536 6.656 4.096 12.8 4.096 19.456 3.584 83.456 19.968 164.864 46.592 244.224 33.792 102.912 82.944 197.12 164.352 270.336 120.832 108.544 267.264 155.648 424.448 176.64 26.624 3.584 53.76 6.144 80.384 9.728 27.648 0 54.784 0 82.432 0zM391.168 424.96c16.384-13.312 30.208-23.552 45.056-35.328 10.24 11.264 19.456 21.504 29.696 33.28-14.848 12.288-28.16 23.552-43.52 36.352 6.656 8.704 13.312 17.408 20.48 27.136 14.336-12.288 27.648-23.040 41.984-35.328 9.728 11.264 18.944 22.016 29.184 33.792-13.312 12.288-26.112 24.064-39.424 35.84 6.656 7.68 13.312 14.848 20.992 23.552 14.848-12.8 27.648-24.064 41.984-36.352 9.728 11.264 18.432 21.504 28.672 33.792-12.8 10.752-25.088 21.504-39.424 33.28 9.728 8.192 18.432 15.36 28.672 24.064 11.264-8.704 24.064-18.432 38.912-29.696 9.216 10.752 18.944 21.504 29.184 33.28-12.288 11.264-23.552 21.504-35.328 32.256 8.704 7.168 16.896 13.824 26.624 21.504 10.24-8.192 19.968-15.872 32.256-25.6 9.216 9.728 18.944 19.968 30.208 32.256-9.216 8.704-17.408 15.872-27.648 25.088 101.888 83.456 208.896 155.648 335.36 211.968 9.216-38.4 21.504-73.216 25.088-109.056 17.408-171.008-10.752-334.848-81.408-491.008-77.312-172.032-216.064-270.336-392.192-322.048-119.296-35.328-241.664-49.664-366.080-36.864-28.16 3.072-56.32 10.752-88.064 16.896 88.064 167.936 187.904 322.56 308.736 466.944z" />
<glyph unicode="&#xe91c;" glyph-name="aussie_rules_football_icon_wht" data-tags="aussie_rules_football_icon_wht" d="M811.008 960c31.232-4.608 62.464-9.216 93.696-14.336 10.24-1.536 20.48-5.12 36.352-9.728-125.44-49.152-232.96-117.76-333.824-202.24-18.944 15.872-37.888 31.232-58.368 48.128-9.728-11.776-18.944-22.528-28.672-33.792 16.896-14.848 32.768-28.672 50.176-43.52-8.192-7.68-15.872-14.848-24.576-23.552-17.92 14.336-35.328 28.672-53.76 43.52-9.728-11.264-18.944-21.504-29.696-33.28 15.872-13.312 31.232-26.624 49.152-41.984-10.24-7.68-19.968-14.848-30.208-23.040-12.8 10.24-28.672 23.040-46.080 37.376-9.728-11.264-18.944-22.016-29.184-33.792 14.848-13.824 29.184-27.648 44.032-41.472-6.144-7.168-11.776-14.336-18.432-22.016-17.408 13.824-32.768 26.624-50.176 40.448-10.24-11.776-18.944-22.016-28.672-33.792 14.336-13.824 28.672-26.624 44.032-40.96-7.68-9.216-14.848-16.896-22.016-25.6-15.36 13.312-29.696 25.6-45.056 38.912-7.168-9.728-13.824-18.432-21.504-29.184 14.848-13.824 28.672-26.624 44.032-40.96-119.808-141.312-223.744-291.328-313.344-452.096-2.56-0.512-4.608-0.512-7.168-1.024-6.144 34.304-12.288 68.096-17.92 102.4-2.048 11.264-3.072 22.016-5.12 33.28 0 27.136 0 54.784 0 81.92 1.536 6.656 4.096 12.8 4.096 19.456 3.584 83.456 19.968 164.864 46.592 244.224 33.792 102.912 82.944 197.12 164.352 270.336 120.832 108.544 267.264 155.648 424.448 176.64 26.624 3.584 53.76 6.144 80.384 9.728 27.648 0 54.784 0 82.432 0zM391.168 424.96c16.384-13.312 30.208-23.552 45.056-35.328 10.24 11.264 19.456 21.504 29.696 33.28-14.848 12.288-28.16 23.552-43.52 36.352 6.656 8.704 13.312 17.408 20.48 27.136 14.336-12.288 27.648-23.040 41.984-35.328 9.728 11.264 18.944 22.016 29.184 33.792-13.312 12.288-26.112 24.064-39.424 35.84 6.656 7.68 13.312 14.848 20.992 23.552 14.848-12.8 27.648-24.064 41.984-36.352 9.728 11.264 18.432 21.504 28.672 33.792-12.8 10.752-25.088 21.504-39.424 33.28 9.728 8.192 18.432 15.36 28.672 24.064 11.264-8.704 24.064-18.432 38.912-29.696 9.216 10.752 18.944 21.504 29.184 33.28-12.288 11.264-23.552 21.504-35.328 32.256 8.704 7.168 16.896 13.824 26.624 21.504 10.24-8.192 19.968-15.872 32.256-25.6 9.216 9.728 18.944 19.968 30.208 32.256-9.216 8.704-17.408 15.872-27.648 25.088 101.888 83.456 208.896 155.648 335.36 211.968 9.216-38.4 21.504-73.216 25.088-109.056 17.408-171.008-10.752-334.848-81.408-491.008-77.312-172.032-216.064-270.336-392.192-322.048-119.296-35.328-241.664-49.664-366.080-36.864-28.16 3.072-56.32 10.752-88.064 16.896 88.064 167.936 187.904 322.56 308.736 466.944z" />
<glyph unicode="&#xe91d;" glyph-name="aussie_rules_football_icon" data-tags="aussie_rules_football_icon" d="M811.008 960c31.232-4.608 62.464-9.216 93.696-14.336 10.24-1.536 20.48-5.12 36.352-9.728-125.44-49.152-232.96-117.76-333.824-202.24-18.944 15.872-37.888 31.232-58.368 48.128-9.728-11.776-18.944-22.528-28.672-33.792 16.896-14.848 32.768-28.672 50.176-43.52-8.192-7.68-15.872-14.848-24.576-23.552-17.92 14.336-35.328 28.672-53.76 43.52-9.728-11.264-18.944-21.504-29.696-33.28 15.872-13.312 31.232-26.624 49.152-41.984-10.24-7.68-19.968-14.848-30.208-23.040-12.8 10.24-28.672 23.040-46.080 37.376-9.728-11.264-18.944-22.016-29.184-33.792 14.848-13.824 29.184-27.648 44.032-41.472-6.144-7.168-11.776-14.336-18.432-22.016-17.408 13.824-32.768 26.624-50.176 40.448-10.24-11.776-18.944-22.016-28.672-33.792 14.336-13.824 28.672-26.624 44.032-40.96-7.68-9.216-14.848-16.896-22.016-25.6-15.36 13.312-29.696 25.6-45.056 38.912-7.168-9.728-13.824-18.432-21.504-29.184 14.848-13.824 28.672-26.624 44.032-40.96-119.808-141.312-223.744-291.328-313.344-452.096-2.56-0.512-4.608-0.512-7.168-1.024-6.144 34.304-12.288 68.096-17.92 102.4-2.048 11.264-3.072 22.016-5.12 33.28 0 27.136 0 54.784 0 81.92 1.536 6.656 4.096 12.8 4.096 19.456 3.584 83.456 19.968 164.864 46.592 244.224 33.792 102.912 82.944 197.12 164.352 270.336 120.832 108.544 267.264 155.648 424.448 176.64 26.624 3.584 53.76 6.144 80.384 9.728 27.648 0 54.784 0 82.432 0zM391.168 424.96c16.384-13.312 30.208-23.552 45.056-35.328 10.24 11.264 19.456 21.504 29.696 33.28-14.848 12.288-28.16 23.552-43.52 36.352 6.656 8.704 13.312 17.408 20.48 27.136 14.336-12.288 27.648-23.040 41.984-35.328 9.728 11.264 18.944 22.016 29.184 33.792-13.312 12.288-26.112 24.064-39.424 35.84 6.656 7.68 13.312 14.848 20.992 23.552 14.848-12.8 27.648-24.064 41.984-36.352 9.728 11.264 18.432 21.504 28.672 33.792-12.8 10.752-25.088 21.504-39.424 33.28 9.728 8.192 18.432 15.36 28.672 24.064 11.264-8.704 24.064-18.432 38.912-29.696 9.216 10.752 18.944 21.504 29.184 33.28-12.288 11.264-23.552 21.504-35.328 32.256 8.704 7.168 16.896 13.824 26.624 21.504 10.24-8.192 19.968-15.872 32.256-25.6 9.216 9.728 18.944 19.968 30.208 32.256-9.216 8.704-17.408 15.872-27.648 25.088 101.888 83.456 208.896 155.648 335.36 211.968 9.216-38.4 21.504-73.216 25.088-109.056 17.408-171.008-10.752-334.848-81.408-491.008-77.312-172.032-216.064-270.336-392.192-322.048-119.296-35.328-241.664-49.664-366.080-36.864-28.16 3.072-56.32 10.752-88.064 16.896 88.064 167.936 187.904 322.56 308.736 466.944z" />
<glyph unicode="&#xe91e;" glyph-name="back_arrow_icon" data-tags="back_arrow_icon" horiz-adv-x="1022" d="M245.448 510.6l355.897 358.908-89.727 89.676-511.413-511.362 511.413-511.413 89.727 89.727-355.897 358.857h777.276v125.608h-777.276z" />
<glyph unicode="&#xe91f;" glyph-name="badmington_icon_drk" data-tags="badmington_icon_drk" d="M541.696-64c-59.392 15.36-109.568 45.056-136.192 102.4-13.824 29.696-19.456 62.464-29.184 95.744-128.512 19.968-166.4 57.856-177.664 181.76-17.408 2.56-35.328 4.096-52.736 8.192-76.8 18.432-133.12 80.384-144.896 159.744-7.168 46.592 22.016 97.792 73.728 121.856 52.736 24.576 107.008 45.568 160.768 67.584 109.568 45.056 219.648 89.088 328.704 134.656 13.824 5.632 22.016 5.12 33.28-6.144 42.496-44.032 86.528-87.040 132.096-132.096-71.68-55.296-141.824-109.568-211.456-162.816 17.92-17.408 34.816-33.792 53.76-51.712 52.224 67.584 107.008 138.752 162.304 210.432 46.592-47.104 91.648-91.648 136.192-137.728 4.096-4.096 5.632-15.36 3.584-20.992-65.024-161.792-131.072-323.072-196.608-484.352-18.944-46.592-53.248-76.288-102.912-86.528-11.776 0-22.016 0-32.768 0zM579.072 301.568c-28.672-37.888-56.32-70.144-79.36-104.96-35.328-53.248-18.944-122.368 33.28-151.552 26.112-14.848 40.448-10.752 51.712 16.896 21.504 50.688 41.984 101.376 61.952 152.576 2.048 5.632 1.024 15.36-2.56 19.456-20.48 21.504-41.472 43.008-65.024 67.584zM366.080 513.536c-25.088 24.576-46.080 45.568-67.584 65.536-4.096 3.584-13.824 5.632-18.944 3.584-52.736-20.48-104.96-41.472-156.672-64-24.576-10.24-27.648-23.552-15.36-47.104 22.016-43.008 67.584-62.976 116.736-50.688 56.32 14.336 90.112 62.464 141.824 92.672zM432.64 441.344c-36.864-28.672-74.24-55.808-109.568-84.992-30.72-25.6-31.744-77.312-4.608-103.424 26.624-25.6 76.8-24.064 101.888 5.632 29.696 35.84 57.344 73.728 84.992 109.056-24.576 25.088-48.128 48.64-72.704 73.728zM443.904 575.488c67.584 51.712 133.12 102.4 199.168 153.088-0.512 1.024-1.536 2.048-2.048 3.072-82.944-33.792-166.4-68.096-249.856-102.4 18.432-18.432 34.816-35.328 52.736-53.76zM794.624 576c-1.024 0.512-2.048 1.024-3.072 1.536-50.688-65.536-100.864-131.584-150.016-195.072 17.92-18.432 34.816-35.328 52.224-53.248 33.792 81.92 67.072 164.352 100.864 246.784zM1024 759.808c-19.456-92.16-49.664-109.056-89.6-146.944-86.016 86.016-171.52 172.032-257.536 258.048 67.584 92.16 182.784 116.224 272.384 54.272 39.424-27.136 60.928-66.048 70.656-112.128 1.024-5.632 3.072-11.264 4.608-17.408-0.512-11.776-0.512-23.552-0.512-35.84z" />
<glyph unicode="&#xe920;" glyph-name="badmington_icon_wht" data-tags="badmington_icon_wht" d="M541.696-64c-59.392 15.36-109.568 45.056-136.192 102.4-13.824 29.696-19.456 62.464-29.184 95.744-128.512 19.968-166.4 57.856-177.664 181.76-17.408 2.56-35.328 4.096-52.736 8.192-76.8 18.432-133.12 80.384-144.896 159.744-7.168 46.592 22.016 97.792 73.728 121.856 52.736 24.576 107.008 45.568 160.768 67.584 109.568 45.056 219.648 89.088 328.704 134.656 13.824 5.632 22.016 5.12 33.28-6.144 42.496-44.032 86.528-87.040 132.096-132.096-71.68-55.296-141.824-109.568-211.456-162.816 17.92-17.408 34.816-33.792 53.76-51.712 52.224 67.584 107.008 138.752 162.304 210.432 46.592-47.104 91.648-91.648 136.192-137.728 4.096-4.096 5.632-15.36 3.584-20.992-65.024-161.792-131.072-323.072-196.608-484.352-18.944-46.592-53.248-76.288-102.912-86.528-11.776 0-22.016 0-32.768 0zM579.072 301.568c-28.672-37.888-56.32-70.144-79.36-104.96-35.328-53.248-18.944-122.368 33.28-151.552 26.112-14.848 40.448-10.752 51.712 16.896 21.504 50.688 41.984 101.376 61.952 152.576 2.048 5.632 1.024 15.36-2.56 19.456-20.48 21.504-41.472 43.008-65.024 67.584zM366.080 513.536c-25.088 24.576-46.080 45.568-67.584 65.536-4.096 3.584-13.824 5.632-18.944 3.584-52.736-20.48-104.96-41.472-156.672-64-24.576-10.24-27.648-23.552-15.36-47.104 22.016-43.008 67.584-62.976 116.736-50.688 56.32 14.336 90.112 62.464 141.824 92.672zM432.64 441.344c-36.864-28.672-74.24-55.808-109.568-84.992-30.72-25.6-31.744-77.312-4.608-103.424 26.624-25.6 76.8-24.064 101.888 5.632 29.696 35.84 57.344 73.728 84.992 109.056-24.576 25.088-48.128 48.64-72.704 73.728zM443.904 575.488c67.584 51.712 133.12 102.4 199.168 153.088-0.512 1.024-1.536 2.048-2.048 3.072-82.944-33.792-166.4-68.096-249.856-102.4 18.432-18.432 34.816-35.328 52.736-53.76zM794.624 576c-1.024 0.512-2.048 1.024-3.072 1.536-50.688-65.536-100.864-131.584-150.016-195.072 17.92-18.432 34.816-35.328 52.224-53.248 33.792 81.92 67.072 164.352 100.864 246.784zM1024 759.808c-19.456-92.16-49.664-109.056-89.6-146.944-86.016 86.016-171.52 172.032-257.536 258.048 67.584 92.16 182.784 116.224 272.384 54.272 39.424-27.136 60.928-66.048 70.656-112.128 1.024-5.632 3.072-11.264 4.608-17.408-0.512-11.776-0.512-23.552-0.512-35.84z" />
<glyph unicode="&#xe921;" glyph-name="badmington_icon" data-tags="badmington_icon" d="M541.696-64c-59.392 15.36-109.568 45.056-136.192 102.4-13.824 29.696-19.456 62.464-29.184 95.744-128.512 19.968-166.4 57.856-177.664 181.76-17.408 2.56-35.328 4.096-52.736 8.192-76.8 18.432-133.12 80.384-144.896 159.744-7.168 46.592 22.016 97.792 73.728 121.856 52.736 24.576 107.008 45.568 160.768 67.584 109.568 45.056 219.648 89.088 328.704 134.656 13.824 5.632 22.016 5.12 33.28-6.144 42.496-44.032 86.528-87.040 132.096-132.096-71.68-55.296-141.824-109.568-211.456-162.816 17.92-17.408 34.816-33.792 53.76-51.712 52.224 67.584 107.008 138.752 162.304 210.432 46.592-47.104 91.648-91.648 136.192-137.728 4.096-4.096 5.632-15.36 3.584-20.992-65.024-161.792-131.072-323.072-196.608-484.352-18.944-46.592-53.248-76.288-102.912-86.528-11.776 0-22.016 0-32.768 0zM579.072 301.568c-28.672-37.888-56.32-70.144-79.36-104.96-35.328-53.248-18.944-122.368 33.28-151.552 26.112-14.848 40.448-10.752 51.712 16.896 21.504 50.688 41.984 101.376 61.952 152.576 2.048 5.632 1.024 15.36-2.56 19.456-20.48 21.504-41.472 43.008-65.024 67.584zM366.080 513.536c-25.088 24.576-46.080 45.568-67.584 65.536-4.096 3.584-13.824 5.632-18.944 3.584-52.736-20.48-104.96-41.472-156.672-64-24.576-10.24-27.648-23.552-15.36-47.104 22.016-43.008 67.584-62.976 116.736-50.688 56.32 14.336 90.112 62.464 141.824 92.672zM432.64 441.344c-36.864-28.672-74.24-55.808-109.568-84.992-30.72-25.6-31.744-77.312-4.608-103.424 26.624-25.6 76.8-24.064 101.888 5.632 29.696 35.84 57.344 73.728 84.992 109.056-24.576 25.088-48.128 48.64-72.704 73.728zM443.904 575.488c67.584 51.712 133.12 102.4 199.168 153.088-0.512 1.024-1.536 2.048-2.048 3.072-82.944-33.792-166.4-68.096-249.856-102.4 18.432-18.432 34.816-35.328 52.736-53.76zM794.624 576c-1.024 0.512-2.048 1.024-3.072 1.536-50.688-65.536-100.864-131.584-150.016-195.072 17.92-18.432 34.816-35.328 52.224-53.248 33.792 81.92 67.072 164.352 100.864 246.784zM1024 759.808c-19.456-92.16-49.664-109.056-89.6-146.944-86.016 86.016-171.52 172.032-257.536 258.048 67.584 92.16 182.784 116.224 272.384 54.272 39.424-27.136 60.928-66.048 70.656-112.128 1.024-5.632 3.072-11.264 4.608-17.408-0.512-11.776-0.512-23.552-0.512-35.84z" />
<glyph unicode="&#xe922;" glyph-name="baseball_icon_drk" data-tags="baseball_icon_drk" d="M477.696 960c22.528 0 45.568 0 68.096 0 11.776-1.536 24.064-3.072 35.84-5.12 205.824-36.352 346.624-151.552 415.744-349.696 13.824-39.424 17.92-81.92 26.624-123.392 0-22.528 0-45.568 0-68.096-1.536-11.776-3.072-23.552-5.12-35.328-36.352-204.8-150.528-345.6-347.648-415.232-39.936-14.336-83.456-18.432-125.44-27.136-22.528 0-45.568 0-68.096 0-11.776 1.536-24.064 3.072-35.84 5.12-205.824 36.352-346.624 151.552-415.744 349.696-13.824 39.424-17.92 81.92-26.624 123.392 0 22.528 0 45.568 0 68.096 1.536 11.776 3.072 23.552 5.12 35.328 35.84 204.288 150.016 344.064 345.6 414.72 40.448 14.336 84.992 18.432 127.488 27.648zM674.816 573.952c13.824 0 25.6 0 38.912 0 1.024 9.216 1.536 16.896 2.048 25.088-13.824 4.608-26.624 8.704-39.936 12.8 5.632 20.48 10.752 38.912 16.384 58.368 14.336-3.072 26.112-5.12 36.352-7.168 28.16 37.376-12.8 38.4-26.624 53.76 10.752 17.92 20.48 35.328 30.72 52.736 11.264-6.144 20.48-11.264 31.232-16.896 8.704 15.36 17.408 30.208 26.112 45.056-156.672 133.12-403.456 130.048-555.008 0 8.704-14.848 17.408-29.696 26.112-45.056 11.264 5.632 20.992 11.264 31.744 16.896 10.752-18.944 20.48-35.84 30.208-53.248-39.424-25.6-39.424-25.6-27.136-53.76 7.68 2.048 15.872 5.632 23.552 5.632 5.632 0 14.848-4.096 16.384-8.192 5.632-15.36 8.704-31.744 12.8-47.616-14.848-4.608-27.648-8.704-39.936-13.312 1.024-9.216 2.048-16.384 3.584-25.6 12.8 0 25.6 0 38.4 0 1.024-20.48 2.56-39.424 3.584-58.368-11.776-2.048-23.040-4.608-32.768-6.144 0-10.24 0-18.944 0-28.16 10.752-1.024 20.48-2.048 29.696-3.072 0-20.48 0-38.912 0-58.368-10.752-1.024-19.968-2.048-30.208-3.072 0-10.24 0-18.944 0-28.16 11.776-2.048 22.528-4.608 33.28-6.656-1.536-19.968-2.56-38.912-4.096-59.392-13.824 0-26.112 0-38.912 0-1.024-9.216-1.536-16.896-2.048-24.576 13.312-4.608 26.112-8.704 39.936-13.312-5.632-20.48-10.752-38.912-16.384-58.368-13.824 3.072-25.6 5.632-38.4 8.192-3.072-10.752-6.144-20.48-9.216-30.208 13.824-8.192 26.112-15.872 38.4-23.040-10.24-17.92-20.48-35.84-30.72-53.248-11.776 6.144-21.504 10.752-31.744 16.384-9.216-15.872-17.408-30.208-25.6-44.544 155.648-132.608 401.92-131.072 555.008 0-8.704 14.848-17.408 29.696-26.112 44.544-11.264-5.632-20.992-10.752-31.232-16.384-10.752 18.944-20.48 35.84-30.208 52.736 39.424 26.112 39.424 26.112 26.624 53.76-11.264-2.56-23.040-4.608-36.864-7.68-5.12 19.968-10.24 39.424-15.36 58.368 15.36 5.12 28.16 9.216 40.448 13.312-1.536 9.728-2.56 16.896-3.584 25.088-12.8 0-24.576 0-37.888 0-1.024 20.48-2.56 39.424-3.584 58.368 12.288 2.56 23.552 4.608 34.816 6.656-0.512 10.752-1.024 19.456-1.536 28.672-11.264 1.024-19.968 1.536-29.696 2.048 0 20.48 0 39.424 0 58.88 10.752 1.024 20.48 2.048 29.696 3.072 0 10.752 0 19.456 0 28.16-12.288 2.56-23.040 4.608-33.28 6.656-0.512 19.456 0.512 37.376 2.048 58.368zM769.024 416.256c0.512-9.216 1.024-16.384 1.536-24.576 10.752 0 19.456 0 29.184 0 1.536-20.48 3.072-39.424 4.608-58.88-27.648-4.096-27.648-4.096-23.040-17.92 7.168 1.536 14.336 2.56 22.528 4.608 5.632-19.968 10.752-38.4 15.872-56.832-27.136-12.288-27.136-12.288-22.016-25.6 7.168 3.072 14.848 6.656 23.552 10.24 10.24-17.408 19.456-34.304 30.208-52.224-11.264-7.168-21.504-13.824-32.768-20.992 6.656-11.776 12.8-21.504 18.944-32.256 177.152 187.392 148.48 466.432-1.536 611.84-5.632-10.752-11.264-20.992-17.408-31.744 11.264-7.168 21.504-13.312 32.256-20.48-10.24-17.92-19.968-34.816-29.696-52.224-8.704 4.096-15.872 7.168-23.552 10.752-4.608-12.8-4.608-12.8 22.016-25.6-5.12-18.944-10.752-37.888-14.848-52.736-12.288-2.048-20.48-3.072-28.672-4.608 0-2.56 0.512-5.12 0.512-7.68 9.216-2.048 18.432-4.096 27.648-6.144-1.536-19.968-3.072-38.4-5.12-58.88-10.24 0-19.968 0-30.72 0 0.512-9.216 1.024-16.384 1.536-23.040 10.24-1.536 18.944-2.56 27.648-3.584 0-20.48 0-38.912 0-58.368-9.216-1.536-17.408-2.56-28.672-3.072zM223.744 503.296c-1.536 22.016-3.072 40.96-3.584 52.736 7.168 14.848 30.208 1.024 24.576 26.112-9.216-2.048-16.384-3.584-25.6-5.632-5.632 19.456-10.752 38.912-15.872 57.856 28.16 11.264 28.16 11.264 20.992 24.576-7.168-3.072-14.336-6.656-23.040-10.24-10.24 18.432-19.968 35.328-29.696 52.736 11.264 7.168 21.504 13.312 32.256 19.968-6.656 11.776-12.288 22.016-18.432 32.768-167.936-174.080-159.744-450.048 0.512-612.352 6.144 11.264 11.264 21.504 17.408 32.768-11.264 7.168-22.016 13.824-32.768 20.992 10.752 18.432 20.48 35.328 30.72 52.736 9.216-4.608 16.384-7.68 24.576-11.776 10.752 27.648-20.48 13.824-22.528 31.232 4.096 14.336 9.728 33.28 14.848 52.224 8.704-2.048 16.384-3.584 23.552-5.12 3.072 13.824 3.072 13.824-23.552 19.456 1.536 18.944 3.072 38.4 5.12 58.88 10.24 0 19.456 0 29.184 0 0 8.192 0 15.36 0 23.040-9.728 1.024-18.432 2.048-27.136 3.072 0 19.968 0 39.424 0 58.88 9.728 0.512 17.92 1.024 27.136 2.048 0 8.192 0 15.36 0 23.552-8.704-0.512-17.408-0.512-28.672-0.512z" />
<glyph unicode="&#xe923;" glyph-name="baseball_icon_wht" data-tags="baseball_icon_wht" d="M477.696 960c22.528 0 45.568 0 68.096 0 11.776-1.536 24.064-3.072 35.84-5.12 205.824-36.352 346.624-151.552 415.744-349.696 13.824-39.424 17.92-81.92 26.624-123.392 0-22.528 0-45.568 0-68.096-1.536-11.776-3.072-23.552-5.12-35.328-36.352-204.8-150.528-345.6-347.648-415.232-39.936-14.336-83.456-18.432-125.44-27.136-22.528 0-45.568 0-68.096 0-11.776 1.536-24.064 3.072-35.84 5.12-205.824 36.352-346.624 151.552-415.744 349.696-13.824 39.424-17.92 81.92-26.624 123.392 0 22.528 0 45.568 0 68.096 1.536 11.776 3.072 23.552 5.12 35.328 35.84 204.288 150.016 344.064 345.6 414.72 40.448 14.336 84.992 18.432 127.488 27.648zM674.816 573.952c13.824 0 25.6 0 38.912 0 1.024 9.216 1.536 16.896 2.048 25.088-13.824 4.608-26.624 8.704-39.936 12.8 5.632 20.48 10.752 38.912 16.384 58.368 14.336-3.072 26.112-5.12 36.352-7.168 28.16 37.376-12.8 38.4-26.624 53.76 10.752 17.92 20.48 35.328 30.72 52.736 11.264-6.144 20.48-11.264 31.232-16.896 8.704 15.36 17.408 30.208 26.112 45.056-156.672 133.12-403.456 130.048-555.008 0 8.704-14.848 17.408-29.696 26.112-45.056 11.264 5.632 20.992 11.264 31.744 16.896 10.752-18.944 20.48-35.84 30.208-53.248-39.424-25.6-39.424-25.6-27.136-53.76 7.68 2.048 15.872 5.632 23.552 5.632 5.632 0 14.848-4.096 16.384-8.192 5.632-15.36 8.704-31.744 12.8-47.616-14.848-4.608-27.648-8.704-39.936-13.312 1.024-9.216 2.048-16.384 3.584-25.6 12.8 0 25.6 0 38.4 0 1.024-20.48 2.56-39.424 3.584-58.368-11.776-2.048-23.040-4.608-32.768-6.144 0-10.24 0-18.944 0-28.16 10.752-1.024 20.48-2.048 29.696-3.072 0-20.48 0-38.912 0-58.368-10.752-1.024-19.968-2.048-30.208-3.072 0-10.24 0-18.944 0-28.16 11.776-2.048 22.528-4.608 33.28-6.656-1.536-19.968-2.56-38.912-4.096-59.392-13.824 0-26.112 0-38.912 0-1.024-9.216-1.536-16.896-2.048-24.576 13.312-4.608 26.112-8.704 39.936-13.312-5.632-20.48-10.752-38.912-16.384-58.368-13.824 3.072-25.6 5.632-38.4 8.192-3.072-10.752-6.144-20.48-9.216-30.208 13.824-8.192 26.112-15.872 38.4-23.040-10.24-17.92-20.48-35.84-30.72-53.248-11.776 6.144-21.504 10.752-31.744 16.384-9.216-15.872-17.408-30.208-25.6-44.544 155.648-132.608 401.92-131.072 555.008 0-8.704 14.848-17.408 29.696-26.112 44.544-11.264-5.632-20.992-10.752-31.232-16.384-10.752 18.944-20.48 35.84-30.208 52.736 39.424 26.112 39.424 26.112 26.624 53.76-11.264-2.56-23.040-4.608-36.864-7.68-5.12 19.968-10.24 39.424-15.36 58.368 15.36 5.12 28.16 9.216 40.448 13.312-1.536 9.728-2.56 16.896-3.584 25.088-12.8 0-24.576 0-37.888 0-1.024 20.48-2.56 39.424-3.584 58.368 12.288 2.56 23.552 4.608 34.816 6.656-0.512 10.752-1.024 19.456-1.536 28.672-11.264 1.024-19.968 1.536-29.696 2.048 0 20.48 0 39.424 0 58.88 10.752 1.024 20.48 2.048 29.696 3.072 0 10.752 0 19.456 0 28.16-12.288 2.56-23.040 4.608-33.28 6.656-0.512 19.456 0.512 37.376 2.048 58.368zM769.024 416.256c0.512-9.216 1.024-16.384 1.536-24.576 10.752 0 19.456 0 29.184 0 1.536-20.48 3.072-39.424 4.608-58.88-27.648-4.096-27.648-4.096-23.040-17.92 7.168 1.536 14.336 2.56 22.528 4.608 5.632-19.968 10.752-38.4 15.872-56.832-27.136-12.288-27.136-12.288-22.016-25.6 7.168 3.072 14.848 6.656 23.552 10.24 10.24-17.408 19.456-34.304 30.208-52.224-11.264-7.168-21.504-13.824-32.768-20.992 6.656-11.776 12.8-21.504 18.944-32.256 177.152 187.392 148.48 466.432-1.536 611.84-5.632-10.752-11.264-20.992-17.408-31.744 11.264-7.168 21.504-13.312 32.256-20.48-10.24-17.92-19.968-34.816-29.696-52.224-8.704 4.096-15.872 7.168-23.552 10.752-4.608-12.8-4.608-12.8 22.016-25.6-5.12-18.944-10.752-37.888-14.848-52.736-12.288-2.048-20.48-3.072-28.672-4.608 0-2.56 0.512-5.12 0.512-7.68 9.216-2.048 18.432-4.096 27.648-6.144-1.536-19.968-3.072-38.4-5.12-58.88-10.24 0-19.968 0-30.72 0 0.512-9.216 1.024-16.384 1.536-23.040 10.24-1.536 18.944-2.56 27.648-3.584 0-20.48 0-38.912 0-58.368-9.216-1.536-17.408-2.56-28.672-3.072zM223.744 503.296c-1.536 22.016-3.072 40.96-3.584 52.736 7.168 14.848 30.208 1.024 24.576 26.112-9.216-2.048-16.384-3.584-25.6-5.632-5.632 19.456-10.752 38.912-15.872 57.856 28.16 11.264 28.16 11.264 20.992 24.576-7.168-3.072-14.336-6.656-23.040-10.24-10.24 18.432-19.968 35.328-29.696 52.736 11.264 7.168 21.504 13.312 32.256 19.968-6.656 11.776-12.288 22.016-18.432 32.768-167.936-174.080-159.744-450.048 0.512-612.352 6.144 11.264 11.264 21.504 17.408 32.768-11.264 7.168-22.016 13.824-32.768 20.992 10.752 18.432 20.48 35.328 30.72 52.736 9.216-4.608 16.384-7.68 24.576-11.776 10.752 27.648-20.48 13.824-22.528 31.232 4.096 14.336 9.728 33.28 14.848 52.224 8.704-2.048 16.384-3.584 23.552-5.12 3.072 13.824 3.072 13.824-23.552 19.456 1.536 18.944 3.072 38.4 5.12 58.88 10.24 0 19.456 0 29.184 0 0 8.192 0 15.36 0 23.040-9.728 1.024-18.432 2.048-27.136 3.072 0 19.968 0 39.424 0 58.88 9.728 0.512 17.92 1.024 27.136 2.048 0 8.192 0 15.36 0 23.552-8.704-0.512-17.408-0.512-28.672-0.512z" />
<glyph unicode="&#xe924;" glyph-name="baseball_icon" data-tags="baseball_icon" d="M477.696 960c22.528 0 45.568 0 68.096 0 11.776-1.536 24.064-3.072 35.84-5.12 205.824-36.352 346.624-151.552 415.744-349.696 13.824-39.424 17.92-81.92 26.624-123.392 0-22.528 0-45.568 0-68.096-1.536-11.776-3.072-23.552-5.12-35.328-36.352-204.8-150.528-345.6-347.648-415.232-39.936-14.336-83.456-18.432-125.44-27.136-22.528 0-45.568 0-68.096 0-11.776 1.536-24.064 3.072-35.84 5.12-205.824 36.352-346.624 151.552-415.744 349.696-13.824 39.424-17.92 81.92-26.624 123.392 0 22.528 0 45.568 0 68.096 1.536 11.776 3.072 23.552 5.12 35.328 35.84 204.288 150.016 344.064 345.6 414.72 40.448 14.336 84.992 18.432 127.488 27.648zM674.816 573.952c13.824 0 25.6 0 38.912 0 1.024 9.216 1.536 16.896 2.048 25.088-13.824 4.608-26.624 8.704-39.936 12.8 5.632 20.48 10.752 38.912 16.384 58.368 14.336-3.072 26.112-5.12 36.352-7.168 28.16 37.376-12.8 38.4-26.624 53.76 10.752 17.92 20.48 35.328 30.72 52.736 11.264-6.144 20.48-11.264 31.232-16.896 8.704 15.36 17.408 30.208 26.112 45.056-156.672 133.12-403.456 130.048-555.008 0 8.704-14.848 17.408-29.696 26.112-45.056 11.264 5.632 20.992 11.264 31.744 16.896 10.752-18.944 20.48-35.84 30.208-53.248-39.424-25.6-39.424-25.6-27.136-53.76 7.68 2.048 15.872 5.632 23.552 5.632 5.632 0 14.848-4.096 16.384-8.192 5.632-15.36 8.704-31.744 12.8-47.616-14.848-4.608-27.648-8.704-39.936-13.312 1.024-9.216 2.048-16.384 3.584-25.6 12.8 0 25.6 0 38.4 0 1.024-20.48 2.56-39.424 3.584-58.368-11.776-2.048-23.040-4.608-32.768-6.144 0-10.24 0-18.944 0-28.16 10.752-1.024 20.48-2.048 29.696-3.072 0-20.48 0-38.912 0-58.368-10.752-1.024-19.968-2.048-30.208-3.072 0-10.24 0-18.944 0-28.16 11.776-2.048 22.528-4.608 33.28-6.656-1.536-19.968-2.56-38.912-4.096-59.392-13.824 0-26.112 0-38.912 0-1.024-9.216-1.536-16.896-2.048-24.576 13.312-4.608 26.112-8.704 39.936-13.312-5.632-20.48-10.752-38.912-16.384-58.368-13.824 3.072-25.6 5.632-38.4 8.192-3.072-10.752-6.144-20.48-9.216-30.208 13.824-8.192 26.112-15.872 38.4-23.040-10.24-17.92-20.48-35.84-30.72-53.248-11.776 6.144-21.504 10.752-31.744 16.384-9.216-15.872-17.408-30.208-25.6-44.544 155.648-132.608 401.92-131.072 555.008 0-8.704 14.848-17.408 29.696-26.112 44.544-11.264-5.632-20.992-10.752-31.232-16.384-10.752 18.944-20.48 35.84-30.208 52.736 39.424 26.112 39.424 26.112 26.624 53.76-11.264-2.56-23.040-4.608-36.864-7.68-5.12 19.968-10.24 39.424-15.36 58.368 15.36 5.12 28.16 9.216 40.448 13.312-1.536 9.728-2.56 16.896-3.584 25.088-12.8 0-24.576 0-37.888 0-1.024 20.48-2.56 39.424-3.584 58.368 12.288 2.56 23.552 4.608 34.816 6.656-0.512 10.752-1.024 19.456-1.536 28.672-11.264 1.024-19.968 1.536-29.696 2.048 0 20.48 0 39.424 0 58.88 10.752 1.024 20.48 2.048 29.696 3.072 0 10.752 0 19.456 0 28.16-12.288 2.56-23.040 4.608-33.28 6.656-0.512 19.456 0.512 37.376 2.048 58.368zM769.024 416.256c0.512-9.216 1.024-16.384 1.536-24.576 10.752 0 19.456 0 29.184 0 1.536-20.48 3.072-39.424 4.608-58.88-27.648-4.096-27.648-4.096-23.040-17.92 7.168 1.536 14.336 2.56 22.528 4.608 5.632-19.968 10.752-38.4 15.872-56.832-27.136-12.288-27.136-12.288-22.016-25.6 7.168 3.072 14.848 6.656 23.552 10.24 10.24-17.408 19.456-34.304 30.208-52.224-11.264-7.168-21.504-13.824-32.768-20.992 6.656-11.776 12.8-21.504 18.944-32.256 177.152 187.392 148.48 466.432-1.536 611.84-5.632-10.752-11.264-20.992-17.408-31.744 11.264-7.168 21.504-13.312 32.256-20.48-10.24-17.92-19.968-34.816-29.696-52.224-8.704 4.096-15.872 7.168-23.552 10.752-4.608-12.8-4.608-12.8 22.016-25.6-5.12-18.944-10.752-37.888-14.848-52.736-12.288-2.048-20.48-3.072-28.672-4.608 0-2.56 0.512-5.12 0.512-7.68 9.216-2.048 18.432-4.096 27.648-6.144-1.536-19.968-3.072-38.4-5.12-58.88-10.24 0-19.968 0-30.72 0 0.512-9.216 1.024-16.384 1.536-23.040 10.24-1.536 18.944-2.56 27.648-3.584 0-20.48 0-38.912 0-58.368-9.216-1.536-17.408-2.56-28.672-3.072zM223.744 503.296c-1.536 22.016-3.072 40.96-3.584 52.736 7.168 14.848 30.208 1.024 24.576 26.112-9.216-2.048-16.384-3.584-25.6-5.632-5.632 19.456-10.752 38.912-15.872 57.856 28.16 11.264 28.16 11.264 20.992 24.576-7.168-3.072-14.336-6.656-23.040-10.24-10.24 18.432-19.968 35.328-29.696 52.736 11.264 7.168 21.504 13.312 32.256 19.968-6.656 11.776-12.288 22.016-18.432 32.768-167.936-174.080-159.744-450.048 0.512-612.352 6.144 11.264 11.264 21.504 17.408 32.768-11.264 7.168-22.016 13.824-32.768 20.992 10.752 18.432 20.48 35.328 30.72 52.736 9.216-4.608 16.384-7.68 24.576-11.776 10.752 27.648-20.48 13.824-22.528 31.232 4.096 14.336 9.728 33.28 14.848 52.224 8.704-2.048 16.384-3.584 23.552-5.12 3.072 13.824 3.072 13.824-23.552 19.456 1.536 18.944 3.072 38.4 5.12 58.88 10.24 0 19.456 0 29.184 0 0 8.192 0 15.36 0 23.040-9.728 1.024-18.432 2.048-27.136 3.072 0 19.968 0 39.424 0 58.88 9.728 0.512 17.92 1.024 27.136 2.048 0 8.192 0 15.36 0 23.552-8.704-0.512-17.408-0.512-28.672-0.512z" />
<glyph unicode="&#xe925;" glyph-name="basketball_icon_drk" data-tags="basketball_icon_drk" d="M500.736-62.464c-36.352 5.632-72.704 9.728-108.544 17.408-65.024 14.336-124.416 41.984-181.248 82.432 120.32 77.824 206.336 188.928 303.616 288.256 49.664 50.688 101.376 98.816 170.496 123.392 35.328 12.288 42.496 8.192 42.496-28.16-1.024-92.16-12.288-182.784-45.056-269.312-33.792-89.088-83.968-166.4-170.496-214.016-3.584 0-7.68 0-11.264 0zM512 958.464c86.528-49.152 149.504-125.952 158.208-196.096-23.040 4.096-46.080 4.608-67.072 11.776-46.080 15.872-93.184 31.744-136.192 53.76-66.048 33.792-134.144 48.64-207.36 45.568-6.144 0-12.288 0-26.624 0 74.24 47.104 147.456 71.168 225.792 79.36 12.288 1.024 24.064 3.584 35.84 5.632 6.144 0 11.776 0 17.408 0zM718.336 600.064c2.56-26.112 5.632-51.712 8.192-78.848-13.824-3.072-24.576-5.12-35.328-7.68-57.856-13.824-105.472-44.032-146.944-85.504-89.088-89.6-170.496-187.392-275.456-260.096-33.28-23.040-67.584-44.544-101.376-67.072-14.336-9.728-24.064-6.144-35.84 6.656-58.88 66.048-100.352 141.312-118.272 228.352-2.56 11.776 1.024 28.16 8.192 37.888 58.368 77.312 138.752 123.392 229.376 153.088 144.384 47.104 293.376 68.608 444.928 74.24 6.144 0 12.8-0.512 22.528-1.024zM692.224 715.264c5.632-24.064 10.752-44.544 15.872-65.536-83.456-7.168-165.376-12.8-246.784-20.48-105.984-9.728-208.896-32.256-306.176-75.264-52.736-23.552-101.888-55.296-155.136-84.992 2.56 22.528 3.584 50.176 8.704 76.288 15.36 78.848 48.128 151.040 98.816 213.504 10.24 12.288 25.088 23.552 39.936 28.16 96.256 32.256 191.488 33.792 286.72-8.192 81.408-35.84 163.84-69.12 258.048-63.488zM660.48-37.888c54.784 83.968 86.528 167.936 97.792 259.072 8.704 69.12 11.264 139.264 16.896 208.896 3.072 38.4 12.288 44.032 48.128 28.16 37.376-16.896 59.392-48.64 74.24-85.504 31.232-76.8 30.72-156.16 12.288-236.032-1.536-6.144-4.096-12.8-8.192-17.408-62.464-73.216-140.288-124.416-241.152-157.184zM963.072 218.112c0 36.352 4.096 73.216-0.512 109.056-14.848 117.76-70.144 174.080-187.904 195.584-2.048 24.576-4.096 49.664-6.144 78.336 86.528-0.512 168.448-11.264 239.104-64.512 6.144-4.608 11.776-13.312 12.8-20.48 11.776-104.96-2.56-204.8-57.344-297.984zM878.080 803.328c55.808-57.344 94.208-119.808 120.32-195.072-14.336 4.608-24.576 9.216-35.84 11.264-57.344 9.728-114.688 19.968-172.544 26.112-23.040 2.56-36.864 6.144-39.424 30.72-1.536 12.8-6.144 25.088-9.728 40.448 59.392 5.632 115.2 15.872 137.216 86.528zM635.392 940.544c65.536-15.36 128.512-44.032 183.808-87.552 7.68-6.144 11.264-23.040 9.216-33.792-6.656-32.768-64-63.488-95.744-52.736-7.68 2.56-14.336 11.776-18.432 19.456-26.624 51.2-52.736 103.424-78.848 154.624z" />
<glyph unicode="&#xe926;" glyph-name="basketball_icon_wht" data-tags="basketball_icon_wht" d="M500.736-62.464c-36.352 5.632-72.704 9.728-108.544 17.408-65.024 14.336-124.416 41.984-181.248 82.432 120.32 77.824 206.336 188.928 303.616 288.256 49.664 50.688 101.376 98.816 170.496 123.392 35.328 12.288 42.496 8.192 42.496-28.16-1.024-92.16-12.288-182.784-45.056-269.312-33.792-89.088-83.968-166.4-170.496-214.016-3.584 0-7.68 0-11.264 0zM512 958.464c86.528-49.152 149.504-125.952 158.208-196.096-23.040 4.096-46.080 4.608-67.072 11.776-46.080 15.872-93.184 31.744-136.192 53.76-66.048 33.792-134.144 48.64-207.36 45.568-6.144 0-12.288 0-26.624 0 74.24 47.104 147.456 71.168 225.792 79.36 12.288 1.024 24.064 3.584 35.84 5.632 6.144 0 11.776 0 17.408 0zM718.336 600.064c2.56-26.112 5.632-51.712 8.192-78.848-13.824-3.072-24.576-5.12-35.328-7.68-57.856-13.824-105.472-44.032-146.944-85.504-89.088-89.6-170.496-187.392-275.456-260.096-33.28-23.040-67.584-44.544-101.376-67.072-14.336-9.728-24.064-6.144-35.84 6.656-58.88 66.048-100.352 141.312-118.272 228.352-2.56 11.776 1.024 28.16 8.192 37.888 58.368 77.312 138.752 123.392 229.376 153.088 144.384 47.104 293.376 68.608 444.928 74.24 6.144 0 12.8-0.512 22.528-1.024zM692.224 715.264c5.632-24.064 10.752-44.544 15.872-65.536-83.456-7.168-165.376-12.8-246.784-20.48-105.984-9.728-208.896-32.256-306.176-75.264-52.736-23.552-101.888-55.296-155.136-84.992 2.56 22.528 3.584 50.176 8.704 76.288 15.36 78.848 48.128 151.040 98.816 213.504 10.24 12.288 25.088 23.552 39.936 28.16 96.256 32.256 191.488 33.792 286.72-8.192 81.408-35.84 163.84-69.12 258.048-63.488zM660.48-37.888c54.784 83.968 86.528 167.936 97.792 259.072 8.704 69.12 11.264 139.264 16.896 208.896 3.072 38.4 12.288 44.032 48.128 28.16 37.376-16.896 59.392-48.64 74.24-85.504 31.232-76.8 30.72-156.16 12.288-236.032-1.536-6.144-4.096-12.8-8.192-17.408-62.464-73.216-140.288-124.416-241.152-157.184zM963.072 218.112c0 36.352 4.096 73.216-0.512 109.056-14.848 117.76-70.144 174.080-187.904 195.584-2.048 24.576-4.096 49.664-6.144 78.336 86.528-0.512 168.448-11.264 239.104-64.512 6.144-4.608 11.776-13.312 12.8-20.48 11.776-104.96-2.56-204.8-57.344-297.984zM878.080 803.328c55.808-57.344 94.208-119.808 120.32-195.072-14.336 4.608-24.576 9.216-35.84 11.264-57.344 9.728-114.688 19.968-172.544 26.112-23.040 2.56-36.864 6.144-39.424 30.72-1.536 12.8-6.144 25.088-9.728 40.448 59.392 5.632 115.2 15.872 137.216 86.528zM635.392 940.544c65.536-15.36 128.512-44.032 183.808-87.552 7.68-6.144 11.264-23.040 9.216-33.792-6.656-32.768-64-63.488-95.744-52.736-7.68 2.56-14.336 11.776-18.432 19.456-26.624 51.2-52.736 103.424-78.848 154.624z" />
<glyph unicode="&#xe927;" glyph-name="basketball_icon" data-tags="basketball_icon" d="M500.736-62.464c-36.352 5.632-72.704 9.728-108.544 17.408-65.024 14.336-124.416 41.984-181.248 82.432 120.32 77.824 206.336 188.928 303.616 288.256 49.664 50.688 101.376 98.816 170.496 123.392 35.328 12.288 42.496 8.192 42.496-28.16-1.024-92.16-12.288-182.784-45.056-269.312-33.792-89.088-83.968-166.4-170.496-214.016-3.584 0-7.68 0-11.264 0zM512 958.464c86.528-49.152 149.504-125.952 158.208-196.096-23.040 4.096-46.080 4.608-67.072 11.776-46.080 15.872-93.184 31.744-136.192 53.76-66.048 33.792-134.144 48.64-207.36 45.568-6.144 0-12.288 0-26.624 0 74.24 47.104 147.456 71.168 225.792 79.36 12.288 1.024 24.064 3.584 35.84 5.632 6.144 0 11.776 0 17.408 0zM718.336 600.064c2.56-26.112 5.632-51.712 8.192-78.848-13.824-3.072-24.576-5.12-35.328-7.68-57.856-13.824-105.472-44.032-146.944-85.504-89.088-89.6-170.496-187.392-275.456-260.096-33.28-23.040-67.584-44.544-101.376-67.072-14.336-9.728-24.064-6.144-35.84 6.656-58.88 66.048-100.352 141.312-118.272 228.352-2.56 11.776 1.024 28.16 8.192 37.888 58.368 77.312 138.752 123.392 229.376 153.088 144.384 47.104 293.376 68.608 444.928 74.24 6.144 0 12.8-0.512 22.528-1.024zM692.224 715.264c5.632-24.064 10.752-44.544 15.872-65.536-83.456-7.168-165.376-12.8-246.784-20.48-105.984-9.728-208.896-32.256-306.176-75.264-52.736-23.552-101.888-55.296-155.136-84.992 2.56 22.528 3.584 50.176 8.704 76.288 15.36 78.848 48.128 151.040 98.816 213.504 10.24 12.288 25.088 23.552 39.936 28.16 96.256 32.256 191.488 33.792 286.72-8.192 81.408-35.84 163.84-69.12 258.048-63.488zM660.48-37.888c54.784 83.968 86.528 167.936 97.792 259.072 8.704 69.12 11.264 139.264 16.896 208.896 3.072 38.4 12.288 44.032 48.128 28.16 37.376-16.896 59.392-48.64 74.24-85.504 31.232-76.8 30.72-156.16 12.288-236.032-1.536-6.144-4.096-12.8-8.192-17.408-62.464-73.216-140.288-124.416-241.152-157.184zM963.072 218.112c0 36.352 4.096 73.216-0.512 109.056-14.848 117.76-70.144 174.080-187.904 195.584-2.048 24.576-4.096 49.664-6.144 78.336 86.528-0.512 168.448-11.264 239.104-64.512 6.144-4.608 11.776-13.312 12.8-20.48 11.776-104.96-2.56-204.8-57.344-297.984zM878.080 803.328c55.808-57.344 94.208-119.808 120.32-195.072-14.336 4.608-24.576 9.216-35.84 11.264-57.344 9.728-114.688 19.968-172.544 26.112-23.040 2.56-36.864 6.144-39.424 30.72-1.536 12.8-6.144 25.088-9.728 40.448 59.392 5.632 115.2 15.872 137.216 86.528zM635.392 940.544c65.536-15.36 128.512-44.032 183.808-87.552 7.68-6.144 11.264-23.040 9.216-33.792-6.656-32.768-64-63.488-95.744-52.736-7.68 2.56-14.336 11.776-18.432 19.456-26.624 51.2-52.736 103.424-78.848 154.624z" />
<glyph unicode="&#xe928;" glyph-name="beach_volleyball_icon_drk" data-tags="beach_volleyball_icon_drk" d="M544.256 960c19.456-2.56 39.424-4.096 58.368-8.192 30.72-7.168 60.928-16.896 91.648-25.088 6.656-2.048 8.704-5.632 8.704-12.288 1.536-72.704-12.8-142.848-34.304-211.968-27.136-87.552-67.072-167.936-126.464-238.592-31.744-37.376-67.584-69.632-110.592-96.256-15.36 18.432-32.768 35.84-46.080 55.296-21.504 32.256-40.96 65.536-60.928 98.816-3.072 5.12-2.048 8.704 2.048 12.8 87.552 93.696 139.264 204.8 162.816 329.728 6.144 31.744 8.704 64 12.288 95.744 14.336 0 28.16 0 42.496 0zM0 480.256c2.56 18.944 4.096 38.4 8.192 57.344 4.608 23.040 10.752 45.568 16.896 68.096 1.024 4.608 4.096 9.216 7.68 12.8 75.776 80.384 168.448 128 278.528 141.312 34.816 4.096 69.12 5.12 106.496 1.024-12.8-26.112-24.064-51.2-36.864-75.264-22.016-41.472-50.176-78.848-82.432-113.664-7.168-7.68-13.312-10.752-24.576-9.728-74.752 8.704-135.168-18.944-185.856-72.192-34.304-35.84-57.344-78.848-74.24-124.928-1.024-3.072-2.56-6.656-6.144-9.728-2.56 19.968-5.12 40.448-8.192 60.416 0.512 21.504 0.512 43.008 0.512 64.512zM470.016 334.336c93.184 64 157.696 150.016 203.776 250.88 45.568 99.84 78.848 203.264 73.216 316.416 3.584-1.536 6.144-2.56 8.704-4.096 82.432-45.056 147.456-107.52 196.096-187.904 2.048-3.584 4.096-8.192 3.584-12.288-10.24-200.704-89.6-365.056-257.024-482.304-10.752-7.168-18.944-8.192-30.72-3.072-70.144 28.16-134.144 66.048-192 115.2-1.536 1.536-3.072 2.56-4.608 4.096 0 1.024 0 1.536-1.024 3.072zM902.656 117.248c-1.024-1.536-3.072-4.096-5.12-6.656-49.152-55.808-107.52-99.328-175.104-129.536-5.12-2.048-10.752-3.584-16.384-3.072-94.208 7.68-182.272 35.328-264.192 80.896-143.872 79.872-249.344 195.072-307.712 350.208-5.632 14.848-10.24 29.696-14.336 45.056-1.024 3.584-0.512 9.216 2.048 11.264 38.4 36.352 83.456 57.344 137.728 54.784 7.68-0.512 11.264-3.584 15.36-10.24 111.104-201.216 279.040-327.68 503.808-376.32 39.936-8.704 81.92-11.264 123.904-16.384zM83.456 419.84c95.744-251.392 278.016-403.456 535.040-473.6-18.944-2.56-37.888-6.144-56.832-8.192-98.816-9.216-193.536 7.68-281.6 53.76-121.856 63.488-206.336 160.256-251.904 290.304-1.024 3.072-2.048 7.168-1.536 10.752 5.632 33.792 35.328 100.352 56.832 126.976zM995.328 621.056c6.656-26.624 14.848-52.736 19.968-79.36 23.040-130.048 0.512-251.904-69.12-364.544-2.048-3.584-7.168-7.168-11.264-7.68-65.024-3.584-129.024 2.56-192 18.944-1.024 0-2.048 0.512-3.584 1.536 144.384 108.544 224.768 254.464 253.44 430.592 0.512 0 1.536 0.512 2.56 0.512zM458.752 956.928c-3.584-51.712-12.288-100.864-27.136-148.992-131.072 14.848-251.392-9.216-355.84-93.696 40.96 68.608 95.232 123.904 162.304 166.4s140.288 68.096 220.672 76.288z" />
<glyph unicode="&#xe929;" glyph-name="beach_volleyball_icon_wht" data-tags="beach_volleyball_icon_wht" d="M544.256 960c19.456-2.56 39.424-4.096 58.368-8.192 30.72-7.168 60.928-16.896 91.648-25.088 6.656-2.048 8.704-5.632 8.704-12.288 1.536-72.704-12.8-142.848-34.304-211.968-27.136-87.552-67.072-167.936-126.464-238.592-31.744-37.376-67.584-69.632-110.592-96.256-15.36 18.432-32.768 35.84-46.080 55.296-21.504 32.256-40.96 65.536-60.928 98.816-3.072 5.12-2.048 8.704 2.048 12.8 87.552 93.696 139.264 204.8 162.816 329.728 6.144 31.744 8.704 64 12.288 95.744 14.336 0 28.16 0 42.496 0zM0 480.256c2.56 18.944 4.096 38.4 8.192 57.344 4.608 23.040 10.752 45.568 16.896 68.096 1.024 4.608 4.096 9.216 7.68 12.8 75.776 80.384 168.448 128 278.528 141.312 34.816 4.096 69.12 5.12 106.496 1.024-12.8-26.112-24.064-51.2-36.864-75.264-22.016-41.472-50.176-78.848-82.432-113.664-7.168-7.68-13.312-10.752-24.576-9.728-74.752 8.704-135.168-18.944-185.856-72.192-34.304-35.84-57.344-78.848-74.24-124.928-1.024-3.072-2.56-6.656-6.144-9.728-2.56 19.968-5.12 40.448-8.192 60.416 0.512 21.504 0.512 43.008 0.512 64.512zM470.016 334.336c93.184 64 157.696 150.016 203.776 250.88 45.568 99.84 78.848 203.264 73.216 316.416 3.584-1.536 6.144-2.56 8.704-4.096 82.432-45.056 147.456-107.52 196.096-187.904 2.048-3.584 4.096-8.192 3.584-12.288-10.24-200.704-89.6-365.056-257.024-482.304-10.752-7.168-18.944-8.192-30.72-3.072-70.144 28.16-134.144 66.048-192 115.2-1.536 1.536-3.072 2.56-4.608 4.096 0 1.024 0 1.536-1.024 3.072zM902.656 117.248c-1.024-1.536-3.072-4.096-5.12-6.656-49.152-55.808-107.52-99.328-175.104-129.536-5.12-2.048-10.752-3.584-16.384-3.072-94.208 7.68-182.272 35.328-264.192 80.896-143.872 79.872-249.344 195.072-307.712 350.208-5.632 14.848-10.24 29.696-14.336 45.056-1.024 3.584-0.512 9.216 2.048 11.264 38.4 36.352 83.456 57.344 137.728 54.784 7.68-0.512 11.264-3.584 15.36-10.24 111.104-201.216 279.040-327.68 503.808-376.32 39.936-8.704 81.92-11.264 123.904-16.384zM83.456 419.84c95.744-251.392 278.016-403.456 535.040-473.6-18.944-2.56-37.888-6.144-56.832-8.192-98.816-9.216-193.536 7.68-281.6 53.76-121.856 63.488-206.336 160.256-251.904 290.304-1.024 3.072-2.048 7.168-1.536 10.752 5.632 33.792 35.328 100.352 56.832 126.976zM995.328 621.056c6.656-26.624 14.848-52.736 19.968-79.36 23.040-130.048 0.512-251.904-69.12-364.544-2.048-3.584-7.168-7.168-11.264-7.68-65.024-3.584-129.024 2.56-192 18.944-1.024 0-2.048 0.512-3.584 1.536 144.384 108.544 224.768 254.464 253.44 430.592 0.512 0 1.536 0.512 2.56 0.512zM458.752 956.928c-3.584-51.712-12.288-100.864-27.136-148.992-131.072 14.848-251.392-9.216-355.84-93.696 40.96 68.608 95.232 123.904 162.304 166.4s140.288 68.096 220.672 76.288z" />
<glyph unicode="&#xe92a;" glyph-name="beach_volleyball_icon" data-tags="beach_volleyball_icon" d="M544.256 960c19.456-2.56 39.424-4.096 58.368-8.192 30.72-7.168 60.928-16.896 91.648-25.088 6.656-2.048 8.704-5.632 8.704-12.288 1.536-72.704-12.8-142.848-34.304-211.968-27.136-87.552-67.072-167.936-126.464-238.592-31.744-37.376-67.584-69.632-110.592-96.256-15.36 18.432-32.768 35.84-46.080 55.296-21.504 32.256-40.96 65.536-60.928 98.816-3.072 5.12-2.048 8.704 2.048 12.8 87.552 93.696 139.264 204.8 162.816 329.728 6.144 31.744 8.704 64 12.288 95.744 14.336 0 28.16 0 42.496 0zM0 480.256c2.56 18.944 4.096 38.4 8.192 57.344 4.608 23.040 10.752 45.568 16.896 68.096 1.024 4.608 4.096 9.216 7.68 12.8 75.776 80.384 168.448 128 278.528 141.312 34.816 4.096 69.12 5.12 106.496 1.024-12.8-26.112-24.064-51.2-36.864-75.264-22.016-41.472-50.176-78.848-82.432-113.664-7.168-7.68-13.312-10.752-24.576-9.728-74.752 8.704-135.168-18.944-185.856-72.192-34.304-35.84-57.344-78.848-74.24-124.928-1.024-3.072-2.56-6.656-6.144-9.728-2.56 19.968-5.12 40.448-8.192 60.416 0.512 21.504 0.512 43.008 0.512 64.512zM470.016 334.336c93.184 64 157.696 150.016 203.776 250.88 45.568 99.84 78.848 203.264 73.216 316.416 3.584-1.536 6.144-2.56 8.704-4.096 82.432-45.056 147.456-107.52 196.096-187.904 2.048-3.584 4.096-8.192 3.584-12.288-10.24-200.704-89.6-365.056-257.024-482.304-10.752-7.168-18.944-8.192-30.72-3.072-70.144 28.16-134.144 66.048-192 115.2-1.536 1.536-3.072 2.56-4.608 4.096 0 1.024 0 1.536-1.024 3.072zM902.656 117.248c-1.024-1.536-3.072-4.096-5.12-6.656-49.152-55.808-107.52-99.328-175.104-129.536-5.12-2.048-10.752-3.584-16.384-3.072-94.208 7.68-182.272 35.328-264.192 80.896-143.872 79.872-249.344 195.072-307.712 350.208-5.632 14.848-10.24 29.696-14.336 45.056-1.024 3.584-0.512 9.216 2.048 11.264 38.4 36.352 83.456 57.344 137.728 54.784 7.68-0.512 11.264-3.584 15.36-10.24 111.104-201.216 279.040-327.68 503.808-376.32 39.936-8.704 81.92-11.264 123.904-16.384zM83.456 419.84c95.744-251.392 278.016-403.456 535.040-473.6-18.944-2.56-37.888-6.144-56.832-8.192-98.816-9.216-193.536 7.68-281.6 53.76-121.856 63.488-206.336 160.256-251.904 290.304-1.024 3.072-2.048 7.168-1.536 10.752 5.632 33.792 35.328 100.352 56.832 126.976zM995.328 621.056c6.656-26.624 14.848-52.736 19.968-79.36 23.040-130.048 0.512-251.904-69.12-364.544-2.048-3.584-7.168-7.168-11.264-7.68-65.024-3.584-129.024 2.56-192 18.944-1.024 0-2.048 0.512-3.584 1.536 144.384 108.544 224.768 254.464 253.44 430.592 0.512 0 1.536 0.512 2.56 0.512zM458.752 956.928c-3.584-51.712-12.288-100.864-27.136-148.992-131.072 14.848-251.392-9.216-355.84-93.696 40.96 68.608 95.232 123.904 162.304 166.4s140.288 68.096 220.672 76.288z" />
<glyph unicode="&#xe92b;" glyph-name="blue_vert_line" data-tags="blue_vert_line" d="M486.4 960h51.2v-1024h-51.2v1024z" />
<glyph unicode="&#xe92c;" glyph-name="bodybuilding_icon_drk" data-tags="bodybuilding_icon_drk" d="M593.92 620.544c2.56 4.096 4.096 6.144 5.632 7.68 30.72 34.816 70.144 45.568 115.2 39.936 2.048 0 4.096 0 6.144-0.512 8.704-2.56 13.824 0.512 18.944 8.704 18.944 30.72 53.248 43.008 92.16 33.28 6.144-1.536 12.288-3.072 20.992-5.632-5.632 6.656-9.728 11.264-13.824 16.384-30.72 37.376-51.712 79.872-67.584 124.928-8.192 23.040-19.968 28.672-43.008 19.968-1.024-0.512-2.048-0.512-3.072-1.024-19.456-15.872-44.032-16.896-67.072-23.040-19.968-5.12-36.352 6.656-35.84 27.136 0.512 16.384 3.584 32.256 5.12 48.128 1.024 8.192 5.632 12.288 13.312 12.8 9.728 1.024 19.968 2.56 29.696 2.56 28.672 0 57.344 0 86.016-2.048 10.24-0.512 22.016-5.12 30.72-11.264 53.248-36.352 105.984-74.24 153.088-118.272 43.52-40.96 70.656-91.648 81.408-150.016 2.56-12.8 3.584-25.6-4.096-37.376-34.816-55.296-80.384-98.304-143.36-119.296-7.68-2.56-15.872-3.584-25.6-5.632 1.024-3.072 2.048-6.144 3.072-9.216 16.896-48.128 24.576-98.304 29.696-148.48 3.072-28.672 5.632-56.832 8.704-85.504 4.608-49.152-2.56-97.28-13.312-144.384-4.096-18.432-9.216-36.864-15.36-54.784-17.408-49.664-64.512-81.92-116.736-81.92-58.368 0-116.736 0-175.104 0-38.912 0-61.952 28.16-53.76 66.56 1.536 8.192 2.56 16.384 2.56 24.576 0.512 22.016-9.728 37.888-29.184 47.104-14.336 7.168-29.184 14.336-44.032 20.48-17.92 7.68-31.232 19.968-39.936 37.376-5.12 9.216-9.728 18.432-15.36 26.624-5.12 7.68-11.264 14.848-18.432 20.992-13.312 11.264-25.6 8.704-34.816-5.632-10.752-16.384-24.576-29.184-40.96-38.912-44.544-27.648-93.696-40.96-145.92-43.008-15.36-0.512-28.16 4.608-39.936 13.824-28.672 23.552-48.64 53.248-65.536 85.504-17.92 34.304-25.6 72.192-30.208 110.080-5.632 47.616-9.216 95.232-13.312 143.36-1.536 18.432 3.584 35.328 13.312 51.2 16.384 26.112 33.28 51.712 49.664 77.824 7.168 11.264 16.384 13.824 28.16 10.24 3.584-1.024 7.168-2.56 11.264-2.56 22.016-2.048 28.672-17.408 33.28-35.328 0.512-3.072 1.536-7.68 0-10.24-9.216-19.456-16.896-39.936-36.864-51.712-8.704-5.12-18.432-9.728-26.112-16.384-14.848-12.8-15.36-26.112-3.072-41.472 24.064-29.696 45.056-60.928 60.928-95.744 2.048-5.12 2.048-11.264 2.048-16.896-0.512-20.48-2.048-40.96-2.56-61.44-0.512-8.192 3.584-14.848 12.8-13.824s10.752 7.68 9.728 16.384c-3.584 27.136 0.512 52.224 16.384 74.752 15.36 22.016 36.864 34.304 64 33.792 9.728 0 14.336 2.56 17.408 11.776 1.536 5.632 5.12 10.752 7.68 15.872 23.040 44.032 59.904 66.56 108.544 69.632 20.992 1.536 41.984 0.512 62.976-1.536 35.328-3.072 64.512 12.288 78.336 45.056 10.24 24.576 18.432 49.664 27.136 74.752 2.048 6.144 0.512 12.288-6.144 14.848-6.144 2.56-12.288 0-14.848-6.144-6.144-14.336-11.264-28.672-16.896-43.52-2.048-5.632-3.584-11.776-5.632-17.92-13.824-39.936-45.056-55.808-85.504-42.496-10.24 3.072-19.968 8.192-29.184 12.8-1.536 1.024-2.56 5.12-2.56 7.68 0 3.072 0.512 6.144 1.024 11.264-6.656-2.56-11.776-4.608-16.896-6.144-13.824-5.12-18.944-1.536-19.456 13.312 0 5.632 0.512 11.776-0.512 17.408-1.024 7.168-1.536 14.336-4.096 20.992-7.68 21.504-15.872 43.008-24.064 64.512-1.536 3.072-6.144 6.144-9.728 7.168-15.36 3.072-30.72 4.608-46.080 7.168-2.048 0.512-4.608 1.536-7.168 2.048 0.512 2.56 0.512 4.608 1.536 6.144 20.48 48.128 47.616 91.648 86.528 127.488 44.032 39.936 102.4 48.128 150.016 20.992 36.352-20.48 56.32-53.248 62.976-93.696 5.632-32.768 10.752-64.512 31.232-92.16 2.56-6.144 7.168-10.752 13.312-17.92zM730.112 284.16c0 2.048 0 4.096-0.512 6.144-11.264 76.288-41.472 144.896-91.136 204.288-4.096 5.12-8.704 9.728-13.312 14.336-6.144 5.632-12.288 4.608-16.896-2.048-4.096-6.144-1.024-11.776 3.584-16.384 22.528-24.576 40.96-51.712 56.32-81.408 20.48-39.936 33.792-81.92 39.424-126.464 1.024-7.68 4.096-13.824 12.8-12.8 8.192 1.024 10.24 7.168 9.728 14.336z" />
<glyph unicode="&#xe92d;" glyph-name="bodybuilding_icon_wht" data-tags="bodybuilding_icon_wht" d="M593.92 620.544c2.56 4.096 4.096 6.144 5.632 7.68 30.72 34.816 70.144 45.568 115.2 39.936 2.048 0 4.096 0 6.144-0.512 8.704-2.56 13.824 0.512 18.944 8.704 18.944 30.72 53.248 43.008 92.16 33.28 6.144-1.536 12.288-3.072 20.992-5.632-5.632 6.656-9.728 11.264-13.824 16.384-30.72 37.376-51.712 79.872-67.584 124.928-8.192 23.040-19.968 28.672-43.008 19.968-1.024-0.512-2.048-0.512-3.072-1.024-19.456-15.872-44.032-16.896-67.072-23.040-19.968-5.12-36.352 6.656-35.84 27.136 0.512 16.384 3.584 32.256 5.12 48.128 1.024 8.192 5.632 12.288 13.312 12.8 9.728 1.024 19.968 2.56 29.696 2.56 28.672 0 57.344 0 86.016-2.048 10.24-0.512 22.016-5.12 30.72-11.264 53.248-36.352 105.984-74.24 153.088-118.272 43.52-40.96 70.656-91.648 81.408-150.016 2.56-12.8 3.584-25.6-4.096-37.376-34.816-55.296-80.384-98.304-143.36-119.296-7.68-2.56-15.872-3.584-25.6-5.632 1.024-3.072 2.048-6.144 3.072-9.216 16.896-48.128 24.576-98.304 29.696-148.48 3.072-28.672 5.632-56.832 8.704-85.504 4.608-49.152-2.56-97.28-13.312-144.384-4.096-18.432-9.216-36.864-15.36-54.784-17.408-49.664-64.512-81.92-116.736-81.92-58.368 0-116.736 0-175.104 0-38.912 0-61.952 28.16-53.76 66.56 1.536 8.192 2.56 16.384 2.56 24.576 0.512 22.016-9.728 37.888-29.184 47.104-14.336 7.168-29.184 14.336-44.032 20.48-17.92 7.68-31.232 19.968-39.936 37.376-5.12 9.216-9.728 18.432-15.36 26.624-5.12 7.68-11.264 14.848-18.432 20.992-13.312 11.264-25.6 8.704-34.816-5.632-10.752-16.384-24.576-29.184-40.96-38.912-44.544-27.648-93.696-40.96-145.92-43.008-15.36-0.512-28.16 4.608-39.936 13.824-28.672 23.552-48.64 53.248-65.536 85.504-17.92 34.304-25.6 72.192-30.208 110.080-5.632 47.616-9.216 95.232-13.312 143.36-1.536 18.432 3.584 35.328 13.312 51.2 16.384 26.112 33.28 51.712 49.664 77.824 7.168 11.264 16.384 13.824 28.16 10.24 3.584-1.024 7.168-2.56 11.264-2.56 22.016-2.048 28.672-17.408 33.28-35.328 0.512-3.072 1.536-7.68 0-10.24-9.216-19.456-16.896-39.936-36.864-51.712-8.704-5.12-18.432-9.728-26.112-16.384-14.848-12.8-15.36-26.112-3.072-41.472 24.064-29.696 45.056-60.928 60.928-95.744 2.048-5.12 2.048-11.264 2.048-16.896-0.512-20.48-2.048-40.96-2.56-61.44-0.512-8.192 3.584-14.848 12.8-13.824s10.752 7.68 9.728 16.384c-3.584 27.136 0.512 52.224 16.384 74.752 15.36 22.016 36.864 34.304 64 33.792 9.728 0 14.336 2.56 17.408 11.776 1.536 5.632 5.12 10.752 7.68 15.872 23.040 44.032 59.904 66.56 108.544 69.632 20.992 1.536 41.984 0.512 62.976-1.536 35.328-3.072 64.512 12.288 78.336 45.056 10.24 24.576 18.432 49.664 27.136 74.752 2.048 6.144 0.512 12.288-6.144 14.848-6.144 2.56-12.288 0-14.848-6.144-6.144-14.336-11.264-28.672-16.896-43.52-2.048-5.632-3.584-11.776-5.632-17.92-13.824-39.936-45.056-55.808-85.504-42.496-10.24 3.072-19.968 8.192-29.184 12.8-1.536 1.024-2.56 5.12-2.56 7.68 0 3.072 0.512 6.144 1.024 11.264-6.656-2.56-11.776-4.608-16.896-6.144-13.824-5.12-18.944-1.536-19.456 13.312 0 5.632 0.512 11.776-0.512 17.408-1.024 7.168-1.536 14.336-4.096 20.992-7.68 21.504-15.872 43.008-24.064 64.512-1.536 3.072-6.144 6.144-9.728 7.168-15.36 3.072-30.72 4.608-46.080 7.168-2.048 0.512-4.608 1.536-7.168 2.048 0.512 2.56 0.512 4.608 1.536 6.144 20.48 48.128 47.616 91.648 86.528 127.488 44.032 39.936 102.4 48.128 150.016 20.992 36.352-20.48 56.32-53.248 62.976-93.696 5.632-32.768 10.752-64.512 31.232-92.16 2.56-6.144 7.168-10.752 13.312-17.92zM730.112 284.16c0 2.048 0 4.096-0.512 6.144-11.264 76.288-41.472 144.896-91.136 204.288-4.096 5.12-8.704 9.728-13.312 14.336-6.144 5.632-12.288 4.608-16.896-2.048-4.096-6.144-1.024-11.776 3.584-16.384 22.528-24.576 40.96-51.712 56.32-81.408 20.48-39.936 33.792-81.92 39.424-126.464 1.024-7.68 4.096-13.824 12.8-12.8 8.192 1.024 10.24 7.168 9.728 14.336z" />
<glyph unicode="&#xe92e;" glyph-name="bodybuilding_icon" data-tags="bodybuilding_icon" d="M593.92 620.544c2.56 4.096 4.096 6.144 5.632 7.68 30.72 34.816 70.144 45.568 115.2 39.936 2.048 0 4.096 0 6.144-0.512 8.704-2.56 13.824 0.512 18.944 8.704 18.944 30.72 53.248 43.008 92.16 33.28 6.144-1.536 12.288-3.072 20.992-5.632-5.632 6.656-9.728 11.264-13.824 16.384-30.72 37.376-51.712 79.872-67.584 124.928-8.192 23.040-19.968 28.672-43.008 19.968-1.024-0.512-2.048-0.512-3.072-1.024-19.456-15.872-44.032-16.896-67.072-23.040-19.968-5.12-36.352 6.656-35.84 27.136 0.512 16.384 3.584 32.256 5.12 48.128 1.024 8.192 5.632 12.288 13.312 12.8 9.728 1.024 19.968 2.56 29.696 2.56 28.672 0 57.344 0 86.016-2.048 10.24-0.512 22.016-5.12 30.72-11.264 53.248-36.352 105.984-74.24 153.088-118.272 43.52-40.96 70.656-91.648 81.408-150.016 2.56-12.8 3.584-25.6-4.096-37.376-34.816-55.296-80.384-98.304-143.36-119.296-7.68-2.56-15.872-3.584-25.6-5.632 1.024-3.072 2.048-6.144 3.072-9.216 16.896-48.128 24.576-98.304 29.696-148.48 3.072-28.672 5.632-56.832 8.704-85.504 4.608-49.152-2.56-97.28-13.312-144.384-4.096-18.432-9.216-36.864-15.36-54.784-17.408-49.664-64.512-81.92-116.736-81.92-58.368 0-116.736 0-175.104 0-38.912 0-61.952 28.16-53.76 66.56 1.536 8.192 2.56 16.384 2.56 24.576 0.512 22.016-9.728 37.888-29.184 47.104-14.336 7.168-29.184 14.336-44.032 20.48-17.92 7.68-31.232 19.968-39.936 37.376-5.12 9.216-9.728 18.432-15.36 26.624-5.12 7.68-11.264 14.848-18.432 20.992-13.312 11.264-25.6 8.704-34.816-5.632-10.752-16.384-24.576-29.184-40.96-38.912-44.544-27.648-93.696-40.96-145.92-43.008-15.36-0.512-28.16 4.608-39.936 13.824-28.672 23.552-48.64 53.248-65.536 85.504-17.92 34.304-25.6 72.192-30.208 110.080-5.632 47.616-9.216 95.232-13.312 143.36-1.536 18.432 3.584 35.328 13.312 51.2 16.384 26.112 33.28 51.712 49.664 77.824 7.168 11.264 16.384 13.824 28.16 10.24 3.584-1.024 7.168-2.56 11.264-2.56 22.016-2.048 28.672-17.408 33.28-35.328 0.512-3.072 1.536-7.68 0-10.24-9.216-19.456-16.896-39.936-36.864-51.712-8.704-5.12-18.432-9.728-26.112-16.384-14.848-12.8-15.36-26.112-3.072-41.472 24.064-29.696 45.056-60.928 60.928-95.744 2.048-5.12 2.048-11.264 2.048-16.896-0.512-20.48-2.048-40.96-2.56-61.44-0.512-8.192 3.584-14.848 12.8-13.824s10.752 7.68 9.728 16.384c-3.584 27.136 0.512 52.224 16.384 74.752 15.36 22.016 36.864 34.304 64 33.792 9.728 0 14.336 2.56 17.408 11.776 1.536 5.632 5.12 10.752 7.68 15.872 23.040 44.032 59.904 66.56 108.544 69.632 20.992 1.536 41.984 0.512 62.976-1.536 35.328-3.072 64.512 12.288 78.336 45.056 10.24 24.576 18.432 49.664 27.136 74.752 2.048 6.144 0.512 12.288-6.144 14.848-6.144 2.56-12.288 0-14.848-6.144-6.144-14.336-11.264-28.672-16.896-43.52-2.048-5.632-3.584-11.776-5.632-17.92-13.824-39.936-45.056-55.808-85.504-42.496-10.24 3.072-19.968 8.192-29.184 12.8-1.536 1.024-2.56 5.12-2.56 7.68 0 3.072 0.512 6.144 1.024 11.264-6.656-2.56-11.776-4.608-16.896-6.144-13.824-5.12-18.944-1.536-19.456 13.312 0 5.632 0.512 11.776-0.512 17.408-1.024 7.168-1.536 14.336-4.096 20.992-7.68 21.504-15.872 43.008-24.064 64.512-1.536 3.072-6.144 6.144-9.728 7.168-15.36 3.072-30.72 4.608-46.080 7.168-2.048 0.512-4.608 1.536-7.168 2.048 0.512 2.56 0.512 4.608 1.536 6.144 20.48 48.128 47.616 91.648 86.528 127.488 44.032 39.936 102.4 48.128 150.016 20.992 36.352-20.48 56.32-53.248 62.976-93.696 5.632-32.768 10.752-64.512 31.232-92.16 2.56-6.144 7.168-10.752 13.312-17.92zM730.112 284.16c0 2.048 0 4.096-0.512 6.144-11.264 76.288-41.472 144.896-91.136 204.288-4.096 5.12-8.704 9.728-13.312 14.336-6.144 5.632-12.288 4.608-16.896-2.048-4.096-6.144-1.024-11.776 3.584-16.384 22.528-24.576 40.96-51.712 56.32-81.408 20.48-39.936 33.792-81.92 39.424-126.464 1.024-7.68 4.096-13.824 12.8-12.8 8.192 1.024 10.24 7.168 9.728 14.336z" />
<glyph unicode="&#xe92f;" glyph-name="bowling_icon_drk" data-tags="bowling_icon_drk" d="M550.912 289.28c0-90.769-73.583-164.352-164.352-164.352s-164.352 73.583-164.352 164.352c0 90.769 73.583 164.352 164.352 164.352s164.352-73.583 164.352-164.352zM442.88 710.144c-185.856 0-336.384-150.528-336.384-336.384s150.528-336.384 336.384-336.384 336.384 150.528 336.384 336.384c0 185.856-150.528 336.384-336.384 336.384zM386.56 71.68c-120.32 0-217.6 97.28-217.6 217.6s97.28 217.6 217.6 217.6c120.32 0 217.6-97.28 217.6-217.6s-97.28-217.6-217.6-217.6zM512 960c-282.624 0-512-229.376-512-512s229.376-512 512-512 512 229.376 512 512-229.376 512-512 512zM442.88-17.92c-216.064 0-391.68 175.104-391.68 391.68 0 216.064 175.616 391.68 391.68 391.68s391.68-175.616 391.68-391.68c0-216.576-175.616-391.68-391.68-391.68z" />
<glyph unicode="&#xe930;" glyph-name="bowling_icon_wht" data-tags="bowling_icon_wht" d="M550.912 289.28c0-90.769-73.583-164.352-164.352-164.352s-164.352 73.583-164.352 164.352c0 90.769 73.583 164.352 164.352 164.352s164.352-73.583 164.352-164.352zM442.88 710.144c-185.856 0-336.384-150.528-336.384-336.384s150.528-336.384 336.384-336.384 336.384 150.528 336.384 336.384c0 185.856-150.528 336.384-336.384 336.384zM386.56 71.68c-120.32 0-217.6 97.28-217.6 217.6s97.28 217.6 217.6 217.6c120.32 0 217.6-97.28 217.6-217.6s-97.28-217.6-217.6-217.6zM512 960c-282.624 0-512-229.376-512-512s229.376-512 512-512 512 229.376 512 512-229.376 512-512 512zM442.88-17.92c-216.064 0-391.68 175.104-391.68 391.68 0 216.064 175.616 391.68 391.68 391.68s391.68-175.616 391.68-391.68c0-216.576-175.616-391.68-391.68-391.68z" />
<glyph unicode="&#xe931;" glyph-name="bowling_icon" data-tags="bowling_icon" d="M550.912 289.28c0-90.769-73.583-164.352-164.352-164.352s-164.352 73.583-164.352 164.352c0 90.769 73.583 164.352 164.352 164.352s164.352-73.583 164.352-164.352zM442.88 710.144c-185.856 0-336.384-150.528-336.384-336.384s150.528-336.384 336.384-336.384 336.384 150.528 336.384 336.384c0 185.856-150.528 336.384-336.384 336.384zM386.56 71.68c-120.32 0-217.6 97.28-217.6 217.6s97.28 217.6 217.6 217.6c120.32 0 217.6-97.28 217.6-217.6s-97.28-217.6-217.6-217.6zM512 960c-282.624 0-512-229.376-512-512s229.376-512 512-512 512 229.376 512 512-229.376 512-512 512zM442.88-17.92c-216.064 0-391.68 175.104-391.68 391.68 0 216.064 175.616 391.68 391.68 391.68s391.68-175.616 391.68-391.68c0-216.576-175.616-391.68-391.68-391.68z" />
<glyph unicode="&#xe932;" glyph-name="boxing_icon_drk" data-tags="boxing_icon_drk" d="M449.536 554.496c0 53.248 0 92.16 0 131.072-6.144 1.024-11.264 2.048-17.408 2.048-9.216-27.648-19.456-55.296-29.696-87.040-70.656 0-141.312 0-209.92 0-34.816 138.24-21.504 156.672 110.592 158.72 38.912 1.024 78.848-2.048 117.76 0 78.848 5.12 106.496-29.696 107.52-108.544 0-51.2 24.576-101.376 37.888-151.552 21.504-86.016 50.176-171.008 61.44-259.072 15.36-111.616-24.576-207.872-129.024-262.144-111.616-57.344-231.424-60.416-338.944 5.12-37.888 23.552-72.704 87.040-69.632 129.024 3.072 33.792 62.464 82.944 103.424 90.112 75.776 12.288 155.648 1.024 233.472-3.072 28.672-2.048 57.344-10.24 84.992-16.384 3.072 14.336 6.144 29.696 9.216 44.032-95.232 20.48-191.488 41.984-301.056 65.536-5.12 13.312-17.408 44.032-28.672 73.728-7.168 0-14.336 0-21.504 0-5.12-24.576-6.144-51.2-17.408-71.68-12.288-22.528-34.816-38.912-53.248-57.344-16.384 19.456-44.032 36.864-49.152 59.392-29.696 137.216 70.656 257.024 207.872 258.048 63.488 0 126.976 0 191.488 0zM660.48 65.024c111.616 234.496-69.632 430.080-76.8 643.072 193.536 81.92 247.808 64.512 252.928-77.824-59.392-12.288-119.808-26.624-201.728-46.080 103.424-51.2 223.232 65.536 275.456-62.464 35.84-87.040 72.704-183.296 69.632-274.432-4.096-135.168-132.096-203.776-319.488-182.272zM630.784 811.52c-46.080 38.912-92.16 78.848-140.288 119.808-48.128-43.008-93.184-82.944-114.688-102.4 28.672 31.744 78.848 84.992 120.832 131.072 41.984-36.864 95.232-84.992 148.48-132.096-4.096-6.144-9.216-11.264-14.336-16.384z" />
<glyph unicode="&#xe933;" glyph-name="boxing_icon_wht" data-tags="boxing_icon_wht" d="M449.536 554.496c0 53.248 0 92.16 0 131.072-6.144 1.024-11.264 2.048-17.408 2.048-9.216-27.648-19.456-55.296-29.696-87.040-70.656 0-141.312 0-209.92 0-34.816 138.24-21.504 156.672 110.592 158.72 38.912 1.024 78.848-2.048 117.76 0 78.848 5.12 106.496-29.696 107.52-108.544 0-51.2 24.576-101.376 37.888-151.552 21.504-86.016 50.176-171.008 61.44-259.072 15.36-111.616-24.576-207.872-129.024-262.144-111.616-57.344-231.424-60.416-338.944 5.12-37.888 23.552-72.704 87.040-69.632 129.024 3.072 33.792 62.464 82.944 103.424 90.112 75.776 12.288 155.648 1.024 233.472-3.072 28.672-2.048 57.344-10.24 84.992-16.384 3.072 14.336 6.144 29.696 9.216 44.032-95.232 20.48-191.488 41.984-301.056 65.536-5.12 13.312-17.408 44.032-28.672 73.728-7.168 0-14.336 0-21.504 0-5.12-24.576-6.144-51.2-17.408-71.68-12.288-22.528-34.816-38.912-53.248-57.344-16.384 19.456-44.032 36.864-49.152 59.392-29.696 137.216 70.656 257.024 207.872 258.048 63.488 0 126.976 0 191.488 0zM660.48 65.024c111.616 234.496-69.632 430.080-76.8 643.072 193.536 81.92 247.808 64.512 252.928-77.824-59.392-12.288-119.808-26.624-201.728-46.080 103.424-51.2 223.232 65.536 275.456-62.464 35.84-87.040 72.704-183.296 69.632-274.432-4.096-135.168-132.096-203.776-319.488-182.272zM630.784 811.52c-46.080 38.912-92.16 78.848-140.288 119.808-48.128-43.008-93.184-82.944-114.688-102.4 28.672 31.744 78.848 84.992 120.832 131.072 41.984-36.864 95.232-84.992 148.48-132.096-4.096-6.144-9.216-11.264-14.336-16.384z" />
<glyph unicode="&#xe934;" glyph-name="boxing_icon" data-tags="boxing_icon" d="M449.536 554.496c0 53.248 0 92.16 0 131.072-6.144 1.024-11.264 2.048-17.408 2.048-9.216-27.648-19.456-55.296-29.696-87.040-70.656 0-141.312 0-209.92 0-34.816 138.24-21.504 156.672 110.592 158.72 38.912 1.024 78.848-2.048 117.76 0 78.848 5.12 106.496-29.696 107.52-108.544 0-51.2 24.576-101.376 37.888-151.552 21.504-86.016 50.176-171.008 61.44-259.072 15.36-111.616-24.576-207.872-129.024-262.144-111.616-57.344-231.424-60.416-338.944 5.12-37.888 23.552-72.704 87.040-69.632 129.024 3.072 33.792 62.464 82.944 103.424 90.112 75.776 12.288 155.648 1.024 233.472-3.072 28.672-2.048 57.344-10.24 84.992-16.384 3.072 14.336 6.144 29.696 9.216 44.032-95.232 20.48-191.488 41.984-301.056 65.536-5.12 13.312-17.408 44.032-28.672 73.728-7.168 0-14.336 0-21.504 0-5.12-24.576-6.144-51.2-17.408-71.68-12.288-22.528-34.816-38.912-53.248-57.344-16.384 19.456-44.032 36.864-49.152 59.392-29.696 137.216 70.656 257.024 207.872 258.048 63.488 0 126.976 0 191.488 0zM660.48 65.024c111.616 234.496-69.632 430.080-76.8 643.072 193.536 81.92 247.808 64.512 252.928-77.824-59.392-12.288-119.808-26.624-201.728-46.080 103.424-51.2 223.232 65.536 275.456-62.464 35.84-87.040 72.704-183.296 69.632-274.432-4.096-135.168-132.096-203.776-319.488-182.272zM630.784 811.52c-46.080 38.912-92.16 78.848-140.288 119.808-48.128-43.008-93.184-82.944-114.688-102.4 28.672 31.744 78.848 84.992 120.832 131.072 41.984-36.864 95.232-84.992 148.48-132.096-4.096-6.144-9.216-11.264-14.336-16.384z" />
<glyph unicode="&#xe935;" glyph-name="bullet" data-tags="bullet" horiz-adv-x="1023" d="M571.725 447.49l-376.726-389.998 120.471-121.492 511.49 511.49-511.49 511.49-120.471-118.429 376.726-393.061z" />
<glyph unicode="&#xe936;" glyph-name="calendar_icon_grn" data-tags="calendar_icon_grn" d="M155.316 38.942v561.665h715.175v-561.665h-715.175zM818.116 857.058v102.942h-102.942v-102.942h-406.349v102.942h-102.942v-102.942h-50.568c-27.090 0-54.18-10.836-74.046-30.702s-28.896-45.15-28.896-72.24v-715.175c0-27.090 10.836-52.374 28.896-72.24 19.866-19.866 45.15-32.508 74.046-30.702h715.175c55.986 1.806 101.136 46.956 102.942 102.942v715.175c-1.806 55.986-46.956 101.136-102.942 102.942h-52.374zM689.891 499.471l-251.034-249.228-106.554 108.36-55.986-55.986 162.54-162.54 305.213 305.213-54.18 54.18z" />
<glyph unicode="&#xe937;" glyph-name="calendar_icon_gry" data-tags="calendar_icon_gry" d="M155.316 38.942v561.665h715.175v-561.665h-715.175zM818.116 857.058v102.942h-102.942v-102.942h-406.349v102.942h-102.942v-102.942h-50.568c-27.090 0-54.18-10.836-74.046-30.702s-28.896-45.15-28.896-72.24v-715.175c0-27.090 10.836-52.374 28.896-72.24 19.866-19.866 45.15-32.508 74.046-30.702h715.175c55.986 1.806 101.136 46.956 102.942 102.942v715.175c-1.806 55.986-46.956 101.136-102.942 102.942h-52.374zM689.891 499.471l-251.034-249.228-106.554 108.36-55.986-55.986 162.54-162.54 305.213 305.213-54.18 54.18z" />
<glyph unicode="&#xe938;" glyph-name="calendar_icon_wht" data-tags="calendar_icon_wht" d="M155.316 38.942v561.665h715.175v-561.665h-715.175zM818.116 857.058v102.942h-102.942v-102.942h-406.349v102.942h-102.942v-102.942h-50.568c-27.090 0-54.18-10.836-74.046-30.702s-28.896-45.15-28.896-72.24v-715.175c0-27.090 10.836-52.374 28.896-72.24 19.866-19.866 45.15-32.508 74.046-30.702h715.175c55.986 1.806 101.136 46.956 102.942 102.942v715.175c-1.806 55.986-46.956 101.136-102.942 102.942h-52.374zM689.891 499.471l-251.034-249.228-106.554 108.36-55.986-55.986 162.54-162.54 305.213 305.213-54.18 54.18z" />
<glyph unicode="&#xe939;" glyph-name="canoeing_icon_drk" data-tags="canoeing_icon_drk" d="M90.624 960c5.12-1.536 9.728-3.584 14.848-4.608 35.84-5.632 69.632-18.944 102.4-33.28 69.632-30.72 135.168-69.12 197.632-112.64 46.080-32.256 91.648-65.536 135.68-100.864 35.328-28.16 67.584-59.904 100.864-90.112 5.12-5.12 8.704-4.608 13.312 0 30.72 31.232 61.952 61.952 92.672 93.184 2.048 2.048 3.072 6.656 2.56 10.24-1.024 18.432 3.072 35.84 10.24 52.224 18.432 44.544 42.496 85.504 75.776 120.32 14.336 14.848 29.184 29.184 45.056 42.496 16.896 14.336 35.84 17.408 55.296 4.608 22.528-14.336 41.984-32.256 55.808-55.296 14.848-25.088 9.216-40.96-7.68-61.44-37.376-46.080-83.968-80.896-137.216-106.496-23.040-11.264-46.592-21.504-73.728-19.968-3.584 0-8.192-3.072-10.752-5.632-53.76-53.76-107.52-107.52-161.28-161.28-113.664-113.664-227.84-227.84-341.504-341.504-6.144-6.144-10.24-10.752-9.216-21.504 1.024-12.8-4.096-26.624-8.192-38.912-21.504-58.88-55.808-109.056-101.888-151.040-12.288-11.264-27.136-19.968-41.984-27.648-13.312-7.168-26.624 0-37.888 7.68-20.992 14.848-39.424 32.256-52.736 54.272-3.584 6.144-6.144 12.8-9.216 19.456 0 3.584 0 6.656 0 10.24 2.048 4.096 3.584 8.192 5.632 12.288 12.8 23.552 31.744 41.984 51.2 59.904 29.696 27.136 62.976 48.64 99.328 66.048 23.040 10.752 46.080 20.48 72.704 17.92 3.584-0.512 8.192 1.536 10.752 4.096 34.304 33.792 68.096 67.584 101.888 101.376 5.12 5.12 5.12 8.192 0 13.312-30.208 33.28-61.952 66.048-90.112 100.864-35.328 44.032-69.12 89.088-100.864 135.68-43.52 62.464-81.92 128-112.64 197.632-11.776 26.624-19.968 54.784-29.184 82.432-3.072 12.288-5.12 24.064-8.192 35.328 0 11.776 0 23.552 0 34.816 1.024 1.536 2.048 3.072 2.56 4.608 3.072 18.944 11.776 33.28 28.16 41.984 7.68 4.096 16.384 6.144 24.576 9.216 11.776 0 23.552 0 35.328 0zM556.544 524.8c-18.432 13.824-36.864 28.672-56.32 41.472-32.256 20.992-66.048 38.912-104.448 46.080-24.576 4.608-45.056-5.12-48.128-26.624-1.536-10.752 0.512-22.528 2.56-33.28 6.656-31.744 22.528-60.416 39.936-87.552 13.824-21.504 29.696-41.472 44.544-61.952 41.472 41.472 80.384 80.896 121.856 121.856zM939.52-64c-4.096 1.024-8.704 3.072-12.8 3.584-47.104 8.192-91.136 26.624-133.12 48.64-47.104 25.088-93.696 51.2-138.752 79.872-48.128 30.72-94.208 64-140.288 97.792-28.672 20.992-54.784 44.544-82.432 67.072-11.776 9.728-23.552 19.968-34.816 29.696 30.72 30.72 60.416 60.416 91.136 90.624 27.136-20.48 56.32-40.448 89.088-54.272 21.504-9.216 43.52-16.896 67.584-18.432 19.968-1.024 35.328 16.384 33.792 35.328-4.096 46.592-25.6 85.504-50.176 123.904-7.168 11.264-14.848 21.504-22.016 31.744 29.696 29.696 59.904 59.392 90.624 90.624 11.776-13.312 25.088-27.648 37.376-42.496 18.432-22.528 36.864-45.568 54.784-69.12 23.552-31.232 47.616-61.952 69.12-94.72 30.208-45.056 59.392-91.136 86.528-137.728 25.6-44.544 48.128-90.624 64-139.776 5.632-17.92 8.704-37.376 13.312-55.808 0-1.024 1.536-2.048 2.56-2.56 0-10.752 0-22.016 0-32.768-1.024-1.024-2.048-2.56-2.56-3.584-3.584-23.552-17.92-37.888-39.936-44.544-3.072-1.024-5.632-2.048-8.704-3.072-12.288 0-23.040 0-34.304 0z" />
<glyph unicode="&#xe93a;" glyph-name="canoeing_icon_wht" data-tags="canoeing_icon_wht" d="M90.624 960c5.12-1.536 9.728-3.584 14.848-4.608 35.84-5.632 69.632-18.944 102.4-33.28 69.632-30.72 135.168-69.12 197.632-112.64 46.080-32.256 91.648-65.536 135.68-100.864 35.328-28.16 67.584-59.904 100.864-90.112 5.12-5.12 8.704-4.608 13.312 0 30.72 31.232 61.952 61.952 92.672 93.184 2.048 2.048 3.072 6.656 2.56 10.24-1.024 18.432 3.072 35.84 10.24 52.224 18.432 44.544 42.496 85.504 75.776 120.32 14.336 14.848 29.184 29.184 45.056 42.496 16.896 14.336 35.84 17.408 55.296 4.608 22.528-14.336 41.984-32.256 55.808-55.296 14.848-25.088 9.216-40.96-7.68-61.44-37.376-46.080-83.968-80.896-137.216-106.496-23.040-11.264-46.592-21.504-73.728-19.968-3.584 0-8.192-3.072-10.752-5.632-53.76-53.76-107.52-107.52-161.28-161.28-113.664-113.664-227.84-227.84-341.504-341.504-6.144-6.144-10.24-10.752-9.216-21.504 1.024-12.8-4.096-26.624-8.192-38.912-21.504-58.88-55.808-109.056-101.888-151.040-12.288-11.264-27.136-19.968-41.984-27.648-13.312-7.168-26.624 0-37.888 7.68-20.992 14.848-39.424 32.256-52.736 54.272-3.584 6.144-6.144 12.8-9.216 19.456 0 3.584 0 6.656 0 10.24 2.048 4.096 3.584 8.192 5.632 12.288 12.8 23.552 31.744 41.984 51.2 59.904 29.696 27.136 62.976 48.64 99.328 66.048 23.040 10.752 46.080 20.48 72.704 17.92 3.584-0.512 8.192 1.536 10.752 4.096 34.304 33.792 68.096 67.584 101.888 101.376 5.12 5.12 5.12 8.192 0 13.312-30.208 33.28-61.952 66.048-90.112 100.864-35.328 44.032-69.12 89.088-100.864 135.68-43.52 62.464-81.92 128-112.64 197.632-11.776 26.624-19.968 54.784-29.184 82.432-3.072 12.288-5.12 24.064-8.192 35.328 0 11.776 0 23.552 0 34.816 1.024 1.536 2.048 3.072 2.56 4.608 3.072 18.944 11.776 33.28 28.16 41.984 7.68 4.096 16.384 6.144 24.576 9.216 11.776 0 23.552 0 35.328 0zM556.544 524.8c-18.432 13.824-36.864 28.672-56.32 41.472-32.256 20.992-66.048 38.912-104.448 46.080-24.576 4.608-45.056-5.12-48.128-26.624-1.536-10.752 0.512-22.528 2.56-33.28 6.656-31.744 22.528-60.416 39.936-87.552 13.824-21.504 29.696-41.472 44.544-61.952 41.472 41.472 80.384 80.896 121.856 121.856zM939.52-64c-4.096 1.024-8.704 3.072-12.8 3.584-47.104 8.192-91.136 26.624-133.12 48.64-47.104 25.088-93.696 51.2-138.752 79.872-48.128 30.72-94.208 64-140.288 97.792-28.672 20.992-54.784 44.544-82.432 67.072-11.776 9.728-23.552 19.968-34.816 29.696 30.72 30.72 60.416 60.416 91.136 90.624 27.136-20.48 56.32-40.448 89.088-54.272 21.504-9.216 43.52-16.896 67.584-18.432 19.968-1.024 35.328 16.384 33.792 35.328-4.096 46.592-25.6 85.504-50.176 123.904-7.168 11.264-14.848 21.504-22.016 31.744 29.696 29.696 59.904 59.392 90.624 90.624 11.776-13.312 25.088-27.648 37.376-42.496 18.432-22.528 36.864-45.568 54.784-69.12 23.552-31.232 47.616-61.952 69.12-94.72 30.208-45.056 59.392-91.136 86.528-137.728 25.6-44.544 48.128-90.624 64-139.776 5.632-17.92 8.704-37.376 13.312-55.808 0-1.024 1.536-2.048 2.56-2.56 0-10.752 0-22.016 0-32.768-1.024-1.024-2.048-2.56-2.56-3.584-3.584-23.552-17.92-37.888-39.936-44.544-3.072-1.024-5.632-2.048-8.704-3.072-12.288 0-23.040 0-34.304 0z" />
</font>
</defs>
</svg>
