<svg xmlns="http://www.w3.org/2000/svg" width="99.999" height="111.466" viewBox="0 0 15 16.72">
  <defs>
    <style>
      .cls-1 {
        fill: #4ea3c9;
        fill-rule: evenodd;
      }
    </style>
  </defs>
  <path id="calendar_icons_copy" data-name="calendar icons copy" class="cls-1" d="M131.672,1906.04v-9.16h11.64v9.16h-11.64Zm10.82-13.35v-1.68h-1.68v1.68h-6.64v-1.68h-1.68v1.68h-0.82a1.588,1.588,0,0,0-1.192.51,1.651,1.651,0,0,0-.488,1.18v11.66a1.646,1.646,0,0,0,.488,1.17,1.588,1.588,0,0,0,1.192.51h11.64a1.741,1.741,0,0,0,1.68-1.68v-11.66a1.741,1.741,0,0,0-1.68-1.69h-0.82Z" transform="translate(-130 -1891)"/>
</svg>
