<?xml version="1.0" encoding="utf-8"?>
<!-- Generator: Adobe Illustrator 20.0.0, SVG Export Plug-In . SVG Version: 6.00 Build 0)  -->
<svg version="1.1" id="Layer_1" xmlns="http://www.w3.org/2000/svg" xmlns:xlink="http://www.w3.org/1999/xlink" x="0px" y="0px"
	 viewBox="0 0 566.9 566.9" style="enable-background:new 0 0 566.9 566.9;" xml:space="preserve">
<style type="text/css">
	.st0{fill:#BBBBBB;}
</style>
<g>
	<path id="photo_icon_34_" class="st0" d="M169.5,305.6C169,242.8,219.9,191,283.2,191c63.3-0.5,114.7,50.4,115.1,113.7
		c0.5,63.3-50.4,114.7-113.7,115.1c-30.5,0-59.6-12-81.4-33.3C181,365.3,169,336.2,169.5,305.6z M173.6,123.9h-72.1
		c-12,0-23.1,5.1-31.4,13.9c-8.3,8.3-13.4,19.9-13.4,31.9V442c0,12,4.6,23.6,13.4,31.9c7.9,8.8,19.4,13.9,31.4,13.9h363.9
		c12,0,23.1-5.1,31.4-13.9c8.3-8.3,13.4-19.9,13.4-31.9V169.7c0-12-4.6-23.6-13.4-31.9c-7.9-8.8-19.4-13.9-31.4-13.9h-72.6
		l-41.6-44.8H215.3L173.6,123.9z M283.2,378.2c40.2,0,72.6-32.4,73-72.1c0-40.2-32.4-72.6-72.1-73c-40.2,0-72.6,32.4-73,72.1
		c0,19.4,7.4,37.9,21.3,51.8C245.8,370.8,264.3,378.2,283.2,378.2z"/>
</g>
</svg>
