<?xml version="1.0" encoding="utf-8"?>
<!-- Generator: Adobe Illustrator 20.0.0, SVG Export Plug-In . SVG Version: 6.00 Build 0)  -->
<svg version="1.1" id="Layer_1" xmlns="http://www.w3.org/2000/svg" xmlns:xlink="http://www.w3.org/1999/xlink" x="0px" y="0px"
	 width="100px" height="100px" viewBox="0 0 100 100" style="enable-background:new 0 0 100 100;" xml:space="preserve">
<style type="text/css">
	.st0{fill:#999999;}
</style>
<g id="CdnkIn_1_">
	<g>
		<path class="st0" d="M12.1,79.6c-2.4,0-4.8,0-7.1,0c-3.3,0-5-1.7-5-5c0-20.5,0-41,0-61.5c0-3.2,1.8-4.9,4.9-4.9c26,0,52,0,78,0
			c2.5,0,5,1.7,4.9,4.9c-0.1,2.1,0,4.2,0,6.3c0,0.3,0,0.6,0.1,1.1c2.5,0,4.9,0,7.4,0c0.7,0,1.4,0.1,2,0.3c1.8,0.7,2.8,2.2,2.8,4.4
			c0,13.4,0,26.9,0,40.3c0,7.2,0,14.4,0,21.6c0,3-1.8,4.8-4.8,4.8c-26,0-52,0-78,0c-2.8,0-5.2-1.8-5-5c0.1-2.3,0-4.6,0-6.9
			C12.2,79.9,12.2,79.8,12.1,79.6z M91.8,83.6c0-18.4,0-36.7,0-55c-23.8,0-47.5,0-71.3,0c0,18.4,0,36.7,0,55
			C44.3,83.6,68,83.6,91.8,83.6z M12.2,71.4c0-0.3,0-0.6,0-0.8c0-4.1,0-8.3,0-12.4c0-11,0-22.1,0-33.1c0-2.4,1.3-4.1,3.5-4.5
			c0.7-0.1,1.4-0.1,2.1-0.1c20.2,0,40.4,0,60.6,0c0.3,0,0.7,0,1,0c0-1.4,0-2.7,0-4.1c-23.8,0-47.5,0-71.3,0c0,18.4,0,36.7,0,55
			C9.5,71.4,10.8,71.4,12.2,71.4z"/>
		<path class="st0" d="M87.7,78.8c-21.1,0-42,0-63.1,0c0.2-0.3,0.3-0.6,0.5-0.8c5-7.3,10.1-14.5,15.1-21.8c1.2-1.8,2.4-1.8,3.7-0.1
			c1.8,2.3,3.6,4.7,5.3,7c1.4,1.8,2.5,1.8,3.8,0c4.4-5.8,8.9-11.7,13.3-17.5c1.4-1.8,2.4-1.8,3.8,0c5.6,7.5,11.3,14.9,16.9,22.4
			c0.4,0.5,0.6,1.2,0.6,1.8C87.7,72.8,87.7,75.8,87.7,78.8z"/>
		<path class="st0" d="M37.9,33.5c4,0,7.2,3.2,7.2,7.1c0,4-3.2,7.2-7.2,7.2c-3.9,0-7.1-3.2-7.1-7.2C30.8,36.7,33.9,33.5,37.9,33.5z"
			/>
	</g>
</g>
</svg>
