<?xml version="1.0" encoding="utf-8"?>
<!-- Generator: Adobe Illustrator 21.0.2, SVG Export Plug-In . SVG Version: 6.00 Build 0)  -->
<svg version="1.1" id="Layer_1" xmlns="http://www.w3.org/2000/svg" xmlns:xlink="http://www.w3.org/1999/xlink" x="0px" y="0px"
	 viewBox="0 0 200 200" style="enable-background:new 0 0 200 200;" xml:space="preserve">
<style type="text/css">
	.st0{fill:#FFFFFF;}
</style>
<path class="st0" d="M133.7,132.6c12.1-4.4,23.3-10.3,34.1-17.1c1.2-0.7,2.3-1.5,3.5-2.3c3.4-2.2,6.7-1.3,8.4,2.4
	c3.8,8.5,7.6,16.9,11.4,25.4c2.7,6,5.4,12,8.1,18c1.7,3.8,0.7,6.4-3,8.2c-11.4,5.3-23.1,9.1-35.7,9.5c-8.5,0.3-16.6-1.1-23.7-6.2
	c-0.5-0.4-1.4-0.5-2.1-0.3c-10.5,2.6-21.1,4.2-31.8,4.9c-1.4,0.1-2.8,0.6-4,1.4c-12.4,7.5-24.9,7.8-37.5,0.9
	c-4.1-2.3-8.1-4.8-12.2-7.1c-3.3-1.9-5.7-1.7-8.5,0.8c-6.5,5.7-15,5-20.6-1.6C10.6,158.7,5.5,146,2.6,132.3
	C-1.4,113-1,93.8,4.9,74.9C12.7,49.9,29.5,33.1,53.6,24c31.8-11.9,61.6-7.2,88.4,13.7c5.9,4.6,11.1,10.3,16.4,15.7
	c3.4,3.5,2.4,9.1-2,12.1c-8.4,5.8-16.9,11.5-25.3,17.2c-2.9,2-5.9,3.9-8.8,6c-0.5,0.4-1,1.5-0.8,2.1c3.8,13.7,7.8,27.3,11.7,41
	C133.3,132.1,133.5,132.2,133.7,132.6z M79.2,160.1c8.2,0,14.8-6.5,14.7-14.6c0-8-6.7-14.6-14.7-14.5c-7.9,0.1-14.5,6.6-14.5,14.5
	C64.8,153.5,71.2,160.1,79.2,160.1z M172.3,125.2c-11.5,7.2-23.3,13.2-35.9,17.7c1.4,5,2.8,9.7,4.2,14.6
	c13.7-4.5,26.2-10.7,37.4-19.8C176.1,133.5,174.2,129.4,172.3,125.2z M113.5,138.1c3.6-0.8,6.6-1.5,9.9-2.2
	c-3.6-12.6-7.2-25-10.8-37.6c-3.4,4.1-5.8,12.3-4.6,18C109.5,123.5,111.6,130.6,113.5,138.1z M182.5,147.7
	c-9.8,7.6-20.3,13.1-31.4,17.7c12.9,2.4,24.8-1.2,36.7-5.9C185.9,155.4,184.3,151.7,182.5,147.7z M110.3,164.2
	c7-1.2,13.5-2.4,20.2-3.6c-1.5-5.1-2.8-9.7-4.2-14.5c-3.7,0.8-7.2,1.5-10.7,2.2c-0.3,0.1-0.8,0.6-0.8,1
	C114.3,154.4,112.9,159.1,110.3,164.2z"/>
</svg>
