<?xml version="1.0" encoding="utf-8"?>
<!-- Generator: Adobe Illustrator 21.0.2, SVG Export Plug-In . SVG Version: 6.00 Build 0)  -->
<svg version="1.1" id="Layer_1" xmlns="http://www.w3.org/2000/svg" xmlns:xlink="http://www.w3.org/1999/xlink" x="0px" y="0px"
	 width="200px" height="200px" viewBox="0 0 200 200" style="enable-background:new 0 0 200 200;" xml:space="preserve">
<style type="text/css">
	.st0{fill:#FFFFFF;}
</style>
<g>
	<path class="st0" d="M174.1,60.6c21.6,36.7,15.3,88.4-22,118.5c-37.3,30.2-91.3,27.3-125-6.6C-6.7,138.4-9.2,84.1,21.5,47.2
		c30.7-37,82-42.5,118.3-21c-4.7,4.4-9,8.7-13.7,12.6c-1,0.8-3.5,0.5-5.1-0.2c-28.5-11.4-61-4.5-81.5,18.3
		c-19.9,22.1-25,47.9-14.7,75.6c10.1,27.2,30.7,43.2,59.4,47.1c40.1,5.5,77-23.7,82-63.5c1.6-13-0.1-25.4-5-37.4
		c-0.9-2.3-1.1-3.9,1-5.8C166.2,69,169.9,64.9,174.1,60.6z"/>
	<path class="st0" d="M145.4,89.5c8.5,23.9-1.4,50.8-23.2,64.3c-22.1,13.6-50.7,9.9-68.8-8.9C35.5,126.2,33,97.3,47.6,75.7
		C61.2,55.5,88.9,46,111,54.9c-5.1,4.8-9.7,9.2-14.6,13.5c-0.9,0.8-2.6,1.1-3.9,1.1c-22.4,1-38.2,19.3-36,41.8
		c2,20.3,21.8,35.2,42.9,32.1c16.6-2.4,30.4-17.8,31-34.7c0.1-3.2,1.1-5.3,3.3-7.4C137.6,97.6,141.3,93.7,145.4,89.5z"/>
	<path class="st0" d="M177.3,0c0.8,5.6,1.7,9.9,1.9,14.4c0.2,4.3,1.9,6.2,6.3,6.5c4.6,0.3,9.1,1.2,14.6,1.9
		c-8.8,8.8-16.9,17.1-25.3,25.1c-1,0.9-3.3,0.9-4.9,0.6c-3.4-0.5-5.9,0.4-8.4,3c-15.4,15.7-31,31.2-46.6,46.8c-2,2-3,3.9-2.8,7
		c0.9,11.2-7.2,20-18.1,20.3c-11.2,0.3-19.4-7.8-19.3-19.1c0.1-10.9,8.9-19.2,20-18.3c3.3,0.3,5.3-0.8,7.4-3
		c15.4-15.5,30.8-31,46.4-46.3c2.7-2.7,3.4-5.2,3.2-8.8c-0.1-2,0.7-4.7,2.1-6.1C161.1,16,168.9,8.4,177.3,0z"/>
</g>
</svg>
