<?xml version="1.0" encoding="utf-8"?>
<!-- Generator: Adobe Illustrator 21.0.2, SVG Export Plug-In . SVG Version: 6.00 Build 0)  -->
<svg version="1.1" id="Layer_1" xmlns="http://www.w3.org/2000/svg" xmlns:xlink="http://www.w3.org/1999/xlink" x="0px" y="0px"
	 width="200px" height="200px" viewBox="0 0 200 200" style="enable-background:new 0 0 200 200;" xml:space="preserve">
<style type="text/css">
	.st0{fill:#394454;}
</style>
<g>
	<path class="st0" d="M75.8,200C36,200,6.2,174.7,1,140.2c-3.5-22.9,2.6-43.3,18.7-59.9c19.9-20.6,40.2-40.8,60.7-60.7
		c15.5-15,34.4-21.2,55.9-19c32.9,3.3,58.8,28.2,63.1,61c3,23.1-3.9,43.3-20.4,59.9c-19.2,19.4-38.6,38.7-57.9,57.9
		C107.2,193,90.3,199.7,75.8,200z M129.3,7.4c-15.8-0.1-32.1,5.9-43.1,16.8c-20.8,20.5-41.7,41-62,62.1
		c-13.5,14-18.6,31.4-16.2,50.7c4,31.9,30,53.5,58.3,55.3c18.4,1.2,34.7-4.2,48-17c20.4-19.8,40.4-39.9,60.3-60.2
		c14.5-14.9,20.1-33,17.2-53.7C187.4,30.8,160.6,7.6,129.3,7.4z"/>
	<path class="st0" d="M129,14.9c27.5,0,51,20,55.2,47.1c2.9,18.8-2.4,35.1-15.7,48.6c-19.3,19.6-38.6,39.1-58.3,58.2
		c-15.5,15.1-34.3,19.9-55,13.8c-20.6-6-33.8-20-38.7-40.9c-4.8-20.1,0.6-37.9,15.1-52.7c19-19.4,38.3-38.5,57.6-57.6
		c3.2-3.1,6.8-5.9,10.5-8.3C108.3,17.7,118.8,14.9,129,14.9z M22.4,130.2c0.1,1.3,0.2,3.8,0.6,6.2c5.7,36.6,48.2,53.6,77.5,31
		c1.9-1.5,3.7-3.1,5.4-4.8c18.9-18.9,37.9-37.8,56.8-56.8c12.2-12.2,17.2-27.1,13.9-43.9c-3.5-18.4-14.6-31.2-32.4-37
		c-18-5.9-34.8-2.4-48.4,10.8c-20.4,19.6-40.2,39.8-60.1,60C26.7,104.9,22.6,116.2,22.4,130.2z"/>
	<path class="st0" d="M29.8,129.4c0.2-11.3,3.7-20.9,11.4-28.7c19.8-20,39.5-40,59.6-59.5c11.7-11.4,26.1-14.4,41.5-9.1
		c15,5.1,24.3,16,27.1,31.7c2.5,13.7-1.3,25.9-11.1,35.8c-19.4,19.7-38.9,39.3-58.6,58.6c-11.9,11.6-26.4,14.9-42.1,9.5
		c-15.5-5.3-24.5-16.7-27.4-32.9C29.9,133,29.9,131,29.8,129.4z M37.5,128.8c0,1.5-0.2,3,0,4.4c2.1,13.3,9.3,22.8,22,27.3
		c12.9,4.6,25,2.1,34.8-7.5c19.7-19.4,39.1-39,58.6-58.6c7.5-7.6,10.7-17,9.4-27.5c-1.7-13.4-9.2-23-22-27.6
		c-12.9-4.6-25-2.1-34.8,7.6c-19.7,19.4-39.1,39-58.6,58.6C40.6,111.9,37.5,119.8,37.5,128.8z"/>
</g>
</svg>
