<?xml version="1.0" encoding="utf-8"?>
<!-- Generator: Adobe Illustrator 21.0.2, SVG Export Plug-In . SVG Version: 6.00 Build 0)  -->
<svg version="1.1" id="Layer_1" xmlns="http://www.w3.org/2000/svg" xmlns:xlink="http://www.w3.org/1999/xlink" x="0px" y="0px"
	 width="200px" height="200px" viewBox="0 0 200 200" style="enable-background:new 0 0 200 200;" xml:space="preserve">
<style type="text/css">
	.st0{fill:#4DA3C9;}
</style>
<g>
	<path class="st0" d="M105.8,200c-11.6-3-21.4-8.8-26.6-20c-2.7-5.8-3.8-12.2-5.7-18.7c-25.1-3.9-32.5-11.3-34.7-35.5
		c-3.4-0.5-6.9-0.8-10.3-1.6c-15-3.6-26-15.7-28.3-31.2c-1.4-9.1,4.3-19.1,14.4-23.8c10.3-4.8,20.9-8.9,31.4-13.2
		c21.4-8.8,42.9-17.4,64.2-26.3c2.7-1.1,4.3-1,6.5,1.2c8.3,8.6,16.9,17,25.8,25.8c-14,10.8-27.7,21.4-41.3,31.8
		c3.5,3.4,6.8,6.6,10.5,10.1c10.2-13.2,20.9-27.1,31.7-41.1c9.1,9.2,17.9,17.9,26.6,26.9c0.8,0.8,1.1,3,0.7,4.1
		c-12.7,31.6-25.6,63.1-38.4,94.6c-3.7,9.1-10.4,14.9-20.1,16.9C109.9,200,107.9,200,105.8,200z M113.1,128.6
		c-5.6,7.4-11,13.7-15.5,20.5c-6.9,10.4-3.7,23.9,6.5,29.6c5.1,2.9,7.9,2.1,10.1-3.3c4.2-9.9,8.2-19.8,12.1-29.8
		c0.4-1.1,0.2-3-0.5-3.8C121.8,137.6,117.7,133.4,113.1,128.6z M71.5,87.2c-4.9-4.8-9-8.9-13.2-12.8c-0.8-0.7-2.7-1.1-3.7-0.7
		c-10.3,4-20.5,8.1-30.6,12.5c-4.8,2-5.4,4.6-3,9.2c4.3,8.4,13.2,12.3,22.8,9.9C54.8,102.5,61.4,93.1,71.5,87.2z M84.5,101.3
		c-7.2,5.6-14.5,10.9-21.4,16.6c-6,5-6.2,15.1-0.9,20.2c5.2,5,15,4.7,19.9-1.1c5.8-7,11.2-14.4,16.6-21.3
		C93.9,110.8,89.3,106.2,84.5,101.3z M86.7,75.1c13.2-10.1,26-20,38.9-29.9c-0.1-0.2-0.3-0.4-0.4-0.6c-16.2,6.6-32.5,13.3-48.8,20
		C80,68.2,83.2,71.5,86.7,75.1z M155.2,75c-0.2-0.1-0.4-0.2-0.6-0.3c-9.9,12.8-19.7,25.7-29.3,38.1c3.5,3.6,6.8,6.9,10.2,10.4
		C142.1,107.2,148.6,91.1,155.2,75z"/>
	<path class="st0" d="M200,39.1c-3.8,18-9.7,21.3-17.5,28.7C165.7,51,149,34.2,132.2,17.4c13.2-18,35.7-22.7,53.2-10.6
		c7.7,5.3,11.9,12.9,13.8,21.9c0.2,1.1,0.6,2.2,0.9,3.4C200,34.4,200,36.7,200,39.1z"/>
</g>
</svg>
