<?xml version="1.0" encoding="utf-8"?>
<!-- Generator: Adobe Illustrator 21.0.2, SVG Export Plug-In . SVG Version: 6.00 Build 0)  -->
<svg version="1.1" id="Layer_1" xmlns="http://www.w3.org/2000/svg" xmlns:xlink="http://www.w3.org/1999/xlink" x="0px" y="0px"
	 width="200px" height="200px" viewBox="0 0 200 200" style="enable-background:new 0 0 200 200;" xml:space="preserve">
<style type="text/css">
	.st0{fill:#FFFFFF;}
</style>
<g>
	<path class="st0" d="M93.3,0c4.4,0,8.9,0,13.3,0c2.3,0.3,4.7,0.6,7,1c40.2,7.1,67.7,29.6,81.2,68.3c2.7,7.7,3.5,16,5.2,24.1
		c0,4.4,0,8.9,0,13.3c-0.3,2.3-0.6,4.6-1,6.9c-7.1,40-29.4,67.5-67.9,81.1c-7.8,2.8-16.3,3.6-24.5,5.3c-4.4,0-8.9,0-13.3,0
		c-2.3-0.3-4.7-0.6-7-1c-40.2-7.1-67.7-29.6-81.2-68.3c-2.7-7.7-3.5-16-5.2-24.1c0-4.4,0-8.9,0-13.3c0.3-2.3,0.6-4.6,1-6.9
		c7-39.9,29.3-67.2,67.5-81C76.3,2.6,85,1.8,93.3,0z M131.8,75.4c2.7,0,5,0,7.6,0c0.2-1.8,0.3-3.3,0.4-4.9c-2.7-0.9-5.2-1.7-7.8-2.5
		c1.1-4,2.1-7.6,3.2-11.4c2.8,0.6,5.1,1,7.1,1.4c5.5-7.3-2.5-7.5-5.2-10.5c2.1-3.5,4-6.9,6-10.3c2.2,1.2,4,2.2,6.1,3.3
		c1.7-3,3.4-5.9,5.1-8.8c-30.6-26-78.8-25.4-108.4,0c1.7,2.9,3.4,5.8,5.1,8.8c2.2-1.1,4.1-2.2,6.2-3.3c2.1,3.7,4,7,5.9,10.4
		c-7.7,5-7.7,5-5.3,10.5c1.5-0.4,3.1-1.1,4.6-1.1c1.1,0,2.9,0.8,3.2,1.6c1.1,3,1.7,6.2,2.5,9.3c-2.9,0.9-5.4,1.7-7.8,2.6
		c0.2,1.8,0.4,3.2,0.7,5c2.5,0,5,0,7.5,0c0.2,4,0.5,7.7,0.7,11.4c-2.3,0.4-4.5,0.9-6.4,1.2c0,2,0,3.7,0,5.5c2.1,0.2,4,0.4,5.8,0.6
		c0,4,0,7.6,0,11.4c-2.1,0.2-3.9,0.4-5.9,0.6c0,2,0,3.7,0,5.5c2.3,0.4,4.4,0.9,6.5,1.3c-0.3,3.9-0.5,7.6-0.8,11.6
		c-2.7,0-5.1,0-7.6,0c-0.2,1.8-0.3,3.3-0.4,4.8c2.6,0.9,5.1,1.7,7.8,2.6c-1.1,4-2.1,7.6-3.2,11.4c-2.7-0.6-5-1.1-7.5-1.6
		c-0.6,2.1-1.2,4-1.8,5.9c2.7,1.6,5.1,3.1,7.5,4.5c-2,3.5-4,7-6,10.4c-2.3-1.2-4.2-2.1-6.2-3.2c-1.8,3.1-3.4,5.9-5,8.7
		c30.4,25.9,78.5,25.6,108.4,0c-1.7-2.9-3.4-5.8-5.1-8.7c-2.2,1.1-4.1,2.1-6.1,3.2c-2.1-3.7-4-7-5.9-10.3c7.7-5.1,7.7-5.1,5.2-10.5
		c-2.2,0.5-4.5,0.9-7.2,1.5c-1-3.9-2-7.7-3-11.4c3-1,5.5-1.8,7.9-2.6c-0.3-1.9-0.5-3.3-0.7-4.9c-2.5,0-4.8,0-7.4,0
		c-0.2-4-0.5-7.7-0.7-11.4c2.4-0.5,4.6-0.9,6.8-1.3c-0.1-2.1-0.2-3.8-0.3-5.6c-2.2-0.2-3.9-0.3-5.8-0.4c0-4,0-7.7,0-11.5
		c2.1-0.2,4-0.4,5.8-0.6c0-2.1,0-3.8,0-5.5c-2.4-0.5-4.5-0.9-6.5-1.3C131.3,83,131.5,79.5,131.8,75.4z M150.2,106.2
		c0.1,1.8,0.2,3.2,0.3,4.8c2.1,0,3.8,0,5.7,0c0.3,4,0.6,7.7,0.9,11.5c-5.4,0.8-5.4,0.8-4.5,3.5c1.4-0.3,2.8-0.5,4.4-0.9
		c1.1,3.9,2.1,7.5,3.1,11.1c-5.3,2.4-5.3,2.4-4.3,5c1.4-0.6,2.9-1.3,4.6-2c2,3.4,3.8,6.7,5.9,10.2c-2.2,1.4-4.2,2.7-6.4,4.1
		c1.3,2.3,2.5,4.2,3.7,6.3c34.6-36.6,29-91.1-0.3-119.5c-1.1,2.1-2.2,4.1-3.4,6.2c2.2,1.4,4.2,2.6,6.3,4c-2,3.5-3.9,6.8-5.8,10.2
		c-1.7-0.8-3.1-1.4-4.6-2.1c-0.9,2.5-0.9,2.5,4.3,5c-1,3.7-2.1,7.4-2.9,10.3c-2.4,0.4-4,0.6-5.6,0.9c0,0.5,0.1,1,0.1,1.5
		c1.8,0.4,3.6,0.8,5.4,1.2c-0.3,3.9-0.6,7.5-1,11.5c-2,0-3.9,0-6,0c0.1,1.8,0.2,3.2,0.3,4.5c2,0.3,3.7,0.5,5.4,0.7c0,4,0,7.6,0,11.4
		C154,105.9,152.4,106.1,150.2,106.2z M43.7,89.2c-0.3-4.3-0.6-8-0.7-10.3c1.4-2.9,5.9-0.2,4.8-5.1c-1.8,0.4-3.2,0.7-5,1.1
		c-1.1-3.8-2.1-7.6-3.1-11.3c5.5-2.2,5.5-2.2,4.1-4.8c-1.4,0.6-2.8,1.3-4.5,2c-2-3.6-3.9-6.9-5.8-10.3c2.2-1.4,4.2-2.6,6.3-3.9
		c-1.3-2.3-2.4-4.3-3.6-6.4c-32.8,34-31.2,87.9,0.1,119.6c1.2-2.2,2.2-4.2,3.4-6.4c-2.2-1.4-4.3-2.7-6.4-4.1c2.1-3.6,4-6.9,6-10.3
		c1.8,0.9,3.2,1.5,4.8,2.3c2.1-5.4-4-2.7-4.4-6.1c0.8-2.8,1.9-6.5,2.9-10.2c1.7,0.4,3.2,0.7,4.6,1c0.6-2.7,0.6-2.7-4.6-3.8
		c0.3-3.7,0.6-7.5,1-11.5c2,0,3.8,0,5.7,0c0-1.6,0-3,0-4.5c-1.9-0.2-3.6-0.4-5.3-0.6c0-3.9,0-7.7,0-11.5c1.9-0.1,3.5-0.2,5.3-0.4
		c0-1.6,0-3,0-4.6C47.6,89.2,45.9,89.2,43.7,89.2z"/>
</g>
</svg>
