<?xml version="1.0" encoding="utf-8"?>
<!-- Generator: Adobe Illustrator 21.0.2, SVG Export Plug-In . SVG Version: 6.00 Build 0)  -->
<svg version="1.1" id="Layer_1" xmlns="http://www.w3.org/2000/svg" xmlns:xlink="http://www.w3.org/1999/xlink" x="0px" y="0px"
	 width="200px" height="200px" viewBox="0 0 200 200" style="enable-background:new 0 0 200 200;" xml:space="preserve">
<style type="text/css">
	.st0{fill:#FFFFFF;}
</style>
<g>
	<path class="st0" d="M97.8,199.7c-7.1-1.1-14.2-1.9-21.2-3.4c-12.7-2.8-24.3-8.2-35.4-16.1c23.5-15.2,40.3-36.9,59.3-56.3
		c9.7-9.9,19.8-19.3,33.3-24.1c6.9-2.4,8.3-1.6,8.3,5.5c-0.2,18-2.4,35.7-8.8,52.6c-6.6,17.4-16.4,32.5-33.3,41.8
		C99.3,199.7,98.5,199.7,97.8,199.7z"/>
	<path class="st0" d="M100,0.3c16.9,9.6,29.2,24.6,30.9,38.3c-4.5-0.8-9-0.9-13.1-2.3c-9-3.1-18.2-6.2-26.6-10.5
		c-12.9-6.6-26.2-9.5-40.5-8.9c-1.2,0-2.4,0-5.2,0C60,7.7,74.3,3,89.6,1.4c2.4-0.2,4.7-0.7,7-1.1C97.8,0.3,98.9,0.3,100,0.3z"/>
	<path class="st0" d="M140.3,70.3c0.5,5.1,1.1,10.1,1.6,15.4c-2.7,0.6-4.8,1-6.9,1.5c-11.3,2.7-20.6,8.6-28.7,16.7
		c-17.4,17.5-33.3,36.6-53.8,50.8c-6.5,4.5-13.2,8.7-19.8,13.1c-2.8,1.9-4.7,1.2-7-1.3c-11.5-12.9-19.6-27.6-23.1-44.6
		c-0.5-2.3,0.2-5.5,1.6-7.4c11.4-15.1,27.1-24.1,44.8-29.9c28.2-9.2,57.3-13.4,86.9-14.5C137.1,70.1,138.4,70.2,140.3,70.3z"/>
	<path class="st0" d="M135.2,47.8c1.1,4.7,2.1,8.7,3.1,12.8C122,62,106,63.1,90.1,64.6c-20.7,1.9-40.8,6.3-59.8,14.7
		C20,83.9,10.4,90.1,0,95.9c0.5-4.4,0.7-9.8,1.7-14.9c3-15.4,9.4-29.5,19.3-41.7c2-2.4,4.9-4.6,7.8-5.5c18.8-6.3,37.4-6.6,56,1.6
		C100.7,42.4,116.8,48.9,135.2,47.8z"/>
	<path class="st0" d="M129,194.9c10.7-16.4,16.9-32.8,19.1-50.6c1.7-13.5,2.2-27.2,3.3-40.8c0.6-7.5,2.4-8.6,9.4-5.5
		c7.3,3.3,11.6,9.5,14.5,16.7c6.1,15,6,30.5,2.4,46.1c-0.3,1.2-0.8,2.5-1.6,3.4C163.9,178.5,148.7,188.5,129,194.9z"/>
	<path class="st0" d="M188.1,144.9c0-7.1,0.8-14.3-0.1-21.3c-2.9-23-13.7-34-36.7-38.2c-0.4-4.8-0.8-9.7-1.2-15.3
		c16.9,0.1,32.9,2.2,46.7,12.6c1.2,0.9,2.3,2.6,2.5,4C201.6,107.2,198.8,126.7,188.1,144.9z"/>
	<path class="st0" d="M171.5,30.6C182.4,41.8,189.9,54,195,68.7c-2.8-0.9-4.8-1.8-7-2.2c-11.2-1.9-22.4-3.9-33.7-5.1
		c-4.5-0.5-7.2-1.2-7.7-6c-0.3-2.5-1.2-4.9-1.9-7.9C156.3,46.4,167.2,44.4,171.5,30.6z"/>
	<path class="st0" d="M124.1,3.8c12.8,3,25.1,8.6,35.9,17.1c1.5,1.2,2.2,4.5,1.8,6.6c-1.3,6.4-12.5,12.4-18.7,10.3
		c-1.5-0.5-2.8-2.3-3.6-3.8C134.3,24,129.2,13.8,124.1,3.8z"/>
</g>
</svg>
