<?xml version="1.0" encoding="utf-8"?>
<!-- Generator: Adobe Illustrator 21.0.2, SVG Export Plug-In . SVG Version: 6.00 Build 0)  -->
<svg version="1.1" id="Layer_1" xmlns="http://www.w3.org/2000/svg" xmlns:xlink="http://www.w3.org/1999/xlink" x="0px" y="0px"
	 width="200px" height="200px" viewBox="0 0 200 200" style="enable-background:new 0 0 200 200;" xml:space="preserve">
<style type="text/css">
	.st0{fill:#394454;}
</style>
<g>
	<path class="st0" d="M106.3,0c3.8,0.5,7.7,0.8,11.4,1.6c6,1.4,11.9,3.3,17.9,4.9c1.3,0.4,1.7,1.1,1.7,2.4
		c0.3,14.2-2.5,27.9-6.7,41.4c-5.3,17.1-13.1,32.8-24.7,46.6c-6.2,7.3-13.2,13.6-21.6,18.8c-3-3.6-6.4-7-9-10.8
		c-4.2-6.3-8-12.8-11.9-19.3c-0.6-1-0.4-1.7,0.4-2.5c17.1-18.3,27.2-40,31.8-64.4C96.8,12.5,97.3,6.2,98,0C100.8,0,103.5,0,106.3,0z
		"/>
	<path class="st0" d="M0,93.7c0.5-3.7,0.8-7.5,1.6-11.2c0.9-4.5,2.1-8.9,3.3-13.3c0.2-0.9,0.8-1.8,1.5-2.5
		c14.8-15.7,32.9-25,54.4-27.6c6.8-0.8,13.5-1,20.8-0.2c-2.5,5.1-4.7,10-7.2,14.7c-4.3,8.1-9.8,15.4-16.1,22.2
		c-1.4,1.5-2.6,2.1-4.8,1.9C38.9,76,27.1,81.4,17.2,91.8c-6.7,7-11.2,15.4-14.5,24.4c-0.2,0.6-0.5,1.3-1.2,1.9
		c-0.5-3.9-1-7.9-1.6-11.8C0,102.1,0,97.9,0,93.7z"/>
	<path class="st0" d="M91.8,122.2c18.2-12.5,30.8-29.3,39.8-49c8.9-19.5,15.4-39.7,14.3-61.8c0.7,0.3,1.2,0.5,1.7,0.8
		c16.1,8.8,28.8,21,38.3,36.7c0.4,0.7,0.8,1.6,0.7,2.4c-2,39.2-17.5,71.3-50.2,94.2c-2.1,1.4-3.7,1.6-6,0.6
		c-13.7-5.5-26.2-12.9-37.5-22.5c-0.3-0.3-0.6-0.5-0.9-0.8C92,122.6,92,122.5,91.8,122.2z"/>
	<path class="st0" d="M176.3,164.6c-0.2,0.3-0.6,0.8-1,1.3c-9.6,10.9-21,19.4-34.2,25.3c-1,0.4-2.1,0.7-3.2,0.6
		c-18.4-1.5-35.6-6.9-51.6-15.8c-28.1-15.6-48.7-38.1-60.1-68.4c-1.1-2.9-2-5.8-2.8-8.8c-0.2-0.7-0.1-1.8,0.4-2.2
		c7.5-7.1,16.3-11.2,26.9-10.7c1.5,0.1,2.2,0.7,3,2c21.7,39.3,54.5,64,98.4,73.5C159.9,163.1,168.1,163.6,176.3,164.6z"/>
	<path class="st0" d="M16.3,105.5c18.7,49.1,54.3,78.8,104.5,92.5c-3.7,0.5-7.4,1.2-11.1,1.6c-19.3,1.8-37.8-1.5-55-10.5
		c-23.8-12.4-40.3-31.3-49.2-56.7c-0.2-0.6-0.4-1.4-0.3-2.1C6.3,123.7,12.1,110.7,16.3,105.5z"/>
	<path class="st0" d="M194.4,66.2c1.3,5.2,2.9,10.3,3.9,15.5c4.5,25.4,0.1,49.2-13.5,71.2c-0.4,0.7-1.4,1.4-2.2,1.5
		c-12.7,0.7-25.2-0.5-37.5-3.7c-0.2,0-0.4-0.1-0.7-0.3c28.2-21.2,43.9-49.7,49.5-84.1C194,66.3,194.2,66.2,194.4,66.2z"/>
	<path class="st0" d="M89.6,0.6c-0.7,10.1-2.4,19.7-5.3,29.1C58.7,26.8,35.2,31.5,14.8,48c8-13.4,18.6-24.2,31.7-32.5
		C59.6,7.2,73.9,2.2,89.6,0.6z"/>
</g>
</svg>
