<?xml version="1.0" encoding="utf-8"?>
<!-- Generator: Adobe Illustrator 21.0.2, SVG Export Plug-In . SVG Version: 6.00 Build 0)  -->
<svg version="1.1" id="Layer_1" xmlns="http://www.w3.org/2000/svg" xmlns:xlink="http://www.w3.org/1999/xlink" x="0px" y="0px"
	 width="200px" height="200px" viewBox="0 0 200 200" style="enable-background:new 0 0 200 200;" xml:space="preserve">
<style type="text/css">
	.st0{fill:#394454;}
</style>
<path class="st0" d="M116,66.3c0.5-0.8,0.8-1.2,1.1-1.5c6-6.8,13.7-8.9,22.5-7.8c0.4,0,0.8,0,1.2,0.1c1.7,0.5,2.7-0.1,3.7-1.7
	c3.7-6,10.4-8.4,18-6.5c1.2,0.3,2.4,0.6,4.1,1.1c-1.1-1.3-1.9-2.2-2.7-3.2c-6-7.3-10.1-15.6-13.2-24.4c-1.6-4.5-3.9-5.6-8.4-3.9
	c-0.2,0.1-0.4,0.1-0.6,0.2c-3.8,3.1-8.6,3.3-13.1,4.5c-3.9,1-7.1-1.3-7-5.3c0.1-3.2,0.7-6.3,1-9.4c0.2-1.6,1.1-2.4,2.6-2.5
	c1.9-0.2,3.9-0.5,5.8-0.5c5.6,0,11.2,0,16.8,0.4c2,0.1,4.3,1,6,2.2c10.4,7.1,20.7,14.5,29.9,23.1c8.5,8,13.8,17.9,15.9,29.3
	c0.5,2.5,0.7,5-0.8,7.3c-6.8,10.8-15.7,19.2-28,23.3c-1.5,0.5-3.1,0.7-5,1.1c0.2,0.6,0.4,1.2,0.6,1.8c3.3,9.4,4.8,19.2,5.8,29
	c0.6,5.6,1.1,11.1,1.7,16.7c0.9,9.6-0.5,19-2.6,28.2c-0.8,3.6-1.8,7.2-3,10.7c-3.4,9.7-12.6,16-22.8,16c-11.4,0-22.8,0-34.2,0
	c-7.6,0-12.1-5.5-10.5-13c0.3-1.6,0.5-3.2,0.5-4.8c0.1-4.3-1.9-7.4-5.7-9.2c-2.8-1.4-5.7-2.8-8.6-4c-3.5-1.5-6.1-3.9-7.8-7.3
	c-1-1.8-1.9-3.6-3-5.2c-1-1.5-2.2-2.9-3.6-4.1c-2.6-2.2-5-1.7-6.8,1.1c-2.1,3.2-4.8,5.7-8,7.6c-8.7,5.4-18.3,8-28.5,8.4
	c-3,0.1-5.5-0.9-7.8-2.7c-5.6-4.6-9.5-10.4-12.8-16.7c-3.5-6.7-5-14.1-5.9-21.5c-1.1-9.3-1.8-18.6-2.6-28c-0.3-3.6,0.7-6.9,2.6-10
	c3.2-5.1,6.5-10.1,9.7-15.2c1.4-2.2,3.2-2.7,5.5-2c0.7,0.2,1.4,0.5,2.2,0.5c4.3,0.4,5.6,3.4,6.5,6.9c0.1,0.6,0.3,1.5,0,2
	c-1.8,3.8-3.3,7.8-7.2,10.1c-1.7,1-3.6,1.9-5.1,3.2c-2.9,2.5-3,5.1-0.6,8.1c4.7,5.8,8.8,11.9,11.9,18.7c0.4,1,0.4,2.2,0.4,3.3
	c-0.1,4-0.4,8-0.5,12c-0.1,1.6,0.7,2.9,2.5,2.7c1.8-0.2,2.1-1.5,1.9-3.2c-0.7-5.3,0.1-10.2,3.2-14.6c3-4.3,7.2-6.7,12.5-6.6
	c1.9,0,2.8-0.5,3.4-2.3c0.3-1.1,1-2.1,1.5-3.1c4.5-8.6,11.7-13,21.2-13.6c4.1-0.3,8.2-0.1,12.3,0.3c6.9,0.6,12.6-2.4,15.3-8.8
	c2-4.8,3.6-9.7,5.3-14.6c0.4-1.2,0.1-2.4-1.2-2.9c-1.2-0.5-2.4,0-2.9,1.2c-1.2,2.8-2.2,5.6-3.3,8.5c-0.4,1.1-0.7,2.3-1.1,3.5
	c-2.7,7.8-8.8,10.9-16.7,8.3c-2-0.6-3.9-1.6-5.7-2.5c-0.3-0.2-0.5-1-0.5-1.5c0-0.6,0.1-1.2,0.2-2.2c-1.3,0.5-2.3,0.9-3.3,1.2
	c-2.7,1-3.7,0.3-3.8-2.6c0-1.1,0.1-2.3-0.1-3.4c-0.2-1.4-0.3-2.8-0.8-4.1c-1.5-4.2-3.1-8.4-4.7-12.6c-0.3-0.6-1.2-1.2-1.9-1.4
	c-3-0.6-6-0.9-9-1.4c-0.4-0.1-0.9-0.3-1.4-0.4c0.1-0.5,0.1-0.9,0.3-1.2c4-9.4,9.3-17.9,16.9-24.9c8.6-7.8,20-9.4,29.3-4.1
	c7.1,4,11,10.4,12.3,18.3c1.1,6.4,2.1,12.6,6.1,18C113.9,64,114.8,64.9,116,66.3z M142.6,132c0-0.4,0-0.8-0.1-1.2
	c-2.2-14.9-8.1-28.3-17.8-39.9c-0.8-1-1.7-1.9-2.6-2.8c-1.2-1.1-2.4-0.9-3.3,0.4c-0.8,1.2-0.2,2.3,0.7,3.2c4.4,4.8,8,10.1,11,15.9
	c4,7.8,6.6,16,7.7,24.7c0.2,1.5,0.8,2.7,2.5,2.5C142.3,134.6,142.7,133.4,142.6,132z"/>
</svg>
