<?xml version="1.0" encoding="utf-8"?>
<!-- Generator: Adobe Illustrator 21.0.2, SVG Export Plug-In . SVG Version: 6.00 Build 0)  -->
<svg version="1.1" id="Layer_1" xmlns="http://www.w3.org/2000/svg" xmlns:xlink="http://www.w3.org/1999/xlink" x="0px" y="0px"
	 width="200px" height="200px" viewBox="0 0 200 200" style="enable-background:new 0 0 200 200;" xml:space="preserve">
<style type="text/css">
	.st0{fill:#FFFFFF;}
</style>
<g>
	<circle class="st0" cx="75.5" cy="131" r="32.1"/>
	<path class="st0" d="M86.5,48.8c-36.3,0-65.7,29.4-65.7,65.7c0,36.3,29.4,65.7,65.7,65.7s65.7-29.4,65.7-65.7
		C152.2,78.2,122.8,48.8,86.5,48.8z M75.5,173.5C52,173.5,33,154.5,33,131c0-23.5,19-42.5,42.5-42.5c23.5,0,42.5,19,42.5,42.5
		C118,154.5,99,173.5,75.5,173.5z"/>
	<path class="st0" d="M100,0C44.8,0,0,44.8,0,100s44.8,100,100,100s100-44.8,100-100S155.2,0,100,0z M86.5,191
		C44.3,191,10,156.8,10,114.5C10,72.3,44.3,38,86.5,38S163,72.3,163,114.5C163,156.8,128.7,191,86.5,191z"/>
</g>
</svg>
