<?xml version="1.0" encoding="utf-8"?>
<!-- Generator: Adobe Illustrator 19.2.1, SVG Export Plug-In . SVG Version: 6.00 Build 0)  -->
<svg version="1.1" id="Layer_1" xmlns="http://www.w3.org/2000/svg" xmlns:xlink="http://www.w3.org/1999/xlink" x="0px" y="0px"
	 width="100px" height="100px" viewBox="0 0 100 100" style="enable-background:new 0 0 100 100;" xml:space="preserve">
<style type="text/css">
	.st0{fill:#FFFFFF;}
</style>
<g>
	<path class="st0" d="M43.9,39.6c0-5.2,0-9,0-12.8c-0.6-0.1-1.1-0.2-1.7-0.2c-0.9,2.7-1.9,5.4-2.9,8.5c-6.9,0-13.8,0-20.5,0
		c-3.4-13.5-2.1-15.3,10.8-15.5c3.8-0.1,7.7,0.2,11.5,0c7.7-0.5,10.4,2.9,10.5,10.6c0,5,2.4,9.9,3.7,14.8c2.1,8.4,4.9,16.7,6,25.3
		c1.5,10.9-2.4,20.3-12.6,25.6c-10.9,5.6-22.6,5.9-33.1-0.5c-3.7-2.3-7.1-8.5-6.8-12.6c0.3-3.3,6.1-8.1,10.1-8.8
		c7.4-1.2,15.2-0.1,22.8,0.3c2.8,0.2,5.6,1,8.3,1.6c0.3-1.4,0.6-2.9,0.9-4.3c-9.3-2-18.7-4.1-29.4-6.4c-0.5-1.3-1.7-4.3-2.8-7.2
		c-0.7,0-1.4,0-2.1,0c-0.5,2.4-0.6,5-1.7,7c-1.2,2.2-3.4,3.8-5.2,5.6c-1.6-1.9-4.3-3.6-4.8-5.8C2,51.4,11.8,39.7,25.2,39.6
		C31.4,39.6,37.6,39.6,43.9,39.6z"/>
	<path class="st0" d="M64.5,87.4c10.9-22.9-6.8-42-7.5-62.8c18.9-8,24.2-6.3,24.7,7.6C75.9,33.4,70,34.8,62,36.7
		c10.1,5,21.8-6.4,26.9,6.1c3.5,8.5,7.1,17.9,6.8,26.8C95.3,82.8,82.8,89.5,64.5,87.4z"/>
	<path class="st0" d="M61.6,14.5c-4.5-3.8-9-7.7-13.7-11.7c-4.7,4.2-9.1,8.1-11.2,10C39.5,9.7,44.4,4.5,48.5,0
		c4.1,3.6,9.3,8.3,14.5,12.9C62.6,13.5,62.1,14,61.6,14.5z"/>
</g>
</svg>
