<?xml version="1.0" encoding="utf-8"?>
<!-- Generator: Adobe Illustrator 19.2.0, SVG Export Plug-In . SVG Version: 6.00 Build 0)  -->
<svg version="1.1" id="Layer_1" xmlns="http://www.w3.org/2000/svg" xmlns:xlink="http://www.w3.org/1999/xlink" x="0px" y="0px"
	 width="56.7px" height="56.7px" viewBox="0 0 56.7 56.7" style="enable-background:new 0 0 56.7 56.7;" xml:space="preserve">
<style type="text/css">
	.st0{fill:#00A519;}
</style>
<path id="calendar_icons_highlighted" class="st0" d="M8.6,51V19.9h39.6V51H8.6z M45.3,5.7V0h-5.7v5.7H17.1V0h-5.7v5.7H8.6
	c-1.5,0-3,0.6-4.1,1.7c-1.1,1.1-1.6,2.5-1.6,4V51c0,1.5,0.6,2.9,1.6,4c1.1,1.1,2.5,1.8,4.1,1.7h39.6c3.1-0.1,5.6-2.6,5.7-5.7V11.4
	c-0.1-3.1-2.6-5.6-5.7-5.7L45.3,5.7L45.3,5.7z M38.2,25.5L24.3,39.3l-5.9-6l-3.1,3.1l9,9l16.9-16.9L38.2,25.5z"/>
</svg>
