<?xml version="1.0" encoding="utf-8"?>
<!-- Generator: Adobe Illustrator 21.0.2, SVG Export Plug-In . SVG Version: 6.00 Build 0)  -->
<svg version="1.1" id="Layer_1" xmlns="http://www.w3.org/2000/svg" xmlns:xlink="http://www.w3.org/1999/xlink" x="0px" y="0px"
	 width="200px" height="200px" viewBox="0 0 200 200" style="enable-background:new 0 0 200 200;" xml:space="preserve">
<style type="text/css">
	.st0{fill:#FFFFFF;}
</style>
<g>
	<path class="st0" d="M17.7,0c1,0.3,1.9,0.7,2.9,0.9c7,1.1,13.6,3.7,20,6.5c13.6,6,26.4,13.5,38.6,22c9,6.3,17.9,12.8,26.5,19.7
		c6.9,5.5,13.2,11.7,19.7,17.6c1,1,1.7,0.9,2.6,0c6-6.1,12.1-12.1,18.1-18.2c0.4-0.4,0.6-1.3,0.5-2c-0.2-3.6,0.6-7,2-10.2
		c3.6-8.7,8.3-16.7,14.8-23.5c2.8-2.9,5.7-5.7,8.8-8.3c3.3-2.8,7-3.4,10.8-0.9c4.4,2.8,8.2,6.3,10.9,10.8c2.9,4.9,1.8,8-1.5,12
		c-7.3,9-16.4,15.8-26.8,20.8c-4.5,2.2-9.1,4.2-14.4,3.9c-0.7,0-1.6,0.6-2.1,1.1c-10.5,10.5-21,21-31.5,31.5
		c-22.2,22.2-44.5,44.5-66.7,66.7c-1.2,1.2-2,2.1-1.8,4.2c0.2,2.5-0.8,5.2-1.6,7.6c-4.2,11.5-10.9,21.3-19.9,29.5
		c-2.4,2.2-5.3,3.9-8.2,5.4c-2.6,1.4-5.2,0-7.4-1.5c-4.1-2.9-7.7-6.3-10.3-10.6c-0.7-1.2-1.2-2.5-1.8-3.8c0-0.7,0-1.3,0-2
		c0.4-0.8,0.7-1.6,1.1-2.4c2.5-4.6,6.2-8.2,10-11.7c5.8-5.3,12.3-9.5,19.4-12.9c4.5-2.1,9-4,14.2-3.5c0.7,0.1,1.6-0.3,2.1-0.8
		c6.7-6.6,13.3-13.2,19.9-19.8c1-1,1-1.6,0-2.6c-5.9-6.5-12.1-12.9-17.6-19.7c-6.9-8.6-13.5-17.4-19.7-26.5c-8.5-12.2-16-25-22-38.6
		c-2.3-5.2-3.9-10.7-5.7-16.1C1,22.2,0.6,19.9,0,17.7c0-2.3,0-4.6,0-6.8c0.2-0.3,0.4-0.6,0.5-0.9C1.1,6.3,2.8,3.5,6,1.8
		C7.5,1,9.2,0.6,10.8,0C13.1,0,15.4,0,17.7,0z M108.7,85c-3.6-2.7-7.2-5.6-11-8.1c-6.3-4.1-12.9-7.6-20.4-9c-4.8-0.9-8.8,1-9.4,5.2
		c-0.3,2.1,0.1,4.4,0.5,6.5c1.3,6.2,4.4,11.8,7.8,17.1c2.7,4.2,5.8,8.1,8.7,12.1C93,100.7,100.6,93,108.7,85z"/>
	<path class="st0" d="M183.5,200c-0.8-0.2-1.7-0.6-2.5-0.7c-9.2-1.6-17.8-5.2-26-9.5c-9.2-4.9-18.3-10-27.1-15.6
		c-9.4-6-18.4-12.5-27.4-19.1c-5.6-4.1-10.7-8.7-16.1-13.1c-2.3-1.9-4.6-3.9-6.8-5.8c6-6,11.8-11.8,17.8-17.7
		c5.3,4,11,7.9,17.4,10.6c4.2,1.8,8.5,3.3,13.2,3.6c3.9,0.2,6.9-3.2,6.6-6.9c-0.8-9.1-5-16.7-9.8-24.2c-1.4-2.2-2.9-4.2-4.3-6.2
		c5.8-5.8,11.7-11.6,17.7-17.7c2.3,2.6,4.9,5.4,7.3,8.3c3.6,4.4,7.2,8.9,10.7,13.5c4.6,6.1,9.3,12.1,13.5,18.5
		c5.9,8.8,11.6,17.8,16.9,26.9c5,8.7,9.4,17.7,12.5,27.3c1.1,3.5,1.7,7.3,2.6,10.9c0,0.2,0.3,0.4,0.5,0.5c0,2.1,0,4.3,0,6.4
		c-0.2,0.2-0.4,0.5-0.5,0.7c-0.7,4.6-3.5,7.4-7.8,8.7c-0.6,0.2-1.1,0.4-1.7,0.6C187.8,200,185.7,200,183.5,200z"/>
</g>
</svg>
