<?xml version="1.0" encoding="utf-8"?>
<!-- Generator: Adobe Illustrator 20.0.0, SVG Export Plug-In . SVG Version: 6.00 Build 0)  -->
<svg version="1.1" id="Layer_1" xmlns="http://www.w3.org/2000/svg" xmlns:xlink="http://www.w3.org/1999/xlink" x="0px" y="0px"
	 viewBox="0 0 283.5 283.5" style="enable-background:new 0 0 283.5 283.5;" xml:space="preserve">
<style type="text/css">
	.st0{fill:#FFFFFF;}
</style>
<g>
	<path class="st0" d="M52,29c7.9,0,15.8,0.2,23.7-0.1c16.4-0.6,29.9,5.2,41.4,16.8c32.6,32.7,65.4,65.3,98,98
		c14.8,14.9,14.6,22.8-0.4,37.7c-20.7,20.6-41.3,41.3-62,61.9c-15.3,15.3-22.6,15.4-37.6,0.6c-32.7-32.6-65.3-65.3-98-97.9
		C5.6,134.6-0.4,121.2,0,104.7c0.5-18.1,0-36.3,0.2-54.5c0.1-14.3,6.8-20.9,21-21.1C31.5,28.9,41.8,29.1,52,29z M66.7,75.8
		c0-10.3-8.2-18.3-18.9-18.2C36,57.7,27.7,65.5,28,76.3c0.3,11.1,9.5,19.5,21,19.3C58.5,95.4,66.6,86.3,66.7,75.8z"/>
	<path class="st0" d="M173.8,244.9c22.9-22.4,45.2-44.1,67.4-66c12-11.8,11.7-21.3-0.2-33.3c-31.8-31.9-63.4-64-95.5-95.6
		c-7.5-7.4-16.2-13.4-23.6-19.4c15.9-5.1,36-0.8,49.8,12.8c35.1,34.7,70,69.7,104.8,104.8c8.7,8.8,9.5,18.5,1,27.4
		c-24.2,25-48.7,49.6-73.7,73.8C194.8,257.9,186.3,256.5,173.8,244.9z"/>
</g>
</svg>
