<?xml version="1.0" encoding="utf-8"?>
<!-- Generator: Adobe Illustrator 19.2.1, SVG Export Plug-In . SVG Version: 6.00 Build 0)  -->
<svg version="1.1" id="Layer_1" xmlns="http://www.w3.org/2000/svg" xmlns:xlink="http://www.w3.org/1999/xlink" x="0px" y="0px"
	 width="300px" height="300px" viewBox="0 0 300 300" style="enable-background:new 0 0 300 300;" xml:space="preserve">
<style type="text/css">
	.st0{fill:#394453;}
</style>
<path class="st0" d="M150,288.2c10,0,17.2-8.2,17.2-17.2c0-10-7.3-17.2-17.2-17.2s-17.2,7.3-17.2,17.2
	C132.8,280,140,288.2,150,288.2z M94.2,0h111.6c18.2,0,30.4,12.3,30.4,29.5v243.3c0,15-12.3,27.2-27.2,27.2H91
	c-15,0-27.2-12.3-27.2-27.2V29.5C63.8,12.3,76,0,94.2,0z M127.3,19.5c-3.2,0-5.4,2.7-5.4,5.9s2.3,5.9,5.4,5.9h45.4
	c3.2,0,5.4-2.7,5.4-5.9s-2.3-5.9-5.4-5.9H127.3z M219.9,240.1V59.9H80.1v180.2H219.9z"/>
</svg>
