<?xml version="1.0" encoding="utf-8"?>
<!-- Generator: Adobe Illustrator 19.2.1, SVG Export Plug-In . SVG Version: 6.00 Build 0)  -->
<svg version="1.1" id="Layer_1" xmlns="http://www.w3.org/2000/svg" xmlns:xlink="http://www.w3.org/1999/xlink" x="0px" y="0px"
	 width="100px" height="100px" viewBox="0 0 100 100" style="enable-background:new 0 0 100 100;" xml:space="preserve">
<style type="text/css">
	.st0{fill:#CCCCCC;}
</style>
<g id="e72Syq_1_">
	<g>
		<path class="st0" d="M50.2,69.4c-1.8,0.4-3.6,0.7-5.4,1.3c-4.5,1.4-8.2,0.4-10.9-3.5c-2.2-3.1-5.1-5.2-8.7-6.3
			c-3.8-1.2-6.3-3.6-6.6-7.7c-0.1-0.8-0.1-1.6-0.1-2.5c0-3-0.8-5.7-2.6-8.1c-0.6-0.9-1.2-1.8-1.8-2.8c-1.5-2.7-1.7-5.6,0.1-8.1
			c3-4.2,4.4-8.6,4.4-13.7c0-3.1,1.8-5.6,4.8-6.6C28.2,9.7,32,7,35,2.9c2.1-2.9,5.3-3.4,8.7-2.5c0.8,0.2,1.6,0.4,2.4,0.7
			c2.6,0.8,5.2,0.8,7.8,0c1-0.3,2.1-0.6,3.2-0.8c3.1-0.7,6,0,7.9,2.6c3,4.1,6.8,6.8,11.6,8.4c3.2,1.1,4.8,3.8,5,7.3
			c0.1,1,0.2,1.9,0.2,2.9c0,2.7,0.7,5.1,2.4,7.2c3.8,4.7,3.9,9.3,0.1,14.1c-1.8,2.2-2.4,4.8-2.4,7.6c0,0.5,0,0.9,0,1.4
			c-0.1,4.6-2.2,7.8-6.7,9.1c-3.7,1.1-6.5,3.2-8.7,6.3c-1.5,2.2-3.5,4-6.3,4.1c-1.5,0.1-3.1-0.3-4.6-0.6
			C53.7,70.3,52,69.9,50.2,69.4z M76.7,35.7C76.7,20.9,64.9,9.1,50,9C35.4,9,23.5,21,23.4,35.5c0,14.9,11.9,26.8,26.7,26.8
			S76.7,50.4,76.7,35.7z"/>
		<path class="st0" d="M78.7,94.6c-3.7-0.6-7.1-1.2-10.5-1.7c-0.5-0.1-1.2,0.2-1.6,0.5c-2.3,2.1-4.5,4.2-6.8,6.3
			C57,91.7,54,83.4,51,74.9c6.8-0.2,13.2-1.1,18.8-5.6C72.7,77.8,75.7,86,78.7,94.6z"/>
		<path class="st0" d="M21.5,94.6c3-8.4,5.9-16.7,8.9-25.3c5.5,4.4,11.9,5.4,18.8,5.6c-3,8.5-5.9,16.7-8.9,25.2
			c-0.4-0.4-0.7-0.6-1-0.9c-1.9-1.9-3.8-3.9-5.7-5.8c-0.3-0.3-1-0.6-1.5-0.5C28.6,93.3,25.2,93.9,21.5,94.6z"/>
		<path class="st0" d="M71.9,35.7c0,12.1-9.9,21.9-21.9,21.8c-12,0-21.8-9.9-21.8-21.9c0-12.1,9.8-21.9,21.9-21.9
			C62.3,13.8,72,23.6,71.9,35.7z"/>
	</g>
</g>
</svg>
