<?xml version="1.0" encoding="utf-8"?>
<!-- Generator: Adobe Illustrator 21.0.2, SVG Export Plug-In . SVG Version: 6.00 Build 0)  -->
<svg version="1.1" id="Layer_1" xmlns="http://www.w3.org/2000/svg" xmlns:xlink="http://www.w3.org/1999/xlink" x="0px" y="0px"
	 width="200px" height="200px" viewBox="0 0 200 200" style="enable-background:new 0 0 200 200;" xml:space="preserve">
<style type="text/css">
	.st0{fill:#FFFFFF;}
</style>
<path class="st0" d="M36.2,81.7c0.7,1.7,1.3,3.1,1.9,4.5c-0.3,0.2-0.6,0.5-1,0.7c-1.1-0.8-2.1-1.5-3.5-2.5c-0.2,1.2-0.4,2.2-0.8,4
	c-0.6-2.5-1-4.3-1.6-7.2c-0.9,2.7-1.4,4.3-1.6,4.9c-1.9,0.5-3.2,0.8-4.4,1.1c-0.1-1.2-0.2-2.7-0.2-4.4c-1.3,1.7-2,3.7-3.3,4.2
	c-1.2,0.4-3.2-0.5-4.4-1.5c-1.2-0.9-1.7-2.6-2.8-4.3c-0.6,1.2-0.9,2-1.2,2.6c-0.4-0.9-1-1.8-1.3-2.8c-0.3-1-0.2-2.1-0.3-3.3
	c-0.5,0.7-1,1.4-1.5,2.1c-2.8-2.8,0.1-4.7,1.1-6.7c-3.7-2.7,0.5-4.2,0.8-6.3c-0.6-0.5-1.2-1-2-1.7c1.7-0.1,3.2-0.2,5.2-0.3
	c-0.6-1.6-1.1-2.7-1.6-4.1c1.7,0.3,3.3,0.6,5.6,1.1c-1.1-1.3-1.8-2.1-2.7-3.2c1.6-0.6,3-1.1,4.4-1.6c0.9,1,1.8,2,2.7,2.9
	c0.3-0.2,0.5-0.4,0.8-0.6c-0.3-0.9-0.6-1.7-1.1-3.5c1.6,0.8,2.4,1.2,3.5,1.7c0.4-1.1,0.9-2.1,1.4-3.3c1.6,4.9,5.8,1.5,8.5,3.1
	c-0.1-0.8-0.2-1.4-0.2-2c1.6,0.6,3,1.1,5.4,2c0.8,2.3,1.9,5.5,3.1,9.2c0.4,0,1.7,0.2,3,0.3c-1.9,2.2-3.5,4.1-5.2,6
	c0.2,0.4,0.5,0.7,0.7,1.1c1.1,0.1,2.1,0.3,3.2,0.4c8.7,1.1,17.3,2.2,26,3.3c2.6,0.3,5.2,0.4,7.8,0.4c4.8,0.1,9.6,0,14.7,0
	c0.1-0.5,0.4-1.3,0.2-1.8c-1.3-3.1-7.8-6.3-11.1-5.3c-2.4,0.7-4.4,0.7-5.8-2c0.4-0.2,0.7-0.3,1-0.4c1-0.1,2-0.2,3.1-0.2
	c-0.3-1-0.5-2.1-1-3c-1.3-2.5-2.9-4.8-4.2-7.3c-0.3-0.6,0-1.6,0.1-3.3c2.4,3,3,7.4,7.2,5.9c1.1-0.4,1.2-3.3,1.7-5
	c2.3,2.9,5.1,2.4,8.4,0.2c5.5-3.7,12.6-1.7,16.1,4.2c0.6,0.9,1.4,1.7,2.2,2.7c1.5-1.6,2.6-3,4.5-5.1c-0.5,2.1-1.2,3.2-1,4.1
	c0.7,5.1-0.7,9.2-5.5,11.8c-1,0.6-2.1,1.2-3,1.9c-0.6,0.5-1.4,1.3-1.5,2.1c-0.1,0.4,1.1,1.5,1.7,1.4c12.2-1.2,24.9,2.1,36.7-3.8
	c2.2-1.1,5.2-0.9,7.7-1.4c1.9-0.4,3.7-0.9,5.5-1.4c0-0.4,0-0.8,0-1.3c-1.3-0.3-2.6-0.7-3.9-1c0.4-0.4,1-0.9,1.7-1.5
	c-1.1-0.8-2.1-1.6-3.1-2.3c0.1-0.2,0.2-0.5,0.4-0.7c1,0.2,2,0.3,3.8,0.6c-1.6-1-2.6-1.6-3.3-2c2-2.2,3.7-4.6,5.9-6.3
	c2.1-1.6,4.8-2.5,7.3-3.7c-0.1-0.3,0.1,0.3,0.4,1.3c0.3-0.7,0.5-1.2,0.9-2c1,0.8,1.9,1.5,3.1,2.5c0.5-3,1.7-2.5,3.7-1.3
	c1,0.7,2.7,0.4,4.1-0.1c1.8,0.5,3.5,1.1,5.4,1.7c-0.1,0.2-0.4,1-0.9,2.3c1.3-0.2,2.1-0.3,2.6-0.4c0.5,2.1,0.9,4.1,1.4,6.1
	c0.3,1.4,0.7,2.8,1,4.2c0.7,3.1-0.5,4.9-3.4,6.3c-1.3,0.7-1.9,2.9-2.8,4.5c-1-0.9-1.9-1.5-3.5-2.9c0.9,1.9,1.3,2.9,1.9,4.1
	c-1-0.1-1.8-0.2-3-0.3c0.5,1.3,0.9,2.3,1.2,3.1c-0.7-0.9-1.4-2.1-2.2-3.2c-0.4,0.3-0.8,0.6-1.1,0.9c0.2,1.1,0.4,2.2,0.6,3.4
	c-2.1-3.4-4.5-2.8-7.7-1.6c-1.6,0.6-4.8-0.8-6.1-2.3c-2.2-2.5-4.1-2.1-6.6-1.2c-7.8,2.8-15.6,5.7-23.4,8.3c-2,0.7-4.2,0.6-6.4,0.7
	c-4.4,0.3-7.7,1.9-8.7,6.8c-1,4.9-2.5,9.7-3.9,14.6c-0.2,0.8-0.5,1.9-1.1,2.2c-3.4,1.7-2.3,4.6-1,6.4c1.3,1.8,2.9,4.1,6.2,3.8
	c4.8-0.4,9.9-1.3,13.9,2.7c0.5,0.5,1.4,0.8,2.1,0.7c15.4-0.5,30.9-0.4,45.8-5.5c3.1-1.1,3.3-1.4,3.2-5.4c6.3,1.5,11.2-2,16.2-5.1
	c0.4,0.3,0.8,0.6,1.1,0.9c-0.6,2-0.8,4.2-1.9,5.8c-3.2,4.5-6.6,8.8-10.3,13c-0.7,0.8-3.1,1.1-4.2,0.5c-5-2.8-9.7-2.3-14.2,0.9
	c-5.8,4.1-12.3,6.1-19.2,5.4c-9.7-0.9-18.2,2.8-26.9,6c-3.7,1.4-7.2,3.5-11,3.8c-6.8,0.6-14.1,1.4-20.6-0.1
	c-9.5-2.2-18.4-6.6-27.7-9.7c-3.1-1.1-6.9-2-10-1.2c-8.5,2.2-15.9,0-23.1-4.1c-1.7-0.9-3.4-1.7-5-2.6c-2.8-1.6-5.3-1.8-7.9,0.6
	c-2.5,2.2-4.7,1.5-6.7-1.1c-2.3-2.9-5.2-5.5-7.4-8.5c-1.6-2.2-3-4.9-3.8-7.5c-0.8-2.5,1.3-3.9,3.2-2.6c4.3,3,9.7,3,14.1,6.7
	c4.3,3.6,10.6,5,16.3,6.7c10.7,3.1,21.9,2.8,32.9,2.7c0.8,0,1.9,0.2,2.2-0.2c3.4-4.1,8-3.5,12.5-3.6c6.6-0.2,9-5,6.1-10.9
	c-1.2-2.3-0.9-5.3-1.3-8c-0.6-3.7-1-7.5-2.2-11c-0.5-1.4-2.7-2.7-4.3-3.2c-2.8-0.9-5.9-1.1-8.8-1.8c-9.4-2.1-18.8-4.5-28.3-6.3
	C40.6,79.7,38.3,81.1,36.2,81.7z"/>
</svg>
