<?xml version="1.0" encoding="utf-8"?>
<!-- Generator: Adobe Illustrator 19.2.1, SVG Export Plug-In . SVG Version: 6.00 Build 0)  -->
<svg version="1.1" id="Layer_1" xmlns="http://www.w3.org/2000/svg" xmlns:xlink="http://www.w3.org/1999/xlink" x="0px" y="0px"
	 width="100px" height="100px" viewBox="0 0 100 100" style="enable-background:new 0 0 100 100;" xml:space="preserve">
<style type="text/css">
	.st0{fill:#FFFFFF;}
</style>
<path class="st0" d="M50,0C22.4,0,0,22.4,0,50s22.4,50,50,50s50-22.4,50-50S77.6,0,50,0z M37.8,65.4c-2.6,2-5.7,3.1-9.5,3.1
	c-3.9,0-7-0.8-9.4-2.4s-4.3-3.8-5.5-6.8c-1.3-3-1.9-6.2-1.9-9.6c0-3.7,0.7-7,2.1-9.8s3.5-4.9,6.1-6.3c2.6-1.4,5.5-2.2,8.7-2.2
	c3.6,0,6.6,0.9,9,2.7s4.1,4.4,5.1,7.7L37.8,43c-0.8-2.6-2-4.5-3.6-5.7s-3.6-1.8-6-1.8c-2.8,0-5,0.7-6.9,2c-1.8,1.3-3.1,3.1-3.9,5.3
	c-0.7,2.2-1.1,4.5-1.1,6.9c0,3,0.4,5.7,1.3,8s2.3,4,4.1,5.1c1.9,1.1,3.9,1.7,6.1,1.7c2.7,0,4.9-0.8,6.7-2.3s3.1-3.8,3.7-6.8l4.7,1.2
	C42.1,60.4,40.3,63.4,37.8,65.4z M48.6,68.5h-3.5l10.4-37H59L48.6,68.5z M76.7,36.3v31.6H72V36.3H60.2v-4.2h28.4v4.2H76.7z"/>
<g>
	<path d="M-54.3,52.1V16.4h24.1v4.2h-19.4v11.1h16.8v4.2h-16.8v16.3L-54.3,52.1L-54.3,52.1z"/>
</g>
</svg>
