<?xml version="1.0" encoding="utf-8"?>
<!-- Generator: Adobe Illustrator 21.0.2, SVG Export Plug-In . SVG Version: 6.00 Build 0)  -->
<svg version="1.1" id="Layer_1" xmlns="http://www.w3.org/2000/svg" xmlns:xlink="http://www.w3.org/1999/xlink" x="0px" y="0px"
	 viewBox="0 0 200 200" style="enable-background:new 0 0 200 200;" xml:space="preserve">
<style type="text/css">
	.st0{fill:#FFFFFF;}
</style>
<g>
	<path class="st0" d="M167.8,42.7c-25.5-0.4-48.4-5.7-67.6-22.7c-19.1,16.9-42,22.2-68.3,22.9c-1.2,36.4-0.6,71,16.7,102.8
		c11.1,20.6,28.6,34.5,51.9,34.3c22.7-0.2,39.9-13.8,50.8-34C168.8,113.8,169.7,78.9,167.8,42.7z M146.8,142
		c-10,18.4-25.7,30.8-46.4,31c-21.3,0.2-37.2-12.5-47.4-31.3C37.3,112.6,36.7,81,37.8,47.8c24-0.6,44.9-5.5,62.3-20.9
		c17.5,15.6,38.4,20.4,61.7,20.7C163.7,80.7,162.8,112.6,146.8,142z"/>
	<path class="st0" d="M45,53.9c21.2-0.5,39.7-4.9,55.1-18.5c15.5,13.8,34,18.1,54.6,18.3c1.6,29.2,0.8,57.4-13.3,83.4
		c-8.8,16.2-22.7,27.3-41,27.4c-18.8,0.2-32.9-11.1-41.9-27.7C44.6,111.2,44,83.2,45,53.9z"/>
</g>
</svg>
