<svg style="fill:#ccc;" xmlns="http://www.w3.org/2000/svg" xmlns:xlink="http://www.w3.org/1999/xlink" version="1.1" x="0px" y="0px" viewBox="0 0 100 125" enable-background="new 0 0 100 100" xml:space="preserve"><path d="M97.953,49.129c-0.135-7.687-2.136-15.261-5.806-21.969l-16.935,9.778c1.965,3.74,3.062,7.936,3.188,12.191H97.953z"/><path d="M51.229,2.406v19.552c4.182,0.125,8.311,1.188,12,3.09l9.78-16.939C66.352,4.505,58.843,2.539,51.229,2.406z"/><path d="M48.974,21.982V2.419c-7.553,0.224-14.99,2.256-21.571,5.895l9.778,16.936C40.797,23.314,44.854,22.19,48.974,21.982z"/><path d="M74.084,34.985l16.935-9.777c-3.98-6.518-9.515-12.026-16.051-15.979l-9.776,16.934  C68.769,28.393,71.829,31.428,74.084,34.985z"/><path d="M8.641,27.161c-3.574,6.533-5.57,13.905-5.792,21.383l19.563,0c0.203-4.101,1.266-8.001,3.164-11.605L8.641,27.161z"/><path d="M26.403,64.442L9.468,74.22c3.823,6.436,9.164,11.933,15.49,15.945l9.79-16.955C31.377,70.936,28.506,67.92,26.403,64.442z"/><path d="M2.836,50.8c0.131,7.487,2.036,14.884,5.525,21.454l16.953-9.788c-1.824-3.647-2.807-7.567-2.926-11.666H2.836z"/><path d="M48.388,97.489V77.917c-4.102-0.293-8.134-1.504-11.72-3.521l-9.776,16.933C33.431,95.05,40.842,97.174,48.388,97.489z"/><path d="M50.644,77.989v19.544c7.612-0.04,15.15-1.916,21.85-5.436l-9.79-16.957C58.922,76.995,54.868,77.952,50.644,77.989z"/><path d="M91.865,73.282c3.753-6.663,5.847-14.213,6.074-21.896H78.377c-0.214,4.243-1.4,8.413-3.447,12.118L91.865,73.282z"/><path d="M74.466,91.002c6.581-3.869,12.182-9.311,16.245-15.782l-16.952-9.787c-2.33,3.511-5.451,6.482-9.07,8.634L74.466,91.002z"/><path d="M25.454,9.452c-6.372,3.932-11.778,9.364-15.683,15.756l16.934,9.777c2.175-3.429,5.109-6.385,8.531-8.59L25.454,9.452z"/><path d="M64.42,36.458c-0.994-0.995-2.605-0.995-3.599,0l-6.7,6.7l-1.229-1.229l-2.144,2.145l1.102,1.101  c-0.013,0.012-0.024,0.022-0.036,0.035L36.395,60.627c-0.579,0.577-0.865,1.392-0.782,2.205l-1.224,1.797l1.859,1.859l1.797-1.225  c0.812,0.083,1.627-0.203,2.205-0.781l15.417-15.418c0.013-0.011,0.023-0.024,0.035-0.036l1.101,1.101l2.145-2.144l-1.229-1.229  l6.7-6.7C65.413,39.062,65.413,37.451,64.42,36.458z M55.126,48.521L39.708,63.939c-0.442,0.441-1.076,0.646-1.697,0.546  l-0.151-0.024l-1.519,1.035l-0.961-0.96l1.035-1.521l-0.024-0.15c-0.1-0.621,0.104-1.255,0.546-1.696l15.418-15.417  c0.012-0.013,0.024-0.022,0.037-0.033l2.768,2.766C55.148,48.496,55.138,48.51,55.126,48.521z"/></svg>
