<?xml version="1.0" encoding="iso-8859-1"?>
<!-- Generator: Adobe Illustrator 16.0.0, SVG Export Plug-In . SVG Version: 6.00 Build 0)  -->
<!DOCTYPE svg PUBLIC "-//W3C//DTD SVG 1.1//EN" "http://www.w3.org/Graphics/SVG/1.1/DTD/svg11.dtd">
<svg version="1.1" id="Capa_1" xmlns="http://www.w3.org/2000/svg" xmlns:xlink="http://www.w3.org/1999/xlink" x="0px" y="0px"
	 width="438.033px" height="438.033px" viewBox="0 0 438.033 438.033" style="enable-background:new 0 0 438.033 438.033;fill:#fff"
	 xml:space="preserve">
<g>
	<path d="M349.824,0H88.212c-13.4,0-24.307,10.898-24.307,24.301v261.314c0,13.396,10.907,24.308,24.307,24.308h261.612
		c13.4,0,24.304-10.911,24.304-24.308V24.301C374.128,10.898,363.22,0,349.824,0z M333.342,27.664
		c5.744,0,10.412,4.667,10.412,10.421c0,5.754-4.668,10.416-10.412,10.416c-5.762,0-10.426-4.668-10.426-10.416
		C322.916,32.33,327.58,27.664,333.342,27.664z M296.007,27.664c5.749,0,10.412,4.667,10.412,10.421
		c0,5.754-4.663,10.416-10.412,10.416c-5.747,0-10.421-4.668-10.421-10.416C285.586,32.33,290.26,27.664,296.007,27.664z
		 M346.354,282.146H91.681V74.367H346.35v207.78H346.354z M212.164,152.08l-83.865,38.438v-18.525l64.831-27.776v-0.353
		l-64.831-27.781V97.565l83.865,38.433V152.08z M309.729,184.187H222.37v-8.736h87.364v8.736H309.729z M285.764,408.936h72.777
		v13.283H285.89v0.635c0,8.391-6.799,15.18-15.18,15.18h-98.582c-8.381,0-15.186-6.797-15.186-15.18v-0.635H84.297v-13.283h72.775
		c0.65-7.789,7.104-13.918,15.056-13.918h30.251v-30.369c0-8.389,6.798-15.185,15.184-15.185h7.59c8.386,0,15.18,6.796,15.18,15.185
		v30.364h30.369C278.658,395.013,285.104,401.146,285.764,408.936z"/>
</g>
<g>
</g>
<g>
</g>
<g>
</g>
<g>
</g>
<g>
</g>
<g>
</g>
<g>
</g>
<g>
</g>
<g>
</g>
<g>
</g>
<g>
</g>
<g>
</g>
<g>
</g>
<g>
</g>
<g>
</g>
</svg>
