<?xml version="1.0" encoding="utf-8"?>
<!-- Generator: Adobe Illustrator 19.2.1, SVG Export Plug-In . SVG Version: 6.00 Build 0)  -->
<svg version="1.1" id="Layer_1" xmlns="http://www.w3.org/2000/svg" xmlns:xlink="http://www.w3.org/1999/xlink" x="0px" y="0px"
	 width="100px" height="100px" viewBox="0 0 100 100" style="enable-background:new 0 0 100 100;" xml:space="preserve">
<style type="text/css">
	.st0{fill:#CCCCCC;}
</style>
<g>
	<path class="st0" d="M50,8.5c22.9,0,41.5,18.6,41.5,41.5S72.9,91.5,50,91.5S8.5,72.9,8.5,50S27.1,8.5,50,8.5 M50,0
		C22.4,0,0,22.4,0,50s22.4,50,50,50s50-22.4,50-50S77.6,0,50,0L50,0z"/>
</g>
<g>
	<path class="st0" d="M64.7,79.6c-5.3,2.8-10.7,3.8-17.1,3.8c-15.8,0-29.1-11.5-29.1-30c0-19.8,13.8-36.9,35.1-36.9
		c16.7,0,28,11.7,28,27.8c0,14.4-8.1,22.9-17.1,22.9c-3.8,0-7.4-2.6-7.1-8.5H57c-3.4,5.7-7.8,8.5-13.6,8.5
		c-5.6,0-10.4-4.5-10.4-12.1c0-11.9,9.4-22.8,22.8-22.8c4.1,0,7.8,0.9,10.3,2l-3.3,17.4c-1.4,7.3-0.3,10.7,2.9,10.8
		c4.9,0.1,10.4-6.4,10.4-17.6C76.1,31,67.7,21,52.8,21c-15.7,0-28.9,12.4-28.9,31.9c0,16.1,10.5,26,24.7,26c5.5,0,10.6-1.2,14.5-3.4
		L64.7,79.6z M59.4,38.1c-1-0.3-2.6-0.7-4.8-0.7c-8.5,0-15.3,8-15.3,17.3c0,4.2,2.1,7.3,6.3,7.3c5.6,0,10.7-7.1,11.7-13.1L59.4,38.1
		z"/>
</g>
</svg>
