<?xml version="1.0" encoding="utf-8"?>
<!-- Generator: Adobe Illustrator 19.2.1, SVG Export Plug-In . SVG Version: 6.00 Build 0)  -->
<svg version="1.1" id="Layer_1" xmlns="http://www.w3.org/2000/svg" xmlns:xlink="http://www.w3.org/1999/xlink" x="0px" y="0px"
	 width="300px" height="300px" viewBox="0 0 300 300" style="enable-background:new 0 0 300 300;" xml:space="preserve">
<style type="text/css">
	.st0{clip-path:url(#SVGID_2_);}
	.st1{fill:none;stroke:#394453;stroke-width:17.01;stroke-miterlimit:10;stroke-dasharray:15.99,8.01;}
	.st2{fill:none;stroke:#394453;stroke-width:17.01;stroke-miterlimit:10;stroke-dasharray:16.86,8.43;}
	.st3{fill:#394453;}
	.st4{fill:#4DA3C9;}
</style>
<g>
	<defs>
		<circle id="SVGID_1_" cx="150" cy="150" r="141.2"/>
	</defs>
	<clipPath id="SVGID_2_">
		<use xlink:href="#SVGID_1_"  style="overflow:visible;"/>
	</clipPath>
	<g class="st0">
		<circle class="st1" cx="33.7" cy="153" r="156.6"/>
		<circle class="st2" cx="62" cy="153" r="165.1"/>
	</g>
</g>
<path class="st3" d="M150,21.3c71.1,0,128.7,57.6,128.7,128.7S221.1,278.7,150,278.7S21.3,221.1,21.3,150c0,0,0,0,0,0
	C21.5,79,79,21.5,150,21.3 M150,0C67.2,0,0,67.2,0,150s67.2,150,150,150s150-67.2,150-150S232.8,0,150,0L150,0z"/>
<path class="st4" d="M150,150"/>
</svg>
