<?xml version="1.0" encoding="utf-8"?>
<!-- Generator: Adobe Illustrator 19.2.1, SVG Export Plug-In . SVG Version: 6.00 Build 0)  -->
<svg version="1.1" id="Layer_1" xmlns="http://www.w3.org/2000/svg" xmlns:xlink="http://www.w3.org/1999/xlink" x="0px" y="0px"
	 width="100px" height="100px" viewBox="0 0 100 100" style="enable-background:new 0 0 100 100;" xml:space="preserve">
<style type="text/css">
	.st0{fill:#FFFFFF;}
</style>
<path d="M-347.3,90.1c0-2.5,0-4.3,0-6.1c-0.3,0-0.5-0.1-0.8-0.1c-0.4,1.3-0.9,2.6-1.4,4c-3.3,0-6.5,0-9.8,0c-1.6-6.4-1-7.3,5.1-7.3
	c1.8,0,3.7,0.1,5.5,0c3.7-0.2,4.9,1.4,5,5c0,2.4,1.1,4.7,1.7,7.1c1,4,2.3,7.9,2.9,12c0.7,5.2-1.2,9.6-6,12.1
	c-5.2,2.7-10.7,2.8-15.7-0.3c-1.8-1.1-3.4-4.1-3.2-6c0.1-1.6,2.9-3.8,4.8-4.2c3.5-0.6,7.2,0,10.8,0.2c1.3,0.1,2.6,0.5,4,0.7
	c0.1-0.7,0.3-1.4,0.4-2.1c-4.4-1-8.9-1.9-14-3.1c-0.2-0.6-0.8-2-1.3-3.4c-0.3,0-0.7,0-1,0c-0.2,1.1-0.3,2.4-0.8,3.3
	c-0.6,1-1.6,1.8-2.4,2.7c-0.8-0.9-2.1-1.7-2.3-2.7c-1.3-6.2,3.4-11.8,9.7-11.8C-353.2,90.1-350.3,90.1-347.3,90.1z"/>
<path d="M-337.5,112.7c5.2-10.9-3.2-19.9-3.6-29.8c9-3.8,11.5-3,11.7,3.6c-2.7,0.6-5.5,1.3-9.3,2.2c4.8,2.4,10.4-3,12.8,2.9
	c1.6,4,3.4,8.5,3.2,12.7C-322.9,110.6-328.8,113.8-337.5,112.7z"/>
<path d="M-233.9-93.2c-3.8-6.5-7.7-13.1-11.7-20c-5.1,3.3-9.9,6.4-15.2,9.8c-2.7-4.6-5.1-8.8-7.6-13.1c5.4-3.9,10.5-7.6,16.2-11.6
	c6.1,10.6,12.9,22.3,19.6,33.9C-233-93.8-233.4-93.5-233.9-93.2z M-253.8-117c-1.2-1.9-2.2-3.3-3.3-5c-1.6,1.2-2.9,2-4.5,3.2
	c1.1,1.7,2,3.1,3.1,4.7C-256.9-115.2-255.7-115.9-253.8-117z M-255.9-108.7c-1.1-1.7-2-3.1-3.2-4.9c-1.6,1.2-2.7,2-3.9,2.9
	c1.1,1.7,1.9,3.1,3,4.7C-258.6-107-257.4-107.7-255.9-108.7z M-253.6-116.8c1.2,1.7,2.1,3,3.4,4.8c1.3-1.4,2.8-2.4,2.9-3.4
	c0-1.2-1.3-2.5-2.1-3.9C-250.8-118.5-251.9-117.8-253.6-116.8z"/>
<path d="M-223.7-103.4c-5.8-3.7-11-7-16.8-10.6c2.5-4.4,5.5-9.6,8.1-14.2c5.3,3.8,10.3,7.5,16,11.7
	C-218.6-112.5-221-108.2-223.7-103.4z M-230.5-116.9c1.7,1,3.1,1.8,4.8,2.7c1.1-1.9,1.9-3.2,2.9-5c-1.7-1-3.1-1.9-4.7-2.8
	C-228.7-120.1-229.5-118.7-230.5-116.9z M-221.6-111c-1.4-0.9-2.6-1.6-4.1-2.5c-1,1.7-1.9,3-3,4.8c1.6,0.9,2.8,1.7,4.3,2.6
	C-223.2-107.9-222.5-109.3-221.6-111z M-235.4-119.7c-0.7,2.2-1.4,3.7-1.5,5.2c0,0.5,1.9,1.8,2.2,1.6c1.4-0.9,2.5-2.1,4-3.5
	C-232.4-117.7-233.5-118.4-235.4-119.7z"/>
<g>
	<path class="st0" d="M48.5,63.2c8-2.6,15-4.9,22-7.2C57.9,49.7,46,64.2,32,54.4c11.6-3.5,21.6-6.5,31.5-9.6c-0.3-1.4-0.7-2.8-1-4.2
		c-8.5,2.1-17.3,3.5-25.5,6.6c-10,3.8-18.5,1.7-26-4.8c-2.3-2-4.4-6.4-3.8-9.1c2.4-12,10-20.1,19.6-24.8c4.1,7.2,6.3,15.7,11.7,18.9
		c5.4,3.2,14.1,2.2,21.1,1.2c6.8-1,10.2,0.9,13.3,6.7c6.6,12.4,10.3,27,24.7,33.9c1.8,0.9,3,6,2.2,8.1c-0.8,1.9-4.9,3.3-7.6,3.3
		C79.2,80.9,62.5,74.1,48.5,63.2z"/>
	<path class="st0" d="M1.6,47.3c31.9,13,57.3,40.7,94.9,43.2c-3.3,0.3-6.7,1.3-9.8,0.7c-8.2-1.7-16.8-2.8-24.1-6.6
		C41.4,73.6,20.8,61.4,0,49.7C0.5,48.9,1,48.1,1.6,47.3z"/>
</g>
<path d="M-338.9,78.1c-2.1-1.8-4.3-3.6-6.5-5.6c-2.2,2-4.3,3.8-5.3,4.8c1.4-1.5,3.7-4,5.6-6.1c1.9,1.7,4.4,3.9,6.9,6.1
	C-338.5,77.6-338.7,77.9-338.9,78.1z"/>
<path d="M-243.4-105.5c-2.4,4.1-4.8,8.3-7.2,12.4c-0.5-0.3-1-0.5-1.5-0.8c2.4-4.1,4.8-8.3,7.1-12.4
	C-244.4-106.1-243.9-105.8-243.4-105.5z"/>
</svg>
