<?xml version="1.0" encoding="utf-8"?>
<!-- Generator: Adobe Illustrator 21.0.2, SVG Export Plug-In . SVG Version: 6.00 Build 0)  -->
<svg version="1.1" id="Layer_1" xmlns="http://www.w3.org/2000/svg" xmlns:xlink="http://www.w3.org/1999/xlink" x="0px" y="0px"
	 width="200px" height="200px" viewBox="0 0 200 200" style="enable-background:new 0 0 200 200;" xml:space="preserve">
<style type="text/css">
	.st0{fill:#394454;}
</style>
<g>
	<path class="st0" d="M99.5,169c-21.1-0.6-37.5-9.8-47.6-28.4c-10.2-18.9-9-37.9,2.8-55.9c2.4-3.6,2.8-6.4,1.5-10.4
		c-6.3-19.1,1.1-33.4,20.3-39.5c15.3-4.9,30.7-4.9,46.1-0.2c19.8,6.1,27.5,20.8,20.8,40.3c-1.5,4.3-1,7.2,1.4,11
		c11,17.8,11.9,36.4,1.9,54.8C136.7,159.1,120.5,168.2,99.5,169z M69.2,69.8c20.7-12.1,40.9-11.7,60.9,0.4c4-11.4,1-18.4-9.7-22.1
		c-13.3-4.5-26.9-4.6-40.3-0.3C69,51.4,66,57.4,69.2,69.8z"/>
	<path class="st0" d="M147.5,154.1c16.1-21.9,17.7-44.9,6.5-68.9c8.3-2.9,11.9-2.4,29.8,3.8c2.7-7.6,1.2-12.2-6.4-14.1
		c-7.7-2-15.8-2.2-24.2-3.3c-1.3-7.4-0.6-8.7,7.7-8.4c6.3,0.2,12.9,0.8,18.9,2.6c12.5,3.8,17.4,13.6,13.5,26.1
		c-1.2,3.9-0.8,6.5,1.3,9.9c8.5,13.9,6.5,31.9-4.4,44C179.6,157.5,162.3,161.1,147.5,154.1z"/>
	<path class="st0" d="M51.7,154.7c-16.6,6.3-33.1,2-43.5-10.8c-10.1-12.4-10.8-29.7-2.3-43.8c1.3-2.2,1.8-5.6,1.2-8
		C3.7,78.6,8.3,69,21.7,65.4c7.6-2.1,15.8-2.1,24.1-3.1c0.6,4.4,0.9,7.2,1.2,9.4c-7.7,0.8-15.2,0.9-22.4,2.5
		c-8,1.8-9.9,5.9-8.4,15.1c8.9-4.8,18.2-7.3,28.9-4.9C33.1,109,35,132.3,51.7,154.7z"/>
</g>
</svg>
