<?xml version="1.0" encoding="utf-8"?>
<!-- Generator: Adobe Illustrator 21.0.0, SVG Export Plug-In . SVG Version: 6.00 Build 0)  -->
<svg version="1.1" id="Layer_1" xmlns="http://www.w3.org/2000/svg" xmlns:xlink="http://www.w3.org/1999/xlink" x="0px" y="0px"
	 width="200px" height="200px" viewBox="0 0 200 200" style="enable-background:new 0 0 200 200;" xml:space="preserve">
<style type="text/css">
	.st0{fill-rule:evenodd;clip-rule:evenodd;fill:#4DA3C9;}
</style>
<g>
	<path class="st0" d="M20.1,58.9c1.9,0.2,7.2,4.6,8.8,5.8l86.8,62.4c10.9,8,18.7,10.6,34.3,10.6c10,0,19.9,0,29.9,0
		c-1,1.5-1.9,2.9-3.1,4.4c-1.7,2.2-2.8,1.5-6.4,1.5c-3,0-4.6,0.4-7.1,0.4c-8.9,0.1-26.9,0.3-34.7-0.4c-2.8-0.2-9.4-5.4-11.8-7.1
		c-4.9-3.5-9.7-7-14.7-10.5L22,67.7c-1.2-1.1-2.2-1.9-2.7-3.6C18.5,61.5,19.6,61.1,20.1,58.9L20.1,58.9z M52,0.3
		c-3.9,0.2-8,2.3-11.3,6.5L9.2,42.5c-2.6,2.6-4.3,4.6-6.2,7.9C1.4,53,0,57.7,0,61.7c0,14.1,8.3,19.7,17.6,26.1
		c10.4,7.1,22.2,16.1,32.7,23.5l65.5,47.1c2.3,1.8,6.2,4,10.1,4h52.8c7.6,0,13.9-7,16.5-12.2c7.4-14.9,5.1-31.2-10.6-38.2
		c-4-1.8-7.3-1.6-12.2-2.4c-7.2-1.3-14.2-4.8-19.7-9c-1.5-1.1-2.2-2.2-3.7-3.4c-3.3-2.5-10.6-12.2-13-16.2
		c-3.1-5.2-4.9-7.8-7.9-13.8l-7-14.6c-1.5-3.7-5.5-12.4-6.2-15.8c-2.4,0-4.1,0.4-7.1,0.4c-3,0-4.3,0.4-7.1,0.4
		c-10.9-0.1-21.1,3.4-26.1-7L63.4,7.4c-2.2-4.4-6-6.9-10.1-7.1H52L52,0.3z M51.2,23.9c-1.1,0.7-0.9,0.7-1.7,1.8L24.8,53.4l12.8,9.2
		c1.6,1,2.7,2,4.1,3l76,54.7c6.6,4.7,9.5,7.5,19.1,9.7c7.2,1.6,33.8,1,42.4,1c-0.4-0.3-0.8-0.7-1.3-1c-0.5-0.3-0.8-0.5-1.3-0.7
		c-1.8-0.8-19.8-1.5-33.7-12.4c-5.1-4-8.7-7.7-12.5-12.6c-7.2-9.5-11-14.6-16.9-24.4c-1.1-1.8-1.9-3.4-3-5.3
		c-1.2-1.9-1.7-3.6-2.9-5.3c-5.2,0-14.6,4.5-14.6-1.6c0-3,2.4-3.1,4.8-3.4c2.1-0.3,5-0.9,7-0.9c-0.8-1.7-1.9-4.7-2.4-6.7
		c-7.1,0-13.8,1.1-20.4,0.3c-9.1-1.1-18-7.1-22.6-14.8L51.2,23.9z"/>
	<path class="st0" d="M0,170.4v20.5c2-0.5,4-1.6,5.8-2.5c13.8-6.6,10.1-5.7,18.1-2.9l19.1,6.9c6.9,2.3,6.5,3.3,14.4-0.5l13.4-6.3
		c3.7-1.9,2.7-2.2,7-0.8c2.8,0.9,27.2,10,29.4,10c4.2,0,8.8-2.7,13.2-4.9c1.2-0.6,11.7-5.4,11.9-5.4l28.3,9.8
		c6.8,2.7,8.2,0.2,17.4-3.5c13.4-5.4,9.1-6.9,16.9-4c1.6,0.6,3.2,1.5,5.1,1.6v-19.7c-2.7-1.4-7.5-3.1-11-3.1c-2.7,0-14.9,6-18,7.6
		c-7.9,4-5.3,2.8-14-0.1c-2.7-0.9-5.4-1.9-8.1-2.9c-3.1-1.2-14.6-5.4-16.6-5.4c-3,0-4.4,1.1-6.6,2c-1.1,0.4-1.8,0.9-2.9,1.4
		c-17.3,8.1-12.8,7.9-23.2,4.2c-2.4-0.9-22.7-8.4-24.3-8.4c-2.6,0-4.9,1.1-6.7,2c-2.1,1-4,1.8-6.2,2.9L50,174.7l-31.9-11
		c-6.1,0-4.7,0.5-10.7,3L0,170.4z"/>
</g>
</svg>
