<?xml version="1.0" encoding="utf-8"?>
<!-- Generator: Adobe Illustrator 21.0.2, SVG Export Plug-In . SVG Version: 6.00 Build 0)  -->
<svg version="1.1" id="Layer_1" xmlns="http://www.w3.org/2000/svg" xmlns:xlink="http://www.w3.org/1999/xlink" x="0px" y="0px"
	 viewBox="0 0 100 100" style="enable-background:new 0 0 100 100;" xml:space="preserve">
<style type="text/css">
	.st0{fill:#4EA3C9;}
</style>
<path class="st0" d="M95.1,71.9c-2.5-0.8-4.9-1.4-7.2-2.2c-1.3-0.4-2.1-0.4-2.7,1c-0.6,1.2-1.3,2.4-2.3,3.4
	c-1.2,1.3-0.9,2.2,0.2,3.3c1.6,1.7,3,3.6,4.6,5.4c-1.6,1.6-3.1,3.1-4.8,4.7C81,86,79,84.4,77,82.7c-0.8-0.7-1.4-0.8-2.3-0.1
	c-1.1,0.9-2.4,1.8-3.7,2.5c-1,0.6-1.3,1.2-0.9,2.4c0.9,2.3,1.5,4.7,2.3,7.2c-2,0.9-4,1.7-6.1,2.6c-1.2-2.3-2.5-4.4-3.6-6.7
	c-0.5-1.1-1.1-1.4-2.3-1c-1.6,0.5-3.2,0.8-4.8,1c-1.3,0.1-1.6,0.7-1.7,1.9c-0.1,2-0.4,4.1-0.5,6.1c-0.1,1-0.5,1.5-1.5,1.4
	c-1.3-0.1-2.6-0.1-4,0c-1.1,0.1-1.4-0.4-1.5-1.5c-0.1-2.2-0.3-4.4-0.7-6.6c-0.1-0.5-0.6-1.1-1.1-1.2c-1.7-0.5-3.5-0.7-5.2-1.1
	c-0.9-0.2-1.3,0-1.7,0.8c-0.9,1.9-2,3.8-2.9,5.7c-0.5,1.1-1.1,1.3-2.2,0.8c-1.1-0.5-2.3-1-3.5-1.4c-0.9-0.3-1.1-0.8-0.8-1.8
	c0.7-1.9,1.1-3.9,1.8-5.8c0.5-1.2,0.3-2-1-2.6c-1.4-0.7-2.7-1.6-3.8-2.6c-1.1-1-1.8-0.7-2.8,0.1c-1.8,1.6-3.7,3.1-5.6,4.7
	c-1.5-1.7-3-3.2-4.5-4.9c1.4-1.7,2.9-3.6,4.5-5.5c0.9-1,1.1-1.7,0.2-2.8c-0.9-1.1-1.7-2.3-2.4-3.6c-0.5-1-1.1-1.2-2.1-0.8
	c-2.4,0.9-4.9,1.6-7.5,2.4c-0.8-1.8-1.6-3.6-2.2-5.4c0.1-0.1,0.6-0.9,1-1.1c2-1.1,4-2.2,6-3.2c0.9-0.4,1.2-1,0.9-2
	c-0.4-1.5-0.8-3-0.9-4.5c-0.1-1.7-1-2.1-2.4-2.2C5,53.8,2.6,53.5,0,53.3c0-2-0.1-3.9,0.1-5.7c0-0.4,0.9-1,1.5-1
	C3.7,46.3,5.9,46.1,8,46c1.2-0.1,1.7-0.5,1.9-1.8c0.1-1.5,0.5-2.9,0.9-4.4c0.2-0.9,0-1.4-0.8-1.8c-2.5-1.2-4.9-2.5-7.4-3.8
	C3.3,32.4,4,30.7,4.7,29c0.3-0.8,0.8-0.9,1.6-0.6c2.2,0.7,4.5,1.4,6.8,2.1c0.9,0.3,1.5,0.1,2-0.8c0.9-1.5,1.8-2.9,2.9-4.2
	c0.6-0.8,0.5-1.4-0.1-2.1c-1.8-2-3.5-4.1-5.2-6.2c1.6-1.5,3.2-2.9,4.9-4.5c1.7,1.4,3.8,3.1,5.8,4.8c0.9,0.8,1.6,1,2.7,0.1
	s2.3-1.7,3.6-2.4c0.8-0.5,1-1,0.7-1.9c-0.8-2.2-1.4-4.5-2.2-6.8C27.9,5.5,28,5,29,4.6c1.6-0.6,3.1-1.3,4.9-2
	c1.3,2.4,2.6,4.8,3.8,7.2c0.6,1.1,1.1,1.5,2.4,1.1c1.5-0.5,3-0.7,4.5-0.9c0.9-0.1,1.4-0.4,1.5-1.5c0.1-2.4,0.5-4.7,0.6-7.1
	C46.8,0.3,47.2,0,48.2,0c1.3,0,2.6,0.1,4,0c1,0,1.4,0.3,1.5,1.3c0.2,2.3,0.4,4.5,0.5,6.8c0.1,1.3,0.6,1.9,1.9,2
	c1.2,0.1,2.4,0.3,3.6,0.7c1.5,0.5,2.2,0,2.8-1.3c1.1-2.3,2.3-4.5,3.6-6.9c2,0.8,4,1.6,6.2,2.4c-0.8,2.6-1.5,5.1-2.3,7.6
	c-0.5,1.3-0.3,2.1,1,2.7c1.3,0.6,2.5,1.4,3.6,2.3c1,0.9,1.7,0.7,2.7-0.2c2-1.7,4-3.4,6.1-5.1c1.6,1.6,3,3.1,4.7,4.7
	c-1.6,2-3.2,4-5,6c-0.9,1-1.1,1.7-0.1,2.8c0.8,0.8,1.5,1.8,1.9,2.9c0.7,1.6,1.7,1.7,3.1,1.1c2.3-0.8,4.6-1.5,7.2-2.3
	c0.9,2,1.7,4,2.6,6.1c-2.3,1.2-4.5,2.5-6.8,3.6c-1.2,0.6-1.8,1.2-1.2,2.7c0.5,1.5,0.8,3.1,1,4.7c0.1,1,0.6,1.3,1.5,1.4
	c2,0.1,3.9,0.4,5.9,0.5c2.3,0.1,2.3,0.1,2.3,2.5c0,1.2,0,2.4,0,3.6c0,0.2-0.1,0.3-0.1,0.7c-2.3,0.2-4.7,0.5-7.1,0.6
	c-1.5,0.1-2.5,0.4-2.5,2.2c0,1.3-0.4,2.7-0.8,4c-0.2,0.9,0,1.4,0.9,1.8c2.4,1.2,4.7,2.4,7.2,3.7C96.8,67.8,96,69.7,95.1,71.9z
	 M47.4,85.1c2-0.1,3.4-0.2,4.8-0.4c3.1-0.4,6.2-1.1,8.6-3.3c1.7-1.5,2.7-3.3,2-5.7c-1-3.3-3-4.4-6.7-3.8c-3.3,0.5-6.7,0.9-10.1,1.3
	c-1.6,0.2-3.3,0.4-4.8,1c-2.1,0.7-3,2.3-2.7,4.5c0.3,3,2.1,5.1,5,5.8C45,84.9,46.5,85,47.4,85.1z M36.6,18c-1.1,0.3-2.3,0.5-3.2,1.1
	c-4,2.3-7.5,5.3-9.8,9.3c-0.7,1.2-1.2,2.6-1.4,4c-0.4,2,0.2,3.8,1.9,5.1c2.4,2,4.9,1.8,7.1-0.4c3.1-3.1,6.2-6.2,9.3-9.4
	c0.8-0.8,1.5-1.8,2-2.8c0.7-1.2,0.7-2.6-0.2-3.8C40.9,19.4,39.1,18.2,36.6,18z M60.2,17.8c-0.1-0.1-0.1-0.2-0.2-0.3
	c-1.6,0.7-3.4,1.1-4.6,2.2c-2.8,2.4-2.1,6.6,1.2,8.4c4,2.1,8.1,4.2,12.1,6.3c0.5,0.3,1.1,0.5,1.7,0.7c2.8,0.9,4.7,0,5.8-2.7
	c1.1-2.8,0.6-5.3-1.5-7.4c-3.2-3.1-7-5.2-11.3-6.5C62.3,18.1,61.3,18,60.2,17.8z M84.4,53.3c-0.2-1-0.5-2.9-1.1-4.6
	c-1.1-2.9-3.3-4-6.3-3.6c-2.5,0.4-3.7,1.9-4.2,5.1c-0.5,3.7-1.2,7.4-1.8,11c-0.1,0.9-0.3,1.7-0.4,2.6c-0.3,3.5,1.6,5.6,5.2,5.4
	c3-0.1,4.9-1.6,6.1-4.3C83.4,61.5,84.1,57.8,84.4,53.3z M15.2,54.7c1,5.7,2.9,10.9,7.3,14.9c0.6,0.5,1.3,0.9,1.9,1.2
	c1.6,0.7,3.3,0.9,4.9,0c3-1.6,3.7-4.2,2.1-7.4c-1.8-3.6-3.6-7.3-5.4-10.9c-0.3-0.5-0.6-1.1-0.9-1.6c-2-3.4-4.8-3.8-7.8-1.3
	C15.9,50.9,15.1,52.5,15.2,54.7z M50,58.7c4.9,0,8.8-3.8,8.8-8.6c0-4.9-3.8-8.8-8.6-8.8c-4.9,0-8.9,3.9-8.8,8.7
	C41.4,54.9,45.1,58.7,50,58.7z"/>
</svg>
