<?xml version="1.0" encoding="utf-8"?>
<!-- Generator: Adobe Illustrator 19.2.1, SVG Export Plug-In . SVG Version: 6.00 Build 0)  -->
<svg version="1.1" id="Layer_1" xmlns="http://www.w3.org/2000/svg" xmlns:xlink="http://www.w3.org/1999/xlink" x="0px" y="0px"
	 width="100px" height="100px" viewBox="0 0 100 100" style="enable-background:new 0 0 100 100;" xml:space="preserve">
<style type="text/css">
	.st0{fill:#FFFFFF;}
</style>
<path d="M-68.5-298.2c11-25,22.1-50,33.5-75.8c-2.9-0.2-4.6-0.3-6.4-0.3c-10.2,0-20.3,0-30.5,0c-6.6-0.1-11-4.1-10.9-9.8
	c0.1-5.5,4.4-9.4,10.8-9.4c16.8-0.1,33.7-0.2,50.5,0c9.2,0.1,13.3,6.4,9.7,14.8c-4.3,9.9-8.7,19.8-13.1,29.7
	c-0.9,2.1-1.7,4.2-2.9,7.1c7.4,0.7,13.9,1.4,20.5,2c31.2,2.8,62.4,5.5,93.5,8.2c10.3,0.9,20.6,1.9,30.8,2.9c3.3,0.3,5.1-0.6,6.4-3.9
	c2.8-7,6-13.7,9.1-20.6c0.6-1.3,0.9-2.7,1.5-4.2c-9.2-1.2-18-2.2-26.6-3.7c-3-0.5-5.6-2.8-8.4-4.3c2.1-2.6,3.6-6,6.3-7.6
	c13.4-7.9,28.4-10.5,43.7-10.1c7.7,0.2,15.5,1.4,23.2,2.9c3.6,0.7,7.4,2.6,7.7,7.3c0.3,4.7-2.9,7.5-6.5,9.2c-4.3,2-9.2,2.8-13.7,4.5
	c-1.9,0.7-4.3,2-5.1,3.7c-5.1,10.7-9.8,21.5-14.4,32.4c-0.6,1.5-0.6,4.2,0.3,5.3c8.7,11.2,17.6,22.2,26.5,33.2
	c0.3,0.4,0.8,0.6,1.5,1c1.3-0.8,2.7-1.7,4.1-2.6c34-22.5,78.1-22.1,111.6,1c33.4,23,49.4,64.1,40.6,104c-8.7,39.5-41,69.7-81.4,76.3
	c-50.7,8.3-99.6-23.8-112.1-73.7c-1.1-4.5-2.9-6-7.4-5.6c-4.3,0.4-9.5-1.3-12.7,0.7c-2.6,1.6-2.7,7.2-4,11
	c-5.9,16.5-17.6,26.2-34.9,28.1c-16.3,1.7-29.5-4.8-38.4-18.5c-9.2-14.3-9.2-29.3-0.3-43.8c2.4-3.9,2.1-6.1-0.5-9.5
	c-23.4-31-46.5-62.1-69.8-93.2c-0.9-1.2-1.9-2.3-3.7-4.4c-3.7,8.3-7.1,15.9-10.7,23.8c28.1,17.4,45.6,41.8,49.7,74.8
	c3.1,24.6-2.3,47.4-16.2,68c-27.7,41-81.2,55.4-125.7,34c-44.4-21.4-66.2-72.1-51.9-119.5C-181.1-279.5-127.8-316.7-68.5-298.2z
	 M-78.4-276c-24.7-10.1-71.5-2-91.4,40.9c-18.2,39.2,0.4,86.1,40.7,102.7c39.9,16.4,86.3-3.9,100.9-44.2
	c12.6-34.8-4.2-82.5-32.5-91.5c-0.5,1.2-1.1,2.4-1.6,3.6c-9.2,20.7-18.4,41.4-27.6,62c-3.5,7.8-8.4,10.5-14.1,7.9
	c-5.6-2.5-6.8-8.2-3.4-15.9c5.6-12.6,11.2-25.3,16.8-37.9C-86.5-257.5-82.5-266.7-78.4-276z M183.1-265.1c0.5,0.9,0.8,1.5,1.2,2
	c10.8,13.5,21.6,27.1,32.6,40.4c1.1,1.3,3.7,2,5.5,1.8c10.9-1.3,20.3,1.5,27.1,10.4c9.7,12.7,6.6,30.9-6.4,39.6
	c-13.5,9-31.3,4.9-39.3-9.4c-1.8-3.2-3.7-4.1-7.1-4c-5.7,0.2-11.3,0.1-17,0.1c-8.5,0-16.9,0-25.4,0c1,23.2,30.4,50.9,58.9,56.2
	c35.3,6.5,70.4-11.8,84.5-44.2c14.4-32.9,4.5-71-23.9-92.3C243.8-286.9,205.4-282.7,183.1-265.1z M-19.9-321.9
	c-0.3,0.4-0.6,0.9-1,1.3c2.8,3.8,5.7,7.6,8.5,11.4c20.5,27.5,41.1,54.9,61.5,82.5c2,2.7,3.8,3.3,7.1,2.4c4.6-1.2,9.5-1.8,14.3-1.6
	c4,0.2,5.9-1,7.5-4.6c10.8-24.7,21.9-49.3,32.8-73.9c0.7-1.6,1.2-3.3,2-5.5C68.1-314,24.1-318-19.9-321.9z M130.8-299.1
	c-0.9,0.7-1.3,0.9-1.4,1.1c-11.7,25.9-23.3,51.9-34.9,77.9c-0.4,0.9-0.2,2.7,0.5,3.5c10.2,13.7,10.2,13.7,27.7,13.4c0.3,0,0.7,0,1,0
	c3.4,0.4,4.5-1.1,4.7-4.5c0.6-18.4,6.2-35.3,16.4-50.6c2.7-4.1,5.9-8,9-12.2C146.1-280,138.5-289.5,130.8-299.1z M151-203.6
	c2,0.2,3.3,0.4,4.6,0.4c13.8,0,27.6,0.1,41.5-0.1c1.9,0,4.6-1.2,5.5-2.7c0.7-1.1-0.5-4-1.6-5.5c-8.1-10.4-16.4-20.6-24.7-30.8
	c-2.5-3.1-4.9-6.2-7.8-9.7C157-237.5,151.4-221.8,151-203.6z"/>
<path class="st0" d="M95.1,71.9c-2.5-0.8-4.9-1.4-7.2-2.2c-1.3-0.4-2.1-0.4-2.7,1c-0.6,1.2-1.3,2.4-2.3,3.4
	c-1.2,1.3-0.9,2.2,0.2,3.3c1.6,1.7,3,3.6,4.6,5.4c-1.6,1.6-3.1,3.1-4.8,4.7C81,86,79,84.4,77,82.7c-0.8-0.7-1.4-0.8-2.3-0.1
	c-1.1,0.9-2.4,1.8-3.7,2.5c-1,0.6-1.3,1.2-0.9,2.4c0.9,2.3,1.5,4.7,2.3,7.2c-2,0.9-4,1.7-6.1,2.6c-1.2-2.3-2.5-4.4-3.6-6.7
	c-0.5-1.1-1.1-1.4-2.3-1c-1.6,0.5-3.2,0.8-4.8,1c-1.3,0.1-1.6,0.7-1.7,1.9c-0.1,2-0.4,4.1-0.5,6.1c-0.1,1-0.5,1.5-1.5,1.4
	c-1.3-0.1-2.6-0.1-4,0c-1.1,0.1-1.4-0.4-1.5-1.5c-0.1-2.2-0.3-4.4-0.7-6.6c-0.1-0.5-0.6-1.1-1.1-1.2c-1.7-0.5-3.5-0.7-5.2-1.1
	c-0.9-0.2-1.3,0-1.7,0.8c-0.9,1.9-2,3.8-2.9,5.7c-0.5,1.1-1.1,1.3-2.2,0.8c-1.1-0.5-2.3-1-3.5-1.4c-0.9-0.3-1.1-0.8-0.8-1.8
	c0.7-1.9,1.1-3.9,1.8-5.8c0.5-1.2,0.3-2-1-2.6c-1.4-0.7-2.7-1.6-3.8-2.6c-1.1-1-1.8-0.7-2.8,0.1c-1.8,1.6-3.7,3.1-5.6,4.7
	c-1.5-1.7-3-3.2-4.5-4.9c1.4-1.7,2.9-3.6,4.5-5.5c0.9-1,1.1-1.7,0.2-2.8c-0.9-1.1-1.7-2.3-2.4-3.6c-0.5-1-1.1-1.2-2.1-0.8
	c-2.4,0.9-4.9,1.6-7.5,2.4c-0.8-1.8-1.6-3.6-2.2-5.4C3,66.8,3.5,66,3.9,65.8c2-1.1,4-2.2,6-3.2c0.9-0.4,1.2-1,0.9-2
	c-0.4-1.5-0.8-3-0.9-4.5c-0.1-1.7-1-2.1-2.4-2.2C5,53.8,2.6,53.5,0,53.3c0-2-0.1-3.9,0.1-5.7c0-0.4,0.9-1,1.5-1
	C3.7,46.3,5.9,46.1,8,46c1.2-0.1,1.7-0.5,1.9-1.8c0.1-1.5,0.5-2.9,0.9-4.4c0.2-0.9,0-1.4-0.8-1.8c-2.5-1.2-4.9-2.5-7.4-3.8
	c0.7-1.8,1.4-3.5,2.1-5.2c0.3-0.8,0.8-0.9,1.6-0.6c2.2,0.7,4.5,1.4,6.8,2.1c0.9,0.3,1.5,0.1,2-0.8c0.9-1.5,1.8-2.9,2.9-4.2
	c0.6-0.8,0.5-1.4-0.1-2.1c-1.8-2-3.5-4.1-5.2-6.2c1.6-1.5,3.2-2.9,4.9-4.5c1.7,1.4,3.8,3.1,5.8,4.8c0.9,0.8,1.6,1,2.7,0.1
	c1.1-0.9,2.3-1.7,3.6-2.4c0.8-0.5,1-1,0.7-1.9c-0.8-2.2-1.4-4.5-2.2-6.8c-0.3-1-0.2-1.5,0.8-1.9c1.6-0.6,3.1-1.3,4.9-2
	c1.3,2.4,2.6,4.8,3.8,7.2c0.6,1.1,1.1,1.5,2.4,1.1c1.5-0.5,3-0.7,4.5-0.9c0.9-0.1,1.4-0.4,1.5-1.5c0.1-2.4,0.5-4.7,0.6-7.1
	c0.1-1.1,0.5-1.4,1.5-1.4c1.3,0,2.6,0.1,4,0c1,0,1.4,0.3,1.5,1.3c0.2,2.3,0.4,4.5,0.5,6.8c0.1,1.3,0.6,1.9,1.9,2
	c1.2,0.1,2.4,0.3,3.6,0.7c1.5,0.5,2.2,0,2.8-1.3c1.1-2.3,2.3-4.5,3.6-6.9c2,0.8,4,1.6,6.2,2.4c-0.8,2.6-1.5,5.1-2.3,7.6
	c-0.5,1.3-0.3,2.1,1,2.7c1.3,0.6,2.5,1.4,3.6,2.3c1,0.9,1.7,0.7,2.7-0.2c2-1.7,4-3.4,6.1-5.1c1.6,1.6,3,3.1,4.7,4.7
	c-1.6,2-3.2,4-5,6c-0.9,1-1.1,1.7-0.1,2.8c0.8,0.8,1.5,1.8,1.9,2.9c0.7,1.6,1.7,1.7,3.1,1.1c2.3-0.8,4.6-1.5,7.2-2.3
	c0.9,2,1.7,4,2.6,6.1c-2.3,1.2-4.5,2.5-6.8,3.6c-1.2,0.6-1.8,1.2-1.2,2.7c0.5,1.5,0.8,3.1,1,4.7c0.1,1,0.6,1.3,1.5,1.4
	c2,0.1,3.9,0.4,5.9,0.5c2.3,0.1,2.3,0.1,2.3,2.5c0,1.2,0,2.4,0,3.6c0,0.2-0.1,0.3-0.1,0.7c-2.3,0.2-4.7,0.5-7.1,0.6
	c-1.5,0.1-2.5,0.4-2.5,2.2c0,1.3-0.4,2.7-0.8,4c-0.2,0.9,0,1.4,0.9,1.8c2.4,1.2,4.7,2.4,7.2,3.7C96.8,67.8,96,69.7,95.1,71.9z
	 M47.4,85.1c2-0.1,3.4-0.2,4.8-0.4c3.1-0.4,6.2-1.1,8.6-3.3c1.7-1.5,2.7-3.3,2-5.7c-1-3.3-3-4.4-6.7-3.8c-3.3,0.5-6.7,0.9-10.1,1.3
	c-1.6,0.2-3.3,0.4-4.8,1c-2.1,0.7-3,2.3-2.7,4.5c0.3,3,2.1,5.1,5,5.8C45,84.9,46.5,85,47.4,85.1z M36.6,18c-1.1,0.3-2.3,0.5-3.2,1.1
	c-4,2.3-7.5,5.3-9.8,9.3c-0.7,1.2-1.2,2.6-1.4,4c-0.4,2,0.2,3.8,1.9,5.1c2.4,2,4.9,1.8,7.1-0.4c3.1-3.1,6.2-6.2,9.3-9.4
	c0.8-0.8,1.5-1.8,2-2.8c0.7-1.2,0.7-2.6-0.2-3.8C40.9,19.4,39.1,18.2,36.6,18z M60.2,17.8c-0.1-0.1-0.1-0.2-0.2-0.3
	c-1.6,0.7-3.4,1.1-4.6,2.2c-2.8,2.4-2.1,6.6,1.2,8.4c4,2.1,8.1,4.2,12.1,6.3c0.5,0.3,1.1,0.5,1.7,0.7c2.8,0.9,4.7,0,5.8-2.7
	c1.1-2.8,0.6-5.3-1.5-7.4c-3.2-3.1-7-5.2-11.3-6.5C62.3,18.1,61.3,18,60.2,17.8z M84.4,53.3c-0.2-1-0.5-2.9-1.1-4.6
	c-1.1-2.9-3.3-4-6.3-3.6c-2.5,0.4-3.7,1.9-4.2,5.1c-0.5,3.7-1.2,7.4-1.8,11c-0.1,0.9-0.3,1.7-0.4,2.6c-0.3,3.5,1.6,5.6,5.2,5.4
	c3-0.1,4.9-1.6,6.1-4.3C83.4,61.5,84.1,57.8,84.4,53.3z M15.2,54.7c1,5.7,2.9,10.9,7.3,14.9c0.6,0.5,1.3,0.9,1.9,1.2
	c1.6,0.7,3.3,0.9,4.9,0c3-1.6,3.7-4.2,2.1-7.4c-1.8-3.6-3.6-7.3-5.4-10.9c-0.3-0.5-0.6-1.1-0.9-1.6c-2-3.4-4.8-3.8-7.8-1.3
	C15.9,50.9,15.1,52.5,15.2,54.7z M50,58.7c4.9,0,8.8-3.8,8.8-8.6c0-4.9-3.8-8.8-8.6-8.8c-4.9,0-8.9,3.9-8.8,8.7
	C41.4,54.9,45.1,58.7,50,58.7z"/>
<path d="M462.2-115.3c-3.9-0.2-7.1-0.4-11-0.6c-0.3-2.8-0.7-5.6-0.8-8.3c-0.8-31.5-1.6-62.9-2.2-94.4c-0.1-5.3,0.6-10.6,0.9-15.9
	c0.4-5.4,2.6-10.2,6.8-13.4c15.4-11.9,30.9-23.7,46.6-35.2c6.4-4.7,13.4-8.8,20.3-12.8c3.2-1.8,4.2-4,4.2-7.6
	c-0.1-32.3-0.1-64.7-0.1-97c0-1.5,0-3,0-5.1c2-0.1,3.8-0.3,5.5-0.3c18,0,36,0.1,54-0.1c4.6-0.1,6,1.3,5.9,5.8
	c-0.2,31.7,0,63.3-0.2,95c0,4.9,1.5,7.5,5.7,10.3c20,13.5,39.7,27.4,59.4,41.3c9.5,6.6,13.7,15.8,13.4,27.4
	c-0.9,35.5-1.6,70.9-2.2,106.4c-0.1,3.3-1.3,4.5-4.5,4.2c-2.6-0.2-5.2,0-8.3,0c0,21.7,0,42.7,0,64.6c-4,0-7.6,0-11.1,0
	c-6.3,0-12.7-0.2-19,0.1c-3.7,0.1-4.9-1.1-4.9-4.8c0.2-18-0.1-36,0.2-54c0.1-4.6-1.3-6.4-5.9-5.9c-2.9,0.3-5.9,0.1-9.6,0.1
	c0-2.5,0-4.4,0-6.4c0-21.5-0.1-43,0.1-64.5c0.1-7.7-1.9-14.5-6.2-20.7c-8.1-11.7-18.4-21-31.1-27.5c-5.6-2.9-11.1-3.1-16.7-0.2
	c-14.3,7.3-26.1,17.4-33.7,31.6c-2.5,4.6-3.8,10.4-3.9,15.7c-0.4,21.8-0.2,43.7-0.2,65.5c0,1.8,0,3.6,0,6.4c-4.2,0-8.1,0.2-12-0.1
	c-3.7-0.2-4.9,1.1-4.9,4.9c0.2,18-0.1,36,0.2,54c0.1,4.6-1.2,6-5.9,5.9c-9.4-0.3-18.9-0.1-28.9-0.1
	C462.2-72.7,462.2-93.8,462.2-115.3z"/>
<path d="M-448.2-380.4c88.7,0.1,160.2,72,160.2,160.9c-0.1,88.3-72.2,160.2-160.6,160.1c-89-0.1-160.6-72.1-160.3-161.2
	C-608.7-309.1-536.8-380.5-448.2-380.4z M-321-168.7c-1.5-0.6-2.7-1.1-4-1.5c-30.4-11.4-60.7-22.8-91.1-34.2
	c-2.5-0.9-4.3-1.7-6.3,1.3c-1.9,3-0.6,4.4,1.3,6.3c23,22.9,45.9,45.9,68.9,68.9c1,1,2.2,1.9,3.2,2.8
	C-338.5-134.3-324.5-156.2-321-168.7z M-576-271.5c0.8,0.4,1.6,1,2.5,1.4c31,11.7,62,23.3,93,35c2.6,1,4.1,0.7,5.8-1.7
	c1.9-2.8,0.5-4.1-1.3-5.9c-17.7-17.7-35.4-35.3-53-53c-6.3-6.4-12.5-12.9-18.6-19.2C-557.5-307.3-572.9-283.3-576-271.5z
	 M-500.3-92.1c0.6-1.1,1-1.7,1.2-2.3c11.8-31.3,23.5-62.6,35.3-93.8c1.1-2.8,0.3-4.1-2-5.7c-2.8-1.9-4.2-0.3-5.9,1.4
	c-19.9,19.9-39.7,39.8-59.6,59.7c-4.1,4.1-8.5,7.8-13.1,12.1C-530.9-107.9-516.7-98.7-500.3-92.1z M-397.2-347.9
	c-12.3,32.9-24.5,65.1-36.4,97.3c-0.4,1,0.3,2.8,1.1,3.7c2.4,2.6,4.5,2.1,7-0.5c23.6-23.7,47.2-47.4,70.8-71
	c0.3-0.3,0.4-0.8,0.8-1.6C-366.3-332-380.5-341.2-397.2-347.9z M-543.6-319.8c1,1.1,1.6,1.9,2.3,2.6c23.2,23.2,46.4,46.4,69.6,69.6
	c1.8,1.8,3.2,3.7,6.3,1.5c3-2.1,1.8-4.1,0.9-6.5c-7.5-19.2-14.9-38.5-22.4-57.7c-4.7-12.2-9.5-24.5-14.4-37.2
	C-517.4-340.6-531.3-331.6-543.6-319.8z M-576-167.1c6.8,16.1,15.7,30,27.8,42.5c6.8-6.8,13.1-13.1,19.4-19.5
	c17.5-17.5,35-35.1,52.7-52.6c2.4-2.4,3.5-4.7,0.6-6.9c-1.3-0.9-3.9-0.9-5.6-0.3c-21,8-41.9,16.2-62.8,24.3
	C-554.4-175.4-564.9-171.4-576-167.1z M-354-119.6c-25.2-25.3-50.1-50.2-75.1-75.3c-4.6,1.1-5,3.7-3.2,8.3
	c9.7,24.4,19.1,49,28.6,73.5c2.6,6.8,5.3,13.5,8.1,20.6C-379.6-99.3-365.8-108.2-354-119.6z M-349.1-314.8c-1.3,1.2-2.4,2.2-3.4,3.3
	c-22.7,22.7-45.4,45.5-68.1,68.2c-1.7,1.7-4,2.9-1.9,6.1c2.1,3.3,4.2,2.2,6.8,1.2c21.7-8.4,43.4-16.8,65.2-25.2
	c9.7-3.8,19.4-7.6,29-11.4C-324.8-284.2-339.6-306.9-349.1-314.8z M-578.2-173.1c2.5-0.9,4.4-1.6,6.3-2.3
	c17.2-6.7,34.4-13.4,51.7-20.1c12.7-4.9,25.5-9.8,38.1-14.9c1.3-0.5,2-2.5,2.9-3.7c-1.3-0.9-2.6-2-4-2.8c-0.5-0.3-1.3,0-2,0
	c-31.8,0-63.6,0-95.5,0c-1.8,0-3.5,0.2-5.6,0.2C-586.2-201.4-583.4-187.4-578.2-173.1z M-318.8-266.6c-1.4,0.4-2.2,0.6-3,0.9
	c-18.3,7.1-36.6,14.3-54.9,21.4c-12.7,4.9-25.5,9.8-38.2,14.9c-1.2,0.5-2.6,1.6-2.9,2.8c-0.3,0.9,0.6,2.7,1.4,3.3
	c1,0.6,2.6,0.5,3.9,0.5c32.3,0,64.6,0,97,0c1.4,0,2.9-0.2,4.7-0.4C-311-238.4-313.8-252.5-318.8-266.6z M-494.7-350.1
	c-0.2,1.1-0.3,1.3-0.3,1.4c12.3,31.8,24.5,63.6,36.9,95.3c0.5,1.2,2.6,1.7,4,2.6c0.8-1.4,2.2-2.8,2.2-4.2c0.1-32.9,0-65.9,0.2-98.8
	c0-3.6-1.6-4.3-4.6-3.8c-7.4,1-14.9,1.8-22.2,3.2C-484.1-353.4-489.5-351.5-494.7-350.1z M-402-90.2c-0.3-1.3-0.5-2.3-0.8-3.2
	c-11.9-30.7-23.8-61.4-35.8-92.1c-0.6-1.5-2.8-2.5-4.3-3.7c-0.8,1.7-2.3,3.4-2.3,5.2c-0.1,32.6-0.1,65.3-0.1,97.9
	c0,1.3,0.3,2.5,0.4,4C-430-82.5-415.9-85-402-90.2z M-318.8-174.6c4-8,8.9-31.9,7.9-39.3c-0.2-1.1-2.5-2.8-3.8-2.8
	c-32.8-0.1-65.5-0.1-98.3,0c-1.6,0-3.1,1.6-4.6,2.4c1.2,1.3,2,3.3,3.5,3.8c11.6,4.6,23.3,8.9,35,13.3
	C-359.3-189.7-339.2-182.2-318.8-174.6z M-586.3-223.3c2.2,0.1,3.7,0.3,5.1,0.3c32.2,0,64.3,0,96.5,0c2.2,0,5.4,0.6,5.2-2.8
	c-0.1-1.4-2.4-3.1-4.1-3.8c-26.3-10-52.6-19.9-79-29.8c-5.2-2-10.5-3.9-16-6C-583.7-251.6-586.1-237.9-586.3-223.3z M-494-89.8
	c13.8,5,27.5,7.5,41.6,7.7c0.3-1,0.6-1.5,0.6-1.9c0-33.8,0.1-67.7,0-101.5c0-1.2-1.6-2.4-2.4-3.6c-1.2,1-3.1,1.8-3.6,3.2
	C-469.9-154.2-481.8-122.4-494-89.8z M-403.1-350.1c-13.2-4.7-26-6.9-39.2-7.7c-3.9-0.2-3,2.7-3,4.9c0,32.3-0.1,64.6,0.1,96.9
	c0,1.7,1.5,3.5,2.2,5.2c1.4-1.5,3.5-2.6,4.2-4.4c7.2-18.8,14.3-37.6,21.3-56.5C-412.8-324.3-408-336.9-403.1-350.1z"/>
<path d="M694.5,305.5c-1.8-0.2-2.9-0.3-4.1-0.3c-19,0-38,0.1-57-0.1c-6.3-0.1-10.9,2.1-14,7.6c-1.8,3.2-4,6.1-6,9.2
	c-9.6,14.7-23.3,21.9-40.8,21.7c-6.1-0.1-12.3,0-19,0c0,33.6,0,66.6,0,100c-20.5,0-40.4,0-61,0c0-33.1,0-66.2,0-99.7
	c-2.4-0.1-4.2-0.3-5.9-0.3c-6.3-0.2-12.7-0.1-19-0.4c-14.4-0.7-25.2-7.7-33.5-19.1c-3.2-4.4-5.8-9.4-9.4-13.5
	c-2.1-2.4-5.6-4.9-8.5-4.9c-21.3-0.4-42.6-0.2-64.2-0.2c-0.2,1-0.5,2-0.5,2.9c-0.1,8.2,0.9,7.8-7.9,7.8c-6,0-12-0.1-18,0
	c-3.2,0.1-4.5-1-4.5-4.3c0.1-13.2,0.1-26.3,0-39.5c0-3,1.2-4.1,4.2-4.1c6,0.1,12,0,18,0c7.6,0,7.6,0,8.5,8.1c2,0.1,4.1,0.3,6.1,0.3
	c21.2,0,42.3,0.3,63.5-0.1c15.3-0.3,27.1,5.5,36.2,17.5c3.4,4.5,7,8.9,10.6,13.3c5.8,7.2,13.9,7.1,22,6.3c0.8-0.1,2.1-2.3,2.1-3.6
	c0.2-6.3,0-12.7,0.1-19c0.2-18.4,13.4-32,30.8-31.8c17.6,0.2,30.3,13.7,30.4,32.2c0,6.3,0.1,12.7,0,19c-0.1,2.7,1,3.3,3.5,3.6
	c10.4,1.1,18.6-2.1,24.6-10.9c2.6-3.9,5.7-7.4,8.6-11c8.4-10.4,19.1-15.5,32.6-15.4c21.3,0.2,42.7,0.1,64,0.1c2.3,0,4.6,0,6.7,0
	c0.4-0.6,0.8-0.8,0.8-1.1c0.5-7.1-1.1-7.4,8.1-7.3c6.2,0,12.3,0.1,18.5,0c2.8-0.1,3.9,1,3.8,3.8c-0.1,13.5,0,27-0.2,40.5
	c0,1.2-2.2,3.3-3.4,3.3c-7.7,0.3-15.3,0.3-23,0c-1.3-0.1-3.1-2-3.5-3.4C694.1,310.5,694.5,308.2,694.5,305.5z"/>
<path d="M-487.8,334.9c0.9,3.2,1.6,6.8,2.9,10.1c6,16.1-2.4,33.6-18.6,38.5c-16.5,4.9-33.3-5.1-36.9-22.1
	c-2.4-11.3,2.4-24.2,12.6-29.8c13.1-7.2,17.1-19.2,19.9-32.3c1.2-5.9,0.5-11.7-1.8-17.6c-5.6-14.3,1.7-30.6,15.7-36.5
	c14.2-6,30.5,0,37.5,13.9c3.2,6.4,9.9,8.1,15.5,3.9c16.1-12,39.7-4.7,44.8,14.7c3,11.3,9.7,18.8,18.9,24.6
	c5.1,3.2,11.1,5.1,16.8,7.1c1.4,0.5,4.7-0.6,4.9-1.5c0.9-3.1,4-6.1,1.1-9.7c-11.7-15-11.4-26.2,0-41.4c6.6-8.8,6.2-19.4,5.2-29.8
	c-0.7-7.4-3.5-13.9-8.7-19.7c-10.2-11.3-9-28.6,2-39.3c10.9-10.7,28.4-10.9,39.9-0.4c10.9,9.9,12.5,27.3,3.2,39
	c-11.7,14.6-9.6,30.3-3.8,46.3c0.6,1.8,2.3,3.2,3.6,4.7c13.6,15.4,9.6,36.7-8.5,46.4c-1.6,0.9-2.9,2.9-3.8,4.7c-1.1,2.4-2,5-2.3,7.6
	c-0.3,2.3-0.2,5,0.8,6.9c5.8,11.1,5.8,21.9-1.5,32c-7.2,10.1-17.6,13.8-29.5,11.3c-11.8-2.4-19.3-10.1-22.1-21.9
	c-3.4-14.1-14.2-21.3-26.2-26.9c-4.5-2.1-9.9-2.8-14.9-2.6c-13.3,0.4-23.7-5.5-29.3-17.6c-2.6-5.5-8.8-6.2-14.2-3.3
	c-11.3,6.1-17.4,15.6-20.8,27.4C-486.4,325.8-486.9,330.1-487.8,334.9z M-482.7,285.1c7.3,0.1,13.4-6,13.4-13.2
	c0-7.3-6-13.2-13.4-13.1c-7.3,0-13,5.7-13.1,12.9C-495.9,279-490,285-482.7,285.1z M-335.7,175.7c-7.4-0.1-13.3,5.8-13.3,13.2
	c0,7.3,6.1,13.3,13.3,13.3c7.1,0,12.9-5.8,13-13C-322.5,181.7-328.3,175.8-335.7,175.7z M-424,299.2c7.6,0.1,13.3-5.4,13.4-13
	c0-7.4-5.9-13.4-13.2-13.4c-7,0-13,5.9-13.3,12.9C-437.3,293.1-431.4,299.2-424,299.2z M-498.8,355.8c0-7.5-5.7-13.3-13.2-13.3
	c-7.4,0-13.3,5.9-13.2,13.3c0.1,7.1,5.9,13,13,13.1C-504.9,369.1-498.8,363.1-498.8,355.8z M-334,264.7c-7.5-0.1-13.3,5.7-13.3,13.1
	c0,7.1,5.8,13,12.8,13.2c7.2,0.2,13.5-5.8,13.6-13.1C-320.7,270.5-326.4,264.7-334,264.7z M-352.1,351.3c7.6,0.2,13.5-5.5,13.5-13
	c0-7.2-5.7-13.2-12.8-13.4c-7.2-0.2-13.6,5.9-13.6,13.2C-365,345.3-359.3,351.2-352.1,351.3z"/>
</svg>
