<svg id="Layer_1" data-name="Layer 1" xmlns="http://www.w3.org/2000/svg" width="200" height="200" viewBox="0 0 200 200"><defs><style>.cls-1{fill:#fff;fill-rule:evenodd;}</style></defs><title>dancing_icon_wht</title><path class="cls-1" d="M109.77,20.31c.42-.42,1.48.62.44.2,0,0-1.09.45-.44-.2ZM94.14,2c0,7.26.78,13.49.78,20.7,4.49,0,11.24-2,14.45-2-.92.8-4.46,2.46-7.2,4.52-3.26,2.46-3.43,2.39-6.09,6-1.82,2.49-1.17,3.56-.88,6.09.59,5.1-.49,10.59.27,15.63.81,5.38-.65,10.17,2.28,13.73,4.91,6,12.63,9.38,20.06,12,4,1.41,8.32,2.59,12.34,3.68,2.5.68,11.58,2.77,13.6,2.81a67.11,67.11,0,0,0-2.69,7.08c-.87,2.41-1.9,4.81-2.72,7l-17.64,41c0,1.75,3.41,9.65,4.54,13,3,9,6.66,25.65,8.57,35.57.6,3.1,1.11,4.33,3.3,5.69,6.07,3.78,24.12,4,26.62-3.06,1-2.84,1.13-12.16,1.11-16.47l.68-17.29c.6-4.45.65-9.28,1.6-16A287.74,287.74,0,0,1,173,112.5c.61-2.42,1.29-4.85,1.87-7.11,3.06-12,9.27-27.06,16-37.11,3-4.52,9.06-12.93,9.06-17.89,0-10.29-5.11-16.64-13-20.58-9.9-4.93-14.14-6.38-25.66-6.38L150.78,62.11c-.47,1.81-1.14,3.66-1.56,5.47-3.13-.07-11-2.29-14-3.17-12.1-3.56-24-6.86-34.65-13.4-1.13-.69-1.73-1.48-2.9-1.79,1.9-2.83,9-7.51,11.88-9.21,4.31-2.56,16.67-6.23,23.11-8.92,5.24-2.18,8.56-5.22,12.61-8.49,2.17-1.75,3.63-3.49,5.91-5C147,9.62,147.49,7.12,148,.39c-2.48,0-3.26-.39-5.86-.39Z" transform="translate(0)"/><path class="cls-1" d="M38.28,144.92c-11.91,0-19.06-3.58-24.93-12.57C6,121.07,5.45,104.79,6.62,90.6,7,86.11,5.42,83.8,12,77.24c.88-.87,1.46-1.49,2.34-2.35l7.86-6.21A52.44,52.44,0,0,1,27.87,65l12-6.77c4,2.71,10.4,9.46,14,12.59a10,10,0,0,1,1.65,1.48C57.31,74.4,66,83.23,66,85.16c0,16.9,0,36-9,49.61l-4.59,5.18a22,22,0,0,1-14.16,5ZM42.36,200a65,65,0,0,0,10.54-1c7.73-1.67,11.66-15.07,13.64-21.91,4.51-15.54,6.69-37.91,5.31-54.81C70.58,106.68,68.54,90.6,66.76,75c-.43-3.74-1.11-8.15-1.47-11.81-.43-4.32-.06-4.63-3.42-9.47l-4.4-5.36a22.41,22.41,0,0,1-1.62-1.9c2.49-1.67,4.66-5,6.13-7.93,2.72-5.4,1.13-14.36,1.79-19.3L65.63,0C63.81,0,51.75,2.6,46.5,2.75c-1.14,0-2.39-.08-3.53,0-1.76.1-1.68.45-3.5.41s-1.39-.31-3.13-.41c-1.26-.07-2.63.08-3.89,0L19.25,1.07A48.85,48.85,0,0,0,12.89,0c0,5.26-.13,9.69-.39,14.85-.21,4.25-2,9.4-2,13.67,0,5.87,12.35,15.8,13.28,17.19-.69.94-2.86,2.17-4.06,3A32.09,32.09,0,0,0,9,60.15,13.82,13.82,0,0,0,7,65.24c-.19,2.43.21,4.92-.11,7.32-.53,4.08-1.28,8.66-1.87,13C2.15,106.5,0,125.2,0,146.87,0,158,3.81,174,7,182c3.41,8.54,6.31,16.11,14.43,17.21,2.67.36,6.57.63,10.81.75ZM41,34.37l-8.5-7.51a35.85,35.85,0,0,1-2.43-3c3.57.83,14.71.63,18.09.12a53.32,53.32,0,0,1,5.74-.9,20.54,20.54,0,0,1-4.57,4.41Z" transform="translate(0)"/></svg>