<?xml version="1.0" encoding="utf-8"?>
<!-- Generator: Adobe Illustrator 21.0.2, SVG Export Plug-In . SVG Version: 6.00 Build 0)  -->
<svg version="1.1" id="Layer_1" xmlns="http://www.w3.org/2000/svg" xmlns:xlink="http://www.w3.org/1999/xlink" x="0px" y="0px"
	 width="200px" height="200px" viewBox="0 0 200 200" style="enable-background:new 0 0 200 200;" xml:space="preserve">
<style type="text/css">
	.st0{fill:#394454;}
</style>
<g>
	<path class="st0" d="M48.1,98.3c-3.2,10.6-6.6,21.1-9.4,31.8c-1.7,6.4,0.6,9.4,7,8.1c6.7-1.4,13.4-4,19.3-7.4
		c20.8-12.1,39-27.5,54.8-45.7c9.8-11.3,20.2-22,30.4-33c1.4-1.5,3-2.7,4.9-4.4c5.4,6.5,6.5,14,7.6,21.2c2.2,13.7-2.5,20-16.8,26.8
		c-15.5,7.4-30.5,15.8-43.4,27.5c-6.7,6-8.9,14.4-12.8,21.9c-8.1,15.7-16,31.6-24.2,47.3c-2.8,5.4-7,8.6-14.1,7.4
		c-6.3-1-12.4-1.9-17.6-5.9c-4.1-3.1-6-7.1-5.4-11.9c2.1-17.6,3.6-35.4,7-52.8c2.1-10.8,7.4-21,11.3-31.4
		C47.1,97.9,47.6,98.1,48.1,98.3z"/>
	<path class="st0" d="M122,49.5c2.1,6,4.2,11.9,6.1,17.9c0.4,1.2,0.7,3,0.1,3.8c-3.2,4.3-6.7,8.3-11,13.6
		c-3.8-10.9-7.6-20.6-10.4-30.5c-1.7-5.9-2.8-11.2-10.5-11.6c-2.4-0.1-4.6-2.2-7.4-3.6c11.6-15.4,28-25.2,41.8-39
		c12.4,12.8,27,21.6,41.2,24.2c-5.4,6.5-11,14.6-18,21.1c-3.2,3-9.1,3.5-13.9,4C134.3,50,128.5,49.5,122,49.5z M119,12.8
		c0,4.9-0.1,9.7,0.1,14.4c0,0.8,1.7,1.9,2.8,2.1c10.9,2.1,21.9,4,32.8,5.9c0-0.2,0-0.4,0-0.7C143,27.5,131.3,20.4,119,12.8z"/>
</g>
</svg>
