<?xml version="1.0" encoding="utf-8"?>
<!-- Generator: Adobe Illustrator 21.0.2, SVG Export Plug-In . SVG Version: 6.00 Build 0)  -->
<svg version="1.1" id="Layer_1" xmlns="http://www.w3.org/2000/svg" xmlns:xlink="http://www.w3.org/1999/xlink" x="0px" y="0px"
	 width="200px" height="200px" viewBox="0 0 200 200" style="enable-background:new 0 0 200 200;" xml:space="preserve">
<style type="text/css">
	.st0{fill:#394454;}
	.st1{opacity:0.5;}
</style>
<g>
	<path class="st0" d="M44.2,62.2C38.7,66.7,31,70.6,21,73.8v24c6.7-2.1,12.4-4.2,16.8-6.5c4.5-2.2,9.1-5.2,13.9-8.8v70.1h29.6v-107
		H57.1C54,52.2,49.7,57.7,44.2,62.2z"/>
	<path class="st0" d="M176.1,74.7c-1-4.1-2.3-7.7-4-10.8c-1.7-3.1-3.9-6-6.8-8.8c-2.9-2.8-6.6-5.1-11.1-6.8
		c-4.5-1.7-10.4-2.6-17.4-2.6c-14.7,0-25.7,4-32.9,12c-7.2,8-10.8,22-10.8,42c0,8.1,0.7,15.6,2.1,22.3c1.4,6.7,3.4,12,5.9,15.9
		c3.5,5.5,8,9.6,13.4,12.4c5.5,2.8,12.6,4.2,21.5,4.2c15.8,0,26.9-4.4,33.4-13.3c6.5-8.9,9.7-22.8,9.7-41.9
		C179,90.7,178,82.5,176.1,74.7z M148.4,121.5c-1,4.5-2.6,7.8-4.8,9.9c-2.2,2.1-4.7,3.1-7.7,3.1c-4.5,0-7.9-2.5-10.3-7.4
		c-2.4-4.9-3.6-14.1-3.6-27.5c0-13.3,1.1-22.3,3.2-27.2c2.2-4.9,5.6-7.4,10.5-7.4c4.7,0,8.3,2.4,10.7,7.2c2.4,4.8,3.6,14.2,3.6,28.2
		C149.9,110,149.4,117,148.4,121.5z"/>
</g>
<g class="st1">
	<path class="st0" d="M70.4,39.6c5.2-5.2,10.5-10.3,15.7-15.5c11-10.9,27.3-16.9,43.1-16.8c31.3,0.2,58.1,23.4,62.5,54
		c2.1,14.6-0.2,28-6.8,39.8c-0.1,5.3-0.4,10.1-0.9,14.6c12.8-15.5,17.9-33.7,15.3-54.2c-4.3-32.8-30.2-57.7-63.1-61
		c-21.5-2.2-40.4,4-55.9,19c-6.9,6.7-13.7,13.4-20.5,20.1H70.4z"/>
	<path class="st0" d="M135.9,160.4c-2.2,0-4.3-0.1-6.3-0.3c-5.1,5-10.2,10.1-15.4,15.1c-13.3,12.8-29.6,18.2-48,17
		c-28.3-1.8-54.3-23.4-58.3-55.3c-1.7-14.1,0.5-27.1,7.1-38.6V85.4C2.4,101-2.2,119.6,0.9,140.1c5.2,34.5,35,59.8,74.8,59.8
		c14.5-0.3,31.4-7,45.3-20.6c6.4-6.3,12.7-12.7,19.1-19C138.8,160.4,137.4,160.4,135.9,160.4z"/>
</g>
<g class="st1">
	<path class="st0" d="M87.3,39.6v4.2c2.8-2.7,5.6-5.5,8.4-8.2c13.6-13.2,30.4-16.7,48.4-10.8c16.6,5.4,27.4,17,31.6,33.5
		c0.6,0.9,1.1,1.8,1.6,2.7c1.9,3.5,3.4,7.6,4.5,12.2c0.8,3.1,1.4,6.3,1.9,9.5c1.4-6.6,1.5-13.5,0.4-20.8
		c-4.2-27.1-27.7-47.1-55.2-47.1c-10.2,0-20.7,2.8-29.3,8.2c-3.7,2.4-7.3,5.2-10.5,8.3c-2.8,2.8-5.6,5.5-8.4,8.3H87.3z"/>
	<path class="st0" d="M112.5,155.9c-2.2,2.2-4.4,4.4-6.7,6.6c-1.7,1.7-3.5,3.3-5.4,4.8c-29.3,22.6-71.8,5.6-77.5-31
		c-0.4-2.4-0.5-4.9-0.6-6.2c0.2-11.6,3-21.3,9.1-29.5c-2.7,1-5.6,2-8.7,2.9l-2.4,0.7c-5.7,11.3-7.1,23.8-3.9,37.4
		c4.9,20.9,18.1,34.9,38.7,40.9c20.7,6.1,39.5,1.3,55-13.8c3.4-3.3,6.8-6.7,10.3-10C117.5,158,114.9,157,112.5,155.9z"/>
</g>
<g class="st1">
	<path class="st0" d="M100.4,146.8c-2.1,2-4.1,4.1-6.2,6.1c-2.2,2.2-4.5,3.9-6.9,5.4v0.3h-0.5c-8.2,4.7-17.5,5.3-27.3,1.8
		c-1.5-0.5-2.9-1.1-4.2-1.8h-9.5v-7.1c-4.4-4.8-7.1-11-8.3-18.4c-0.2-1.4,0-2.9,0-4.4c0-8.5,2.7-15.9,8.3-22.1V96
		c-1.5,1.5-3.1,3.1-4.6,4.6c-7.7,7.8-11.2,17.4-11.4,28.7c0.1,1.6,0.1,3.6,0.4,5.4c2.9,16.2,11.9,27.6,27.4,32.9
		c15.7,5.4,30.2,2.1,42.1-9.5c2.1-2.1,4.2-4.2,6.3-6.3C104,150.4,102.1,148.7,100.4,146.8z"/>
	<path class="st0" d="M129.2,118.1c0.5,3.2,1.2,5.2,1.8,6.4c0.3,0.6,0.6,1.2,0.9,1.6c3.8-3.8,7.7-7.7,11.5-11.6
		c0.3-3.1,0.5-6.9,0.5-11.3C139,108.2,134.1,113.2,129.2,118.1z"/>
	<path class="st0" d="M87.3,64.8c6-6,12.1-12,18.1-18c9.8-9.7,21.9-12.2,34.8-7.6c0.4,0.2,0.9,0.3,1.3,0.5
		c5.7,0.3,10.6,1.3,14.8,2.9c1.7,0.6,3.2,1.4,4.7,2.1c-4.6-5.7-10.9-10-18.8-12.7c-15.4-5.3-29.8-2.3-41.5,9.1
		c-4.5,4.4-9,8.8-13.4,13.2V64.8z"/>
</g>
</svg>
