<?xml version="1.0" encoding="utf-8"?>
<!-- Generator: Adobe Illustrator 19.2.1, SVG Export Plug-In . SVG Version: 6.00 Build 0)  -->
<svg version="1.1" id="Layer_1" xmlns="http://www.w3.org/2000/svg" xmlns:xlink="http://www.w3.org/1999/xlink" x="0px" y="0px"
	 width="50px" height="50px" viewBox="0 0 50 50" style="enable-background:new 0 0 50 50;" xml:space="preserve">
<style type="text/css">
	.st0{fill:#FFFFFF;}
	.st1{opacity:0.4;fill:#CCCCCC;}
	.st2{fill:#CFCFCF;}
	.st3{fill:#FEFEFE;}
</style>
<rect x="-15" y="-12" class="st0" width="82" height="79"/>
<rect x="-11" y="-6" class="st1" width="70" height="66"/>
<g id="yrWjVG.tif">
	<g>
		<path class="st2" d="M50,0c0,16.6,0,33.2,0,49.8c0,0.2,0,0.2-0.2,0.2c-2,0-4,0-6,0c0-0.2-0.1-0.3-0.1-0.4c0-0.6-0.1-1.3-0.2-1.9
			c0-0.5-0.2-0.9-0.2-1.4c0-0.2-0.1-0.4-0.1-0.6c-0.1-0.3-0.2-0.6-0.3-1c-0.1-0.3-0.1-0.6-0.2-0.9c-0.1-0.4-0.3-0.8-0.4-1.2
			c-0.2-0.6-0.4-1.1-0.7-1.7c-0.3-0.6-0.6-1.2-1-1.8c-0.2-0.4-0.5-0.8-0.8-1.3c-0.3-0.4-0.6-0.8-0.8-1.1c-0.3-0.4-0.6-0.9-1-1.3
			c-0.6-0.7-1.3-1.3-2-1.9c-0.5-0.4-1-0.8-1.6-1.2c-0.6-0.4-1.2-0.8-1.8-1.1c-0.7-0.3-1.3-0.7-2-0.9c-0.1,0-0.2,0-0.2-0.1
			s0.1-0.1,0.1-0.2c0.1-0.1,0.3-0.1,0.4-0.2c0.4-0.2,0.8-0.5,1.1-0.8c0.4-0.3,0.7-0.6,1-0.9s0.6-0.7,0.9-1c0.2-0.4,0.5-0.7,0.7-1.1
			c0.3-0.5,0.5-0.9,0.7-1.5c0.1-0.3,0.3-0.6,0.3-0.9c0.1-0.5,0.3-1,0.3-1.5c0-0.4,0.2-0.9,0.2-1.3c0-0.8,0-1.5-0.1-2.2
			c-0.1-0.5-0.2-1-0.4-1.5S35.2,16,35,15.5c-0.3-0.6-0.6-1.2-1-1.8s-0.9-1.1-1.4-1.6c-0.4-0.3-0.7-0.7-1.1-0.9
			c-0.6-0.4-1.3-0.8-2-1.1s-1.3-0.5-2-0.7c-0.5-0.1-1-0.2-1.5-0.3c-1-0.1-1.9,0-2.9,0.1c-0.5,0.1-1,0.2-1.5,0.3
			c-0.6,0.2-1.2,0.4-1.7,0.7c-0.6,0.3-1.2,0.7-1.8,1.1c-0.4,0.3-0.7,0.6-1.1,1c-0.3,0.3-0.6,0.6-0.9,1c-0.4,0.5-0.8,1.1-1.1,1.7
			c-0.2,0.4-0.3,0.8-0.5,1.2c-0.2,0.5-0.3,1-0.5,1.5c-0.1,0.2,0,0.5-0.1,0.7c-0.1,0.3-0.1,0.7-0.2,1c-0.1,0.5,0,1.1,0,1.6
			c0,0.1,0,0.2,0,0.3c0.1,0.3,0.1,0.7,0.2,1c0,0.2,0.1,0.5,0.2,0.7c0.1,0.4,0.2,0.9,0.4,1.3s0.3,0.8,0.5,1.2
			c0.4,0.5,0.7,1.1,1.1,1.6c0.3,0.4,0.6,0.7,0.9,1s0.6,0.6,1,0.9c0.5,0.3,0.9,0.7,1.4,0.9c0.1,0,0.1,0.1,0.1,0.2s-0.1,0.1-0.2,0.1
			c-0.4,0.1-0.7,0.2-1,0.4c-1.1,0.5-2.2,1.1-3.2,1.8c-0.5,0.4-1.1,0.8-1.5,1.2c-0.7,0.6-1.4,1.3-2,2.1c-0.5,0.6-0.9,1.2-1.3,1.7
			c-0.5,0.6-0.8,1.3-1.2,2c-0.5,0.8-0.8,1.6-1.2,2.5c-0.2,0.4-0.3,0.9-0.5,1.3c-0.2,0.5-0.3,1-0.4,1.4s-0.2,0.8-0.3,1.2
			c0,0.2-0.1,0.4-0.1,0.6c-0.1,0.3-0.2,0.6-0.2,0.9c0,0.3,0,0.7-0.1,1c-0.1,0.5,0,1.2-0.2,1.7c-2,0-4,0-6,0C0,50.2,0,50,0,49.8
			C0,33.2,0,16.6,0,0C16.7,0,33.3,0,50,0z"/>
		<path class="st3" d="M50,0C33.3,0,16.7,0,0,0l0,0c0.1,0,0.1,0,0.2,0c16.5,0,33,0,49.6,0C49.8,0,49.9-0.1,50,0z"/>
	</g>
</g>
</svg>
