<?xml version="1.0" encoding="utf-8"?>
<!-- Generator: Adobe Illustrator 19.2.0, SVG Export Plug-In . SVG Version: 6.00 Build 0)  -->
<svg version="1.1" id="Layer_1" xmlns="http://www.w3.org/2000/svg" xmlns:xlink="http://www.w3.org/1999/xlink" x="0px" y="0px"
	 width="102.1px" height="92.7px" viewBox="0 0 102.1 92.7" style="enable-background:new 0 0 102.1 92.7;" xml:space="preserve">
<style type="text/css">
	.st0{fill:#4EA3C9;}
</style>
<path id="like_icon" class="st0" d="M2.8,57.5c1.7,1.7,4.1,2.7,6.5,2.7h29.3l-4.6,21.3V83c0,1.8,0.7,3.5,2,4.8l5,5l30.4-30.6
	c1.8-1.7,2.8-4,2.8-6.5V9.4c-0.2-5.1-4.2-9.2-9.3-9.3l-41.7,0c-3.8-0.3-7.3,2-8.5,5.6L0.7,38.3C0.2,39.4,0,40.6,0,41.7l0,8.9h0.2
	L0,51.1C0,53.5,1,55.8,2.8,57.5z M83.3,0.1v55.6H102V0.1H83.3z"/>
</svg>
