<?xml version="1.0" encoding="utf-8"?>
<!-- Generator: Adobe Illustrator 21.0.2, SVG Export Plug-In . SVG Version: 6.00 Build 0)  -->
<svg version="1.1" id="Layer_1" xmlns="http://www.w3.org/2000/svg" xmlns:xlink="http://www.w3.org/1999/xlink" x="0px" y="0px"
	 width="200px" height="200px" viewBox="0 0 200 200" style="enable-background:new 0 0 200 200;" xml:space="preserve">
<style type="text/css">
	.st0{fill:#4DA3C9;}
</style>
<g>
	<path class="st0" d="M101.9,88.1c-4.5-2.7-9.1-2.6-13.6-1.9c-8.7,1.2-16.7,4.7-24.9,7.8c-1.6,0.6-3.2,1.2-4.8,1.8
		c-5.6,2-11.2,0.2-15.7-4.9c-4.2-4.8-5.1-10.2-2.3-15.6C52.9,51.6,65.2,27.9,77.5,4.3c1.7-3.2,4.3-4.7,7.3-4.2
		C89.4,1,91.4,5,89.4,9.9c-3.5,8.4-7,16.7-10.5,25c-3.1,7.3-6.1,14.6-9.2,21.8c-0.3,0.7-0.5,1.4-1,2.6c3-0.7,5.6-1.3,8.2-1.8
		c15.4-3,30.7-2.6,45.3,3.7c7.5,3.2,12.1,11.5,10.7,19.5c-0.4,2.3-1.7,4.6-3.2,6.4c-10.2,12.7-20.6,25.3-31,37.9
		c-0.7,0.9-1.4,1.8-2.5,3.2c0.8,0.6,1.7,1,2.3,1.6c9.1,8.5,18.2,17.1,27.2,25.7c6.1,5.8,3.9,15.5-4,17.8c-3.7,1.1-7.2,0.3-10-2.3
		c-12.3-11.5-24.5-23-36.7-34.6c-4.3-4.1-4.5-9.9-0.6-14.8c8.5-10.4,17.1-20.8,25.6-31.2C100.7,89.7,101.2,89,101.9,88.1z"/>
	<path class="st0" d="M2,98.3c0-10.1,8.1-18.1,18.2-18.1c10,0,18.3,8.1,18.3,18.1c0.1,10.1-8.2,18.4-18.3,18.4
		C10.1,116.7,1.9,108.5,2,98.3z"/>
	<path class="st0" d="M198,158.7c0,3.7,0.1,6.8-0.1,10c0,0.5-1.1,1.3-1.8,1.4c-14.8,2.3-29.1,6.3-43,11.8
		c-11.9,4.7-23.4,10.2-34.4,17c-3.2,2-6.4,1.4-8.2-1.3c-1.8-2.8-1-6.1,2.3-8.1c23.2-14,48-23.9,74.7-29
		C191,159.8,194.3,159.3,198,158.7z"/>
</g>
</svg>
