<?xml version="1.0" encoding="utf-8"?>
<!-- Generator: Adobe Illustrator 20.0.0, SVG Export Plug-In . SVG Version: 6.00 Build 0)  -->
<svg version="1.1" id="Layer_1" xmlns="http://www.w3.org/2000/svg" xmlns:xlink="http://www.w3.org/1999/xlink" x="0px" y="0px"
	 width="283.5px" height="283.5px" viewBox="0 0 283.5 283.5" style="enable-background:new 0 0 283.5 283.5;" xml:space="preserve"
	>
<style type="text/css">
	.st0{fill:#FFFFFF;}
	.st1{fill:#1B75BC;}
	.st2{fill:#FFFFFF;stroke:#231F20;stroke-width:2.8346;stroke-miterlimit:10;}
	.st3{font-family:'Verdana';}
	.st4{font-size:62.9073px;}
</style>
<g>
	<polygon class="st0" points="4.3,279.2 4.3,4.3 222.5,4.3 222.5,210.8 154.3,279.2 	"/>
	<path class="st1" d="M218.3,8.5V209L152.6,275H8.5V8.5H218.3 M226.8,0H0v283.5h156.1l70.7-70.9V0L226.8,0z"/>
</g>
<g>
	<polygon class="st1" points="154.3,211 215.6,211 154.3,272.3 	"/>
	<path class="st1" d="M204.4,215.6l-45.5,45.5v-45.5H204.4 M226.8,206.3h-77.1v77.1L226.8,206.3L226.8,206.3z"/>
</g>
<path class="st2" d="M226.8,283.5"/>
<g>
	<rect x="103.9" y="60.6" class="st1" width="175.3" height="80.5"/>
	<path class="st0" d="M275,64.8v72H108.2v-72H275 M283.5,56.3H99.7v89h183.8V56.3L283.5,56.3z"/>
</g>
<text transform="matrix(1 0 0 1 119.5947 124.3965)" class="st0 st3 st4">DOC</text>
</svg>
