<?xml version="1.0" encoding="utf-8"?>
<!-- Generator: Adobe Illustrator 20.0.0, SVG Export Plug-In . SVG Version: 6.00 Build 0)  -->
<svg version="1.1" id="Layer_1" xmlns="http://www.w3.org/2000/svg" xmlns:xlink="http://www.w3.org/1999/xlink" x="0px" y="0px"
	 viewBox="0 0 566.9 566.9" style="enable-background:new 0 0 566.9 566.9;" xml:space="preserve">
<style type="text/css">
	.st0{fill:#FFFFFF;}
	.st1{fill:#1B75BC;}
	.st2{fill:#FFFFFF;stroke:#231F20;stroke-width:2.2674;stroke-miterlimit:10;}
	.st3{enable-background:new    ;}
</style>
<g>
	<g>
		<polygon class="st0" points="173.5,301 173.5,81.1 348,81.1 348,246.3 293.5,301 		"/>
		<path class="st1" d="M344.7,84.5v160.4l-52.6,52.8H176.9V84.5H344.7 M351.5,77.7H170.1v226.8h124.9l56.6-56.7V77.7L351.5,77.7z"/>
	</g>
	<g>
		<polygon class="st1" points="293.5,246.5 342.5,246.5 293.5,295.5 		"/>
		<path class="st1" d="M333.6,250.2l-36.4,36.4v-36.4H333.6 M351.5,242.7h-61.7v61.7L351.5,242.7L351.5,242.7z"/>
	</g>
	<path class="st2" d="M351.5,304.5"/>
	<g>
		<rect x="253.2" y="126.2" class="st1" width="140.2" height="64.4"/>
		<path class="st0" d="M390,129.5v57.6H256.6v-57.6H390 M396.8,122.7h-147v71.2h147V122.7L396.8,122.7z"/>
	</g>
	<g class="st3">
		<path class="st0" d="M302.3,159c0,3.3-0.7,6.3-2.2,9c-1.4,2.7-3.4,4.8-5.8,6.3c-1.7,1-3.5,1.8-5.6,2.2c-2.1,0.5-4.8,0.7-8.1,0.7
			h-9.2v-36.6h9.1c3.6,0,6.4,0.3,8.5,0.8c2.1,0.5,3.9,1.2,5.3,2.1c2.5,1.6,4.4,3.6,5.8,6.2C301.6,152.3,302.3,155.4,302.3,159z
			 M297.2,158.9c0-2.9-0.5-5.3-1.5-7.2c-1-2-2.5-3.5-4.5-4.6c-1.4-0.8-3-1.4-4.6-1.7c-1.6-0.3-3.6-0.5-5.8-0.5h-4.6V173h4.6
			c2.3,0,4.4-0.2,6.1-0.5c1.7-0.3,3.3-1,4.8-1.9c1.8-1.2,3.2-2.7,4.1-4.6C296.8,164.1,297.2,161.7,297.2,158.9z"/>
		<path class="st0" d="M337.4,144.8c1.5,1.6,2.6,3.6,3.4,6c0.8,2.4,1.2,5.1,1.2,8.1c0,3-0.4,5.7-1.2,8.1s-1.9,4.4-3.4,6
			c-1.5,1.7-3.3,2.9-5.3,3.7c-2.1,0.8-4.4,1.3-7,1.3c-2.6,0-4.9-0.4-7-1.3c-2.1-0.9-3.9-2.1-5.4-3.7c-1.5-1.6-2.6-3.6-3.4-6
			c-0.8-2.4-1.2-5.1-1.2-8.1c0-3,0.4-5.7,1.2-8c0.8-2.4,1.9-4.4,3.4-6.1c1.4-1.6,3.2-2.8,5.4-3.7c2.1-0.9,4.5-1.3,7-1.3
			c2.6,0,5,0.4,7.1,1.3C334.2,142,336,143.2,337.4,144.8z M337,158.9c0-4.8-1.1-8.4-3.2-11c-2.1-2.6-5-3.9-8.7-3.9
			c-3.7,0-6.6,1.3-8.8,3.9c-2.1,2.6-3.2,6.2-3.2,11c0,4.8,1.1,8.5,3.2,11s5.1,3.8,8.7,3.8s6.5-1.3,8.7-3.8
			C335.9,167.4,337,163.7,337,158.9z"/>
		<path class="st0" d="M378,174.6c-0.9,0.4-1.7,0.8-2.4,1.1c-0.7,0.3-1.7,0.7-2.9,1.1c-1,0.3-2.1,0.6-3.3,0.8
			c-1.2,0.2-2.5,0.3-3.9,0.3c-2.7,0-5.1-0.4-7.2-1.1c-2.2-0.7-4.1-1.9-5.7-3.5c-1.6-1.6-2.8-3.5-3.7-5.9c-0.9-2.4-1.3-5.2-1.3-8.4
			c0-3,0.4-5.7,1.3-8.1c0.9-2.4,2.1-4.4,3.7-6c1.6-1.6,3.4-2.8,5.6-3.6s4.6-1.3,7.3-1.3c2,0,3.9,0.2,5.9,0.7c2,0.5,4.1,1.3,6.5,2.5
			v5.8h-0.4c-2-1.7-4-2.9-6-3.7c-2-0.8-4.1-1.2-6.4-1.2c-1.9,0-3.5,0.3-5,0.9c-1.5,0.6-2.8,1.5-4,2.8c-1.1,1.2-2,2.8-2.6,4.7
			c-0.6,1.9-0.9,4-0.9,6.5c0,2.6,0.3,4.8,1,6.6c0.7,1.9,1.6,3.4,2.7,4.5c1.1,1.2,2.5,2.1,4,2.7s3.1,0.9,4.9,0.9
			c2.3,0,4.5-0.4,6.6-1.2c2-0.8,4-2,5.7-3.6h0.3V174.6z"/>
	</g>
</g>
</svg>
