<?xml version="1.0" encoding="utf-8"?>
<!-- Generator: Adobe Illustrator 19.2.0, SVG Export Plug-In . SVG Version: 6.00 Build 0)  -->
<svg version="1.1" id="Layer_1" xmlns="http://www.w3.org/2000/svg" xmlns:xlink="http://www.w3.org/1999/xlink" x="0px" y="0px"
	 width="97.8px" height="97.8px" viewBox="0 0 97.8 97.8" style="enable-background:new 0 0 97.8 97.8;" xml:space="preserve">
<style type="text/css">
	.st0{fill:#FFFFFF;}
</style>
<path id="_" class="st0" d="M74,58.8H23.9c1.9,5,5.3,9.3,9.8,12.3c9.2,6.3,21.3,6.3,30.6,0C68.6,68.1,72,63.8,74,58.8L74,58.8
	L74,58.8z M39,36.7c0.1-4.1-3.2-7.5-7.4-7.6c-4.1-0.1-7.5,3.2-7.6,7.4c-0.1,4.1,3.2,7.5,7.4,7.6c2,0,3.9-0.8,5.4-2.2
	C38.3,40.5,39,38.7,39,36.7L39,36.7z M73.5,36.7c0.1-4.1-3.2-7.5-7.4-7.6c-4.1-0.1-7.5,3.2-7.6,7.4c-0.1,4.1,3.2,7.5,7.4,7.6
	c2,0,3.9-0.8,5.4-2.2C72.7,40.5,73.5,38.7,73.5,36.7L73.5,36.7z M9.6,48.9C9.5,27,27,9.1,48.9,9c21.9-0.2,39.8,17.4,39.9,39.3
	C89,70.1,71.4,88,49.6,88.2c-10.6,0.1-20.8-4.1-28.3-11.6C13.7,69.4,9.5,59.3,9.6,48.9L9.6,48.9z M0,48.9C-0.1,76,21.8,98,48.9,98
	C76,98.1,98,76.2,98.1,49.1C98.1,22,76.2,0,49.1,0c-13,0-25.6,5.1-34.8,14.4C5,23.4-0.2,35.9,0,48.9L0,48.9z"/>
</svg>
