<svg xmlns="http://www.w3.org/2000/svg" width="97.793" height="97.793" viewBox="0 0 16.625 16.625">
  <defs>
    <style>
      .cls-1 {
        fill: #999;
        fill-rule: evenodd;
      }
    </style>
  </defs>
  <path id="_" data-name="" class="cls-1" d="M875.7,952.023H867.18a4.492,4.492,0,0,0,1.66,2.09,4.612,4.612,0,0,0,5.195,0,4.5,4.5,0,0,0,1.66-2.09h0Zm-5.937-3.75a1.267,1.267,0,1,0-.371.879A1.2,1.2,0,0,0,869.758,948.273Zm5.859,0a1.267,1.267,0,1,0-.371.879A1.2,1.2,0,0,0,875.617,948.273Zm-10.859,2.071a6.734,6.734,0,1,1,1.972,4.707A6.425,6.425,0,0,1,864.758,950.344Zm-1.641,0a8.338,8.338,0,1,0,2.442-5.879A8.013,8.013,0,0,0,863.117,950.344Z" transform="translate(-863.125 -942.031)"/>
</svg>
