<?xml version="1.0" encoding="utf-8"?>
<!-- Generator: Adobe Illustrator 19.2.0, SVG Export Plug-In . SVG Version: 6.00 Build 0)  -->
<svg version="1.1" id="Layer_1" xmlns="http://www.w3.org/2000/svg" xmlns:xlink="http://www.w3.org/1999/xlink" x="0px" y="0px"
	 width="56.7px" height="56.7px" viewBox="0 0 56.7 56.7" style="enable-background:new 0 0 56.7 56.7;" xml:space="preserve">
<style type="text/css">
	.st0{fill:#FFFFFF;}
</style>
<path id="icons" class="st0" d="M11.3,51V20H51v31H11.3z M42.5,5.8H19.8V0h-5.7v5.7h-2.8c-1.5,0-2.9,0.7-4,1.8c-1.1,1-1.7,2.5-1.7,4
	V51c0,1.5,0.6,2.9,1.7,4c1,1.1,2.5,1.7,4.1,1.7H51c3.1-0.1,5.6-2.6,5.7-5.7V11.5c-0.1-3.1-2.6-5.6-5.7-5.7h-2.8V0h-5.7L42.5,5.8
	L42.5,5.8z M31.1,31.3v14.2h14.2V31.3H31.1L31.1,31.3z"/>
</svg>
