<svg xmlns="http://www.w3.org/2000/svg" width="99.999" height="111.246" viewBox="0 0 15 16.687">
  <defs>
    <style>
      .cls-1 {
        fill: #ff5a00;
        fill-rule: evenodd;
      }
    </style>
  </defs>
  <path id="event_icon" data-name="event icon" class="cls-1" d="M735.406,694.91h4.18v-4.18h-4.18v4.18Zm-1.64,3.32v-9.14h11.64v9.14h-11.64Zm10.82-13.32v-1.679h-1.68v1.679h-6.64v-1.679h-1.68v1.679h-0.82a1.592,1.592,0,0,0-1.192.508,1.639,1.639,0,0,0-.488,1.172v11.64a1.636,1.636,0,0,0,.488,1.172,1.589,1.589,0,0,0,1.192.508h11.64a1.738,1.738,0,0,0,1.68-1.68V686.59a1.738,1.738,0,0,0-1.68-1.68h-0.82Z" transform="translate(-732.094 -683.219)"/>
</svg>
