<?xml version="1.0" encoding="utf-8"?>
<!-- Generator: Adobe Illustrator 20.0.0, SVG Export Plug-In . SVG Version: 6.00 Build 0)  -->
<svg version="1.1" id="Layer_1" xmlns="http://www.w3.org/2000/svg" xmlns:xlink="http://www.w3.org/1999/xlink" x="0px" y="0px"
	 viewBox="0 0 100 100" style="enable-background:new 0 0 100 100;" xml:space="preserve">
<style type="text/css">
	.st0{fill:#384353;}
</style>
<g>
	<path class="st0" d="M10,90c0-22.9,0-45.7,0-68.6c16,0,31.8,0,48.1,0c-3,3-5.6,5.7-8.3,8.3c-0.4,0.4-1.4,0.4-2.1,0.4
		c-8.8,0-17.5,0-26.3,0c-0.8,0-1.6,0-2.6,0c0,17,0,34,0,51.1c16.9,0,33.9,0,51.1,0c0-0.8,0-1.6,0-2.4c0-8.9,0-17.7,0.1-26.6
		c0-1,0.5-2.1,1.2-2.8c2.3-2.5,4.7-4.8,7.4-7.6c0,16.3,0,32.1,0,48.1C55.8,90,33,90,10,90z"/>
	<path class="st0" d="M68.4,22.9c-3.2-2.9-6.1-5.6-9.4-8.7c10.6-1.4,20.5-2.8,31-4.2c-1.4,10.3-2.8,20.3-4.2,30.9
		c-3.1-3.2-5.9-6.1-8.7-9C63.9,45.1,51,58,38.2,70.8c-3-3-5.9-5.9-8.8-8.9C42.1,49.2,55,36.3,68.4,22.9z"/>
</g>
</svg>
