<svg id="Layer_1" data-name="Layer 1" xmlns="http://www.w3.org/2000/svg" width="200" height="189.4" viewBox="0 0 200 189.4"><defs><style>.cls-1{fill:#fff;fill-rule:evenodd;}</style></defs><title>extreme_sport_icon_wht</title><path class="cls-1" d="M124.72,160.9c4.23,0,6.67.07,9.29-1.73,1.91-1.32,4.25-4.1,4.49-6.93a3.94,3.94,0,0,1,.66.92c.2.31.43.69.6,1l9,15.44c0,2.55-2.47,3.51-4.73,4.73-8.57,4.63-7.44,5.19-13.94-4.57-1-1.54-1.87-2.69-2.83-4.26l-2.53-4.56ZM98.4,1.42C73.59,2.53,48.46,10.55,31.06,24.31A79.56,79.56,0,0,0,10.27,49.59c-5.39,10-10,23.8-10,36.1,0,21.29,6.3,33.28,7,39.42.54,4.42-.43,6.86,3,11.94,3.92,5.76,8.17,6.34,14,8.45,2,.74,3.26,1.2,5.6,1.88,11.12,3.2,17,3.64,29.82,3.65,3.54,0,2.39.72,7.37,4,13,8.66,26.92,14.79,42.5,17.36,8.4,1.39,4.9-1.23,12.55,9.89,3.47,5,8.27,7.94,13.32,8.5h3.64a17.88,17.88,0,0,0,7.39-2.58c9.05-5.54,15.58-7.43,15.58-19.86,0-7.15-9.52-16.5-9.84-20.48-.19-2.43-.12-3.48-.5-5.8-.81-4.92-3.34-10.89-7.43-13.83-3.21-2.32-3-3.69-4.38-11-.24-1.26-.72-3.5-.89-5.07-.28-2.55-.21-.11,1.91-4,1-1.87,3.36-6.38,3.41-8.79,2.63,0,3.63.39,5.91.39,7.67,0,32.8-2.86,39.38-5.9a22.45,22.45,0,0,0,5.23-3.83c8.57-8.93,5.2-20.56,1.41-30.77a86.21,86.21,0,0,0-6.66-13.82c-1.28-2.12-2.57-4-4.09-6.15-.79-1.09-1.45-2-2.19-2.93-6.16-8.06-16.16-16.81-24.94-21.52a134.65,134.65,0,0,0-14-6.49,105.15,105.15,0,0,0-34.26-7ZM128.27,157c9.14,0,8.39-15.6,6.05-19.83-3.84-7-21.41.94-21.41,11.57,0,4.73,8.93,8.27,15.36,8.27Zm-56.7-16.14c1.53-.41,3.95-2.25,5.13-3.14a17.53,17.53,0,0,0,3.93-4.34c2.08,1.39,4,2.67,6.22,4,5.31,3.18,17.17,8.47,22.52,8.58-1.65,6.22,2.94,8.25,4.9,10.46a19.68,19.68,0,0,1,1.8,3.32c-2.06-.48-4.52-.79-6.66-1.21a89.72,89.72,0,0,1-18-5.59c-3.84-1.65-15.19-7.53-18.87-10.66-1.39-1.19-.46-.56-.93-1.44ZM109.76,116l5.22.13a28.77,28.77,0,0,0,4.56-.59,20.51,20.51,0,0,0,3.57-1.17c3.32-1.44,2.26-2.06,3.42,4.16L129.45,131a21.18,21.18,0,0,0-13.71,5.58c-1.21,1.12-.8.27-1.25,1.51-2-1.46-3.81-13.29-4.17-15.91-.22-1.55-.55-4.86-.55-6.14Zm-29.93-6.3c0-4.64,1-5.76,4.1-8.11,4.34-3.28,13.26-5.68,15.94,3,2.61,8.49,2.85,3.93,2.79,10.6a80,80,0,0,0,1.24,12.15c.43,2.5,1.79,8.76,2.71,10.68-2.49-.06-8.4-2.41-10.37-3.41-7.8-3.94-6.33-3.24-12.66-7.82-2-1.43-1.31-2.33-1.94-5.15a56.13,56.13,0,0,1-1.8-12Zm70.48-23.23c-5.3,0-8.16-2.17-13.35-.36-8.07,2.82-1.86,12.31-11.63,19.09-2.72,1.89-7.43,4.11-11.64,4.11-7.07,0-6-5.46-8.53-10-8-14.43-32.42-5.89-32.42,10A52,52,0,0,0,74,119.46c.42,2.08,1.84,7.59,1.06,9.49-1.45,3.51-9.76,8.33-14.94,8.33-14.91,0-20.85-.44-34.65-5.91-3.75-1.49-4.73-.92-4.73-6.3,1.41.12,3.86,1.47,5.4,2.08a51.25,51.25,0,0,0,12.21,3.54c2.56.42,5.63,1.76,5.63-1.3,0-2.29-5.17-1.5-11.08-3.49a52.26,52.26,0,0,1-10.27-4.3c-3.38-2-3-2.47-5-9.61-6.05-22.12-5.11-40.22,6.38-59.22A65.56,65.56,0,0,1,45.57,30.56c14.25-9.46,37.56-15.75,57.89-15.75,24.84,0,43.54,7.27,58.11,18.67a73.91,73.91,0,0,1,15,16.93,75.21,75.21,0,0,1,6.13,12c1.46,3.6,3.88,10.25,3.88,15,0,3-3,4.74-5.68,5.34C175.43,84,155.65,86.48,150.32,86.48Z" transform="translate(-0.29 -1.42)"/><path class="cls-1" d="M157,59.31c0,9.75,13.39,13.23,13.39,4.33C170.4,54.95,157,52.29,157,59.31Z" transform="translate(-0.29 -1.42)"/><path class="cls-1" d="M62.51,105.38a34,34,0,0,0,.59,8.46c.72,3.29,1.93,1.77,3.34,1.77.84-3.61-3.34-14.22,4.61-22.17,6.1-6.1,11.14-3.39,11.14-7.37,0-3.57-10.43.55-15.64,7.2a18.93,18.93,0,0,0-2,3.47A22.82,22.82,0,0,0,62.51,105.38Z" transform="translate(-0.29 -1.42)"/><path class="cls-1" d="M28.25,109.32v2.76c0,8.52,12.36,9,10.77-.51-.4-2.39-.45-3.1-1.8-4.53C31.79,101.21,28.25,107.49,28.25,109.32Z" transform="translate(-0.29 -1.42)"/><path class="cls-1" d="M79,23.08c0,4.76,16.79,3.31,18.11-2.36C93.79,15.68,79,19.88,79,23.08Z" transform="translate(-0.29 -1.42)"/><path class="cls-1" d="M116.45,147.51c0,2.43,4,4.92,6.3,5.12-1.49-2.82-2.39-5.24-.08-8s5.84-2,8.11-.07c1,.83,0,.57,1.42.94,0-2.56-.83-7.09-3.94-7.09C121.5,138.45,116.45,143.51,116.45,147.51Z" transform="translate(-0.29 -1.42)"/><path class="cls-1" d="M121.18,25.05c0,6.46,10.63,6.79,10.63,2.36C131.81,22.77,121.18,21.05,121.18,25.05Z" transform="translate(-0.29 -1.42)"/><path class="cls-1" d="M91.65,47.1a4,4,0,0,0,3.75-4.89c-.46-2.38-2.35-4.39-4.54-4.39C85.42,37.81,86.23,47.1,91.65,47.1Z" transform="translate(-0.29 -1.42)"/><path class="cls-1" d="M46,38l.39,2.36a7.38,7.38,0,0,0,9.06-7.09c0-2.81-4.23-1.62-5.75-.63S46,36,46,38Z" transform="translate(-0.29 -1.42)"/><path class="cls-1" d="M115.67,91.6c0,7,8.66,5.23,8.66.79C124.33,85.95,115.67,86.59,115.67,91.6Z" transform="translate(-0.29 -1.42)"/><path class="cls-1" d="M55.81,123.49c0-3.62-1.1-4.73-4.73-4.73s-4.76,4.94-2.49,7.21C51.15,128.52,55.81,127,55.81,123.49Z" transform="translate(-0.29 -1.42)"/></svg>