<?xml version="1.0" encoding="utf-8"?>
<!-- Generator: Adobe Illustrator 19.2.0, SVG Export Plug-In . SVG Version: 6.00 Build 0)  -->
<svg version="1.1" id="Layer_1" xmlns="http://www.w3.org/2000/svg" xmlns:xlink="http://www.w3.org/1999/xlink" x="0px" y="0px"
	 width="150px" height="100px" viewBox="0 0 150 100" style="enable-background:new 0 0 150 100;" xml:space="preserve">
<style type="text/css">
	.st0{fill:#FFFFFF;}
</style>
<path id="facebook_icon" class="st0" d="M137.5,0H62.6C55.7,0,50.1,5.5,50,12.3v75.1c0,6.9,5.6,12.5,12.5,12.6h37.9V64h-12V48.3
	h12.1v-7.6c-0.5-11.4,8.3-21.1,19.7-21.6c0.1,0,0.3,0,0.4,0h11.2v17.7h-10c-1.6-0.2-3.1,0.9-3.3,2.4c0,0.3,0,0.7,0,1v8.1h13.2V64
	h-13.2v36h18.8c6.9-0.1,12.5-5.7,12.5-12.6V12.3C149.9,5.5,144.3,0,137.5,0z"/>
</svg>
