<svg xmlns="http://www.w3.org/2000/svg" width="98.324" height="98.321" viewBox="0 0 27.531 27.53">
  <defs>
    <style>
      .cls-1 {
        fill: #3b5998;
        fill-rule: evenodd;
      }
    </style>
  </defs>
  <path id="facebook_icon" data-name="facebook icon" class="cls-1" d="M127.262,1107.56H106.656a3.431,3.431,0,0,0-3.456,3.39v20.67a3.484,3.484,0,0,0,3.456,3.46h10.431v-9.92h-3.328v-4.29h3.328v-2.11a5.7,5.7,0,0,1,5.567-5.95h3.072v4.86h-2.752a0.805,0.805,0,0,0-.9.96v2.24h3.648v4.29h-3.648v9.92h5.184a3.484,3.484,0,0,0,3.456-3.46v-20.67A3.431,3.431,0,0,0,127.262,1107.56Z" transform="translate(-103.188 -1107.56)"/>
</svg>
