<?xml version="1.0" encoding="utf-8"?>
<!-- Generator: Adobe Illustrator 19.2.1, SVG Export Plug-In . SVG Version: 6.00 Build 0)  -->
<svg version="1.1" id="Layer_1" xmlns="http://www.w3.org/2000/svg" xmlns:xlink="http://www.w3.org/1999/xlink" x="0px" y="0px"
	 width="100px" height="100px" viewBox="0 0 100 100" style="enable-background:new 0 0 100 100;" xml:space="preserve">
<style type="text/css">
	.st0{fill:#FFFFFF;}
</style>
<g>
	<path d="M132.2,57.3l4.7,1.2c-1,3.9-2.8,6.9-5.4,8.9c-2.6,2-5.7,3.1-9.5,3.1c-3.9,0-7-0.8-9.4-2.4s-4.3-3.8-5.5-6.8
		c-1.3-3-1.9-6.2-1.9-9.6c0-3.7,0.7-7,2.1-9.8c1.4-2.8,3.5-4.9,6.1-6.3c2.6-1.4,5.5-2.2,8.7-2.2c3.6,0,6.6,0.9,9,2.7
		c2.4,1.8,4.1,4.4,5.1,7.7l-4.7,1.1c-0.8-2.6-2-4.5-3.6-5.7c-1.6-1.2-3.6-1.8-6-1.8c-2.8,0-5,0.7-6.9,2c-1.8,1.3-3.1,3.1-3.9,5.3
		c-0.7,2.2-1.1,4.5-1.1,6.9c0,3,0.4,5.7,1.3,8c0.9,2.3,2.3,4,4.1,5.1c1.9,1.1,3.9,1.7,6.1,1.7c2.7,0,4.9-0.8,6.7-2.3
		C130.3,62.6,131.5,60.3,132.2,57.3z"/>
	<path d="M138.9,70.4l10.4-37h3.5l-10.4,37H138.9z"/>
	<path d="M165.7,69.8V38.3h-11.8V34h28.4v4.2h-11.8v31.6H165.7z"/>
</g>
<path class="st0" d="M50,0C22.4,0,0,22.4,0,50c0,27.6,22.4,50,50,50s50-22.4,50-50C100,22.4,77.6,0,50,0z M62.1,36.3H42.7v11.1h16.8
	v4.2H42.7v16.3h-4.7V32.1h24.1V36.3z"/>
</svg>
