<svg id="Layer_1" data-name="Layer 1" xmlns="http://www.w3.org/2000/svg" width="200" height="199.07" viewBox="0 0 200 199.07"><defs><style>.cls-1{fill:#4da3c9;fill-rule:evenodd;}</style></defs><title>fencing_icon</title><path class="cls-1" d="M-.11,5.54c0,3,8.45,10.26,10.75,12.56,8.18,8.18,79.73,80.39,82.51,82.25L59.87,133.91l6.46,6.75,33.44-33.17,33.42,33.16,6.73-6.48L106.5,100.48c2.88-2,73.84-73.58,82.12-81.86,1.93-1.93,11.27-10.36,11.27-12.56,0-3.19-1.89-5.18-5.18-5.18-3,0-9.49,7.67-12.56,10.75-8.12,8.12-79.49,80.14-82.25,82C97.06,91.73,91,85,88.1,82.09L11.94,5.92C9.65,3.64,8.09.87,4.55.87A4.75,4.75,0,0,0-.11,5.54Z" transform="translate(0.11 -0.87)"/><path class="cls-1" d="M1.44,135.07c0,2.28,12.87,14.17,15.16,16.45l39.64,39.64C66.06,201,67.18,203.48,71,187.51c2.8-11.77,3-24.7-1.58-35.94-2.74-6.77-6-10.68-11.36-15.07a40.11,40.11,0,0,0-18.32-8.11c-11.44-2-22.32-.7-32.91,2.72C4.47,131.87,1.44,132.27,1.44,135.07Z" transform="translate(0.11 -0.87)"/><path class="cls-1" d="M126.83,169.78c0,7.81.46,10.23,1.85,17.32a63.26,63.26,0,0,0,1.71,6.58c2.8,9.3,5.9,4.72,12.37-1.75L191,143.75c5.25-5.25,11.66-9.51,3.58-12.13-10.31-3.33-21.58-5.28-32.7-3.53C140.36,131.48,126.83,147.24,126.83,169.78Z" transform="translate(0.11 -0.87)"/><path class="cls-1" d="M159.35,179c1.93,2.82,8.16,8.42,10.88,11.14,7.92,7.92,14.45,16.32,25.32,2.26,6.38-8.26-2.64-14.3-9.77-21.43-2.36-2.36-6.82-7.35-9.2-8.94Z" transform="translate(0.11 -0.87)"/><path class="cls-1" d="M2,186.37a13.7,13.7,0,0,0,1.36,4.86c1,1.78,7.36,8.61,11.08,8.61,7.28,0,8.59-3.15,14.9-9.46,2.77-2.77,9.18-8.53,11-11.27l-17.23-17c-2.65,1.74-8.58,8.32-11.4,11.14C8,176.91,2,181.59,2,186.37Z" transform="translate(0.11 -0.87)"/></svg>