<svg id="Layer_1" data-name="Layer 1" xmlns="http://www.w3.org/2000/svg" width="188.87" height="200" viewBox="0 0 188.87 200"><defs><style>.cls-1{fill:#4da3c9;fill-rule:evenodd;}</style></defs><title>field_hockey_icon</title><path class="cls-1" d="M35.79,105.27a26.9,26.9,0,0,0-12.28,2.51c-11,4.62-17.3,15.32-17.3,27.64,0,11.66,9,28.33,15.68,37.23,23,30.71,69.61,38.38,103,14.3A91.81,91.81,0,0,0,140,173.05a84.46,84.46,0,0,0,8.84-12.78c5.69-10.21,6.9-14.44,10.62-25.79l16.49-56.33c.62-2.12,1-3.83,1.57-5.82a49.14,49.14,0,0,1,1.64-5.76l-24,7.89c-2.54.85-40.4,13.16-41.55,14.77-.41.57-1.81,5.53-2.11,6.42-3.09,9.25-10,34.11-16.13,40.19a26.51,26.51,0,0,1-4.17,3.79c-2.87,2-7.55,4-11.89,3.43a16.22,16.22,0,0,1-10.81-5.7c-7.82-9.92-4.19-20.67-19.64-28.72A28.47,28.47,0,0,0,35.79,105.27Z" transform="translate(-6.21 -1.17)"/><path class="cls-1" d="M14.18,44.4v4c0,15.77,15.55,31.29,31.29,31.29,11.77,0,18.11-2,26.6-10.38,19-18.83,7.87-56.75-25.46-56.75-13.3,0-23.87,8.52-29,18.77A28.15,28.15,0,0,0,14.18,44.4Z" transform="translate(-6.21 -1.17)"/><path class="cls-1" d="M130.8,31.89c5.27-.44,56.72-20,62-20.48.71-3.05,2-7,2.28-10.24H139.9Z" transform="translate(-6.21 -1.17)"/><path class="cls-1" d="M120,68.3l59.09-20c5.63-1.85,5-.48,6.45-6.64.83-3.44,1.89-7.32,2.73-10.93-3.21.75-6.56,2.09-9.89,3.2L129.16,50.73c-5.62,1.81-4.28,1-6,7.08C122.14,61.4,120.78,64.91,120,68.3Z" transform="translate(-6.21 -1.17)"/></svg>