<?xml version="1.0" encoding="utf-8"?>
<!-- Generator: Adobe Illustrator 21.0.0, SVG Export Plug-In . SVG Version: 6.00 Build 0)  -->
<svg version="1.1" id="Layer_1" xmlns="http://www.w3.org/2000/svg" xmlns:xlink="http://www.w3.org/1999/xlink" x="0px" y="0px"
	 viewBox="0 0 200 200" style="enable-background:new 0 0 200 200;" xml:space="preserve">
<style type="text/css">
	.st0{fill:#394454;}
</style>
<g>
	<path class="st0" d="M47.8,153c3.4,8.9,10.4,17.2,24.8,17.2h50.5c0,0,11.2,0.4,9.7-11.3c-0.2-1.5-0.8-3.5-1.7-5.1
		c-15.3,0.3-27.7-0.6-36.6-6.6c-16-10.8-31.8-10.2-31.8-10.2l-0.2,16L47.8,153L47.8,153z M143.5,153.7c0.9,1.8,1.7,3.4,2.3,4.7
		c4.2,7.9,6.7,11.8,21.6,11.8c14.9,0,28.9-0.8,14.7-18.9c-0.2-0.3-0.4-0.5-0.6-0.8c-6.3,0.8-15.5,1.8-28.6,2.6
		C149.7,153.4,146.6,153.6,143.5,153.7L143.5,153.7z M98.2,25.4c0,0-0.4,29,2.8,41.1c8.6,32.4,37.2,48.6,70.2,54.1
		c30.4,5.1,21.9,28,21.9,28s-1.2,0.4-4.2,0.9c4.5,6.2,8.2,12.7,11.1,19.6c-4,3.5-8.8,6.7-14.2,9.6c-28.8,2.4-62,3.7-100.1,3.7
		c-30,0-58.4-1.3-85.1-2.9c-0.6-0.5-0.7-2-0.4-3.2c1.9-7,8.4-6.9,8.4-6.9l20.1-1.2c5.7-0.2,11.3-3.7,8.8-10.4
		c-0.4-1-2.2-4.9-2.2-4.9H24.6H24l-1-19.4c-0.3-3.3-0.8-6.4-1.2-8.7C17.7,102.6,26.1,90,30,73c0.4-1.6,0.6-3.5,0.8-5.7
		c0.2-9.5-0.1-19.7-0.1-34.3l52.1-17.6C92.6,12.2,98.5,16.8,98.2,25.4L98.2,25.4z"/>
</g>
</svg>
