<?xml version="1.0" encoding="utf-8"?>
<!-- Generator: Adobe Illustrator 19.2.0, SVG Export Plug-In . SVG Version: 6.00 Build 0)  -->
<svg version="1.1" id="Layer_1" xmlns="http://www.w3.org/2000/svg" xmlns:xlink="http://www.w3.org/1999/xlink" x="0px" y="0px"
	 width="100px" height="100px" viewBox="0 0 100 100" style="enable-background:new 0 0 100 100;" xml:space="preserve">
<style type="text/css">
	.st0{fill:#384353;}
</style>
<g>
	<path class="st0" d="M50,5.7c24.4,0,44.3,19.9,44.3,44.3S74.4,94.3,50,94.3S5.7,74.4,5.7,50S25.6,5.7,50,5.7 M50,0
		C22.4,0,0,22.4,0,50s22.4,50,50,50s50-22.4,50-50S77.6,0,50,0L50,0z"/>
</g>
<circle class="st0" cx="50" cy="16.1" r="6.1"/>
<circle class="st0" cx="50" cy="83.9" r="6.1"/>
<circle class="st0" cx="83.9" cy="50" r="6.1"/>
<circle class="st0" cx="16.1" cy="50" r="6.1"/>
<g>
	<ellipse transform="matrix(0.5012 -0.8654 0.8654 0.5012 15.5032 68.2776)" class="st0" cx="67" cy="20.7" rx="6.1" ry="6.1"/>
	<ellipse transform="matrix(0.5012 -0.8654 0.8654 0.5012 -52.1549 68.1409)" class="st0" cx="33" cy="79.3" rx="6.1" ry="6.1"/>
	<ellipse transform="matrix(0.5012 -0.8654 0.8654 0.5012 -18.3942 102.0383)" class="st0" cx="79.3" cy="67" rx="6.1" ry="6.1"/>
	<ellipse transform="matrix(0.5012 -0.8654 0.8654 0.5012 -18.2575 34.3802)" class="st0" cx="20.7" cy="33" rx="6.1" ry="6.1"/>
</g>
<g>
	<ellipse transform="matrix(0.8663 -0.4995 0.4995 0.8663 -5.9186 44.0516)" class="st0" cx="79.3" cy="33.1" rx="6.1" ry="6.1"/>
	<ellipse transform="matrix(0.8663 -0.4995 0.4995 0.8663 -30.6619 19.2636)" class="st0" cx="20.7" cy="66.9" rx="6.1" ry="6.1"/>
	<ellipse transform="matrix(0.8663 -0.4995 0.4995 0.8663 -30.6843 44.0293)" class="st0" cx="66.9" cy="79.3" rx="6.1" ry="6.1"/>
	<ellipse transform="matrix(0.8663 -0.4995 0.4995 0.8663 -5.8962 19.2859)" class="st0" cx="33.1" cy="20.7" rx="6.1" ry="6.1"/>
</g>
</svg>
