<svg id="Layer_1" data-name="Layer 1" xmlns="http://www.w3.org/2000/svg" width="178.46" height="200" viewBox="0 0 178.46 200"><defs><style>.cls-1{fill:#fff;fill-rule:evenodd;}</style></defs><title>foosball_icon_wht</title><path class="cls-1" d="M103.54-4.36h5.26c6.36.62,12.93,3.54,19.07,9.67a30.31,30.31,0,0,1,6.29,8.55A29.3,29.3,0,0,1,135,38c-1.4,3.51-2.59,4.83-4.47,7.64,10.14,0,19.14,8.73,19.14,18.75h40.17a93.1,93.1,0,0,1,3.44,12.5H149.64V95.64h45.48a95.11,95.11,0,0,1-.82,12.5H149.64v7.42c0,5.29-4.32,11.35-8.51,14.15-3,2-4,1.7-4.49,3.32l-4.89,38.07c-.95,7.74-1.13,11.4-4.86,16.62-4,5.64-8.69,7.43-14.23,7.92H98.47c-4.16,0-7.9-2.53-10.39-4.46-6.66-5.14-7.23-13.77-8.19-20.71l-4.45-35.78c-.31-3.33-.28-2.21-3.37-4a19.65,19.65,0,0,1-5.69-4.86c-5-6.17-4.23-10.15-4.23-17.64H17.48a95.11,95.11,0,0,1-.82-12.5H62.14V76.89H18.53A93.09,93.09,0,0,1,22,64.39H62.14c0-6.05,2.55-9.78,6.15-13.39a20.3,20.3,0,0,1,5.56-3.81c2.41-1.19,3.8-1.55,7.43-1.55-5.12-7.64-6.64-10.47-6.64-20.7C74.64,11.88,87.81-2.85,103.54-4.36Z" transform="translate(-16.66 4.36)"/></svg>