<svg id="Layer_1" data-name="Layer 1" xmlns="http://www.w3.org/2000/svg" width="200" height="120.21" viewBox="0 0 200 120.21"><defs><style>.cls-1{fill:#fff;fill-rule:evenodd;}</style></defs><title>formula_one_icon_wht</title><path class="cls-1" d="M135.35,117.71h24.47v10.11H124.71c1.06-1.58,8.95-10.11,10.64-10.11Zm-94.68,0H65.13c1.69,0,9.58,8.53,10.64,10.11H40.67V117.71ZM.24,86.86v63.3a7.59,7.59,0,0,0,8,8H33.75c5.93,0,6.91-5.82,6.91-10.11H159.82c0,5.11,1.17,10.11,8,10.11h25.53c3.26,0,6.91-3.65,6.91-6.91V86.86a7.59,7.59,0,0,0-8-8H167.79c-10,0-8,10.55-8,18.62h-33c-2.3,0-24.23,24.48-26.6,26.06-4.19-2.8-24-26.06-26.6-26.06h-33c0-21.69,1.63-18.62-32.45-18.62A7.59,7.59,0,0,0,.24,86.86Z" transform="translate(-0.24 -37.93)"/><path class="cls-1" d="M60.35,58.14H96c-.11.07-.31,0-.37.17L93,59.38C77,66.48,80,80.54,80,98h40.43c0-13.3,2.57-30-9.39-36.89-1.08-.62-2-1.06-3.19-1.6l-3.38-1.41h35.64V37.93H60.35Z" transform="translate(-0.24 -37.93)"/></svg>