<?xml version="1.0" encoding="utf-8"?>
<!-- Generator: Adobe Illustrator 19.2.1, SVG Export Plug-In . SVG Version: 6.00 Build 0)  -->
<svg version="1.1" id="Layer_1" xmlns="http://www.w3.org/2000/svg" xmlns:xlink="http://www.w3.org/1999/xlink" x="0px" y="0px"
	 width="100px" height="100px" viewBox="0 0 100 100" style="enable-background:new 0 0 100 100;" xml:space="preserve">
<style type="text/css">
	.st0{fill:#CCCCCC;}
</style>
<g id="IXjHRR_1_">
	<g>
		<path class="st0" d="M90,87.7c-26.8,0-53.4,0-80,0c0.1-5.5,0.7-10.8,3.9-15.3c1-1.5,2.5-2.8,4-3.8c4.3-2.9,9.3-4.5,14.2-6.1
			c2.2-0.7,4.3-1.6,6.5-2.4c2.4-0.9,2.9-3.3,3-5c0-0.3-0.3-0.7-0.5-1.1c-5.4-8.4-8-17.5-7.1-27.5c0.7-7.5,5.4-12,13-12.5
			c2.5-0.2,5.1-0.1,7.6,0.3c6.5,1.1,10.3,5.4,10.9,12.1c0.9,9.5-1.4,18.3-6.3,26.5c-1.3,2.2-0.5,5.7,1.8,6.9
			c1.7,0.8,3.5,1.5,5.3,2.1c4,1.5,8.1,3,12.1,4.6c7.6,3,10.8,9.1,11.5,16.9C89.9,84.9,89.9,86.2,90,87.7z"/>
		<path class="st0" d="M62.9,13.6c1.5-0.4,2.6-0.9,3.8-1c2.3-0.1,4.6-0.2,6.9,0.1c4.7,0.8,7.5,3.8,8,8.6c0.9,7.3-0.9,14-4.7,20.3
			c-1,1.7-0.4,4.3,1.3,5.2c1.5,0.7,3.1,1.2,4.6,1.8c2.9,1.1,5.8,2.2,8.7,3.4c5.2,2.1,7.6,6.3,8.2,11.7c0.1,1.2,0.2,2.5,0.3,3.8
			c-0.5,0-0.8,0.1-1.2,0.1c-3.5,0-7,0-10.5,0c-0.4,0-0.9-0.1-1.2-0.3c-3.3-2.7-7-4.6-11-6.1c-3.4-1.3-6.8-2.4-10.3-3.6
			c-0.8-0.3-1.6-0.6-2.4-0.9c-1.1-0.5-1.3-1.1-0.6-2.1c3-4.9,4.9-10.2,6-15.8c0.8-4.2,1.2-8.4,0.6-12.7C68.8,21.3,67.1,17,62.9,13.6
			z"/>
		<path class="st0" d="M0,67.7c0.1-3.6,0.5-6.9,2-10c1-2,2.4-3.7,4.4-4.7c3.7-1.7,7.5-3.1,11.3-4.7c1.3-0.5,2.7-0.9,3.9-1.5
			c1.9-0.9,2.4-3.1,1.3-5c-4-6.5-5.9-13.5-4.8-21c0.7-4.9,3.4-7.4,8.3-8.2c3.3-0.6,6.7-0.4,9.9,0.9c-0.1,0.2-0.1,0.3-0.2,0.4
			c-4.1,3.4-5.9,8-6.3,13.2c-0.6,10,1.8,19.4,7.1,27.9c0.5,0.9,0.4,1.3-0.5,1.6c-3.5,1.2-6.9,2.4-10.4,3.6c-4.1,1.5-8.1,3-11.5,5.8
			c-1.8,1.4-3.5,1.7-5.5,1.6C6,67.6,3.1,67.7,0,67.7z"/>
	</g>
</g>
</svg>
