<?xml version="1.0" encoding="utf-8"?>
<!-- Generator: Adobe Illustrator 19.2.0, SVG Export Plug-In . SVG Version: 6.00 Build 0)  -->
<svg version="1.1" id="Layer_1" xmlns="http://www.w3.org/2000/svg" xmlns:xlink="http://www.w3.org/1999/xlink" x="0px" y="0px"
	 width="77px" height="56.7px" viewBox="0 0 77 56.7" style="enable-background:new 0 0 77 56.7;" xml:space="preserve">
<style type="text/css">
	.st0{fill:#ccc;}
</style>
<g>
	<path class="st0" d="M21,49.7v7h56v-7.1c0-4.3-3.3-7.7-9.6-10.2c-11.8-5.2-25.3-5.2-36.9,0C24,42,21,45.4,21,49.7L21,49.7L21,49.7z
		"/>
	<polygon class="st0" points="17.5,10.6 10.5,10.6 10.5,21.1 0,21.1 0,28.3 10.5,28.3 10.5,38.9 17.5,38.9 17.5,28.3 28,28.3
		28,21.1 17.5,21.1 	"/>
	<path class="st0" d="M63,14.3c0-3.8-1.4-7.4-4.1-10c-5.2-5.5-13.9-5.6-19.3-0.4c-0.1,0.1-0.3,0.3-0.4,0.4c-2.7,2.7-4.2,6.2-4.1,10
		c0,7.8,6.2,14,14,14C56.6,28.3,62.9,22.1,63,14.3z"/>
</g>
</svg>
