<?xml version="1.0" encoding="utf-8"?>
<!-- Generator: Adobe Illustrator 21.0.2, SVG Export Plug-In . SVG Version: 6.00 Build 0)  -->
<svg version="1.1" id="Layer_1" xmlns="http://www.w3.org/2000/svg" xmlns:xlink="http://www.w3.org/1999/xlink" x="0px" y="0px"
	 viewBox="0 0 200 200" style="enable-background:new 0 0 200 200;" xml:space="preserve">
<style type="text/css">
	.st0{fill:#FFFFFF;}
</style>
<g>
	<path class="st0" d="M26.3,13"/>
	<g>
		<path class="st0" d="M101.7,23.7c35.7,0,64.6,29.1,64.6,64.6S137.4,153,101.7,153S37,124,37,88.3S66,23.7,101.7,23.7 M101.7,13
			c-41.6,0-75.3,33.7-75.3,75.3s33.7,75.3,75.3,75.3S177,129.9,177,88.3S143.3,13,101.7,13L101.7,13z"/>
	</g>
	<path class="st0" d="M96.4,129.2L61,92.9L84.5,48l49.9,8.6l7.5,50L96.4,129.2z M73.9,91l24.6,25.2l31.5-15.7l-5.1-34.7L90.4,60
		L73.9,91z"/>
	
		<rect x="73.9" y="18.6" transform="matrix(0.9016 -0.4326 0.4326 0.9016 -8.2813 37.9609)" class="st0" width="10.7" height="37.2"/>
	
		<rect x="125.2" y="45.1" transform="matrix(0.7305 -0.6829 0.6829 0.7305 3.5298 109.8243)" class="st0" width="31.5" height="10.7"/>
	
		<rect x="146.4" y="92.7" transform="matrix(0.3653 -0.9309 0.9309 0.3653 -5.8277 210.8411)" class="st0" width="10.7" height="33.9"/>
	
		<rect x="71.8" y="136.4" transform="matrix(0.2571 -0.9664 0.9664 0.2571 -68.3804 194.5282)" class="st0" width="41" height="10.7"/>
	<rect x="29.2" y="92.7" transform="matrix(0.9539 -0.3 0.3 0.9539 -27.1701 19.1525)" class="st0" width="39.2" height="10.7"/>
</g>
</svg>
