<svg id="Layer_1" data-name="Layer 1" xmlns="http://www.w3.org/2000/svg" width="200" height="183" viewBox="0 0 200 183"><defs><style>.cls-1{fill:#4da3c9;fill-rule:evenodd;}</style></defs><title>gaming_icon</title><path class="cls-1" d="M149.54,147c-10.95,0-13-17.89.53-17.89,7.14,0,11.27,9,5.95,14.89a7.22,7.22,0,0,1-2.77,2,24.25,24.25,0,0,1-3.7,1ZM45.86,137.53v-9.47c-5.56,0-13,.95-15.7-1.67-3.87-3.8-3.27-12.56,7.41-11.65l8.29-.37c0-7.29-1.54-17.89,7.37-17.89,8.35,0,6.06,11.05,6.27,15.87.14,3.33.44,2.14,4.23,2,3-.1,4.46.41,6.71.41,1.94,0,3.11-.22,5.07,1.54a7,7,0,0,1,.21,10C73,129,67.62,128,62.64,128s-2.59,1.21-3.07,11.66c-.42,8.94-13.71,9.69-13.71-2.13Zm76.32-17.89c0-7.76,9.59-11.61,15.14-6.72,5,4.4,3.42,15.67-6.19,15.67a9.32,9.32,0,0,1-8.95-8.95ZM168,128.58c-12.54,0-11.29-17.89-.53-17.89,12.39,0,11.78,17.89.53,17.89Zm-17.89-18.42c11.39,0,10.84-17.78-.53-17.78-11,0-12.93,17.78.53,17.78ZM1.65,159.64c0,7.72,1,15.61,5.25,21.59,3.39,4.73,10.46,8.41,18.43,8.41,7.35,0,15-4.19,19.58-7.26,2.88-1.93,5.23-3.69,7.87-5.82,11.8-9.5,13.83-20.13,32.51-21.7L99,154.37c2.22,0,2.93.38,4.26.42l6.27-.42c3.65,0,13.8.81,16.66,1.76,4.35,1.44,9.54,4.75,12.13,7.87,11,13.3,31.31,33.25,50.17,23.55,10.54-5.42,13.14-14.28,13.14-28.44,0-19.36-8.85-47.74-20.07-62.56-17-22.49-31.17-25.08-55.37-12.88-17.06,8.6-31.64,8.82-48.77.18C54.61,72.32,37.86,73.24,22,96.26,10.66,112.63,1.65,136.42,1.65,159.64Z" transform="translate(-1.65 -7.12)"/><path class="cls-1" d="M94.8,79.64c5.31,1.24,9.72.37,14.21,0a23.68,23.68,0,0,1,4.35-13.55c10.63-14.77,28.22-8.38,44.46-10.81,5.34-.8,8.77-2.59,13.13-4.76,10.84-5.4,21.22-19.68,21.22-34,0-3.52.42-5.08-2.12-7.35a6.78,6.78,0,0,0-10.87,1.73c-1.4,2.53.52,24.13-21,30-5.45,1.49-13.13.86-19.67.86-17.22,0-31.59,5.66-39.66,21.39A40.17,40.17,0,0,0,94.8,79.64Z" transform="translate(-1.65 -7.12)"/></svg>