<?xml version="1.0" encoding="utf-8"?>
<!-- Generator: Adobe Illustrator 20.0.0, SVG Export Plug-In . SVG Version: 6.00 Build 0)  -->
<svg version="1.1" id="Layer_1" xmlns="http://www.w3.org/2000/svg" xmlns:xlink="http://www.w3.org/1999/xlink" x="0px" y="0px"
	 viewBox="0 0 100 100" style="enable-background:new 0 0 100 100;" xml:space="preserve">
<style type="text/css">
	.st0{fill:#384353;}
</style>
<path class="st0" d="M50,5C25.1,5,5,25.1,5,50s20.1,45,45,45s45-20.1,45-45S74.9,5,50,5z M86.7,62l-13.2-5.2L70,34.9l9.9-9.2
	c5.4,6.6,8.6,15.1,8.6,24.3C88.6,54.2,87.9,58.2,86.7,62z M48.1,66.7L33.4,51.6l9.8-18.5l20.6,3.5l3.1,20.7L48.1,66.7z M75.5,21
	l-10,9.3l-21.9-3.8l-6.3-13c3.9-1.4,8.2-2.1,12.6-2.1C59.8,11.4,68.7,15.1,75.5,21z M31.5,16.1l6.4,13.3L27.4,49.6l-15.7,4.9
	c-0.2-1.5-0.3-3-0.3-4.5C11.4,35.3,19.5,22.6,31.5,16.1z M13,60.9l15.8-5l15.2,15.6l-4.2,15.7C26.9,83.7,16.7,73.7,13,60.9z
	 M50,88.6c-1.3,0-2.6-0.1-3.9-0.2l4.2-15.7l20.4-10.1l13.5,5.3C77.7,80.2,64.9,88.6,50,88.6z"/>
</svg>
