<?xml version="1.0" encoding="utf-8"?>
<!-- Generator: Adobe Illustrator 19.2.0, SVG Export Plug-In . SVG Version: 6.00 Build 0)  -->
<svg version="1.1" id="Слой_1" xmlns="http://www.w3.org/2000/svg" xmlns:xlink="http://www.w3.org/1999/xlink" x="0px" y="0px"
	 width="100px" height="100px" viewBox="0 0 100 100" style="enable-background:new 0 0 100 100;" xml:space="preserve">
<style type="text/css">
	.st0{clip-path:url(#SVGID_2_);fill:#FBBC05;}
	.st1{clip-path:url(#SVGID_4_);fill:#EA4335;}
	.st2{clip-path:url(#SVGID_6_);fill:#34A853;}
	.st3{clip-path:url(#SVGID_8_);fill:#4285F4;}
</style>
<g id="Слой_2">
</g>
<image style="display:none;overflow:visible;enable-background:new    ;" width="1152" height="864" xlink:href="D378FE69C6EC69DD.png"  transform="matrix(0.2309 0 0 0.2309 -7 -49.75)">
</image>
<g id="Слой_3">
</g>
<g>
	<g>
		<g>
			<defs>
				<path id="SVGID_1_" d="M96.6,40.9h-5.7H72.3H50v19.3h26.8c-2.5,12.3-13,19.3-26.8,19.3c-16.4,0-29.5-13.2-29.5-29.5
					S33.7,20.5,50,20.5c7,0,13.4,2.5,18.4,6.6l14.5-14.5C74.1,4.8,62.7,0,50,0C22.3,0,0,22.3,0,50s22.3,50,50,50
					c25,0,47.7-18.2,47.7-50C97.7,47,97.2,43.9,96.6,40.9z"/>
			</defs>
			<clipPath id="SVGID_2_">
				<use xlink:href="#SVGID_1_"  style="overflow:visible;"/>
			</clipPath>
			<polygon class="st0" points="-4.6,79.5 -4.6,20.5 34.1,50 			"/>
		</g>
	</g>
	<g>
		<g>
			<defs>
				<path id="SVGID_3_" d="M96.6,40.9h-5.7H72.3H50v19.3h26.8c-2.5,12.3-13,19.3-26.8,19.3c-16.4,0-29.5-13.2-29.5-29.5
					S33.7,20.5,50,20.5c7,0,13.4,2.5,18.4,6.6l14.5-14.5C74.1,4.8,62.7,0,50,0C22.3,0,0,22.3,0,50s22.3,50,50,50
					c25,0,47.7-18.2,47.7-50C97.7,47,97.2,43.9,96.6,40.9z"/>
			</defs>
			<clipPath id="SVGID_4_">
				<use xlink:href="#SVGID_3_"  style="overflow:visible;"/>
			</clipPath>
			<polygon class="st1" points="-4.6,20.5 34.1,50 50,36.1 104.5,27.3 104.5,-4.5 -4.6,-4.5 			"/>
		</g>
	</g>
	<g>
		<g>
			<defs>
				<path id="SVGID_5_" d="M96.6,40.9h-5.7H72.3H50v19.3h26.8c-2.5,12.3-13,19.3-26.8,19.3c-16.4,0-29.5-13.2-29.5-29.5
					S33.7,20.5,50,20.5c7,0,13.4,2.5,18.4,6.6l14.5-14.5C74.1,4.8,62.7,0,50,0C22.3,0,0,22.3,0,50s22.3,50,50,50
					c25,0,47.7-18.2,47.7-50C97.7,47,97.2,43.9,96.6,40.9z"/>
			</defs>
			<clipPath id="SVGID_6_">
				<use xlink:href="#SVGID_5_"  style="overflow:visible;"/>
			</clipPath>
			<polygon class="st2" points="-4.6,79.5 63.6,27.3 81.6,29.5 104.5,-4.5 104.5,104.5 -4.6,104.5 			"/>
		</g>
	</g>
	<g>
		<g>
			<defs>
				<path id="SVGID_7_" d="M96.6,40.9h-5.7H72.3H50v19.3h26.8c-2.5,12.3-13,19.3-26.8,19.3c-16.4,0-29.5-13.2-29.5-29.5
					S33.7,20.5,50,20.5c7,0,13.4,2.5,18.4,6.6l14.5-14.5C74.1,4.8,62.7,0,50,0C22.3,0,0,22.3,0,50s22.3,50,50,50
					c25,0,47.7-18.2,47.7-50C97.7,47,97.2,43.9,96.6,40.9z"/>
			</defs>
			<clipPath id="SVGID_8_">
				<use xlink:href="#SVGID_7_"  style="overflow:visible;"/>
			</clipPath>
			<polygon class="st3" points="104.5,104.5 34.1,50 25,43.2 104.5,20.5 			"/>
		</g>
	</g>
</g>
</svg>
