<?xml version="1.0" encoding="utf-8"?>
<!-- Generator: Adobe Illustrator 20.0.0, SVG Export Plug-In . SVG Version: 6.00 Build 0)  -->
<svg version="1.1" id="Layer_1" xmlns="http://www.w3.org/2000/svg" xmlns:xlink="http://www.w3.org/1999/xlink" x="0px" y="0px"
	 width="100px" height="100px" viewBox="0 0 100 100" style="enable-background:new 0 0 100 100;" xml:space="preserve">
<style type="text/css">
	.st0{fill:#58CC66;}
	.st1{fill:#FFFFFF;}
</style>
<g>
	<path class="st0" d="M79,49.1c-2.3-3.4-5.1-6.4-8.3-8.9c-2.9-2.4-6.1-4.3-9.6-5.6c-3-1.2-6.2-1.8-9.4-2c-1.9-0.1-3.9,0-5.8,0.2
		c-1.7,0.2-3.3,0.6-4.9,1.1c-3.5,1.1-6.8,2.8-9.8,4.9c-3,2.2-5.7,4.7-8.1,7.6c-0.9,1.1-1.8,2.3-2.6,3.5c-0.1,0.1-0.1,0.2,0,0.3
		c0.2,0.3,0.5,0.7,0.7,1c2.1,3,4.6,5.7,7.4,8.1c2.9,2.5,6.1,4.5,9.6,5.9c2.3,0.9,4.7,1.6,7.2,2c1.5,0.2,3,0.3,3.8,0.3
		c2.6,0,4.4-0.2,6.3-0.5c2-0.4,3.9-0.9,5.7-1.6c2.7-1.1,5.2-2.5,7.6-4.2c3.2-2.3,6-5,8.4-8c0.8-1,1.4-2,2.2-3c0.1-0.1,0.1-0.2,0-0.3
		C79.3,49.6,79.1,49.4,79,49.1z"/>
	<path class="st0" d="M50,2C23.5,2,2,23.5,2,50s21.5,48,48,48s48-21.5,48-48S76.5,2,50,2z"/>
</g>
<g id="S6wjzi_1_">
	<g>
		<path class="st1" d="M18.5,69.4c0.3-1.3,0.6-2.7,1-4c1.2-4,3.6-6.9,7.5-8.5c2.4-1,4.9-2,7.3-3c0.6-0.3,1.2-0.8,1.5-1.4
			c0.8-1.9,1.2-3.9-0.3-5.7c-0.5-0.6-0.8-1.4-1.2-2.1c-0.6-1-1.1-2-1.7-3c-0.7-1.2-0.8-2.3-0.2-3.6c0.2-0.6,0.4-1.3,0.4-1.9
			c0.1-1.6,0-3.3,0.1-4.9c0.4-4.1,2.6-6.5,6.6-7.4c2.2-0.5,4.4-0.4,6.5,0.2c3.5,0.9,5.6,3.7,5.8,7.6c0,1.1,0,2.3,0,3.4
			c0,1.2,0,2.3,0.6,3.4c0.5,1,0.3,2.2-0.3,3.3c-0.6,1-1.1,2-1.7,3c-0.4,0.7-0.7,1.6-1.2,2.2c-1.2,1.3-1.1,2.7-0.8,4.2
			c0.2,1.5,0.9,2.6,2.5,3.2c2.1,0.7,4.1,1.7,6.2,2.5c5.2,2,7.7,6.1,8.6,11.3c0.1,0.8,0.2,1.5,0.3,2.4c-0.6,0-1,0.1-1.4,0.1
			c-14.9,0-29.9,0-44.8,0c-0.4,0-0.9-0.1-1.3-0.1C18.5,70.1,18.5,69.8,18.5,69.4z"/>
		<path class="st1" d="M81.5,69.7c-3.3,0-6.5,0.1-9.8,0.1c-0.2,0-0.6-0.7-0.6-1c-0.3-2.6-1-5.1-2.2-7.4c-1.3-2.5-3.2-4.4-5.8-5.5
			c-2.4-1.1-4.8-2.1-7.3-3.1c-1.3-0.6-2-2.4-1.3-3.7c1.1-2,2.3-4,3.3-6c0.8-1.5,0.8-3,0.2-4.5c-0.2-0.6-0.3-1.2-0.4-1.8
			c-0.1-1.8-0.1-3.7-0.3-5.6c-0.2-1.9-1.2-3.5-2.6-5c0.7-0.2,1.3-0.5,1.8-0.5c1.8,0,3.7-0.2,5.4,0.1c3.8,0.7,5.9,3.4,6,7.2
			c0,1.1,0,2.2,0,3.3c0,1.1,0,2.1,0.5,3.1c0.5,1,0.3,2.2-0.4,3.2c-0.5,0.8-1,1.7-1.4,2.6c-0.4,0.8-0.7,1.7-1.3,2.3
			c-1.1,1.3-0.9,2.7-0.7,4.1c0.2,1.3,0.9,2.3,2.3,2.8c1.9,0.6,3.8,1.6,5.7,2.3c4.9,1.8,7.4,5.6,8.4,10.5c0,0.2,0.2,0.5,0.2,0.7
			C81.5,68.5,81.5,69.1,81.5,69.7z"/>
	</g>
</g>
</svg>
