<svg id="Layer_1" data-name="Layer 1" xmlns="http://www.w3.org/2000/svg" width="200" height="200" viewBox="0 0 200 200"><defs><style>.cls-1{fill:#fff;fill-rule:evenodd;}</style></defs><title>gym_icon_wht</title><path class="cls-1" d="M108.33,25.58c0,3.67,1.84,5.74,3.77,7.65l51.84,51.84c7.28,7.28,12.25,15.35,20.2,13.5,4-.94,9.59-7.58,12.65-10.64s4.59-3.67,4.59-8.47-4.82-8.29-7.45-10.92L138.43,13c-1.6-1.6-3-3.21-4.69-4.69-7.67-6.9-12.5.46-17.55,5.51-1.73,1.73-3.16,3.18-4.9,4.89A8.72,8.72,0,0,0,108.33,25.58Z" transform="translate(-9.56 5.03)"/><path class="cls-1" d="M20.17,112.11c0,5.43,4.17,8.45,7,11.33L73.74,170l9.18,9.18c4.06,4.06,6,7.65,12.35,7.65,4,0,9-6.37,12.76-10.1,1.85-1.85,4.13-3.64,5-6.47,2.15-7.36-3-10.56-7.21-14.75L48,97.73c-4.59-4.62-10.32-5.49-14.5-1.23-1.72,1.75-3.16,3.17-4.89,4.91C25.71,104.33,20.17,108.73,20.17,112.11Z" transform="translate(-9.56 5.03)"/><polygon class="cls-1" points="63.98 117.86 81.94 136.02 136.02 82.14 118.06 63.98 63.98 117.86"/><path class="cls-1" d="M193.64,60.69c2.92,0,3.62-.18,6.46-2.11a24.52,24.52,0,0,0,3.84-3.5c1.74-1.74,4.07-3.78,4.86-6.16,2.27-6.74-2.47-9.21-9.76-16.5l-30-30c-2-2-3.79-4.59-7.65-4.59-4.42,0-7.13,3.66-9.49,6-1.36,1.36-2.71,2.3-3.71,4-4.36,7.54,0,10,4.74,14.74l31.43,31.43C186.57,56.27,189.7,60.69,193.64,60.69Z" transform="translate(-9.56 5.03)"/><path class="cls-1" d="M12.41,146.81c0,4.5,6.12,9.18,10.31,13.37l33.06,33.06c5,4.2,10.16-.16,13.67-3.67s5.82-5.48,5.82-10.51c0-3.91-4.24-6.89-6.43-9.08L37.62,138.75c-6.89-6.89-9.83-10.78-19-1.63C16.24,139.51,12.41,142.32,12.41,146.81Z" transform="translate(-9.56 5.03)"/><path class="cls-1" d="M9.56,179.05a9.55,9.55,0,0,0,2.16,6c.41.52,1.25,1.61,1.65,2,.75.74,1.35,1,2.22,1.86,1.94,1.95,5,6,9.88,6,3,0,4.79-2.54,6.43-4.18s4.21-3.82,5.41-5.61L19.45,167.12C17.85,168.21,9.56,175.84,9.56,179.05Z" transform="translate(-9.56 5.03)"/><path class="cls-1" d="M181.8,4.77l17.86,18.06c1.35-.93,9.9-8.74,9.9-11.53,0-3.15-1.82-6.06-3.67-8.16-1.22-1.38-1.3-.87-3.84-3.91-1.66-2-5.1-4.25-8.4-4.25S182.77,3.33,181.8,4.77Z" transform="translate(-9.56 5.03)"/></svg>