<svg id="Layer_1" data-name="Layer 1" xmlns="http://www.w3.org/2000/svg" width="200" height="193.89" viewBox="0 0 200 193.89"><defs><style>.cls-1{fill:#4da3c9;}</style></defs><title>hammer_throw-icon</title><circle class="cls-1" cx="21.74" cy="34.62" r="18.21" transform="matrix(0.99, -0.13, 0.13, 0.99, -7.86, 2.66)"/><path class="cls-1" d="M64.23,185a10.12,10.12,0,0,0,10.08,9.37l.77,0a10.12,10.12,0,0,0,9.34-10.85h0c-1.91-25.57-6.85-43.2-12-55.1a23.63,23.63,0,0,1,5.13,5.32c3.6,5.08,7,13.57,8,27.73a10.12,10.12,0,0,0,20.19-1.36c-.76-11.19-2.86-20.38-6.06-28-4.74-11.35-12.24-18.92-20-23.06A43.79,43.79,0,0,0,58.78,104h-.5c-4.12-10.38-5.91-22.39-7.42-31.74a130.1,130.1,0,0,1-14.21,2.53q-.39,0-.77,0a8.1,8.1,0,0,1-.76-16.16h.09l.56-.07c.54-.07,1.37-.18,2.49-.36,1.44-.23,3.55-.6,6.24-1.16,1.25-.26,2.62-.55,4.12-.89A346.75,346.75,0,0,0,90.4,43.39a8,8,0,0,1,6.84.6,8.28,8.28,0,0,1,2.66,2.48l83.23-30.28a11.06,11.06,0,1,0-1-3.07L97.89,43.75c-.06-.17-.13-.34-.21-.51A6.47,6.47,0,0,0,89,40.17c-11.81,5.62-24.66,9.08-34.48,11.06-4.91,1-9.07,1.63-12,2-1.45.19-2.59.32-3.36.4l-.86.09-.25,0a6.48,6.48,0,0,0-1.57.34h-.09C29.38,54.92,21.32,62,21.68,74.5c.6,17.22,3.23,27.59,11.52,43.69,4.7,7.64,10.26,9.25,15.5,8.66C53.4,133.81,61.62,150.53,64.23,185Z" transform="translate(-3.53 -0.48)"/><path class="cls-1" d="M95,44.78a6.44,6.44,0,0,0-4.08.12A347.08,347.08,0,0,1,49,57.71l-3.13.69c-3.13.66-5.58,1.1-7.33,1.38-1.15.18-2,.3-2.53.37l-.58.07h-.13a6.48,6.48,0,0,0,.61,12.92l.62,0h0A128.15,128.15,0,0,0,50.6,70.62,354.2,354.2,0,0,0,95.43,57.06a6.48,6.48,0,0,0,2.9-10l-.09-.1A6.49,6.49,0,0,0,95,44.78Z" transform="translate(-3.53 -0.48)"/></svg>