<svg id="Layer_1" data-name="Layer 1" xmlns="http://www.w3.org/2000/svg" width="200" height="200" viewBox="0 0 200 200"><defs><style>.cls-1{fill:#4da3c9;}</style></defs><title>handball_icon</title><path class="cls-1" d="M101.33,1a100.45,100.45,0,0,1,18.51,1.77L103,21,64.87,29.31,49.69,15.49A99.32,99.32,0,0,1,101.33,1Z" transform="translate(-1.33 -1)"/><path class="cls-1" d="M127.83,4.66a99.87,99.87,0,0,1,50.85,33L165.74,57.79l-34.86-7.59L109.63,24.39,127.83,4.66Z" transform="translate(-1.33 -1)"/><path class="cls-1" d="M43.49,19.51,59.55,34.13,44.86,68.47,18.88,88,3.69,79.67a100,100,0,0,1,39.8-60.16Z" transform="translate(-1.33 -1)"/><path class="cls-1" d="M103.54,28.22,125.8,55.29,113.12,87.2,74.06,93.73,52,70,66.39,36.29Z" transform="translate(-1.33 -1)"/><path class="cls-1" d="M183.24,43.75a99.74,99.74,0,0,1,18.09,57.39,101,101,0,0,1-1.93,19.49l-21.69-20.31-6.56-37.76Z" transform="translate(-1.33 -1)"/><path class="cls-1" d="M132.47,57.86l31.82,6.93,6.28,36.14-27.39,13.71-23.35-25Z" transform="translate(-1.33 -1)"/><path class="cls-1" d="M47.34,75.54,68.73,98.48l-10.94,34.4-26.72-4.46-7.9-34.73L47.34,75.54Z" transform="translate(-1.33 -1)"/><path class="cls-1" d="M2.42,87.12l13.64,7.46,8.09,35.68-8.11,23A97.78,97.78,0,0,1,2.42,87.12Z" transform="translate(-1.33 -1)"/><path class="cls-1" d="M114.32,94.26,138.39,120,127.13,157l-37,6.45-25.85-27.3L75.5,100.74Z" transform="translate(-1.33 -1)"/><path class="cls-1" d="M174.41,107l23,21.57a99.64,99.64,0,0,1-14.51,30.36l-35.69,12.28-13.59-11.14,11.72-38.55,29-14.53Z" transform="translate(-1.33 -1)"/><path class="cls-1" d="M29.89,135.47l28.32,4.72L84.58,168l-7.49,16.26L43.27,182.6A100.36,100.36,0,0,1,21,160.66Z" transform="translate(-1.33 -1)"/><path class="cls-1" d="M127.45,164.23l14.44,11.83-11.3,20.86a99.68,99.68,0,0,1-20,3.9l-26.8-14.1,7.46-16.19Z" transform="translate(-1.33 -1)"/><path class="cls-1" d="M174.34,169.47a100.07,100.07,0,0,1-33.61,23.74l8.09-15Z" transform="translate(-1.33 -1)"/><path class="cls-1" d="M56.1,190.4l21.39,1.08L95.63,201A99.28,99.28,0,0,1,56.1,190.4Z" transform="translate(-1.33 -1)"/></svg>