<svg id="Layer_1" data-name="Layer 1" xmlns="http://www.w3.org/2000/svg" width="200" height="181.94" viewBox="0 0 200 181.94"><defs><style>.cls-1{fill:#fff;}</style></defs><title>high_jump_icon_wht</title><circle class="cls-1" cx="46.64" cy="51.94" r="17.67" transform="translate(-10.09 -8.99) rotate(-7.14)"/><path class="cls-1" d="M202.17,43.46C194.73,33,186.5,25.83,178.06,21.35a52,52,0,0,0-24.58-6.16,60.25,60.25,0,0,0-24.17,5.31A56.11,56.11,0,0,0,119.37,26c-.24.18-.47.37-.69.56-11.35,4.73-25,6.38-34.78,8C75.79,35.15,68,41.15,68.79,48a14.23,14.23,0,0,0,2,5.66A117.27,117.27,0,0,0,81.21,71.6,105.68,105.68,0,0,0,94.13,86.7L84.1,89V79.59H74.68v82.47H8.7A4.71,4.71,0,0,0,4,166.77v30.37H141.17V166.77a4.71,4.71,0,0,0-4.71-4.71H84.1v-69L97.65,89.9a72.67,72.67,0,0,0,17.72,11.37,6.28,6.28,0,0,0,5.09-11.49,53.34,53.34,0,0,1-6.78-3.61l33.54-7.81V197.14h9.42V60.28h-9.42V74.34l-37.9,8.82a74.59,74.59,0,0,1-8.78-7.82A39.44,39.44,0,0,1,95,73.16a40,40,0,0,1-12.12-9.1c-.82-.9-1.56-1.8-2.25-2.68a40.61,40.61,0,0,1-6-10.64v0l0-.09a7.8,7.8,0,0,1,.39-6,7.89,7.89,0,0,1,.69-1.14,7.85,7.85,0,0,1,13.78,2.07l.06.15c.09.21.23.56.44,1A27.2,27.2,0,0,0,92,50.41,25.53,25.53,0,0,0,101.82,59a24.39,24.39,0,0,0,4.51,1.65c7.94-1.59,15.28-4.37,24.6-9.1,6.63-4,8.62-8.74,8.59-13.32a37,37,0,0,1,11.08-1.76,29.32,29.32,0,0,1,13.53,3.21c4.66,2.39,9.61,6.37,14.59,13.36a9.82,9.82,0,0,0,9.64,4,9.82,9.82,0,0,0,13.81-13.61Z" transform="translate(-3.99 -15.19)"/><path class="cls-1" d="M90.73,51.3a28.83,28.83,0,0,1-2.26-3.92c-.23-.48-.38-.86-.48-1.09l-.09-.23h0A6.28,6.28,0,0,0,76,50.12h0A39.43,39.43,0,0,0,83.17,62c.27.32.54.63.83,1a38.55,38.55,0,0,0,11.64,8.75c.83.41,1.71.78,2.6,1.13a41.5,41.5,0,0,0,15.36,2.83h0a55.35,55.35,0,0,0,11.19-1.2,6.28,6.28,0,1,0-2.54-12.31,42.87,42.87,0,0,1-8.65.94,28.88,28.88,0,0,1-10.6-1.88c-.66-.26-1.3-.53-1.91-.82A27,27,0,0,1,90.73,51.3Z" transform="translate(-3.99 -15.19)"/></svg>