<?xml version="1.0" encoding="utf-8"?>
<!-- Generator: Adobe Illustrator 19.2.1, SVG Export Plug-In . SVG Version: 6.00 Build 0)  -->
<svg version="1.1" id="Layer_1" xmlns="http://www.w3.org/2000/svg" xmlns:xlink="http://www.w3.org/1999/xlink" x="0px" y="0px"
	 width="100px" height="100px" viewBox="0 0 100 100" style="enable-background:new 0 0 100 100;" xml:space="preserve">
<style type="text/css">
	.st0{fill:#FFFFFF;}
	.st1{fill:#0F1010;}
</style>
<g id="_x39_JTEZ5_1_">
	<g>
		<path class="st0" d="M47.6,1.4c1.3-0.3-0.3-0.8,0.1-1.2l0,0c0.6-0.1,1.2-0.1,1.8-0.2c0.4,0,0.8,0,1.2,0c0.8,0,1.6,0.1,2.4,0.1
			c0.3,0.3,0.3,0.5,0,0.8C53,0.9,52.8,1,52.7,1.1c0,0,0,0.2,0,0.3c1.2,0.9,2.6,0.9,4,0.5c0.8,0,1.5,0,2.3,0
			c-0.2-0.4-0.3-0.8-0.5-1.2c1.4,0.2,2.8,0.5,4.2,0.7c1.2,2.5,3.9,3.4,6,2.1c4,1.7,7.9,3.5,10.9,6.8c-0.1,0.2-0.3,0.3-0.4,0.5
			c-0.9-0.3-1.8-1.6-2.5-0.6c-0.7,0.9,0.5,1.7,1.2,2.4c1.3,1.3,2.7,2.4,4.7,2.6c0.4-1.5-0.9-2-1.3-2.9c0.1-0.2,0.3-0.3,0.4-0.5
			c1.2,0.7,2.8,1.1,2.8,3c0,0.5,0.8,1.1,1.3,1.5c3.9,2.9,6.4,6.9,8.8,10.9c-0.9,0.7-1.4,0.4-2-0.6c-0.6-1.1-1.2-3.6-2.7-2.6
			c-1.5,1,0.1,2.8,0.9,4.1c0.5,0.7,1.1,1.4,1.8,1.9c0.6,0.4,0.7-0.4,0.9-0.8c0.1-0.1,0.2-0.2,0.4-0.3c0.2,0,0.4,0,0.6,0
			c0,0.2,0,0.4,0,0.6c0.5,1.3,0.4,2.9,2.4,3c0.7,2.4,1.7,4.8,1.9,7.2c0.2,2.3-1.9,4.8,1.1,6.6c-0.2,5.1,0.2,10.5-1.5,15.3
			c-0.8,2.2-1.1,4.5-1.8,6.7c-1.1,3.3-3.7,5.6-5.1,8.6c-1.7,1.1-3.8,1.7-4.6,3.8c0.2,2.8-1.4,4.2-3.4,5.8c-4,3.3-8.2,6.5-12.8,8.7
			c-4.5,2.2-9.4,3.6-14.6,3.9c-0.5,0-1-0.1-1.2,0.6c-3,0-6,0-9,0c-3.7-1.1-7.7-0.9-11.2-2.5c-0.3-0.1-0.5-0.3-0.7-0.5
			c0.3-0.1,0.5-0.3,0.8-0.4c-0.2,0-0.3-0.1-0.5-0.1c-0.3,0.1-0.5,0.2-0.2,0.5c-6.7-2.6-12.7-6.2-18.3-10.7c-1.4-1.2-1.5-3-2.8-4.1
			c-6.7-5.8-9.7-13.8-11.5-22c-0.9-4.1-1.8-8.5-1.3-12.9c1-9.6,3.6-18.6,9.4-26.3c2.3-3.1,5.7-5.4,7.9-8.7c0.1,0.2,0.2,0.4,0.3,0.6
			c-0.1,0.8-0.7,2.1,0.9,1.6c2.1-0.6,3.9-2,5.1-3.9c0.2-0.3,0.4-0.7,0.1-1c-0.5-0.6-0.9,0-1.2,0.2c-1.1,0.9-2.2,1.7-3.6,2
			c-0.2-0.2-0.4-0.4-0.6-0.6c6.5-6,15-7.8,23.1-10.5c-0.3,0.5-0.9,1.4,0.4,1.3C43.8,2,45.8,2.2,47.6,1.4z M18.9,86.1
			c-0.3-0.3-0.5-0.6-0.8-0.9c-0.6-0.9-1.2-1.7-2.2-3.1c0.1,1.9,0.7,2.8,1.7,3.5c0.3,0.3,0.6,0.6,0.8,0.9c0.8,0.7,1.5,1.5,3.2,1.4
			C20.4,87.1,19.7,86.6,18.9,86.1z M28.2,89.4c-0.9-0.9-1.7-1.8-1.8-3.9c-1.3,2.6,0.1,3.5,1.3,4.4c1.3,1.3,2.8,2,4.9,1.5
			C30.9,90.9,29.5,90.2,28.2,89.4z M18.5,22.1c-1.2,1-2.2,2.3-4,2.3c-0.6,0-1.2-1.1-1.7-0.1c-0.3,0.6-0.2,1.4,0.2,2
			c0.6,0.7,1.5,0.6,2.2,0.3c1.7-0.9,3.2-2,3.7-3.9c0.5-0.3,0.7-1,0.4-1.2C18.7,20.9,18.8,21.9,18.5,22.1z M20.7,54.4
			c-1.1,2.8-0.4,5.7,1.9,7.4c1.8,1.4,3.4,1.3,5.1-0.1C22.7,61.2,21,59.4,20.7,54.4l0-0.1L20.7,54.4z M86.8,68.8
			c-2.8,0.8-5.2,4-4.8,6.5c0.2,1.1,0.7,1.9,2,1.7c0.4-0.1,1.5-0.3,1.1-0.9C83.3,73,86,71.1,86.8,68.8l0.1-0.1L86.8,68.8z M79.2,41.3
			c-5.4-0.8-6.9-4.2-6.4-9.1c-2.8,2.9-2.9,6.2-0.6,8.7C74.3,43.2,76.3,43.4,79.2,41.3z M64,20c-4.3,0.6-7.8-0.3-9.2-4.9
			c-1.8,3-1.4,4.9,1.2,6.5C58.8,23.4,62,22.8,64,20z M77.9,22.2c-3.4-0.5-5.9-1.8-7-5.1c-0.2-0.5-0.5-0.9-1.1-0.7
			c-0.6,0.2-1,0.8-1.1,1.3c-0.4,2.8,1.3,4.5,3.5,5.7C74.2,24.6,76.2,25.1,77.9,22.2z M55.3,32.5C53,35,53,38.2,55.5,40.5
			c2.5,2.3,5.5,2.4,7.7,0.2C57,39.9,55.4,38.3,55.3,32.5z M83.8,37.6c0.3,2.3,0.9,4.5,3.2,5.7c0.9,0.5,2,0.4,2.6-0.5
			c0.8-1.1-0.5-1.3-0.9-1.7c-1.6-1.5-2.2-3.5-2.4-5.6c-0.1-0.5,0.5-1.3-0.3-1.5c-0.8-0.3-1.2,0.5-1.6,1.1
			C83.9,35.8,83.7,36.7,83.8,37.6z M87.5,25.6c-0.1-0.3,0-0.7-0.2-0.9c-1.6-1.5-3-3.1-4.1-5.1c-0.2-0.4-1.1-0.5-1.7-0.1
			c-0.7,0.4-0.9,1.1-0.7,1.8c0.7,2.4,2,4.3,4.3,5.5C86.6,27.5,87.3,27,87.5,25.6z M74.6,51.7c-3.8,1.6-4.2,6.6-2.7,8.9
			c1.4,2.1,3.4,2.6,6.1,1.2C73.1,60,72.2,57.3,74.6,51.7z M88.1,51.2c-3.5,1.8-4.8,6.2-2.8,8.9c0.8,1.1,1.8,1.5,3.1,0.9
			c0.5-0.2,1.2-0.6,0.5-1.2C86.1,57.3,87.2,54.4,88.1,51.2z M58.6,9.3c0.4,0,0.9,0,1.4-0.1c1-0.2,2.1-0.6,2-1.8
			c-0.1-1.2-1.3-1-2.1-1c-1.5,0-3-0.4-4.2-1.3c-1.1-0.8-2-0.3-2.5,0.6c-0.6,0.9,0,1.7,0.8,2.3C55.4,8.8,56.9,9.2,58.6,9.3z
			 M37.7,16.6c-1.2,2.7-0.8,4.2,1.4,5.3c2.8,1.5,6.2,0.3,8.3-2.8C41.6,20.9,40,20.5,37.7,16.6z M71.7,11.6c0.7,0,1.5,0.2,1.9-0.6
			c0.4-0.8,0-1.4-0.6-1.8c-1.5-1.3-3.4-2.1-5.3-2.7c-0.7-0.2-1.4,0-1.8,0.7c-0.5,0.8,0.1,1.3,0.6,1.8C67.9,10.4,69.8,11.1,71.7,11.6
			z M56.6,52.5c-3,3.1-3.4,6.3-1.3,8.9c1.9,2.4,5,2.8,7.6,1C57,62.4,54.4,58.6,56.6,52.5z M48.3,5.5c-1.6,0.3-2.7,0.5-3.9,0.7
			c-1.3,0.2-2.5-0.2-3.8-0.6c-0.8-0.2-1.3,0.5-1.6,1.1c-0.4,0.8,0.2,1.3,0.8,1.7C42.1,10.1,46.7,8.7,48.3,5.5z M44.8,40.7
			c-6.7-0.6-7.6-1.3-8.8-6.8c-1.5,2.8-1,5.1,1.2,7.1C39.3,42.9,41.8,42.8,44.8,40.7z M93,38.6c-0.5,2.1,0.1,3.6,1,5.1
			c0.3,0.5,0.8,1,1.4,0.8c0.6-0.2,0.8-0.8,0.9-1.4c0.4-1.6-0.4-2.9-0.7-4.3c-0.2-1.2-0.6-2.7-2-2.6C92.1,36.3,93.2,37.9,93,38.6z
			 M32.3,19c-4.3,3.4-5.7,3.5-9,0.9c-0.6,1.9-0.4,3.3,1.7,4C27.5,24.8,30.6,22.8,32.3,19z M93.3,56.4c0.2,1.1-0.4,3.2,1.4,3.1
			c1.6,0,1.9-1.9,1.5-3.6c-0.3-1.1,0.1-2.2,0.2-3.2c0.1-0.7,0.1-1.5-0.7-1.7c-0.8-0.2-1.2,0.5-1.6,1.1
			C93.3,53.4,93.5,54.8,93.3,56.4z M29.9,38.9c-2.4,1.2-3.9,2.6-6.1,1.8c-2.2-0.7-2.5-2.7-3.4-4.4c-0.6,2.7-0.3,5.1,2.6,6.1
			C26,43.6,27.8,41.8,29.9,38.9z M35.9,55.2c-1.1,3-0.4,5.5,2.2,7.3c2.2,1.5,4.6,1.4,7.3-0.1C39,62.2,36.7,60.3,35.9,55.2z
			 M35.2,6.4c-1.5,0.7-2.4,1.3-3.4,1.6c-1.1,0.3-2.2,0.7-3.5,0.5c-0.8-0.1-1.4,0.8-1.4,1.6c-0.1,0.9,0.7,1,1.4,1.1
			C30.8,11.5,33.9,9.5,35.2,6.4z M74.4,70.9c-4,1.9-5.9,4.9-4.8,7.2c0.9,1.9,2.4,2.4,4.5,1.6C70.8,77.3,70.8,75.3,74.4,70.9z
			 M91.2,73.5c0.2-0.1,0.4-0.2,0.5-0.3c2.1-1.7,2.1-4.3,2.8-6.6c0.2-0.7-0.6-0.9-1.2-0.4c-2.1,1.7-2.3,4.2-2.9,6.6
			C90.4,73.2,90.7,73.4,91.2,73.5z M44.9,81.7c-5.6-1.3-7.9-3.2-7-8.1c-1.7,1.6-2,3.3-0.9,5.1C38.6,81.3,41,82.3,44.9,81.7z
			 M56.5,73c-2.4,2.1-3.5,3.9-2.4,6.2c0.8,1.7,2.2,2.7,4.8,1.8C54.8,79.5,55.1,76.8,56.5,73z M84.1,81.7c-3,0.8-4.7,2.2-5.9,4.2
			c-0.4,0.6-0.8,1.3-0.1,1.8c0.8,0.6,1.8,0,1.9-0.7C80.5,84.8,82.4,83.7,84.1,81.7z M15.6,40.2c-3.3,2.3-3.5,2.3-6.5-1.4
			c0.5,2.2,0.3,4.3,2.6,4.6C13.9,43.8,14.9,42,15.6,40.2z M29.8,79.8c-3.8-0.2-5.9-2.7-7.7-6.6C22.4,78.2,25.6,80.6,29.8,79.8z
			 M71.1,86c-2.2,0.5-3.6,1.6-4.4,3.4c-0.5,1.3,0.5,1.7,1.5,2c0.6,0.1,1.3-0.2,0.9-0.7C67.7,88.3,70.4,87.8,71.1,86z M11.8,70.3
			c-0.2,4.5,2.8,7.7,6.1,6.5C14.2,76.3,13,73.4,11.8,70.3z M9.6,57.3c1.8,4.7,3.6,5.4,6.4,2C12.5,61.5,11.4,58.7,9.6,57.3z M10.5,24
			c-1.4,1.6-2.1,3.1-3.6,3.7C6,28.1,6,28.9,6.4,29.5c0.5,0.6,1.1,0.2,1.5-0.3C9.1,27.9,10.3,26.6,10.5,24z M7,40.2
			c-1.2,0.4-0.9,3.5-3.3,1.7c-0.4-0.3-0.4,0.2-0.5,0.4c-0.1,0.7,0.1,1.4,0.7,1.9c0.7,0.6,1.3,0.1,1.7-0.5C6.5,42.7,6.9,41.5,7,40.2z
			 M41.6,92.6c-1.6-1.1-2.6-2.3-1.5-4.6c-1.4,0.7-2.1,1.4-1.8,2.5C38.8,91.9,39.9,92.7,41.6,92.6z M54.9,88.7
			c-0.8,0.7-1.1,0.9-1.3,1.2c-0.6,0.8-0.6,1.6,0,2.4c0.4,0.5,1.1,0.9,1.5,0.5c0.9-0.7-0.5-1.3-0.3-2C55,90.3,54.9,89.8,54.9,88.7z
			 M5.6,68.9c0.4,1.9,1.2,3.6,2.8,4.8c0.3,0.2,0.7,0.4,1-0.1c0.3-0.5-0.1-0.6-0.4-0.8C7.3,72,6.8,70.2,5.6,68.9z M3.3,56.4
			c-0.2,1.5,0.4,2.5,1.5,3.3c0.7,0.5,1.3,0.1,1.6-0.7c0.1-0.2,0.4-0.9-0.1-0.7C4.3,59.2,4.4,56.9,3.3,56.4z"/>
		<path class="st1" d="M215,183.4c0.8,0.7,2.5,1.2,1.5,2.3c-0.8,0.8-1.9-0.6-2.6-1.6C214.2,183.9,214.6,183.7,215,183.4z"/>
		<polygon class="st1" points="-124.5,187.3 -124.4,186.9 -124.6,186.9 		"/>
		<path class="st1" d="M-122.2,184.8c0.4-0.5,0.8-0.9,1.3-1.4c0.4,0.2,0.7,0.5,1.1,0.7c-0.6,0.5-1.1,1-1.7,1.5
			C-121.7,185.4-122,185.1-122.2,184.8z"/>
		<path class="st1" d="M-121.5,185.7c-0.5,0.3-1.1,1-1.5,0c-0.1-0.1,0.6-0.6,0.9-0.9C-122,185.1-121.7,185.4-121.5,185.7z"/>
	</g>
</g>
</svg>
