<?xml version="1.0" encoding="utf-8"?>
<!-- Generator: Adobe Illustrator 19.2.1, SVG Export Plug-In . SVG Version: 6.00 Build 0)  -->
<svg version="1.1" id="Layer_1" xmlns="http://www.w3.org/2000/svg" xmlns:xlink="http://www.w3.org/1999/xlink" x="0px" y="0px"
	 width="100px" height="100px" viewBox="0 0 100 100" style="enable-background:new 0 0 100 100;" xml:space="preserve">
<style type="text/css">
	.st0{fill:#CCCCCC;}
</style>
<g id="_x39_8QpX5_1_">
	<g>
		<path class="st0" d="M40,91.6c-8.6,0-17.1,0-25.7,0c0-0.2,0-0.5,0-0.7c0-13,0-25.9,0-38.9c0-0.5,0.2-0.8,0.5-1
			c11.5-8.3,23.1-16.7,34.6-25c0.4-0.3,0.6-0.3,1,0C61.9,34.3,73.5,42.7,85,51.1c0.2,0.2,0.4,0.5,0.4,0.8c0,13.1,0,26.1,0,39.2
			c0,0.1,0,0.3,0,0.5c-8.5,0-17,0-25.6,0c0-8.8,0-17.7,0-26.6c-6.7,0-13.2,0-19.9,0C40,73.8,40,82.7,40,91.6z"/>
		<path class="st0" d="M100,44.6c-1.8,2.5-3.6,4.9-5.4,7.4c-0.2-0.1-0.4-0.2-0.5-0.3C79.7,41.2,65.2,30.8,50.8,20.3
			c-1.1-0.8-0.7-0.8-1.7,0C34.7,30.8,20.3,41.2,5.9,51.7c-0.2,0.1-0.3,0.2-0.5,0.4c-1.8-2.5-3.6-4.9-5.4-7.4
			c0.2-0.1,0.3-0.3,0.5-0.4C16.8,32.4,33.1,20.6,49.4,8.7c0.4-0.3,0.7-0.3,1,0C57.7,14,65,19.3,72.3,24.6c0.3,0.2,0.5,0.4,0.9,0.6
			c0-5.7,0-11.2,0-16.8c4.1,0,8.2,0,12.4,0c0,0.3,0,0.5,0,0.8c0,8.1,0,16.2,0,24.3c0,0.5,0.1,0.8,0.5,1.1c4.5,3.2,8.9,6.4,13.4,9.7
			C99.6,44.3,99.8,44.4,100,44.6z"/>
	</g>
</g>
</svg>
