<?xml version="1.0" encoding="utf-8"?>
<!-- Generator: Adobe Illustrator 21.0.2, SVG Export Plug-In . SVG Version: 6.00 Build 0)  -->
<svg version="1.1" id="Layer_1" xmlns="http://www.w3.org/2000/svg" xmlns:xlink="http://www.w3.org/1999/xlink" x="0px" y="0px"
	 viewBox="0 0 200 200" style="enable-background:new 0 0 200 200;" xml:space="preserve">
<style type="text/css">
	.st0{fill:#FFFFFF;}
</style>
<g>
	<path class="st0" d="M200,64.5c-3.7,1.3-7.2,2.5-10.7,3.6c-8.6,2.9-17.3,5.7-26,8.5c-13.3,4.4-26.6,8.7-39.9,13.1
		c-7.1,2.3-14.3,4.7-21.4,7c-0.7,0.2-1.7,0.2-2.4,0c-10.9-3.5-21.8-7-32.7-10.6c-12.2-4-24.4-7.9-36.6-11.9
		C20.6,71.2,11,68.1,1.4,65C1,64.8,0.7,64.7,0,64.5c3-1.2,5.7-2.3,8.5-3.3c9-3.4,18-6.8,27-10.2c10.1-3.8,20.1-7.6,30.2-11.4
		C75.9,35.7,86,31.9,96.2,28c1.3-0.5,2.6-1,3.9-1.4c0.5-0.2,1.2-0.1,1.7,0.1c11,4.2,22,8.5,33,12.7c14.6,5.6,29.2,11.2,43.7,16.8
		C185.6,58.8,192.6,61.6,200,64.5z"/>
	<path class="st0" d="M40.9,81.1c1.6,0.5,3.1,0.9,4.6,1.4c10,3.4,20,6.8,30,10.1c7.7,2.6,15.4,5.2,23.2,7.8c0.7,0.2,1.6,0.3,2.3,0.1
		c14.5-4.8,29-9.7,43.5-14.5c4.9-1.6,9.7-3.2,14.6-4.8c0.2-0.1,0.5-0.1,0.8-0.2c0,9.3,0,18.5,0,27.8c-2.6,0.1-5.2,0.2-7.7,0.4
		c-10.8,1.1-21.1,3.8-31.2,8c-6.8,2.8-13.3,6.2-19.6,10c-0.7,0.4-1.2,0.5-2,0.1c-12.7-7.7-26.2-13.3-40.7-16.4
		c-5.8-1.2-11.7-1.7-17.7-2.6C40.9,99.6,40.9,90.5,40.9,81.1z"/>
	<path class="st0" d="M167.4,128.3c-2.3-2.8-2.8-5.7-0.4-7.9c1.9-1.7,1.8-3.5,1.8-5.5c0-11.8,0-23.6,0-35.4c0-1.5,0.4-2.3,1.9-2.5
		c1-0.2,1.9-0.5,3.1-0.9c0,0.8,0,1.5,0,2.1c0,12.9,0,25.7,0,38.6c0,1.2,0.2,2,1.2,2.9c2.8,2.3,2.7,5.9-0.3,9
		c2.7,1.9,2.3,4.7,2.3,7.5c0,11.8,0,23.6,0,35.4c0,1.4-0.3,2-1.9,1.9c-2.8-0.1-5.5-0.1-8.3,0c-1,0-1.3-0.3-1.3-1.3
		c0-13,0-26,0.1-39.1C165.6,131.6,166.7,130.1,167.4,128.3z"/>
</g>
</svg>
