<svg xmlns="http://www.w3.org/2000/svg" width="98.324" height="98.213" viewBox="0 0 27.531 27.5">
  <defs>
    <style>
      .cls-1 {
        fill: #3f729b;
        fill-rule: evenodd;
      }
    </style>
  </defs>
  <path id="instagram_icon" data-name="instagram icon" class="cls-1" d="M259.278,1121a8.32,8.32,0,1,1-16.639,0,12.527,12.527,0,0,1,.128-1.6H237.2v11.01a4.34,4.34,0,0,0,4.287,4.35H260.43a4.34,4.34,0,0,0,4.288-4.35V1119.4h-5.632A6.471,6.471,0,0,1,259.278,1121Zm1.152-13.76H241.487a4.288,4.288,0,0,0-4.287,4.29v4.67h6.975a8.125,8.125,0,0,1,6.784-3.52,8.209,8.209,0,0,1,6.783,3.52h6.976v-4.67A4.289,4.289,0,0,0,260.43,1107.24Zm2.048,5.31a0.776,0.776,0,0,1-.768.77h-2.3a0.823,0.823,0,0,1-.768-0.77v-2.3a0.779,0.779,0,0,1,.768-0.77h2.3a0.74,0.74,0,0,1,.768.77v2.3Zm-6.4,8.45a5.12,5.12,0,1,0-5.119,5.12A5.093,5.093,0,0,0,256.078,1121Z" transform="translate(-237.188 -1107.25)"/>
</svg>
