<svg id="Layer_1" data-name="Layer 1" xmlns="http://www.w3.org/2000/svg" width="200" height="179.86" viewBox="0 0 200 179.86"><defs><style>.cls-1{fill:#fff;}</style></defs><title>javelin_throw_icon_wht</title><path class="cls-1" d="M169.09,131.48a53.6,53.6,0,0,0-16.43-6.25C150,109.15,145,97.71,136.71,83.4a28.46,28.46,0,0,1,3-1.68c4.33-2.08,11.18-4.2,21.51-4.21A90.27,90.27,0,0,1,175,78.63,5.36,5.36,0,1,0,176.61,68a100.84,100.84,0,0,0-15.37-1.24c-12.6,0-21.5,2.81-27.29,5.83a33.16,33.16,0,0,0-7.08,4.84L106.94,90.6l0,0h0A27,27,0,0,1,96.5,92.7a23.51,23.51,0,0,1-13-3.82c-4.06-2.63-8.32-7-12.18-14.48l-2.17,2.06L63.27,82c4.25,7.36,9.2,12.5,14.4,15.85a34.27,34.27,0,0,0,18.76,5.55h.07a38.66,38.66,0,0,0,11.23-1.7c6.82,6.63,13.7,13.92,15.47,29.32a8.31,8.31,0,0,0,.2,2.11c0,.21,0,.41,0,.62,0,0,0,.05,0,.08,0,1.45-.35,5.53-4.41,12.46s-11.95,16.61-26.89,28.6A8.38,8.38,0,1,0,102.64,188c16.11-12.95,25.44-24,30.83-33.16a50.87,50.87,0,0,0,5.77-13.58,8.39,8.39,0,0,0,1.48-.1l.54-.05c.41,0,1-.07,1.79-.07a35.46,35.46,0,0,1,17.62,5c7.36,4.31,15.7,12.21,22.48,28.15a8.38,8.38,0,0,0,15.43-6.52C190.69,148.82,179.68,137.6,169.09,131.48Z" transform="translate(0.76 -9.95)"/><circle class="cls-1" cx="110.74" cy="65.69" r="15.07" transform="translate(-10.08 13.35) rotate(-11.45)"/><path class="cls-1" d="M67.49,68.92a5.36,5.36,0,0,0-7.37,7v0l4.47-4.24Z" transform="translate(0.76 -9.95)"/><path class="cls-1" d="M134.5,10c-.72-.76-29.94,25.74-65.88,59.74l-3.09,2.92-4.79,4.55c-35.06,33.32-62.19,60.21-61.48,61s28.57-24.5,63.33-57.33l5.64-5.33,2.46-2.33C106.86,38.8,135.23,10.74,134.5,10Z" transform="translate(0.76 -9.95)"/></svg>