<svg id="Layer_1" data-name="Layer 1" xmlns="http://www.w3.org/2000/svg" width="163.95" height="200" viewBox="0 0 163.95 200"><defs><style>.cls-1{fill:#fff;}</style></defs><title>lacrosse_icon_wht</title><path class="cls-1" d="M107.14,32.75a16,16,0,1,0-16-16A16.05,16.05,0,0,0,107.14,32.75Z" transform="translate(-20.69 -0.67)"/><path class="cls-1" d="M80.25,141a143.59,143.59,0,0,1-8.1-13.39l-.27-2.27-2.33,4-41.28,1.15A7.73,7.73,0,1,0,28.7,146s36.42-1.32,42.62-1.19S80.25,141,80.25,141Z" transform="translate(-20.69 -0.67)"/><circle class="cls-1" cx="148.43" cy="44.64" r="4.07"/><path class="cls-1" d="M94.75,122.77c2.55-4.41,5.13-9.27,7.48-14.33,3-6.55,5.67-13.44,7.79-19.57l-6.68,4.43a12.05,12.05,0,0,1-1.56,7.94,12.2,12.2,0,0,1-10.45,6,11.06,11.06,0,0,1-5.86-1.69l-11.7-7.11h0a20.56,20.56,0,0,1-4.43-3.64l-.49,4c-1.21,10.48,6.23,23.82,6.57,24.5a162.18,162.18,0,0,0,11.46,19.51L74.23,190.92a7.72,7.72,0,1,0,14.93,3.92l12.63-48.19s2.22-7.17.45-11.14Z" transform="translate(-20.69 -0.67)"/><path class="cls-1" d="M181.33,36.3a15.49,15.49,0,0,0-12.18-6.48A11.83,11.83,0,0,0,162,32.15c-2.1,1.57-3.43,4.14-4.84,6.87-.7,1.34-2,3.84-2.67,4.38a10.38,10.38,0,0,0-3.35,12.33L134.18,67l-.07-.05-.26-.19-.11-.07a7.2,7.2,0,0,0-.64-.37h0l-.24-.11-.22-.1-.22-.09-.26-.09-.21-.07-.31-.09-.17,0-.5-.1a7.29,7.29,0,0,0-8.33,6.05l-5.85-5.21.93-3.5a35.58,35.58,0,0,0-.27-28.07,20.85,20.85,0,0,1-24.19-2.63L81,36S59.86,65.62,55,72.46s6.39,13.33,6.39,13.33l26.24,15.53A7.28,7.28,0,1,0,95,88.78L71.78,75.11l3.28-3.2c1.95.79,3.18,1.36,3.18,1.36L97.52,84.6a12.09,12.09,0,0,1,4.11,4L122,75.08l-1.17,6.61-7.18,4.77,7.35,5s9.83,2.43,13.87-1.84c1.7-7.21,2.9-16.92,2.9-17.12v0c0-.48-.44-.95-.55-1.41l17-11.41A10.17,10.17,0,0,0,167,60c.7-.5,3.45-1,4.93-1.31,3-.58,5.85-1.13,8-2.69a12.31,12.31,0,0,0,4.79-9.49A16.13,16.13,0,0,0,181.33,36.3Zm-4.4,15.82c-2.51,1.88-9.95,1.79-12.92,4a5.52,5.52,0,0,1-6.6-8.84c3-2.22,5-9.37,7.51-11.25a7,7,0,0,1,4.24-1.36,10.68,10.68,0,0,1,8.29,4.53C180.75,43.65,180.52,49.43,176.92,52.12Z" transform="translate(-20.69 -0.67)"/></svg>