<?xml version="1.0" encoding="utf-8"?>
<!-- Generator: Adobe Illustrator 19.2.1, SVG Export Plug-In . SVG Version: 6.00 Build 0)  -->
<svg version="1.1" id="Layer_1" xmlns="http://www.w3.org/2000/svg" xmlns:xlink="http://www.w3.org/1999/xlink" x="0px" y="0px"
	 width="300px" height="300px" viewBox="0 0 300 300" style="enable-background:new 0 0 300 300;" xml:space="preserve">
<style type="text/css">
	.st0{fill:#4DA3C9;}
</style>
<g>
	<path class="st0" d="M61.8,0c10.4,2.7,18.6,9.1,26.5,15.9c11.1,9.5,20.9,20.2,28.4,32.8c3.4,5.6,6.1,11.4,7,17.9
		c0.8,5.6-0.6,10.4-4.8,14.4c-6.8,6.4-14.4,11.4-22.3,16.3c-2.7,1.7-5.4,3.5-8,5.4c-7.4,5.5-9.7,13-8.3,21.9
		c1.3,8.3,5.2,15.4,9.9,22.1c5.8,8.3,12.5,15.8,19.6,22.8c10.6,10.6,21.3,21.1,32.3,31.3c6.6,6.2,13.9,11.5,22.2,15.3
		c4.3,2,8.8,3.3,13.5,3.7c7.5,0.6,13.9-1.6,18.7-7.7c2.6-3.3,4.9-6.8,7.1-10.3c4.5-7.1,9.2-14,14.8-20.2c4.7-5.2,10.3-6.5,16.9-5.2
		c6.9,1.4,13.1,4.6,18.9,8.4c15.8,10.5,29.1,23.6,39.7,39.4c2.8,4.3,5.1,8.8,6.3,13.8c0,1.2,0,2.4,0,3.7c-1,3.6-2.6,6.9-4.8,10
		c-3.6,5.2-7.9,9.8-12.4,14.1c-12.7,12.2-26.7,22.8-41.2,32.9c-0.5,0.3-0.9,0.8-1.4,1.1c-1.5,0-3.1,0-4.6,0
		c-1.2-0.1-2.3-0.3-3.5-0.4c-11.8-1.4-23.2-4.5-34.3-8.5c-32.1-11.5-61.8-27.6-89.5-47.3c-14.6-10.4-28.2-22.1-39.6-36
		c-24-29.1-42.4-61.5-56.4-96.5c-5-12.5-9.1-25.4-11.3-38.8c-0.5-2.6-0.8-5.3-1.2-8c0-1.5,0-3.1,0-4.6c0.4-0.5,0.9-1,1.2-1.5
		C11.4,43.6,22,29.4,34.5,16.7C41.3,9.7,48.3,2.8,58.2,0C59.4,0,60.6,0,61.8,0z"/>
</g>
</svg>
