<?xml version="1.0" encoding="utf-8"?>
<!-- Generator: Adobe Illustrator 21.0.2, SVG Export Plug-In . SVG Version: 6.00 Build 0)  -->
<svg version="1.1" id="Layer_1" xmlns="http://www.w3.org/2000/svg" xmlns:xlink="http://www.w3.org/1999/xlink" x="0px" y="0px"
	 viewBox="0 0 100 100" style="enable-background:new 0 0 100 100;" xml:space="preserve">
<style type="text/css">
	.st0{fill:#FFFFFF;}
</style>
<g id="p00HU0_1_">
	<g>
		<path class="st0" d="M0,19.5c0-1.7,0-3.4,0-5.1c0.2,0,0.5,0,0.7,0c6.1,0,12.1,0,18.2,0c0.8,0,1-0.2,1-1c0-1.3,0-2.7,0-4
			c20.1,0,40.1,0,60.2,0c0,1.3,0,2.7,0,4c0,0.8,0.2,1,1,1c5.4,0,11,0,16.4,0c0.8,0,1.7,0,2.5,0c0,1.7,0,3.4,0,5.1
			c0,0.3-0.2,0.5-0.2,0.8c-0.5,5.6-1.7,11-4,16c-1.9,3.9-4.2,7.3-7.4,9.9c-2.9,2.4-6.2,4-9.9,4.7c-2.9,0.7-5.7,0.8-8.6,0.7
			c-0.3,0-0.8,0.2-1,0.3c-0.7,0.7-1.2,1.5-1.7,2.2c-2.9,3.2-6.1,6.1-10.1,7.6c-0.7,0.2-0.8,0.5-0.8,1.2c0,4.2,0,8.4,0,12.6
			c0,0.8,0.3,1,1,1c4.2,0,8.3,0,12.5,0c0.3,0,0.7,0,1,0c0,0.3,0,0.7,0,1c0,2.4,0,4.7,0,7.3c0,0.7,0.2,0.8,0.8,0.8c1.3,0,2.5,0,3.9,0
			c0,1.7,0,3.4,0,4.9c-16.7,0-33.4,0-50.1,0c0-1.7,0-3.2,0-4.9c1.3,0,2.5,0,3.9,0c0.7,0,0.8-0.2,0.8-0.8c0-2.4,0-4.9,0-7.3
			c0-0.3,0-0.5,0-0.8c0.3,0,0.7,0,1,0c4.2,0,8.4,0,12.6,0c0.7,0,0.8-0.2,0.8-0.8c0-4.4,0-8.6,0-13c0-0.5-0.2-0.8-0.7-1
			c-1-0.5-2.2-1-3.2-1.5c-3.4-2-6.1-4.7-8.4-7.8c-1.2-1-1.7-1.2-2.5-1c-3.2,0.3-6.2,0-9.3-0.8c-6.4-1.7-11-5.6-14.5-11.1
			c-3-4.9-4.6-10.3-5.4-16C0.3,22.3,0.2,20.8,0,19.5z M26.8,45.3c0-0.2,0-0.3,0-0.3c-0.2-0.2-0.2-0.5-0.3-0.7
			c-1.5-2.9-2.7-6.1-3.7-9.3c-1.3-4.4-2-8.8-2.5-13.2c0-0.7-0.3-0.8-0.8-0.8c-3.9,0-7.9,0-11.8,0c-0.2,0-0.5,0-0.7,0
			c0,0.2,0,0.3,0,0.5c0.5,4.7,1.7,9.1,3.9,13.3c2.7,4.9,6.4,8.4,12,9.8C24.1,44.9,25.5,45.1,26.8,45.3z M73,45.1
			c3.4-0.2,6.4-0.8,9.1-2.5c3.7-2.2,6.1-5.6,7.8-9.4c1.3-3,2.4-6.4,2.9-9.6c0.2-0.8,0.2-1.7,0.3-2.5c-0.2,0-0.2-0.2-0.3-0.2
			c-4.2,0-8.4,0-12.6,0c-0.5,0-0.5,0.2-0.7,0.7c-0.2,1.3-0.3,2.5-0.5,3.7c-0.7,4.6-1.7,9.1-3.4,13.5C74.9,40.9,74,42.9,73,45.1z"/>
	</g>
</g>
</svg>
