<?xml version="1.0" encoding="utf-8"?>
<!-- Generator: Adobe Illustrator 19.2.0, SVG Export Plug-In . SVG Version: 6.00 Build 0)  -->
<svg version="1.1" id="Layer_1" xmlns="http://www.w3.org/2000/svg" xmlns:xlink="http://www.w3.org/1999/xlink" x="0px" y="0px"
	 width="102.1px" height="92.7px" viewBox="0 0 102.1 92.7" style="enable-background:new 0 0 102.1 92.7;" xml:space="preserve">
<style type="text/css">
	.st0{fill:#FFFFFF;}
</style>
<path id="like_icon" class="st0" d="M99.2,35.3c-1.7-1.7-4.1-2.7-6.5-2.7H63.4l4.6-21.3V9.8c0-1.8-0.7-3.5-2-4.8l-5-5L30.6,30.7
	c-1.8,1.7-2.8,4-2.8,6.5v46.2c0.2,5.1,4.2,9.2,9.3,9.3h41.7c3.8,0.3,7.3-2,8.5-5.6l14.1-32.6c0.4-1.1,0.7-2.3,0.7-3.5v-8.9h-0.2
	l0.2-0.4C102,39.3,101,37,99.2,35.3z M18.7,92.7V37.2H0v55.6H18.7z"/>
</svg>
