<svg xmlns="http://www.w3.org/2000/svg" width="97.793" height="49.264" viewBox="0 0 16.625 8.375">
  <defs>
    <style>
      .cls-1 {
        fill: #1abc9c;
        fill-rule: evenodd;
      }
    </style>
  </defs>
  <path id="link_icon" data-name="link icon" class="cls-1" d="M580.406,688.231v1.6h3.36a2.578,2.578,0,0,1,0,5.156h-3.36v1.6h3.36a3.956,3.956,0,0,0,2.929-1.231,4.2,4.2,0,0,0,0-5.9,3.959,3.959,0,0,0-2.929-1.23h-3.36Zm2.5,5V691.59h-6.64v1.641h6.64Zm-7.5-3.4h3.36v-1.6h-3.36a3.956,3.956,0,0,0-2.929,1.23,4.2,4.2,0,0,0,0,5.9,3.953,3.953,0,0,0,2.929,1.231h3.36v-1.6h-3.36a2.578,2.578,0,0,1,0-5.156h0Z" transform="translate(-571.281 -688.219)"/>
</svg>
