<?xml version="1.0" encoding="utf-8"?>
<!-- Generator: Adobe Illustrator 19.2.1, SVG Export Plug-In . SVG Version: 6.00 Build 0)  -->
<svg version="1.1" id="Layer_1" xmlns="http://www.w3.org/2000/svg" xmlns:xlink="http://www.w3.org/1999/xlink" x="0px" y="0px"
	 width="100px" height="100px" viewBox="0 0 100 100" style="enable-background:new 0 0 100 100;" xml:space="preserve">
<style type="text/css">
	.st0{fill:#FFFFFF;}
</style>
<g id="IVwhLM_1_">
	<g>
		<g>
			<path class="st0" d="M89.7,30.5c-3.8,6.5-6.3,7.3-12.4,5.5C59,30.3,40.4,30.4,22,35.6c-6.2,1.8-8.7,1-12.4-5.3
				c1.7-1.1,3.3-2.5,5.1-3.3c14.2-5.9,29-8.1,44.1-6.1c8.1,1.1,16,3.3,23.8,5.4C85.2,27,87.4,29.1,89.7,30.5z"/>
			<path class="st0" d="M0,73.7c2.8-2.1,5.1-3.9,7.5-5.5c9.3-6.6,18.8-13,28-19.7c2.5-1.8,4.4-2.2,6.8,0c1.5,1.4,3.4,2.5,5.5,4
				c-5.5,3.9-10.6,7.5-15.7,11.2c-6.8,5-13.7,9.9-20.4,15c-1.9,1.4-3.3,1.8-5.2,0.1C4.7,77.1,2.6,75.7,0,73.7z"/>
			<path class="st0" d="M63.5,48.8c12.1,8.5,24,16.9,36.5,25.6c-3.5,1.9-6.3,3.6-9.3,5c-0.8,0.4-2.4,0-3.3-0.6
				C79.3,73,71.3,67,63.2,61.3c-1.7-1.2-2.1-2.3-1.4-4.3C62.6,54.5,62.9,51.9,63.5,48.8z"/>
			<path class="st0" d="M62.2,43.8c9.8-1.2,19.8-1.8,27.5-9.3c2.2,11.6-1.2,16.3-13.6,19.2C73.2,54.3,63.2,47.4,62.2,43.8z"/>
			<path class="st0" d="M36.9,45.5c-3.6,2.5-7.2,5.2-11,7.6c-0.7,0.5-1.8,0.4-2.8,0.4c-0.8,0-1.7-0.4-2.5-0.7
				c-10.4-3.3-12.6-7-11-18.8c7.5,7.9,17.9,7.7,27.3,10.2C37,44.7,36.9,45.1,36.9,45.5z"/>
			<path class="st0" d="M48.2,61.4c4.5-6.6,6.4-13,1.3-19.7c6.4-1,11.3,1.4,11.5,5.9C61.4,57.9,60.6,59.9,48.2,61.4z"/>
			<path class="st0" d="M38.1,43.4c10-2.7,13.5-0.1,12.1,8.5C46.2,49.1,42.4,46.4,38.1,43.4z"/>
			<path class="st0" d="M49.6,53.3c-1.6,7.6-3.8,9.1-10.1,7.2C42.9,58.1,46,55.9,49.6,53.3z"/>
		</g>
		<path d="M-186.5,133.2c0.7,0.4,1.5,0.8,2.2,1.2c-0.1,0.2-0.2,0.4-0.3,0.6c-0.8-0.3-1.6-0.6-2.4-0.9
			C-186.8,133.9-186.7,133.6-186.5,133.2z"/>
	</g>
</g>
</svg>
