<?xml version="1.0" encoding="utf-8"?>
<!-- Generator: Adobe Illustrator 19.2.0, SVG Export Plug-In . SVG Version: 6.00 Build 0)  -->
<svg version="1.1" id="Layer_1" xmlns="http://www.w3.org/2000/svg" xmlns:xlink="http://www.w3.org/1999/xlink" x="0px" y="0px"
	 width="56.7px" height="56.7px" viewBox="0 0 56.7 56.7" style="enable-background:new 0 0 56.7 56.7;" xml:space="preserve">
<style type="text/css">
	.st0{fill:#ccc;}
</style>
<g>
	<path class="st0" d="M42.6,2.8c0-0.8-0.3-1.5-0.9-2S40.4,0,39.7,0H2.8C1.4,0,0.1,1.1,0,2.6v0.1v39.7L11.4,31h28.4
		c0.8,0,1.5-0.2,2-0.8c0.6-0.5,0.9-1.2,0.9-2C42.6,28.3,42.6,2.8,42.6,2.8z"/>
	<path class="st0" d="M48.3,11.3v25.5H11.4v5.7c0,1.5,1.1,2.7,2.6,2.8h0.1h31.2l11.4,11.3V14.1c0-1.5-1.2-2.7-2.7-2.8c0,0,0,0-0.1,0
		L48.3,11.3L48.3,11.3z"/>
</g>
</svg>
