<?xml version="1.0" encoding="utf-8"?>
<!-- Generator: Adobe Illustrator 19.2.0, SVG Export Plug-In . SVG Version: 6.00 Build 0)  -->
<svg version="1.1" id="Layer_1" xmlns="http://www.w3.org/2000/svg" xmlns:xlink="http://www.w3.org/1999/xlink" x="0px" y="0px"
	 width="1091.3px" height="235.3px" viewBox="0 0 1091.3 235.3" style="enable-background:new 0 0 1091.3 235.3;"
	 xml:space="preserve">
<style type="text/css">
	.st0{fill:none;enable-background:new    ;}
	.st1{fill:#FFFFFF;}
	.st2{fill:#D21E41;}
</style>
<path class="st0" d="z"/>
<g>
	<g>
		<path class="st1" d="M344.4,126.9c1.1,8,3.4,14.1,6.7,18c6.1,7.2,16.6,10.9,31.4,10.9c8.9,0,16.1-1,21.6-2.9
			c10.5-3.7,15.8-10.5,15.8-20.4c0-5.8-2.6-10.3-7.7-13.5c-5.1-3.1-13.3-5.9-24.5-8.2l-19.1-4.2c-18.8-4.1-31.6-8.6-38.7-13.5
			c-11.9-8.1-17.8-20.8-17.8-38.1c0-15.8,5.8-28.9,17.4-39.3C341.1,5.2,358.2,0,380.7,0c18.8,0,34.8,4.9,48.1,14.8
			c13.3,9.8,20.2,24.1,20.9,42.8h-35.4c-0.7-10.6-5.4-18.1-14.2-22.6c-5.9-2.9-13.2-4.4-21.9-4.4c-9.7,0-17.5,1.9-23.3,5.7
			c-5.8,3.8-8.7,9.2-8.7,16c0,6.3,2.9,11,8.6,14.1c3.7,2.1,11.5,4.5,23.4,7.3l30.9,7.3c13.6,3.2,23.7,7.4,30.5,12.8
			c10.5,8.3,15.8,20.3,15.8,36c0,16.1-6.2,29.4-18.7,40.1c-12.5,10.6-30,15.9-52.8,15.9c-23.2,0-41.5-5.2-54.8-15.7
			c-13.3-10.5-19.9-24.9-19.9-43.2H344.4z"/>
		<path class="st1" d="M593.2,65c10.6,11.2,15.9,27.7,15.9,49.5c0,22.9-5.2,40.4-15.6,52.4c-10.4,12-23.8,18-40.1,18
			c-10.4,0-19.1-2.6-26-7.8c-3.8-2.9-7.5-7-11.1-12.5v67.8h-33.7V51h32.6v19.2c3.7-5.7,7.6-10.1,11.8-13.4
			c7.6-5.8,16.7-8.7,27.2-8.7C569.6,48.1,582.6,53.8,593.2,65z M567,89.5c-4.6-7.7-12.1-11.6-22.5-11.6c-12.5,0-21.1,5.9-25.7,17.6
			c-2.4,6.2-3.6,14.1-3.6,23.7c0,15.1,4.1,25.8,12.2,31.9c4.8,3.6,10.6,5.4,17.2,5.4c9.6,0,16.9-3.7,21.9-11
			c5-7.3,7.6-17.1,7.6-29.3C574,106.1,571.7,97.2,567,89.5z"/>
		<path class="st1" d="M747,165.3c-11,13.6-27.7,20.3-50.1,20.3c-22.4,0-39.1-6.8-50.1-20.3c-11-13.6-16.5-29.9-16.5-49
			c0-18.8,5.5-35,16.5-48.8c11-13.8,27.7-20.6,50.1-20.6c22.4,0,39.1,6.9,50.1,20.6c11,13.8,16.5,30,16.5,48.8
			C763.5,135.4,758,151.7,747,165.3z M719.8,146.5c5.3-7.1,8-17.1,8-30.2c0-13-2.7-23.1-8-30.1c-5.3-7-13-10.6-23-10.6
			c-10,0-17.6,3.5-23,10.6c-5.4,7-8.1,17.1-8.1,30.1c0,13,2.7,23.1,8.1,30.2c5.4,7.1,13.1,10.6,23,10.6
			C706.8,157.1,714.4,153.5,719.8,146.5z"/>
		<path class="st1" d="M865.5,48c0.4,0,1.4,0.1,2.9,0.2V83c-2.2-0.2-4.1-0.4-5.7-0.5c-1.7-0.1-3-0.1-4.1-0.1
			c-13.7,0-22.9,4.5-27.6,13.4c-2.6,5-3.9,12.7-3.9,23.2v62.2h-34.3V51h32.5v22.7c5.3-8.7,9.8-14.6,13.8-17.8c6.4-5.3,14.7-8,24.9-8
			C864.5,47.9,865,47.9,865.5,48z"/>
		<path class="st1" d="M880.1,76.4V52.2h18.2V15.9H932v36.3h21.2v24.2H932v68.8c0,5.3,0.7,8.7,2,10c1.4,1.3,5.5,2,12.4,2
			c1,0,2.1,0,3.3-0.1c1.2,0,2.3-0.1,3.4-0.2v25.4l-16.1,0.6c-16.1,0.6-27.1-2.2-33-8.4c-3.8-3.9-5.7-9.9-5.7-18V76.4H880.1z"/>
		<path class="st1" d="M1006.7,139.6c0.7,6.1,2.3,10.4,4.7,12.9c4.2,4.5,12.1,6.8,23.6,6.8c6.7,0,12.1-1,16-3c4-2,5.9-5,5.9-9
			c0-3.8-1.6-6.7-4.8-8.7c-3.2-2-15.1-5.4-35.7-10.3c-14.8-3.7-25.2-8.2-31.3-13.7c-6.1-5.4-9.1-13.2-9.1-23.4
			c0-12,4.7-22.4,14.2-31c9.5-8.6,22.8-13,40-13c16.3,0,29.6,3.2,39.8,9.7c10.3,6.5,16.2,17.7,17.7,33.6h-34.1
			c-0.5-4.4-1.7-7.8-3.7-10.4c-3.8-4.6-10.2-6.9-19.2-6.9c-7.4,0-12.7,1.2-15.9,3.5c-3.2,2.3-4.7,5-4.7,8.1c0,3.9,1.7,6.7,5,8.5
			c3.4,1.8,15.2,5,35.6,9.4c13.6,3.2,23.8,8,30.5,14.5c6.7,6.5,10,14.7,10,24.5c0,12.9-4.8,23.4-14.4,31.6
			c-9.6,8.2-24.5,12.2-44.6,12.2c-20.5,0-35.7-4.3-45.5-13c-9.8-8.6-14.7-19.6-14.7-33H1006.7z"/>
	</g>
	<path class="st1" d="M0,181.1V0h26.2l59.4,159.7h0.5L144.6,0h25.9v181.1h-17.1V19.6h-0.5L93.4,181.1H77.3L17.6,19.6h-0.5v161.5H0z"
		/>
	<path class="st1" d="M276.3,50.8v147.7c0,5.5-0.3,10.4-0.8,14.6c-0.5,4.2-1.6,7.8-3.4,10.7c-1.8,2.9-4.4,5.1-7.8,6.5
		c-3.4,1.4-8.2,2.1-14.2,2.1c-3.7,0-7-0.3-9.8-1v-13.3c4.4,0.5,7.9,0.5,10.6,0.1c2.7-0.4,4.8-1.4,6.3-2.9c1.5-1.5,2.6-3.5,3.1-6
		c0.6-2.5,0.9-5.5,0.9-8.8V50.8H276.3z M277.1,22.4h-16.6V0h16.6V22.4z"/>
	<rect x="203.8" y="0" class="st2" width="16.6" height="22.4"/>
	<rect x="204.5" y="50.8" class="st1" width="15.1" height="130.3"/>
</g>
</svg>
