<?xml version="1.0" encoding="utf-8"?>
<!-- Generator: Adobe Illustrator 20.0.0, SVG Export Plug-In . SVG Version: 6.00 Build 0)  -->
<svg version="1.1" id="Layer_1" xmlns="http://www.w3.org/2000/svg" xmlns:xlink="http://www.w3.org/1999/xlink" x="0px" y="0px"
	 viewBox="0 0 100 100" style="enable-background:new 0 0 100 100;" xml:space="preserve">
<style type="text/css">
	.st0{fill:#394453;}
	.st1{fill:#FFFFFF;}
</style>
<g>
	<path class="st0" d="M79,49.1c-2.3-3.4-5.1-6.4-8.3-8.9c-2.9-2.4-6.1-4.3-9.6-5.6c-3-1.2-6.2-1.8-9.4-2c-1.9-0.1-3.9,0-5.8,0.2
		c-1.7,0.2-3.3,0.6-4.9,1.1c-3.5,1.1-6.8,2.8-9.8,4.9c-3,2.2-5.7,4.7-8.1,7.6c-0.9,1.1-1.8,2.3-2.6,3.5c-0.1,0.1-0.1,0.2,0,0.3
		c0.2,0.3,0.5,0.7,0.7,1c2.1,3,4.6,5.7,7.4,8.1c2.9,2.5,6.1,4.5,9.6,5.9c2.3,0.9,4.7,1.6,7.2,2c1.5,0.2,3,0.3,3.8,0.3
		c2.6,0,4.4-0.2,6.3-0.5c2-0.4,3.9-0.9,5.7-1.6c2.7-1.1,5.2-2.5,7.6-4.2c3.2-2.3,6-5,8.4-8c0.8-1,1.4-2,2.2-3c0.1-0.1,0.1-0.2,0-0.3
		C79.3,49.6,79.1,49.4,79,49.1z"/>
	<path class="st0" d="M50,2C23.5,2,2,23.5,2,50s21.5,48,48,48s48-21.5,48-48S76.5,2,50,2z"/>
</g>
<g>
	<path class="st1" d="M22,22"/>
	<g>
		<path class="st1" d="M50,26c13.3,0,24,10.8,24,24S63.3,74,50,74S26,63.3,26,50S36.7,26,50,26 M50,22c-15.5,0-28,12.5-28,28
			s12.5,28,28,28s28-12.5,28-28S65.5,22,50,22L50,22z"/>
	</g>
	<path class="st1" d="M48,65.2L34.9,51.7L43.6,35l18.5,3.2L65,56.8L48,65.2z M39.7,51l9.1,9.4l11.7-5.8l-1.9-12.9l-12.8-2.2L39.7,51
		z"/>
	<rect x="39.7" y="24.1" transform="matrix(0.9016 -0.4326 0.4326 0.9016 -9.3031 21.0819)" class="st1" width="4" height="13.8"/>
	<rect x="58.7" y="33.9" transform="matrix(0.7305 -0.6829 0.6829 0.7305 -7.1213 53.7863)" class="st1" width="11.7" height="4"/>
	<rect x="66.6" y="51.6" transform="matrix(0.3653 -0.9309 0.9309 0.3653 -10.3967 100.631)" class="st1" width="4" height="12.6"/>
	<rect x="38.9" y="67.9" transform="matrix(0.2571 -0.9664 0.9664 0.2571 -32.9344 96.8588)" class="st1" width="15.2" height="4"/>
	<rect x="23.1" y="51.6" transform="matrix(0.9539 -0.3 0.3 0.9539 -14.6868 11.5733)" class="st1" width="14.6" height="4"/>
</g>
</svg>
