<?xml version="1.0" encoding="utf-8"?>
<!-- Generator: Adobe Illustrator 19.2.1, SVG Export Plug-In . SVG Version: 6.00 Build 0)  -->
<svg version="1.1" id="Layer_1" xmlns="http://www.w3.org/2000/svg" xmlns:xlink="http://www.w3.org/1999/xlink" x="0px" y="0px"
	 width="100px" height="100px" viewBox="0 0 100 100" style="enable-background:new 0 0 100 100;" xml:space="preserve">
<style type="text/css">
	.st0{fill:#FFFFFF;}
</style>
<path d="M-347.3,90.1c0-2.5,0-4.3,0-6.1c-0.3,0-0.5-0.1-0.8-0.1c-0.4,1.3-0.9,2.6-1.4,4c-3.3,0-6.5,0-9.8,0c-1.6-6.4-1-7.3,5.1-7.3
	c1.8,0,3.7,0.1,5.5,0c3.7-0.2,4.9,1.4,5,5c0,2.4,1.1,4.7,1.7,7.1c1,4,2.3,7.9,2.9,12c0.7,5.2-1.2,9.6-6,12.1
	c-5.2,2.7-10.7,2.8-15.7-0.3c-1.8-1.1-3.4-4.1-3.2-6c0.1-1.6,2.9-3.8,4.8-4.2c3.5-0.6,7.2,0,10.8,0.2c1.3,0.1,2.6,0.5,4,0.7
	c0.1-0.7,0.3-1.4,0.4-2.1c-4.4-1-8.9-1.9-14-3.1c-0.2-0.6-0.8-2-1.3-3.4c-0.3,0-0.7,0-1,0c-0.2,1.1-0.3,2.4-0.8,3.3
	c-0.6,1-1.6,1.8-2.4,2.7c-0.8-0.9-2.1-1.7-2.3-2.7c-1.3-6.2,3.4-11.8,9.7-11.8C-353.2,90.1-350.3,90.1-347.3,90.1z"/>
<path d="M-337.5,112.7c5.2-10.9-3.2-19.9-3.6-29.8c9-3.8,11.5-3,11.7,3.6c-2.7,0.6-5.5,1.3-9.3,2.2c4.8,2.4,10.4-3,12.8,2.9
	c1.6,4,3.4,8.5,3.2,12.7C-322.9,110.6-328.8,113.8-337.5,112.7z"/>
<path d="M-338.9,78.1c-2.1-1.8-4.3-3.6-6.5-5.6c-2.2,2-4.3,3.8-5.3,4.8c1.4-1.5,3.7-4,5.6-6.1c1.9,1.7,4.4,3.9,6.9,6.1
	C-338.5,77.6-338.7,77.9-338.9,78.1z"/>
<g>
	<path class="st0" d="M66.2,83.6C58.9,71,51.5,58.4,43.7,45.1C33.9,51.5,24.7,57.5,14.5,64C9.4,55.1,4.8,47.2,0,38.9
		c10.4-7.5,20.2-14.6,31.1-22.4c11.8,20.4,24.8,42.8,37.7,65.2C68,82.4,67.1,83,66.2,83.6z M27.8,37.8c-2.4-3.6-4.2-6.4-6.3-9.7
		c-3.1,2.2-5.6,3.9-8.6,6.1c2.2,3.3,3.9,6,5.9,9C21.9,41.3,24.3,39.9,27.8,37.8z M23.8,53.7c-2.1-3.3-3.9-6-6.1-9.4
		c-3,2.2-5.2,3.8-7.6,5.6c2.1,3.3,3.7,5.9,5.7,9.1C18.7,57.1,21,55.6,23.8,53.7z M28.4,38.2c2.4,3.4,4.1,5.8,6.5,9.2
		c2.4-2.7,5.4-4.6,5.5-6.6c0.1-2.3-2.4-4.7-4-7.5C33.6,35,31.6,36.2,28.4,38.2z"/>
	<path class="st0" d="M85.9,64c-11.2-7.1-21.2-13.4-32.3-20.4c4.8-8.4,10.6-18.5,15.7-27.2C79.3,23.7,89,30.7,100,38.8
		C95.6,46.5,91.1,54.7,85.9,64z M72.7,38c3.2,1.9,6,3.4,9.1,5.3c2.1-3.6,3.6-6.2,5.5-9.6c-3.2-1.9-6-3.6-9.1-5.4
		C76.2,31.9,74.7,34.5,72.7,38z M89.9,49.4c-2.8-1.7-5-3-7.8-4.7c-2,3.2-3.6,5.8-5.7,9.2c3,1.8,5.4,3.3,8.3,5.1
		C86.7,55.3,88.2,52.7,89.9,49.4z M63.3,32.6c-1.4,4.3-2.8,7.1-3,10c-0.1,1,3.6,3.4,4.2,3c2.7-1.6,4.8-4.1,7.8-6.8
		C69,36.5,67,35.1,63.3,32.6z"/>
	<path class="st0" d="M47.9,59.9c-4.6,7.9-9.2,15.9-13.8,23.8c-0.9-0.5-1.9-1-2.8-1.5c4.6-8,9.2-16,13.7-23.9
		C45.9,58.8,46.9,59.3,47.9,59.9z"/>
</g>
</svg>
