<?xml version="1.0" encoding="utf-8"?>
<!-- Generator: Adobe Illustrator 21.0.0, SVG Export Plug-In . SVG Version: 6.00 Build 0)  -->
<svg version="1.1" id="Layer_1" xmlns="http://www.w3.org/2000/svg" xmlns:xlink="http://www.w3.org/1999/xlink" x="0px" y="0px"
	 viewBox="0 0 200 200" style="enable-background:new 0 0 200 200;" xml:space="preserve">
<style type="text/css">
	.st0{fill:#4DA3C9;}
</style>
<path class="st0" d="M199,81.4l-21.3-23.3c-1.9-2.1-4.4-3.6-7.1-4.2l-13.2-3.2l-15.7-14.5l-2.7-24.4c-0.4-3.7-3.7-6.3-7.4-5.9
	s-6.3,3.7-5.9,7.4l0,0l3,27c0.2,1.6,0.9,3.1,2.1,4.2l22.8,21.1l-9.4,38.7l-24.7-0.6c-2.9-0.1-5.7,1.1-7.7,3.3l-24.1,26.6
	c-3.6,4.2-3,10.6,1.2,14.2c4,3.4,10,3.1,13.7-0.7l21-23.3l17,0.4l-10,14.3c-1.5,2.2-2.1,4.9-1.7,7.5l6.3,35.6c0.9,4.8,5,8.3,9.9,8.3
	c5.6,0,10.1-4.5,10.1-10.1c0-0.6-0.1-1.2-0.2-1.7l-5.7-31.5l18.3-26.2c0.7-0.9,1.2-2,1.5-3.1c2.4-9.5,9.2-38.2,9.2-38.2l8.4,9.1
	l-4,24.3c-0.6,3.6,1.9,7.1,5.5,7.7c3.6,0.6,7.1-1.9,7.7-5.5l0,0l4.6-27.5C200.9,85.1,200.3,82.9,199,81.4z"/>
<path class="st0" d="M164.2,47.6c7.1,4.8,16.6,2.9,21.4-4.1s2.9-16.6-4.1-21.4c-7.1-4.8-16.6-2.9-21.4,4.1
	C155.3,33.2,157.1,42.8,164.2,47.6C164.2,47.6,164.2,47.6,164.2,47.6z"/>
<path class="st0" d="M88.1,29.4L122,4.6c1-0.8,1.2-2.3,0.4-3.3c-0.4-0.6-1.1-0.9-1.8-0.9H11.3C5.4,0.4,0.7,5.1,0.7,11v182.7
	c0,1.8,1.5,3.3,3.3,3.3c1.2,0,2.3-0.7,2.9-1.7l29-52.1c0.9-1.7,1.6-3.4,2.1-5.3l10-43.4c0.9-3.9,2.9-7.4,5.7-10.1l17.8-17.1
	c3.1-2.9,5.1-6.8,5.9-10.9L80.2,42C81.1,37,84,32.4,88.1,29.4z"/>
</svg>
