<svg id="Layer_1" data-name="Layer 1" xmlns="http://www.w3.org/2000/svg" width="200" height="200" viewBox="0 0 200 200"><defs><style>.cls-1{fill:#fff;}</style></defs><title>netball_icon_wht</title><path class="cls-1" d="M119.07,172.39c-9.24-29.06-35-88.38-63.7-141.25C53.51,32.38,51.71,33.66,50,35,39.35,43.49,33.54,53,34.38,60.4,39.93,74.88,46,88,54.26,106.11c7,15.26,15.71,34.2,27.37,60.95A70.05,70.05,0,0,0,119.07,172.39Z" transform="translate(-2.67 -0.33)"/><path class="cls-1" d="M154.68,157.4c-2.25-40.78-23.39-111.17-63.42-141A103.59,103.59,0,0,0,62.72,26.71c29.33,53.9,55.63,114.72,64.81,144A77.76,77.76,0,0,0,154.68,157.4Z" transform="translate(-2.67 -0.33)"/><path class="cls-1" d="M41,97.78c-5-11-9.18-20.44-13.07-30.26C23.73,73.34,17.49,77.9,4.41,81.78a100.49,100.49,0,0,0-1.74,18.55c0,2.89.15,5.74.39,8.56,9.41-.09,17.94-3.38,33.24-9.29Z" transform="translate(-2.67 -0.33)"/><path class="cls-1" d="M55.1,128.54c-3.16-6.94-6-13.16-8.63-18.86l-1.88-4.09-5.21,2c-15.74,6.08-24.73,9.55-35.23,9.85a99.51,99.51,0,0,0,19.23,43.81C34.57,145.57,43.78,136,55.1,128.54Z" transform="translate(-2.67 -0.33)"/><path class="cls-1" d="M183.81,121.32C177.64,99.26,154.56,47.21,134,18.65a74.83,74.83,0,0,0-31.11-3.88C139.37,47,159,109,162.77,150.51A104,104,0,0,0,183.81,121.32Z" transform="translate(-2.67 -0.33)"/><path class="cls-1" d="M191.9,124.3a110.62,110.62,0,0,1-29,37.65,4.27,4.27,0,0,1-2.76,2.18c-15,11.39-32.33,17.53-50.1,17.53a79.7,79.7,0,0,1-32-6.81c-7.36,1.93-14.05,7-19.93,15A100,100,0,0,0,200,123.18C196.4,123.29,193.06,123.58,191.9,124.3Z" transform="translate(-2.67 -0.33)"/><path class="cls-1" d="M50.79,185.36c6.31-8.82,13.61-14.74,21.74-17.74-5.17-11.83-9.75-22.09-13.84-31.17-10.18,6.95-18.43,15.75-29,30.74a4.19,4.19,0,0,1-.67.74,100.37,100.37,0,0,0,21.59,17.77A3.58,3.58,0,0,1,50.79,185.36Z" transform="translate(-2.67 -0.33)"/><path class="cls-1" d="M26.37,52.59l.4-.84c0-.09.1-.16.15-.25,2.44-7.8,8.56-15.88,17.79-23.22a93.4,93.4,0,0,1,9.85-6.78,3.55,3.55,0,0,1,.31-.21l.14-.06C73.88,10,99.86,2.65,124.69,7.27a40.11,40.11,0,0,0-6.76-5.77A100.12,100.12,0,0,0,6.76,72C19.35,67.46,21.76,62.39,26.37,52.59Z" transform="translate(-2.67 -0.33)"/><path class="cls-1" d="M139.51,11.79a4.29,4.29,0,0,1,1.36,1.87,279.74,279.74,0,0,1,18.56,30.12,50.21,50.21,0,0,1,17.68-10.19,100.08,100.08,0,0,0-42.52-28C136.22,7.5,137.86,9.58,139.51,11.79Z" transform="translate(-2.67 -0.33)"/><path class="cls-1" d="M201.64,114.56A99.23,99.23,0,0,0,201,82.12c-8.58,0-9.81.21-21.35,3.61,5,11.75,9,22.27,11.41,29.86A48.05,48.05,0,0,1,201.64,114.56Z" transform="translate(-2.67 -0.33)"/><path class="cls-1" d="M163.48,51.43c4.56,8.82,8.85,17.81,12.69,26.39,12.47-3.68,14.66-4.19,22.83-4.26a99.54,99.54,0,0,0-16-32.73c-6.13,1.53-11.76,3.93-18.73,10.06A4.5,4.5,0,0,1,163.48,51.43Z" transform="translate(-2.67 -0.33)"/></svg>