<?xml version="1.0" encoding="utf-8"?>
<!-- Generator: Adobe Illustrator 21.0.2, SVG Export Plug-In . SVG Version: 6.00 Build 0)  -->
<svg version="1.1" id="Layer_1" xmlns="http://www.w3.org/2000/svg" xmlns:xlink="http://www.w3.org/1999/xlink" x="0px" y="0px"
	 width="200px" height="200px" viewBox="0 0 200 200" style="enable-background:new 0 0 200 200;" xml:space="preserve">
<style type="text/css">
	.st0{fill:#D21F42;}
</style>
<g>
	<path class="st0" d="M99.4,0c0.7,0,1.5,0,2.2,0c11.2,3.2,15,11,13.2,21.7c26.9,8.3,43.9,25.2,48.3,52.5c2,12.1,0.8,24.8,1,37.2
		c0.2,9.1-2.2,19.2,1.1,26.9c3.4,7.9,12.3,13.5,18.8,20.1c0,3.3,0,6.7,0,10c-56.1,0-112.2,0-168.3,0c0-3.3,0-6.7,0-10
		c5.7-5.5,11.6-10.8,17-16.5c1.8-1.9,3.1-5,3.1-7.6c0.3-15.8-0.1-31.5,0.3-47.3C36.4,80,37.1,73,39,66.6
		C45.4,45,59.6,30.7,80.9,23.2c1.8-0.6,4.4-2.8,4.3-4.3C84.9,8.7,89.7,2.6,99.4,0z"/>
	<path class="st0" d="M75.3,177.9c1.1,12.4,11.5,22.1,24.1,22.1c12.7,0,23.1-9.7,24.1-22.1H75.3z"/>
</g>
</svg>
