<?xml version="1.0" encoding="utf-8"?>
<!-- Generator: Adobe Illustrator 20.0.0, SVG Export Plug-In . SVG Version: 6.00 Build 0)  -->
<svg version="1.1" id="Layer_1" xmlns="http://www.w3.org/2000/svg" xmlns:xlink="http://www.w3.org/1999/xlink" x="0px" y="0px"
	 viewBox="0 0 100 100" style="enable-background:new 0 0 100 100;" xml:space="preserve">
<style type="text/css">
	.st0{fill:#4EA3C9;}
	.st1{fill:#FFFFFF;}
</style>
<circle class="st0" cx="50" cy="50" r="50"/>
<g>
	<path class="st1" d="M75.3,70.9c-16.9,0-33.8,0-50.7,0c-0.4-1.7-0.3-3.3,1.3-4.4c3.9-2.7,5.1-6.4,4.6-11c-0.4-3.8-0.2-7.7,0.1-11.5
		c0.6-8.2,5.8-14.6,13.7-17.2c0.4-0.1,0.7-0.3,1.1-0.4c0.6-4.9,1.8-6.5,4.8-6.4c2.8,0.1,4.1,2,4.3,6.4c0.4,0.1,0.9,0.3,1.3,0.5
		c8,2.6,13.4,9.8,13.5,18.2c0.1,5.2,0,10.4,0.1,15.6c0,0.7,0.4,1.6,0.9,2.2c1.1,1.2,2.2,2.4,3.5,3.5C75.3,67.5,75.9,68.9,75.3,70.9z
		"/>
	<path class="st1" d="M44.1,74.1c3.9,0,7.9,0,11.8,0c0.1,3.3-2.6,5.9-5.8,5.9C46.7,80,44.1,77.4,44.1,74.1z"/>
</g>
</svg>
