<?xml version="1.0" encoding="utf-8"?>
<!-- Generator: Adobe Illustrator 20.0.0, SVG Export Plug-In . SVG Version: 6.00 Build 0)  -->
<svg version="1.1" id="Layer_1" xmlns="http://www.w3.org/2000/svg" xmlns:xlink="http://www.w3.org/1999/xlink" x="0px" y="0px"
	 viewBox="0 0 100 100" style="enable-background:new 0 0 100 100;" xml:space="preserve">
<style type="text/css">
	.st0{fill:#384353;}
</style>
<path class="st0" d="M97.5,34.2c-0.2,0.8-0.7,0.9-1.5,1c-6.3,0.1-12.6,0.9-18.7,2.7c-4.3,1.2-8.4,3-12,5.7c-3.8,3-6.3,6.7-7.1,11.6
	c-0.7,4.3-2.5,8.2-5.2,11.8c-1.8,2.4-4,4.5-6.5,6.2c-3.6,2.5-7.6,4.1-12,4.7c-5.2,0.7-10.2,0.1-15-1.9c-4.6-2-8.5-5-11.5-9
	C5.1,62.8,3.3,58.2,2.7,53c-0.1-0.4-0.1-0.9-0.2-1.3c0-1.1,0-2.2,0-3.3c0-0.3,0.1-0.5,0.1-0.8c0.4-3.9,1.4-7.6,3.3-11
	c2.4-4.3,5.6-7.7,9.8-10.3c4-2.5,8.4-4,13.1-4.2c5.7-0.2,11.5-0.1,17.2-0.1c0.2,0,0.3,0,0.5,0.1c0,2.1,0,4.1,0,6.2
	c0,0.5,0.1,0.7,0.7,0.7c2,0,4,0,6.1,0c0.6,0,0.8-0.2,0.7-0.8c0-1.7,0-3.5,0-5.2c0-0.7,0.2-1,0.9-0.9c13.4,0,26.8,0,40.2,0
	c1,0,1.8,0.3,2.3,1.3C97.5,26.9,97.5,30.5,97.5,34.2z"/>
</svg>
