<?xml version="1.0" encoding="utf-8"?>
<!-- Generator: Adobe Illustrator 21.0.2, SVG Export Plug-In . SVG Version: 6.00 Build 0)  -->
<svg version="1.1" id="Layer_1" xmlns="http://www.w3.org/2000/svg" xmlns:xlink="http://www.w3.org/1999/xlink" x="0px" y="0px"
	 viewBox="0 0 200 200" style="enable-background:new 0 0 200 200;" xml:space="preserve">
<style type="text/css">
	.st0{fill:#FFFFFF;}
</style>
<g id="S6wjzi_1_">
	<g>
		<path class="st0" d="M24.5,170.3c1-4,2-8.6,3.2-12.6c3.8-12.6,11.4-22,23.8-27c7.6-3.2,15.6-6.4,23.2-9.6c2-1,3.8-2.6,4.8-4.4
			c2.6-6,3.8-12.4-1-18c-1.6-2-2.6-4.4-3.8-6.6c-2-3.2-3.4-6.4-5.4-9.6c-2.2-3.8-2.6-7.4-0.6-11.4c0.6-2,1.2-4.2,1.2-6
			c0.4-5,0-10.4,0.4-15.6c1.2-13,8.2-20.6,21-23.4c7-1.6,14-1.2,20.6,0.6c11.2,2.8,17.8,11.8,18.4,24.2c0,3.4,0,7.4,0,10.8
			c0,3.8,0,7.4,2,10.8c1.6,3.2,1,7-1,10.4c-2,3.2-3.4,6.4-5.4,9.6c-1.2,2.2-2.2,5-3.8,7c-3.8,4.2-3.4,8.6-2.6,13.4
			c0.6,4.8,2.8,8.2,8,10.2c6.6,2.2,13,5.4,19.6,8c16.6,6.4,24.4,19.4,27.4,35.8c0.4,2.6,0.6,4.8,1,7.6c-2,0-3.2,0.4-4.4,0.4
			c-47.4,0-95,0-142.2,0c-1.2,0-2.8-0.4-4.2-0.4C24.5,172.5,24.5,171.7,24.5,170.3z"/>
	</g>
</g>
</svg>
