<?xml version="1.0" encoding="utf-8"?>
<!-- Generator: Adobe Illustrator 20.0.0, SVG Export Plug-In . SVG Version: 6.00 Build 0)  -->
<svg version="1.1" id="Layer_1" xmlns="http://www.w3.org/2000/svg" xmlns:xlink="http://www.w3.org/1999/xlink" x="0px" y="0px"
	 width="283.5px" height="283.5px" viewBox="0 0 283.5 283.5" style="enable-background:new 0 0 283.5 283.5;" xml:space="preserve"
	>
<style type="text/css">
	.st0{fill:#5EC94C;}
</style>
<path id="photo_icon_copy" class="st0" d="M77.6,154.3c-0.2-35.6,28.5-64.5,64.1-64.7c35.6-0.2,64.5,28.5,64.7,64.1
	s-28.5,64.5-64.1,64.7c-17.2,0.1-33.7-6.7-45.9-18.8C84.3,187.7,77.4,171.3,77.6,154.3z M80,51.9H39.3c-6.7,0-13.1,2.8-17.7,7.8
	c-4.8,4.7-7.5,11.2-7.5,18V231c0,6.8,2.7,13.2,7.5,18c4.5,5,10.9,7.8,17.7,7.8h204.8c6.7,0,13.1-2.8,17.7-7.8
	c4.8-4.7,7.5-11.2,7.5-18V77.6c0-6.7-2.7-13.2-7.5-18c-4.5-5-10.9-7.8-17.7-7.8h-40.7l-23.4-25.1h-76.7L80,51.9z M141.7,195
	c22.6,0.1,41-18.1,41.1-40.7c0.1-22.6-18.1-41-40.7-41.1c-22.6-0.1-41,18.1-41.1,40.7c0,10.9,4.3,21.4,12,29.1
	C120.5,190.8,130.9,195.2,141.7,195z"/>
</svg>
