<svg xmlns="http://www.w3.org/2000/svg" width="97.976" height="88.234" viewBox="0 0 16.656 15">
  <defs>
    <style>
      .cls-1 {
        fill: #999;
        fill-rule: evenodd;
      }
    </style>
  </defs>
  <path id="photo_icon_copy" data-name="photo icon copy" class="cls-1" d="M894.406,951.41a4.2,4.2,0,1,1,1.231,2.949A4.02,4.02,0,0,1,894.406,951.41Zm0.156-6.68h-2.656a1.547,1.547,0,0,0-1.152.508,1.641,1.641,0,0,0-.488,1.172v10a1.638,1.638,0,0,0,.488,1.172,1.543,1.543,0,0,0,1.152.508h13.36a1.547,1.547,0,0,0,1.152-.508,1.642,1.642,0,0,0,.488-1.172v-10a1.645,1.645,0,0,0-.488-1.172,1.55,1.55,0,0,0-1.152-.508h-2.657l-1.523-1.64h-5Zm4.024,9.336a2.667,2.667,0,1,0-1.875-.781A2.557,2.557,0,0,0,898.586,954.066Z" transform="translate(-890.25 -943.094)"/>
</svg>
