<?xml version="1.0" encoding="utf-8"?>
<!-- Generator: Adobe Illustrator 19.2.1, SVG Export Plug-In . SVG Version: 6.00 Build 0)  -->
<svg version="1.1" id="Layer_1" xmlns="http://www.w3.org/2000/svg" xmlns:xlink="http://www.w3.org/1999/xlink" x="0px" y="0px"
	 width="100px" height="100px" viewBox="0 0 100 100" style="enable-background:new 0 0 100 100;" xml:space="preserve">
<style type="text/css">
	.st0{fill:#CCCCCC;}
</style>
<path id="photo_icon" class="st0" d="M24.9,54.9C24.8,41,36.1,29.7,50,29.6c13.9-0.1,25.2,11.2,25.3,25c0.1,14-11.2,25.3-25.1,25.3
	c-6.8,0-13.2-2.6-17.9-7.4C27.5,68,24.8,61.5,24.9,54.9z M25.8,14.8H9.9c-2.6,0-5.1,1.1-6.9,3.1c-1.9,1.9-3,4.4-3,7v60
	c0,2.6,1.1,5.2,3,7c1.8,2,4.3,3.1,6.9,3.1h80.2c2.6,0,5.1-1.1,6.9-3.1c1.9-1.9,3-4.4,3-7v-60c0-2.6-1.1-5.1-3-7
	c-1.8-2-4.3-3.1-6.9-3.1H74.2L65,5H35L25.8,14.8z M50,70.8c8.8,0,16-7.1,16.1-15.9c0-8.8-7.1-16-15.9-16.1c-8.8,0-16,7.1-16.1,15.9
	c0,4.2,1.7,8.4,4.7,11.3C41.7,69.2,45.8,70.9,50,70.8z"/>
</svg>
