<?xml version="1.0" encoding="utf-8"?>
<!-- Generator: Adobe Illustrator 19.2.0, SVG Export Plug-In . SVG Version: 6.00 Build 0)  -->
<svg version="1.1" id="Layer_1" xmlns="http://www.w3.org/2000/svg" xmlns:xlink="http://www.w3.org/1999/xlink" x="0px" y="0px"
	 width="111px" height="100px" viewBox="0 0 111 100" style="enable-background:new 0 0 111 100;" xml:space="preserve">
<style type="text/css">
	.st0{fill:#FFFFFF;}
</style>
<path id="photo_icon" class="st0" d="M27.7,55.4C27.6,40,40.1,27.4,55.6,27.3C71,27.2,83.6,39.7,83.7,55.1
	c0.1,15.5-12.4,28.1-27.9,28.1c-7.5,0-14.7-2.9-19.9-8.2C30.6,70,27.6,62.8,27.7,55.4z M28.7,10.9H11c-2.9,0-5.7,1.2-7.7,3.4
	c-2.1,2.1-3.3,4.9-3.3,7.8v66.7c0,2.9,1.2,5.8,3.3,7.8c2,2.2,4.8,3.4,7.7,3.4h89.1c2.9,0,5.7-1.2,7.7-3.4c2.1-2.1,3.3-4.9,3.3-7.8
	V22.1c0-2.9-1.2-5.7-3.3-7.8c-2-2.2-4.8-3.4-7.7-3.4H82.4L72.2,0H38.9L28.7,10.9z M55.6,73.1c9.8,0,17.8-7.9,17.9-17.7
	c0-9.8-7.9-17.8-17.7-17.9c-9.8,0-17.8,7.9-17.9,17.7c0,4.7,1.9,9.3,5.2,12.6C46.3,71.3,50.9,73.2,55.6,73.1z"/>
</svg>
