<svg id="Layer_1" data-name="Layer 1" xmlns="http://www.w3.org/2000/svg" width="200" height="130.45" viewBox="0 0 200 130.45"><defs><style>.cls-1{fill:#394454;}</style></defs><title>pilates_icon_drk</title><path class="cls-1" d="M25.75,79.88A26.09,26.09,0,1,0,51.84,106,26.12,26.12,0,0,0,25.75,79.88Z" transform="translate(0.33 -53.77)"/><path class="cls-1" d="M186.29,54.8a19.53,19.53,0,0,0-24.76,12.37l-8.58,25.75H71.4a19.79,19.79,0,0,0-19,14.82l-13,52.17a19.57,19.57,0,0,0,38,9.49L86.68,132h15.17A32.61,32.61,0,1,0,154,132h12.78c7.4.33,16-4.72,18.84-13.33l13-39.13A19.55,19.55,0,0,0,186.29,54.8ZM127.92,171.18a19.56,19.56,0,1,1,19.56-19.56A19.59,19.59,0,0,1,127.92,171.18Z" transform="translate(0.33 -53.77)"/></svg>