<svg id="Layer_1" data-name="Layer 1" xmlns="http://www.w3.org/2000/svg" width="198.69" height="200" viewBox="0 0 198.69 200"><defs><style>.cls-1{fill:#394454;}</style></defs><title>pole_vault_icon_drk</title><g id="_Group_" data-name="&lt;Group&gt;"><path id="_Path_" data-name="&lt;Path&gt;" class="cls-1" d="M117.28,78.21a7.79,7.79,0,0,0,8.91-2L144.7,54.92a7.66,7.66,0,0,0,1.57-3L109.72,75Z" transform="translate(-0.27 -0.61)"/><path class="cls-1" d="M107.92,109.66V76.14L69.25,100.56c0,16,0,25.66,0,38.9L42.85,154.15A9.64,9.64,0,0,0,52.23,171l33.59-18.73a5.17,5.17,0,0,0,2.65-4.52V124.22h5.72l13.45,22.35-9.93,42.2a9.64,9.64,0,1,0,18.76,4.41l10.83-46a9.66,9.66,0,0,0-1.13-7.18Z" transform="translate(-0.27 -0.61)"/><path id="_Path_2" data-name="&lt;Path&gt;" class="cls-1" d="M198.1,6a5.56,5.56,0,0,0-7.67-1.73L62.36,85.18V98.33l134-84.64A5.56,5.56,0,0,0,198.1,6Z" transform="translate(-0.27 -0.61)"/><path id="_Path_3" data-name="&lt;Path&gt;" class="cls-1" d="M2.86,122.77a5.56,5.56,0,0,0,3,10.26,5.5,5.5,0,0,0,3-.86L37,114.33a14.76,14.76,0,0,1-4.31-10.42Z" transform="translate(-0.27 -0.61)"/><path id="_Path_4" data-name="&lt;Path&gt;" class="cls-1" d="M88.59,37.6A18.5,18.5,0,1,0,70.1,19.11,18.5,18.5,0,0,0,88.59,37.6Z" transform="translate(-0.27 -0.61)"/><path id="_Path_5" data-name="&lt;Path&gt;" class="cls-1" d="M47.54,111.67a7.78,7.78,0,0,0,7.78-7.78V79.8l13.94-8.68v3.13l37.29-23.56A15.9,15.9,0,0,0,92,41.17H85.2a15.88,15.88,0,0,0-15.1,11.11L43.43,68.87a7.78,7.78,0,0,0-3.67,6.61v28.42A7.78,7.78,0,0,0,47.54,111.67Z" transform="translate(-0.27 -0.61)"/></g></svg>