<svg id="Layer_1" data-name="Layer 1" xmlns="http://www.w3.org/2000/svg" width="170.53" height="200" viewBox="0 0 170.53 200"><defs><style>.cls-1{fill:#4da3c9;}</style></defs><title>polo_icon</title><path class="cls-1" d="M89.48,43.41l1.19,4.21,9.34-2.5c2.7,5.66,8.43,8.82,14,7.33s9.85-7.12,8.37-13.32c-.13-.52-2.1-8.14-2.1-8.14a11.94,11.94,0,0,0-23.08,5.92" transform="translate(-16.45 -2.77)"/><path class="cls-1" d="M181.81,103.74a17,17,0,0,0-12.58-5.28H129.49a10.17,10.17,0,0,0,4.21-8.21V63.79a10.15,10.15,0,0,0-9.5-10.1l32.75-36.1,8,7.25,4.24-4.69L150,2.77l-4.24,4.69,8,7.19L89,85.83a8.54,8.54,0,0,0-2.21,5.64c0,.69,0,1.72,0,1.72-4.59,5.71-12.41,10.51-20.73,13.2-5,1.63-13.73,1.43-13.73,1.43l-2-4.55c2.59,0,8.8.59,14.45-1.14,7.67-2.35,14.68-6.84,18.68-12L37.85,48.34l3,14.45L20.46,81.39a8.23,8.23,0,0,0-4,7.25,7.24,7.24,0,0,0,2.92,5.95,8,8,0,0,0,6.54,1.7l8.24-1.93a13,13,0,0,0,.37,2c1.48,5,5.72,8.69,12,10.52a29.93,29.93,0,0,0,5.94,1l10.8,25.56h-23A6.64,6.64,0,0,0,33.86,142l8.69,27.67a6.65,6.65,0,0,0,6.34,4.65,6.79,6.79,0,0,0,2-.3,6.64,6.64,0,0,0,4.35-8.33l-6-19H72.71v48.83a6.64,6.64,0,0,0,13.28,0l0-96A2.37,2.37,0,0,1,90,97.88l23.19,23.19a2.37,2.37,0,1,1-3.36,3.36L90.71,105.28v41.35l35.87,0L136.52,160l-13.24,33.73a6.64,6.64,0,0,0,12.38,4.81l16.25-41.39L132.17,133.3l3-2.39L161,162.17l0,0,0,33.32a6.64,6.64,0,1,0,13.28,0l0-41.12-6.56-10.35V106.7l6.56,10.14v29.63H187v-30A17.48,17.48,0,0,0,181.81,103.74Zm-134.1-1.15c-4.75-1.38-7.93-4.06-9-7.52a8.71,8.71,0,0,1-.31-1.7l6.92-1.62,5,11.37A23.38,23.38,0,0,1,47.72,102.59ZM97.62,83l15.73-17.34V83Z" transform="translate(-16.45 -2.77)"/></svg>