<svg id="Layer_1" data-name="Layer 1" xmlns="http://www.w3.org/2000/svg" width="163.22" height="200" viewBox="0 0 163.22 200"><defs><style>.cls-1{fill:#4da3c9;}</style></defs><title>power_lifting_icon</title><path class="cls-1" d="M27.2,26.38a29.92,29.92,0,0,1,14-22.23h0L41,4.2c-.47.15-.94.31-1.4.49s-.66.29-1,.44-.85.38-1.26.59S34.6,7.36,34.28,7.57s-1.68,1.26-2,1.5-2.44,2.32-2.73,2.65S28.28,13.3,28,13.66s-1.16,1.7-1.39,2.09-1,1.81-1.2,2.24-.83,1.93-1,2.4c-.12.32-.65,2.06-.79,2.62-.07.28-.55,2.57-.65,3.45a26.6,26.6,0,0,0,16.5,27.62A29.86,29.86,0,0,1,27.2,26.38Z" transform="translate(-22.81 -3)"/><path class="cls-1" d="M75.7,17.38a17.14,17.14,0,0,0-2.26.42l-.09,0A9.49,9.49,0,0,0,67.7,23l7.66.58,9.15.7,1.14.09-.14-.44a18,18,0,0,0-1-2.09c-.21-.34-.81-1.15-.87-1.23a13.12,13.12,0,0,0-4.68-2.91A13.35,13.35,0,0,0,75.7,17.38Z" transform="translate(-22.81 -3)"/><path class="cls-1" d="M55.75,56.21h.09a25.13,25.13,0,0,0,4.88-.48c.25,0,.5-.13.74-.18.55-.13,1.1-.25,1.64-.41l.59-.2h0a24.64,24.64,0,0,1,6.13-7.33l-.26-.79v0l-3.14-9.66-10.8-.82a7.09,7.09,0,0,1,.51-14.16h0l.52,0,7.8.6a13,13,0,0,1,.67-1.6,12.53,12.53,0,0,1,6.74-6c.21-.08.41-.21.63-.28A12.85,12.85,0,0,1,75,14.34a13.23,13.23,0,0,1,1.43-.11c.27,0,.53,0,.79.06A25.81,25.81,0,0,0,66.91,5.43a25.11,25.11,0,0,0-8-2.28A25.65,25.65,0,0,0,56.2,3h-.09c-.74,0-1.48,0-2.22.11h-.2l-.27,0c-.73.08-1.47.18-2.18.32-.28.05-.54.13-.82.2-.53.12-1.05.24-1.57.4-.32.1-.63.22-.94.32s-.92.31-1.36.5-.64.29-1,.43-.84.38-1.25.6-.63.35-.94.54-.78.45-1.15.7-.61.41-.9.63-.72.52-1.07.8-.57.47-.85.71-.67.59-1,.9-.53.52-.79.79-.61.65-.9,1-.48.56-.72.85-.55.72-.82,1.09-.43.6-.64.91-.49.79-.73,1.19-.37.63-.54,1-.43.86-.63,1.3-.31.65-.45,1-.36.95-.53,1.43c-.12.32-.24.64-.34,1-.17.55-.3,1.11-.44,1.67-.07.28-.15.55-.21.84q-.27,1.28-.42,2.6C28.68,41,38.39,53.86,52.11,55.91l-.21,0,.23,0c.3,0,.59.11.9.15A25.53,25.53,0,0,0,55.75,56.21Z" transform="translate(-22.81 -3)"/><path class="cls-1" d="M72.49,45.75a25,25,0,0,1,5.62-2.54,26.52,26.52,0,0,1,7.08-1.05h0a24.42,24.42,0,0,1,6.5.9L90.39,39l-6.81-.52-3.19-.24h0L77.86,38l-3.17-.24h0l-4.93-.38,2.07,6.36v0Z" transform="translate(-22.81 -3)"/><path class="cls-1" d="M74.72,151.06c-.06-.2-.11-.4-.15-.61l0-.2-.07-.28c-.06-.29-.11-.58-.15-.84s-.07-.46-.1-.72,0-.36,0-.53c0-.33,0-.66,0-1v-.22a14.34,14.34,0,0,1,1.11-5.13,14.59,14.59,0,0,1,7.46-7.76l10.19-4.22a61.4,61.4,0,0,1-6.83-8.08L59.45,133.51A11.32,11.32,0,0,0,53,141.78l0,.08a11.34,11.34,0,0,0-.19,1.76c0,.06,0,.11,0,.17,0,.27,0,.54,0,.82s0,.27,0,.4,0,.38.07.57.07.43.12.65l.07.3c0,.19.08.38.14.57l13,44.63a11.34,11.34,0,0,0,20.93,2.1L74.84,151.46Z" transform="translate(-22.81 -3)"/><path class="cls-1" d="M87.07,87.88h.28c.39,0,.76-.11,1.14-.17s.66-.08,1-.15.5-.13.74-.19h0c3-1.35,6.76-4.55,10-10.41.42-.75.93-1.79,1.51-3s1.2-2.65,1.88-4.24c.82-1.91,1.7-4,2.62-6.3a21.39,21.39,0,0,0-21-18.11h0c-.37,0-1.81.07-2.16.11s-2.63.46-2.89.52L79.8,46c-.32.08-2.62.84-2.91,1s-1.58.74-1.87.9-.49.3-.74.45l0,0-.83.52c-.07,0-.81.58-1.11.8s-1.24,1-1.48,1.23c0,0-1.22,1.19-1.44,1.43l0,0,0,0c-.22.24-.45.47-.66.72s-1,1.36-1.23,1.64-.37.6-.56.91-1,1.86-1,1.9c-.13.27-.67,1.57-.81,1.94s-.21.55-.3.83c-.14.45-.25.92-.36,1.39-.05.22-.13.44-.17.66-.1.49-.17,1-.23,1.51,0,.21-.07.4-.09.61a21.44,21.44,0,0,0,17,23.15,21.54,21.54,0,0,0,2.38.34c.62.06,1.24.1,1.87.1h0c.38,0,.74,0,1.12-.06s.5,0,.74,0h0Z" transform="translate(-22.81 -3)"/><path class="cls-1" d="M122.14,92.23l9.61-29.5A31.36,31.36,0,0,1,125.47,57a30.87,30.87,0,0,1-7-15.94l-.21,0c-2.32,6.1-5.72,14.94-8.84,22.65-1.39,3.41-4.21,10-4.37,10.33-.75,1.66-1.41,3-1.94,4l-.17.31c0,.05,0,.06,0,0l0,0c-3.53,6.3-7.77,10.14-11.66,11.81l-.48.2a19.72,19.72,0,0,1-2.3.67c-.72.12-2.36.17-2.37.17-.41,0-2.3-.12-2.7-.17l-2.59-.39-.91-.18-.8-.18-.51-.12-.13,0a55.8,55.8,0,0,0,1.16,9.61A36.86,36.86,0,0,0,82.29,108h0a26.84,26.84,0,0,0,3.23,7s1.34,2.26,3.44,5.14c2.51,3.43,6.1,7.75,9.88,10.28L83.91,136.6a11.35,11.35,0,0,0-6.65,10.1c0,.06.1,1.77.13,2l0,.17c0,.17.13.69.15.78s.08.38.13.56v0l10.68,36.58,2.35,8a11.54,11.54,0,0,0,.61,1.6l.14.3a11.12,11.12,0,0,0,.82,1.38c.06.08.82,1.07,1.18,1.44,0,0,.85.8,1.27,1.12.08.06,1.12.77,1.58,1,.07,0,1.71.74,1.76.76.5.17,1.76.42,1.87.44.52.08,1.64.13,1.66.13l1.76-.15a11.28,11.28,0,0,0,9.14-14.39l-10.29-35.23,33.4-15.12c5.71-2.58,8.86-14.23,2-20.87A57.62,57.62,0,0,1,122.14,92.23Z" transform="translate(-22.81 -3)"/><path class="cls-1" d="M56.42,25.24c-.1,0-.81,0-.93.05a6.6,6.6,0,0,0-.74.19c-.13,0-.58.27-.68.32s-1,.9-1.11,1-.36.55-.4.64a7.45,7.45,0,0,0-.28.72,3.74,3.74,0,0,0-.13.78,4,4,0,0,0,3.7,4.27l19.65,1.5L92.7,36l23.53,1.8,2,.15a31,31,0,0,1,.09-3.66c.1-1.1.64-3.95.72-4.29L90,27.81l-26.23-2Z" transform="translate(-22.81 -3)"/><path class="cls-1" d="M133.77,56.51a31,31,0,0,1-6.46-14.73,30.64,30.64,0,0,1-.31-3.13,31.26,31.26,0,0,1,0-4.33,31.91,31.91,0,0,1,.56-3.64,31.06,31.06,0,0,1,.8-3l.14-.41v0A31.44,31.44,0,0,1,129.82,24,30.82,30.82,0,0,1,143,9.85l0,0-.48.13c-.47.12-.93.23-1.39.37s-.79.26-1.18.4-.88.31-1.31.49-.76.33-1.14.51-2,1-2.33,1.22-1.86,1.18-2.2,1.43-1.74,1.35-2,1.62-1.61,1.51-1.89,1.8-1.47,1.66-1.72,2-.57.76-.84,1.15-1.19,1.82-1.43,2.24-1.85,3.86-1.93,4.06-.56,1.59-.66,1.94-.39,1.55-.44,1.77-.15.59-.21.89l0,.22v0c-.15.83-.27,1.67-.35,2.52a28.17,28.17,0,0,0,11.31,25,27.65,27.65,0,0,0,10.37,4.74,31.11,31.11,0,0,1-7-5.19A30.54,30.54,0,0,1,133.77,56.51Z" transform="translate(-22.81 -3)"/><path class="cls-1" d="M164.25,9.83a27.94,27.94,0,0,0-3.73-.62Q159.24,9.1,158,9.1h-.17c-.37,0-.74,0-1.11.05-.54,0-1.09,0-1.63.1s-.77.11-1.16.17l-.27,0c-.41.07-.83.13-1.24.21s-.78.18-1.16.28-1,.24-1.42.38-.77.26-1.15.39-.9.32-1.34.5-.74.33-1.11.5-.85.4-1.27.62-.71.39-1.06.6-.8.48-1.2.74-.67.45-1,.69-.75.56-1.11.85-.63.51-.94.78-.7.63-1,1-.58.56-.86.85-.64.7-.95,1.05-.52.61-.77.92-.57.77-.85,1.16-.46.65-.68,1-.51.84-.75,1.26-.4.67-.58,1l-.06.12c-.21.41-.39.84-.58,1.26s-.32.69-.47,1l-.21.56v0c-.08.22-.15.44-.22.66l-.09.27c-.12.34-.25.68-.35,1-.17.57-.3,1.16-.43,1.74v0c-.07.3-.15.59-.21.89-.17.91-.3,1.83-.39,2.77a28,28,0,0,0,0,4.28,27.5,27.5,0,0,0,.37,3.13,27.89,27.89,0,0,0,4.46,10.93,28.31,28.31,0,0,0,2.31,2.89,27.89,27.89,0,0,0,16.45,8.9h0c.6.09,1.19.2,1.81.26q1.28.11,2.53.11h.17c.39,0,.77,0,1.15-.05s1.06,0,1.59-.1.79-.11,1.18-.17,1-.14,1.49-.24l.71-.16.46-.12c.47-.12.95-.24,1.41-.38s.77-.26,1.15-.39.9-.32,1.34-.51.74-.33,1.11-.5.85-.4,1.27-.63.71-.39,1.06-.6.81-.48,1.2-.74.67-.45,1-.69.75-.56,1.12-.85.63-.51.93-.77.7-.63,1-1,.58-.56.85-.85.64-.7.95-1.06.52-.6.77-.92.58-.77.86-1.16.46-.64.67-1,.51-.84.76-1.27.39-.67.57-1,.44-.92.65-1.39.32-.68.47-1,.37-1,.54-1.53c.12-.34.24-.67.35-1,.17-.58.3-1.18.44-1.78.07-.3.15-.58.21-.88.17-.91.3-1.83.39-2.77A28,28,0,0,0,164.25,9.83Z" transform="translate(-22.81 -3)"/></svg>