<?xml version="1.0" encoding="utf-8"?>
<!-- Generator: Adobe Illustrator 19.2.0, SVG Export Plug-In . SVG Version: 6.00 Build 0)  -->
<svg version="1.1" id="Layer_1" xmlns="http://www.w3.org/2000/svg" xmlns:xlink="http://www.w3.org/1999/xlink" x="0px" y="0px"
	 width="100px" height="100px" viewBox="0 0 100 100" style="enable-background:new 0 0 100 100;" xml:space="preserve">
<style type="text/css">
	.st0{fill:#4EA3C9;}
</style>
<path id="privacy_icon" class="st0" d="M35.2,33.5v-9.6c0.2-8.1,6.9-14.6,15-14.5c7.9,0.2,14.3,6.5,14.5,14.5v9.6H35.2z M40.4,66.7
	c-0.2-5.5,4.1-10.1,9.6-10.2c5.5-0.2,10.1,4.1,10.2,9.6c0.2,5.5-4.1,10.1-9.6,10.2c-2.7,0.1-5.4-1-7.3-2.9
	C41.4,71.7,40.4,69.3,40.4,66.7z M73.9,33.5v-9.6C73.9,10.7,63.2,0,50,0C36.8,0,26.1,10.7,26.1,23.9v9.6h-4.7c-2.5,0-4.9,1-6.7,2.8
	c-1.9,1.7-2.9,4.1-2.9,6.6v47.7c0,2.5,1,4.9,2.9,6.6c1.8,1.8,4.2,2.8,6.7,2.8h57.2c2.5,0,4.9-1,6.7-2.8c1.9-1.7,2.9-4.1,2.9-6.6
	V42.9c0-2.5-1-4.9-2.9-6.6c-1.8-1.8-4.2-2.8-6.7-2.8L73.9,33.5L73.9,33.5z"/>
</svg>
