<svg xmlns="http://www.w3.org/2000/svg" width="97.976" height="97.793" viewBox="0 0 16.656 16.625">
  <defs>
    <style>
      .cls-1 {
        fill: #4ea3c9;
        fill-rule: evenodd;
      }
    </style>
  </defs>
  <path id="quote_icon" data-name="quote icon" class="cls-1" d="M663.766,684.91a0.766,0.766,0,0,0-.254-0.586,0.864,0.864,0,0,0-.606-0.234h-10.82a0.8,0.8,0,0,0-.82.82v11.68l3.32-3.359h8.32a0.865,0.865,0,0,0,.606-0.235,0.766,0.766,0,0,0,.254-0.586v-7.5Zm1.64,2.5v7.5h-10.82v1.68a0.8,0.8,0,0,0,.82.82h9.18l3.32,3.32v-12.5a0.8,0.8,0,0,0-.82-0.821h-1.68Z" transform="translate(-651.25 -684.094)"/>
</svg>
