<?xml version="1.0" encoding="utf-8"?>
<!-- Generator: Adobe Illustrator 20.0.0, SVG Export Plug-In . SVG Version: 6.00 Build 0)  -->
<svg version="1.1" id="Layer_1" xmlns="http://www.w3.org/2000/svg" xmlns:xlink="http://www.w3.org/1999/xlink" x="0px" y="0px"
	 viewBox="0 0 100 100" style="enable-background:new 0 0 100 100;" xml:space="preserve">
<style type="text/css">
	.st0{fill:#4ea3c9;}
</style>
<g id="dVSkEN_1_">
	<g>
		<g>
			<path class="st0" d="M50,76.5c-6.6,0-13.1-2.3-17.4-6.6l-0.3-0.3l5.8-7.3l0.4,0.2c5.7,3.6,7.6,4.4,11.3,4.4c0,0,0.1,0,0.1,0
				c4.3,0,8-1.4,11.1-4.1c5.8-5.1,7.5-13.1,4.2-20c-3.3-6.8-10.6-10.6-18.2-9.3c-6,1-12.1,6.5-13,11.7c1.5,0,4.9,0,6.5,0
				c0.4,0,1.2,0.2,1.6,0.7c0.3,0.6-0.2,1.4-0.4,1.7c-3.7,4.6-7.4,9.1-11.1,13.7c-0.6,0.7-1.1,1-1.7,1c0,0,0,0,0,0
				c-0.6,0-1.1-0.3-1.6-1c-3.4-4.1-6.9-8.5-11.2-13.8c0,0-0.8-1-0.4-1.6c0.3-0.5,1-0.7,1.5-0.7c1.7,0,5.5,0,6.8,0
				C26.5,32.4,37.2,23.5,50,23.5c0,0,0,0,0,0c11.9,0,22.4,8,25.5,19.5c3.2,11.8-1.9,23.9-12.7,30.2C59,75.4,54.5,76.5,50,76.5z"/>
		</g>
		<g>
			<path class="st0" d="M50,5.7c24.4,0,44.3,19.9,44.3,44.3S74.4,94.3,50,94.3S5.7,74.4,5.7,50S25.6,5.7,50,5.7 M50,0
				C22.4,0,0,22.4,0,50s22.4,50,50,50s50-22.4,50-50S77.6,0,50,0L50,0z"/>
		</g>
	</g>
</g>
</svg>
