<svg id="Layer_1" data-name="Layer 1" xmlns="http://www.w3.org/2000/svg" width="200" height="151.25" viewBox="0 0 200 151.25"><defs><style>.cls-1{fill:#fff;fill-rule:evenodd;}</style></defs><title>rowing_icon_wht</title><path class="cls-1" d="M55.75,95.28c4.23-2,29.88-8.52,36.25-10l9.07,11.34c1.38,1.66,8,10.9,8,12.82s-2.38,1.67-3.75,1.67c-1.84,0-6.44-3.23-8.41-4.5-1-.67-1.85-1-2.92-1.66-18-10.81-19.64-2-24.92,1.58l-10-8.34a17.65,17.65,0,0,1-3.34-2.91Zm8.75,16.25c-1.26,2.39-1.31,1.7-5,1.67l-41.58.09c-1.6.3-3.42,1.75-3.42,3.66,0,4.21,2.87,4.19,7.08,4.17H73.26c4.84-.05,4.85,1.51,10.76,6.32,1.45,1.18,5.47,4.11,6.31,5.36-3.28,0-17.42,2.08-25.42,2.08-14.85,0-26,.08-40.34-3.83a74.57,74.57,0,0,1-17.73-6.86c-.62-.31-6.94-5-6.94-2.23,0,4.14,10.54,11.61,13.74,13.76C31.94,147.94,60.27,149.18,82.87,147c4.21-.41,8.43-1,12.17-1.58,2.11-.35,3.74-.58,5.68-1,3.32-.7,2.8-1.06,4.85.61l11.26,9.18c5.74,4.41.62,11.38,13.33,21.25,4.51,3.5,11.92,10.66,17.68,10.66,3.35,0,12.08-8.7,12.08-13.33,0-3.41-10.7-12.28-14-14.76-6.84-5.15-8.93-5.71-17.37-6.79-4.81-.62-3.29,1.78-10.2-4.39-1-.87-1.7-1.44-2.74-2.26-1.28-1-1.92-1-2.37-2.63l15.34-2.16c17.33-2.07,31.27-4.09,50.08-4.09l16.59.91c1.31.16,4.66,1.29,4.66-.91,0-3-14.56-6.67-18-7.4-23.09-4.89-55-2.51-77.44,1.94-6.17,1.23-5.1,1.38-14.45-6.72a10.91,10.91,0,0,1-2.59-2.41h90.42c5.35,0,9.58.85,9.58-4.17,0-3.6-3.36-3.78-7.08-3.75h-32.5c-.37-4.51-8-18.31-10.91-22.84-4.15-6.47-14.58-20.1-21.3-23.7-9-4.82-15.71-2.29-24.71.86-15.28,5.35-29,10.85-43.85,17-3.1,1.28-9.69,3.39-8,8.69a5.78,5.78,0,0,0,4.79,4c5.15,1,2.59-1.2,11.18,6.32Z" transform="translate(0.09 -34.87)"/><path class="cls-1" d="M72.41,48.62c0,12.87,15,19.4,24.07,10.32,8.86-8.9,3.39-24.07-10.74-24.07C78.76,34.87,72.41,41.54,72.41,48.62Z" transform="translate(0.09 -34.87)"/></svg>