<?xml version="1.0" encoding="utf-8"?>
<!-- Generator: Adobe Illustrator 19.2.0, SVG Export Plug-In . SVG Version: 6.00 Build 0)  -->
<svg version="1.1" id="Layer_1" xmlns="http://www.w3.org/2000/svg" xmlns:xlink="http://www.w3.org/1999/xlink" x="0px" y="0px"
	 width="100px" height="100px" viewBox="0 0 100 100" style="enable-background:new 0 0 100 100;" xml:space="preserve">
<style type="text/css">
	.st0{fill:#384353;}
</style>
<path class="st0" d="M0,0"/>
<g>
	<path class="st0" d="M33.4,62.1c-0.9,0-1.9-0.4-2.6-1.1L19.5,49.3c-1.4-1.4-1.3-3.7,0.1-5c1.4-1.4,3.7-1.3,5,0.1L36,56.1
		c1.4,1.4,1.3,3.7-0.1,5C35.2,61.8,34.3,62.1,33.4,62.1z"/>
	<path class="st0" d="M46.3,43.3c-0.9,0-1.9-0.4-2.6-1.1L32.4,30.4c-1.4-1.4-1.3-3.7,0.1-5c1.4-1.4,3.7-1.3,5,0.1l11.3,11.8
		c1.4,1.4,1.3,3.7-0.1,5C48.1,42.9,47.2,43.3,46.3,43.3z"/>
	<path class="st0" d="M65.4,31.3c-0.9,0-1.9-0.4-2.6-1.1L51.5,18.5c-1.4-1.4-1.3-3.7,0.1-5c1.4-1.4,3.7-1.3,5,0.1l11.3,11.8
		c1.4,1.4,1.3,3.7-0.1,5C67.1,31,66.3,31.3,65.4,31.3z"/>
	<path class="st0" d="M70,7.1c7.5,0,13.6,2,17.2,5.7c5,5,6.9,14.5,4.9,25.4c-2.1,12.5-9,25.2-18.8,35.1C61.1,85.4,44.6,92.9,30,92.9
		c-7.5,0-13.6-2-17.2-5.7c-5-5-6.9-14.5-4.9-25.4c2.2-12.5,9.1-25.3,18.9-35.1C38.9,14.6,55.4,7.1,70,7.1L70,7.1 M70,0
		C54.8,0,36.3,7.2,21.7,21.7C-1.6,45.1-6,78.5,7.8,92.2c5.2,5.2,13.1,7.8,22.3,7.8c15.2,0,33.7-7.2,48.3-21.7
		c23.3-23.3,27.7-56.8,14-70.5C87.1,2.6,79.1,0,70,0L70,0z"/>
	<path class="st0" d="M10.6,87.4l-6.3-3.2C11.6,70,26,44.2,40.7,30.9C53.2,19.6,70.4,10,82.6,3.8l3.2,6.3
		c-11.9,5.9-28.5,15.3-40.3,26C31.6,48.6,17.7,73.6,10.6,87.4z"/>
</g>
</svg>
