<svg id="Layer_1" data-name="Layer 1" xmlns="http://www.w3.org/2000/svg" width="35.33mm" height="35.28mm" viewBox="0 0 100.14 100"><defs><style>.cls-1,.cls-2{fill:#fff;}.cls-1{isolation:isolate;}</style></defs><title>rugby_icon</title><path class="cls-1" d="M0,0" transform="translate(0.01 0)"/><path class="cls-2" d="M33.4,62.1A3.81,3.81,0,0,1,30.8,61L19.5,49.3a3.54,3.54,0,0,1,5.1-4.9L36,56.1A3.55,3.55,0,0,1,33.4,62.1Z" transform="translate(0.01 0)"/><path class="cls-2" d="M46.3,43.3a3.81,3.81,0,0,1-2.6-1.1L32.4,30.4a3.54,3.54,0,1,1,5.1-4.9L48.8,37.3A3.55,3.55,0,0,1,46.3,43.3Z" transform="translate(0.01 0)"/><path class="cls-2" d="M65.4,31.3a3.81,3.81,0,0,1-2.6-1.1L51.5,18.5a3.54,3.54,0,1,1,5.1-4.9L67.9,25.4a3.5,3.5,0,0,1-.1,5A3.58,3.58,0,0,1,65.4,31.3Z" transform="translate(0.01 0)"/><path class="cls-2" d="M70,7.1c7.5,0,13.6,2,17.2,5.7,5,5,6.9,14.5,4.9,25.4-2.1,12.5-9,25.2-18.8,35.1C61.1,85.4,44.6,92.9,30,92.9c-7.5,0-13.6-2-17.2-5.7-5-5-6.9-14.5-4.9-25.4C10.1,49.3,17,36.5,26.8,26.7,38.9,14.6,55.4,7.1,70,7.1h0M70,0C54.8,0,36.3,7.2,21.7,21.7-1.6,45.1-6,78.5,7.8,92.2,13,97.4,20.9,100,30.1,100c15.2,0,33.7-7.2,48.3-21.7,23.3-23.3,27.7-56.8,14-70.5C87.1,2.6,79.1,0,70,0h0Z" transform="translate(0.01 0)"/><path class="cls-2" d="M10.6,87.4L4.3,84.2C11.6,70,26,44.2,40.7,30.9,53.2,19.6,70.4,10,82.6,3.8l3.2,6.3C73.9,16,57.3,25.4,45.5,36.1,31.6,48.6,17.7,73.6,10.6,87.4Z" transform="translate(0.01 0)"/></svg>