<?xml version="1.0" encoding="utf-8"?>
<!-- Generator: Adobe Illustrator 21.0.2, SVG Export Plug-In . SVG Version: 6.00 Build 0)  -->
<svg version="1.1" id="Layer_1" xmlns="http://www.w3.org/2000/svg" xmlns:xlink="http://www.w3.org/1999/xlink" x="0px" y="0px"
	 viewBox="0 0 100 100" style="enable-background:new 0 0 100 100;" xml:space="preserve">
<style type="text/css">
	.st0{fill:#384353;}
</style>
<g>
	<path class="st0" d="M48.5,63.2c8-2.6,15-4.9,22-7.2C57.9,49.7,46,64.2,32,54.4c11.6-3.5,21.6-6.5,31.5-9.6c-0.3-1.4-0.7-2.8-1-4.2
		C54,42.7,45.2,44.1,37,47.2c-10,3.8-18.5,1.7-26-4.8c-2.3-2-4.4-6.4-3.8-9.1c2.4-12,10-20.1,19.6-24.8c4.1,7.2,6.3,15.7,11.7,18.9
		s14.1,2.2,21.1,1.2c6.8-1,10.2,0.9,13.3,6.7c6.6,12.4,10.3,27,24.7,33.9c1.8,0.9,3,6,2.2,8.1c-0.8,1.9-4.9,3.3-7.6,3.3
		C79.2,80.9,62.5,74.1,48.5,63.2z"/>
	<path class="st0" d="M1.6,47.3c31.9,13,57.3,40.7,94.9,43.2c-3.3,0.3-6.7,1.3-9.8,0.7c-8.2-1.7-16.8-2.8-24.1-6.6
		C41.4,73.6,20.8,61.4,0,49.7C0.5,48.9,1,48.1,1.6,47.3z"/>
</g>
</svg>
