<svg id="Layer_1" data-name="Layer 1" xmlns="http://www.w3.org/2000/svg" width="144.53" height="200" viewBox="0 0 144.53 200"><defs><style>.cls-1{fill:#4da3c9;fill-rule:evenodd;}</style></defs><title>sailing_icon</title><path class="cls-1" d="M119.49,77.61c0,7.86-.55,16.34-1.2,24.18-.11,1.28-.27,3-.46,4.61a243,243,0,0,1-6.62,34c-.33,1.28-.72,2.65-1.09,4a23.51,23.51,0,0,0-1.17,4.29c5.12,0,24.33-2.67,31.64-3.12,5.25-.32,10.87-1.3,16-1.56,6.77-.33,13.18-1.23,20.35-1.53,1.92-.08,2.06-.25,1.79-2.18-.38-2.75-.61-5.75-.94-8.14-.74-5.46-1.36-10.08-2.3-15.28A248.18,248.18,0,0,0,169,88.29a169.75,169.75,0,0,0-6.67-19.11c-7.8-18.63-12-24.41-23-38.68-1.34-1.72-2.64-2.71-4.07-4.52-2.36-3-11.07-9.74-14.45-12.11-2-1.37-9.19-5.59-11.78-5.8l4.3,15.62c3.45,14.13,3.59,21.17,5.36,34.49Z" transform="translate(-36.29 4.03)"/><path class="cls-1" d="M38.24,150.66c3.69.31,5.81,2,14.06,2,14.06,0,17.74.05,32.35-2,13.12-1.86,10.83.76,8.71-11.71-4.11-24.25-3.47-54-1.64-78.1.53-7,2.2-25.08,3.54-30.83-1.53.55-3.64,5-4.52,6.41C82.3,50.11,74.1,64.5,66.89,78.91L49.24,117.12C47,122.8,38.77,144.32,38.24,150.66Z" transform="translate(-36.29 4.03)"/><path class="cls-1" d="M44.1,162c.36,1.54,7.27,16.41,7.81,16.41,4.39,0,9-7.4,20.84-2.09,8.14,3.66,6.62,2.89,13.7-.09,6-2.54,9.27-2.54,15.3,0,7.43,3.13,5.57,3.61,13.16.34,13.44-5.8,16.72,2.24,22.55,2.24,1.85,0,5.85-2.13,7.69-2.85,11.62-4.54,6.22,2.85,15.46-6a144.83,144.83,0,0,0,13.14-15.38c1-1.36.66-.07.82-1.92a61.15,61.15,0,0,1-8.82-.17c-5.31-.8-10.88.18-17.35.16-7.48,0-19.48,1.48-25.39,1.56-3.76.05-13.35,1.56-16.79,1.56V-.12c0-2.5-1.14-3.67-2.42-3.91h-1a3,3,0,0,0-1.95,1.24c-1.06,1.57-.46,21.8-.46,24.15V147.92c0,7.6,1,8.5-1.92,8.63l-41.61,4.09c-2.42.34-4,.37-6.41.62C48.75,161.44,45.91,162,44.1,162Z" transform="translate(-36.29 4.03)"/><path class="cls-1" d="M36.29,190.5c0,1.46,2.42,1.28,6.51,3.26,12.57,6.06,15.74-2.29,22.4-2.3,3.85,0,7.87,4.51,15.23,4.51,4.18,0,10.23-4.51,13.67-4.51,6.95,0,9.28,8.11,21.86,2.55,1.69-.75,4.63-2.3,6.81-2.47,6.62-.52,9.7,8.31,22.36,2.35,1.62-.76,5.09-2.43,6.77-2.43,6.67,0,9.84,8.35,22.4,2.3,4.8-2.31,6.17-1.56,6.51-3.22v-7.85c-5.38.12-12.28,4.69-14.45,4.69-4.74,0-9.75-7.88-21.6-2.85-8.21,3.49-5.67,3.85-14.06.22-6.35-2.74-8.73-2.67-15.07-.06-8.61,3.55-5.13,3.53-13.83.06-6.54-2.61-8.34-2.8-15.13-.12-1.61.64-5.43,2.64-7,2.66s-5.29-1.82-6.77-2.53c-11.77-5.56-17.55,2.61-22.14,2.61-1,0-5.62-2.08-6.77-2.6a23.68,23.68,0,0,0-7.68-2.08Z" transform="translate(-36.29 4.03)"/><path class="cls-1" d="M50,13.55c1.85,2.52,15.95,5.95,18.43,6.57,9.49,2.36,16.74,2.81,26.88,2.81V6.13C87.15,8,83,9.32,74.08,11.11A99,99,0,0,1,50,13.55Z" transform="translate(-36.29 4.03)"/></svg>