<svg id="Layer_1" data-name="Layer 1" xmlns="http://www.w3.org/2000/svg" width="200.24" height="201" viewBox="0 0 200.24 201"><defs><style>.cls-1{fill:#394454;fill-rule:evenodd;}</style></defs><title>scuba_diving_icon_drk</title><path class="cls-1" d="M61.23,177.23a18.67,18.67,0,0,1,5.59-13.65C78,152.38,99.7,158.3,99.7,178c0,7.31-4.82,13.53-10.59,16.5-11.46,5.91-27.89-1.71-27.89-17.29ZM182.14,43.75h-2.75v89.12c0,11.17-3.24,25.31-12.43,30.36-3,1.67-6.62,3.4-11.12,3.4H120.9c-1.49,0-.91-1.2-3.43-4-3.79-4.25-9-8.14-15.41-8.14H58.87c-15.62,0-29.37,23.62-14.43,38.38,4,3.92,8.88,7.16,15.22,7.16h41.61c8.08,0,15.34-5.54,18.84-12.17q16.88,0,33.76,0c30,0,46.72-23.67,46.72-55.75V43.36l-16.88.22A13.69,13.69,0,0,1,182.14,43.75Z" transform="translate(-0.38 1)"/><path class="cls-1" d="M60.44,128.94c-1.8-.87-25.56-3.15-30.85-4.08s-13.51-5.42-14.74-11.17c-2.11-9.8.27-21.43,4-29.89,2.43-5.54,10.28-8.64,16.49-8.64,6.79,0,14.68-.26,21.31.29,2.29.19.43-.61,6.23,0l34.49.06c2.12,0,3.52-.47,5-.34l25.19-.05a22.39,22.39,0,0,1,13.66,5.19,10.72,10.72,0,0,1,2.44,3.84,47.4,47.4,0,0,1,3.22,9.35c1.24,5.27,2.5,18.52-.24,22.69-.2.31-1.68,2.12-1.94,2.38-7.31,7.3-17.17,6.83-27.12,8.21l-15.93,1.74-.38-16.89c0-4.53-1-6.93-3-9.59-10.75-14.21-34.94-8.07-37,6.51a38.32,38.32,0,0,0-.45,6.62c0,2.36,0,4.71,0,7.07,0,2.84-.4,3.91-.4,6.67ZM.38,105c0,16.05,4.68,23.74,18.18,30.49,7.12,3.56,21.6,4.51,30.72,5.79,6.18.87,15,3.28,20.88-2.22,2.66-2.48,4.08-5,4-10.11,0-2.9.4-4.08.4-6.66,0-4.46-.79-11.13,1.25-12.88,2.66-2.28,8.55-2.08,10.84,0,1.8,1.62,1.21,17,1.23,20,.07,8.41,6.84,13.33,14.93,13.33l31.83-4.29c10.84-1.44,24.4-10.83,26.29-22,1.58-9.36,1.53-14.82-.3-24.06-1.26-6.35-4.65-16.47-9-20.81a26.56,26.56,0,0,0-8.74-6.18c-12.1-6.06-25.46-3.53-40-3.53l-67.52-.39C25.25,61.42,14.64,66.06,8.67,74,3.66,80.73.38,96,.38,105Z" transform="translate(-0.38 1)"/><path class="cls-1" d="M179.39,41h21.2c0-9,.54-6.74-3.08-15.76L188,.59c-.4-1-.69-1.41-1.43-1.59h-7.19Z" transform="translate(-0.38 1)"/><path class="cls-1" d="M66.72,176.45c0,8.82,5.8,14.53,14.53,14.53,6.79,0,13-5.93,13-14.53,0-7.09-5.95-13-14.53-13C73,163.49,66.72,169.84,66.72,176.45Z" transform="translate(-0.38 1)"/></svg>