<?xml version="1.0" encoding="utf-8"?>
<!-- Generator: Adobe Illustrator 20.0.0, SVG Export Plug-In . SVG Version: 6.00 Build 0)  -->
<svg version="1.1" id="Layer_1" xmlns="http://www.w3.org/2000/svg" xmlns:xlink="http://www.w3.org/1999/xlink" x="0px" y="0px"
	 viewBox="0 0 283.5 283.5" style="enable-background:new 0 0 283.5 283.5;" xml:space="preserve">
<style type="text/css">
	.st0{fill:#4DA3C9;}
	.st1{fill:#FFFFFF;}
</style>
<g>
	<circle class="st0" cx="141.7" cy="141.7" r="141.7"/>
</g>
<g id="EBtOux_1_">
	<g>
		<path class="st1" d="M138.9,69.5c1.8,0,3.6,0,5.4,0c0.4,0.5,1,0.4,1.6,0.4c2,0.2,3,1.2,3.3,3.3c0.6,3.4,0.9,6.9,1.4,10.3
			c1.3,9.1,9,15.7,18.6,14.2c3.4-0.5,6.2-2.3,8.9-4.4c2.6-2.1,5.2-4.2,8-6c0.8-0.5,1.5-0.5,2.3-0.1c3.3,1.9,5.9,4.5,7.8,7.8
			c0.5,0.8,0.5,1.5-0.1,2.3c-1.7,2.7-3.6,5.1-5.6,7.6c-1.5,1.8-2.8,3.7-3.7,5.8c-1.9,4.7-1.8,9.5,0.7,13.9c2.8,4.9,7.2,7.6,12.9,8.4
			c3.8,0.5,7.6,0.7,11.3,1.6c0.8,0.2,1.3,0.6,1.5,1.4c0.3,1.1,0.6,2.2,0.8,3.4c0,1.6,0,3.2,0,4.8c-0.5,0.7-0.4,1.6-0.6,2.4
			c-0.3,1.3-0.9,2-2.3,2.3c-3.6,0.8-7.3,1-11,1.5c-9.1,1.2-15.8,8.9-14.3,18.7c0.5,3.4,2.2,6.2,4.3,8.8c2.1,2.7,4.3,5.3,6.1,8.1
			c0.5,0.8,0.5,1.5,0.1,2.3c-1.9,3.4-4.6,6-8.1,7.9c-0.7,0.4-1.2,0.4-1.8-0.1c-2.2-1.4-4.4-3-6.4-4.6c-1.8-1.4-3.5-2.9-5.5-4
			c-5.1-2.8-10.5-3-15.5-0.2c-4.9,2.7-7.7,7.1-8.4,12.7c-0.5,3.9-0.7,7.8-1.7,11.6c-0.2,0.8-0.5,1.2-1.3,1.5
			c-1.1,0.3-2.1,0.6-3.2,0.9c-1.8,0-3.6,0-5.4,0c-0.3-0.5-0.9-0.4-1.3-0.4c-2.1-0.2-3-1.3-3.3-3.4c-0.5-3.3-0.8-6.7-1.3-10.1
			c-1.4-9.7-9.2-15.7-18.7-14.4c-3.5,0.5-6.3,2.3-9,4.4c-2.6,2.1-5.2,4.2-8,6c-0.7,0.4-1.2,0.5-1.9,0.1c-3.5-1.9-6.2-4.5-8.1-8
			c-0.4-0.7-0.4-1.4,0.1-2.1c1.5-2.3,3.1-4.5,4.8-6.6c1.4-1.7,2.8-3.4,3.8-5.4c2.7-5.1,2.8-10.4,0-15.4c-2.7-4.9-7.1-7.6-12.7-8.3
			c-3.8-0.5-7.6-0.7-11.3-1.6c-1-0.2-1.5-0.7-1.7-1.6c-0.2-1-0.5-2-0.8-3c0-1.7,0-3.4,0-5.1c0.5-0.7,0.4-1.6,0.6-2.4
			c0.3-1.3,0.9-2,2.3-2.2c3.6-0.8,7.3-1,11-1.5c9-1.2,15.8-8.8,14.3-18.7c-0.6-3.6-2.4-6.5-4.6-9.2c-2-2.5-4.1-5-5.8-7.8
			c-0.4-0.7-0.5-1.2-0.1-2c1.9-3.4,4.5-6.1,7.9-8c0.8-0.5,1.5-0.5,2.3,0.1c2.4,1.6,4.6,3.2,6.8,5c1.6,1.3,3.3,2.6,5.2,3.6
			c5,2.6,10.2,2.7,15.1,0c4.9-2.7,7.7-7.1,8.4-12.7c0.5-3.8,0.7-7.7,1.7-11.4c0.2-1,0.7-1.4,1.6-1.7C137.1,70,138.1,70.1,138.9,69.5
			z M175.6,141.7c0-18.6-15.2-33.8-33.8-33.8c-18.7,0-33.9,15.2-33.9,33.8c0,18.6,15.2,33.8,33.8,33.8
			C160.3,175.6,175.6,160.3,175.6,141.7z"/>
	</g>
</g>
</svg>
