<?xml version="1.0" encoding="utf-8"?>
<!-- Generator: Adobe Illustrator 20.0.0, SVG Export Plug-In . SVG Version: 6.00 Build 0)  -->
<svg version="1.1" id="Layer_1" xmlns="http://www.w3.org/2000/svg" xmlns:xlink="http://www.w3.org/1999/xlink" x="0px" y="0px"
	 width="566.9px" height="566.9px" viewBox="0 0 566.9 566.9" style="enable-background:new 0 0 566.9 566.9;" xml:space="preserve"
	>
<style type="text/css">
	.st0{fill:#CCCCCC;}
</style>
<g id="EBtOux_1_">
	<g>
		<path class="st0" d="M272.4,0c7,0,14,0,21,0c1.7,1.9,4.1,1.5,6.2,1.7c8,0.8,11.6,4.8,12.9,12.8c2.2,13.5,3.4,27.1,5.3,40.6
			c5.1,35.8,35.3,61.5,73.1,55.7c13.4-2,24.5-8.9,34.9-17.1c10.3-8.1,20.4-16.4,31.5-23.5c3.3-2.1,6-2.1,9.2-0.3
			c13,7.4,23.1,17.5,30.5,30.5c1.8,3.2,1.8,5.9-0.2,9.1c-6.7,10.4-14.3,20.1-22.1,29.7c-5.7,7-11,14.4-14.4,22.9
			c-7.5,18.5-7.1,37.2,2.7,54.4c10.9,19.2,28.3,30,50.5,32.8c14.8,1.8,29.7,2.9,44.3,6.4c3.3,0.8,5.1,2.4,5.9,5.6
			c1,4.4,2.2,8.8,3.3,13.3c0,6.3,0,12.5,0,18.8c-1.9,2.9-1.7,6.3-2.5,9.5c-1.1,5-3.4,7.7-8.9,8.9c-14.3,3-28.8,4.1-43.3,6
			c-35.8,4.8-62.1,35.1-56.2,73.2c2,13.2,8.6,24.2,16.8,34.4c8.3,10.4,16.7,20.6,23.8,31.9c2.1,3.3,2.1,5.9,0.3,9.1
			c-7.6,13.3-18.1,23.7-31.6,31c-2.6,1.4-4.6,1.4-7.1-0.2c-8.8-5.5-17.1-11.6-25.1-18.2c-6.9-5.6-13.7-11.2-21.5-15.5
			c-20.1-11.1-41.1-11.7-60.9-0.9c-19.2,10.4-30.1,27.7-33.1,49.7c-2,15.2-2.9,30.5-6.6,45.4c-0.7,3-2.1,4.9-5.2,5.7
			c-4.2,1.1-8.4,2.3-12.6,3.5c-7,0-14,0-21,0c-1.3-1.8-3.4-1.6-5-1.7c-8.3-0.7-11.7-5.1-13-13.3c-2.1-13.1-3.3-26.3-5.2-39.5
			c-5.6-38.2-36.1-61.7-73.2-56.3c-13.6,2-24.8,9-35.3,17.4c-10.3,8.1-20.3,16.5-31.5,23.4c-2.6,1.6-4.8,2.1-7.6,0.5
			C87.8,490,77.2,479.6,69.7,466c-1.6-2.9-1.6-5.3,0.2-8.2c5.7-9.1,12.1-17.6,18.9-25.9c5.5-6.7,11-13.4,15-21.2
			c10.5-20.1,11-40.8,0.1-60.4c-10.6-19.1-28-29.8-50-32.7c-14.8-1.9-29.7-2.8-44.3-6.4c-3.8-0.9-5.7-2.7-6.6-6.3
			c-0.9-3.9-2.1-7.7-3.1-11.6c0-6.6,0-13.3,0-19.9c1.9-2.9,1.7-6.3,2.4-9.5c1.1-5,3.5-7.7,8.9-8.8c14.3-3,28.8-4.1,43.3-6
			c35.4-4.8,62.1-34.7,56.2-73.3c-2.2-14-9.4-25.4-18.1-36.2c-8-9.9-16-19.8-22.7-30.6c-1.6-2.6-2-4.8-0.5-7.7
			c7.3-13.5,17.7-23.9,31-31.5c3.2-1.8,5.9-1.8,9.2,0.3c9.3,6.1,18.1,12.7,26.7,19.7c6.4,5.2,13,10.3,20.4,14.2
			c19.8,10.3,40.2,10.6,59.4,0.1c19.1-10.5,30.1-27.7,33-49.7c2-15,2.9-30.1,6.5-44.9c0.9-3.8,2.7-5.5,6.3-6.6
			C265.4,2,269.3,2.3,272.4,0z M416.1,283.3c-0.1-73-59.5-132.4-132.5-132.4c-73.2-0.1-132.9,59.6-132.8,132.7
			c0.1,73,59.5,132.4,132.5,132.5C356.4,416.1,416.2,356.4,416.1,283.3z"/>
	</g>
</g>
</svg>
