<?xml version="1.0" encoding="utf-8"?>
<!-- Generator: Adobe Illustrator 19.2.1, SVG Export Plug-In . SVG Version: 6.00 Build 0)  -->
<svg version="1.1" id="Layer_1" xmlns="http://www.w3.org/2000/svg" xmlns:xlink="http://www.w3.org/1999/xlink" x="0px" y="0px"
	 width="100px" height="100px" viewBox="0 0 100 100" style="enable-background:new 0 0 100 100;" xml:space="preserve">
<style type="text/css">
	.st0{fill:#4EA3C9;}
</style>
<path class="st0" d="M55.3,19.1c0-4.3,0-8.5,0-12.7c0-1.6-0.1-3.2,0-4.7c0-0.6,0.3-1.5,0.7-1.7c0.5-0.2,1.4,0.1,1.8,0.5
	C63.6,5.7,69.4,11,75.1,16.2c7.7,7.1,15.5,14.2,23.2,21.3c2.2,2,2.2,2.1,0,4.2C85.1,53.8,71.8,66,58.5,78.2
	c-0.2,0.2-0.5,0.6-0.7,0.7c-0.6,0.2-1.3,0.6-1.8,0.4c-0.4-0.2-0.7-1-0.7-1.6c0-5.4,0-10.9,0.1-16.3c0-0.4,0-0.8,0-1.4
	c-0.6-0.1-1.1-0.1-1.6-0.2c-7.7-0.2-15,1.9-21.9,5.3C20.2,71,11,79.5,5.2,91.7c-1.1,2.3-1.8,4.8-2.8,7.2c-0.2,0.5-0.9,1-1.4,1.1
	c-0.8,0-1-0.7-1-1.5C0,85.1,1.6,72,6.3,59.3c4.4-11.9,11-22.1,21.1-29.8c7.1-5.4,15-8.8,23.7-10C52.4,19.3,53.9,19.3,55.3,19.1z"/>
</svg>
