<?xml version="1.0" encoding="utf-8"?>
<!-- Generator: Adobe Illustrator 20.0.0, SVG Export Plug-In . SVG Version: 6.00 Build 0)  -->
<svg version="1.1" id="Layer_1" xmlns="http://www.w3.org/2000/svg" xmlns:xlink="http://www.w3.org/1999/xlink" x="0px" y="0px"
	 viewBox="0 0 283.5 283.5" style="enable-background:new 0 0 283.5 283.5;" xml:space="preserve">
<style type="text/css">
	.st0{fill:#FFFFFF;}
	.st1{fill:#4EA3C9;}
</style>
<circle class="st0" cx="141.8" cy="141.8" r="119.5"/>
<path class="st1" d="M141.8,0.1C63.5,0.1,0.1,63.5,0.1,141.8s63.4,141.7,141.7,141.7s141.7-63.4,141.7-141.7S220.1,0.1,141.8,0.1z
	 M219.5,128.4c-21.2,19.5-42.7,39.1-64.1,58.8c-0.3,0.3-0.8,1-1.1,1.1c-1,0.3-2.1,1-2.9,0.6c-0.6-0.3-1.1-1.6-1.1-2.6
	c0-8.7,0-17.5,0.2-26.2c0-0.6,0-1.3,0-2.3c-1-0.2-1.8-0.2-2.6-0.3c-12.4-0.3-24.1,3.1-35.3,8.5c-18.8,9.5-33.6,23.2-43,42.8
	c-1.8,3.7-2.9,7.7-4.5,11.6c-0.3,0.8-1.4,1.6-2.3,1.8c-1.3,0-1.6-1.1-1.6-2.4c0-21.6,2.6-42.7,10.1-63.1c7.1-19.2,17.7-35.6,34-48
	c11.4-8.7,24.1-14.2,38.1-16.1c2.1-0.3,4.5-0.3,6.8-0.6c0-6.9,0-13.7,0-20.4c0-2.6-0.2-5.2,0-7.6c0-1,0.5-2.4,1.1-2.7
	c0.8-0.3,2.3,0.2,2.9,0.8c9.3,8.4,18.7,16.9,27.8,25.3c12.4,11.4,24.9,22.9,37.3,34.3C223.1,124.9,223.1,125.1,219.5,128.4z"/>
</svg>
