<svg id="Layer_1" data-name="Layer 1" xmlns="http://www.w3.org/2000/svg" width="200" height="200" viewBox="0 0 200 200"><defs><style>.cls-1{fill:#fff;}</style></defs><title>skateboarding_icon_wht</title><path class="cls-1" d="M200.81,57.15c1.24-5.32,1.14-11.42-.28-18.64a113.07,113.07,0,0,0-3.66-13.75,40.06,40.06,0,0,0-14.16-19h0A17.91,17.91,0,0,0,171.31,1c-9.63-.28-15.37,7.38-19.66,14.58a120.88,120.88,0,0,1-7.3,10.58,210.1,210.1,0,0,1-19.49,22.44L101.91,71.55,87.07,86.4,72.22,101.25,49.28,124.19a210.64,210.64,0,0,1-22.44,19.49A120.88,120.88,0,0,1,16.26,151c-7.2,4.29-14.86,10-14.58,19.66A17.91,17.91,0,0,0,6.46,182a40.05,40.05,0,0,0,19,14.17,112.87,112.87,0,0,0,13.75,3.66A55.2,55.2,0,0,0,49.86,201a35.1,35.1,0,0,0,8-.86,59.68,59.68,0,0,0,28.74-15.88l1-1,7,7c4.06,4.06,12.7,2,19.32-4.63s8.69-15.26,4.63-19.32l-7-7L160,110.86l7,7c4.06,4.06,12.7,2,19.32-4.63S195,98,190.91,93.9l-7-7,1-1A59.66,59.66,0,0,0,200.81,57.15ZM155.4,68a4.73,4.73,0,1,1,0,6.68A4.73,4.73,0,0,1,155.4,68Zm-7,20.39a4.73,4.73,0,1,1,0-6.68A4.73,4.73,0,0,1,148.37,88.34Zm-11.29-34a4.73,4.73,0,1,1,0,6.68A4.73,4.73,0,0,1,137.08,54.35ZM123.37,68.06a4.73,4.73,0,1,1,0,6.68A4.73,4.73,0,0,1,123.37,68.06Zm-41,73a4.73,4.73,0,1,1,0,6.68A4.73,4.73,0,0,1,82.32,141Zm-13.6-18.32a4.73,4.73,0,1,1,0,6.68A4.73,4.73,0,0,1,68.73,122.71Zm-.11,32a4.73,4.73,0,1,1,0,6.68A4.73,4.73,0,0,1,68.61,154.73ZM55,136.42a4.73,4.73,0,1,1,0,6.68A4.73,4.73,0,0,1,55,136.42Zm57,36.38c1.77,1.77.75,5.65-2.28,8.67s-6.9,4-8.67,2.28-.75-5.65,2.28-8.67S110.25,171,112,172.79Zm72.38-72.38c1.77,1.77.75,5.65-2.28,8.67s-6.9,4-8.67,2.28-.75-5.65,2.28-8.67S182.63,98.64,184.4,100.41Zm-2.82-17.87L83.2,180.92a54.92,54.92,0,0,1-26.47,14.61c-4.65,1.08-10.1,1-16.65-.31-3.28-.65-6.65-1.55-10-2.58l.93.13a61.56,61.56,0,0,0,25.32-2.2l.17-.05a48.69,48.69,0,0,0,19.15-12l51.76-51.76,51.76-51.76a48.66,48.66,0,0,0,12-19.15l.05-.17a61.52,61.52,0,0,0,2.2-25.32c0-.31-.09-.62-.13-.93,1,3.39,1.93,6.77,2.58,10.05,1.3,6.55,1.4,12,.32,16.65A55,55,0,0,1,181.58,82.54Z" transform="translate(-1.67 -1)"/></svg>