<svg id="Layer_1" data-name="Layer 1" xmlns="http://www.w3.org/2000/svg" width="200" height="182.06" viewBox="0 0 200 182.06"><defs><style>.cls-1{fill:#fff;}</style></defs><title>skiiing_icon_wht</title><g id="_Group_" data-name="&lt;Group&gt;"><path id="_Path_" data-name="&lt;Path&gt;" class="cls-1" d="M186.18,60.79A19.26,19.26,0,1,0,160.42,52,19.26,19.26,0,0,0,186.18,60.79Z" transform="translate(1.39 -13.91)"/><path id="_Path_2" data-name="&lt;Path&gt;" class="cls-1" d="M133.92,85.62c-1.54,7.49-.86,14.2,6.6,16.25l34.35,9.43h0a10.42,10.42,0,0,0,5.53-20.08h0L162.9,86.41,156,81.79c2.1-10.19,1.35-6.57,3.21-15.64,1-4.77-2.68-10.88-4.82-15.26a16.58,16.58,0,0,0-22.19-7.59l-11.5,5.64L139,61.19c-.42,1.45-1.42,6.49-1.75,8.11l-81-54.08A7.72,7.72,0,0,0,47.7,28.05Z" transform="translate(1.39 -13.91)"/><path id="_Path_3" data-name="&lt;Path&gt;" class="cls-1" d="M197.51,176.09a7.72,7.72,0,0,0-10.58-2.66l-10.62,6.36L106,155.6l33.14-27.92a12.74,12.74,0,0,0-.7-20L119.91,94.14l6.66-3.26.77-.38L88.63,64.65h0A21.32,21.32,0,0,0,77,80.43c-1.34,8.15,2.07,15.23,9.77,21l23.59,17.19L78.21,146,8.84,122.15a7.72,7.72,0,0,0-5,14.59l170.86,58.8a7.71,7.71,0,0,0,6.48-.67l13.71-8.2A7.72,7.72,0,0,0,197.51,176.09Z" transform="translate(1.39 -13.91)"/></g></svg>