<svg id="Layer_1" data-name="Layer 1" xmlns="http://www.w3.org/2000/svg" width="200" height="193.35" viewBox="0 0 200 193.35"><defs><style>.cls-1{fill:#4da3c9;fill-rule:evenodd;}</style></defs><title>snooker_icon</title><path class="cls-1" d="M92.58,94.81c0-9.26,2.32-16.26,8.22-22.2,10.86-10.92,29.43-11.71,40-1.45,6.57,6.38,10.1,12.58,10.1,22.81a31.51,31.51,0,0,1-8.42,20.33,36.14,36.14,0,0,1-8.65,5.93A29.53,29.53,0,0,1,122.07,123c-8,.42-16.4-4-20.44-8.09a27.83,27.83,0,0,1-6.14-8.44,25.09,25.09,0,0,1-2.91-11.67ZM65.91,106.9c0,6.9,2,17,4.86,23.06,13.73,28.47,43.11,41.37,73.24,28.78,11.35-4.74,22.53-15.54,27.6-26.56,7.19-15.64,7.77-33.9.14-49.45a72.9,72.9,0,0,0-5-8.33c-13.47-20.47-44.5-29.89-67.92-18.34-9,4.43-17.07,10.54-22.66,19C70,84.44,65.91,95.18,65.91,106.9Z" transform="translate(0.75 -5.63)"/><path class="cls-1" d="M1.33,44.81c.13,1.56,10.71,25.3,12.26,29,7.85,18.75,17.47,38.91,25.18,57.73l12.55,28.7c1.4,3.21,2.77,6.4,4.17,9.58L68,199H95.08L12.16,39.81C9.56,41.19,4.19,44.15,1.33,44.81Z" transform="translate(0.75 -5.63)"/><path class="cls-1" d="M56.33,6.9c.85,1.28,2.56,1.88,4.42,4.33a13.77,13.77,0,0,1,2.61,6.57A17,17,0,0,1,47.73,37.42a14.59,14.59,0,0,1-7.22-1.37c-2.42-1.25-4.19-3.55-5-4.15-.13,6.06-1.82,6.9,2.14,17.45,2,5.39,5.7,9.25,9.89,12.61,5.19,4.17,11.55,6.19,18.81,6.19,1.22,0,1.45-.93,2-1.71,6-7.79,13.35-14.56,22.26-19,1.09-.54,4.29-1.94,5-2.49.9-.69.86-1,1.17-2.58C100.37,24.2,85,5.65,68.41,5.65a38.09,38.09,0,0,0-7.93.41C58.91,6.33,57.83,6.77,56.33,6.9Z" transform="translate(0.75 -5.63)"/><path class="cls-1" d="M118,39.81c17.24,0,30.15,3.06,43.28,13A63.88,63.88,0,0,1,175.38,67a66.75,66.75,0,0,1,7.73,13.52c.74,1.7,1.25,3.62,2,5.12,4.78-3.2,8.86-10.44,11.24-15.84,3.05-6.93,2.92-12.35,2.92-19.58a22.86,22.86,0,0,0-.42-2.92c-2.08,1.39-2.14,2.66-6.16,5.09-8,4.82-19,1.7-24.58-3.94-9.28-9.32-9.71-24.11-1.25-31.89,1.14-1.05,2.87-1.94,3.65-3-7.74-3.71-21.35-2.1-28.76.83A30.14,30.14,0,0,0,136.46,17a40.72,40.72,0,0,0-5,3.33C126.86,24.25,118.54,33.33,118,39.81Z" transform="translate(0.75 -5.63)"/><path class="cls-1" d="M116.75,100.65c0-5.55,3.6-8.1,8.19-4.44,2.71,2.17,2.92,8.6-3.19,8.6-2.69,0-5-1.56-5-4.17Zm.42-18.33c0-4.91,8.75-6.13,8.75.83,0,1.73-2,6.34-6.93,2.76a4.82,4.82,0,0,1-1.82-3.59Zm-8.33-.42c0,3.66,1.15,7.72,5,8.75v.83c-9.09,2.12-8.92,19.58,5.42,19.58,5.54,0,8.13.36,12.75-3.08a10.13,10.13,0,0,0-.42-16.33c-1.12-.83-1.58-.82-2.33-1.84,7.41-1.73,7.41-17.5-5.42-17.5-4.18,0-8-.11-11.36,2.8C110.65,76.72,108.83,78.67,108.83,81.9Z" transform="translate(0.75 -5.63)"/><path class="cls-1" d="M169.66,21.9c1,1.92,6.26,12.53,7.92,13.75,1.22-.82,2.27-2,3.68-3,7.71-5.34,11.31,1.9,5.6,6.85-1.61,1.39-3.3,1.84-5.11,2.8.46,2,1.66,3.59,2.08,5.42,4.26-1,9.24-6.08,10.59-10.26,1.19-3.69-1.46-6.4-4.34-10.16-1.88-2.45-1.85-2.5-4.17-2.5-2.84,0-4.93,1.75-6.67,2.92-.69-1.31-1.36-2.39-2.08-3.75,1.63-.38,4.49-2.43,5.83-3.33-1-1.51-2.66-2.33-4.17-3.33C176.74,17.8,171.83,20.75,169.66,21.9Z" transform="translate(0.75 -5.63)"/><path class="cls-1" d="M45.08,14.4c2.11,0,2.27.42,4.58.42L42.82,25.47c-.85,1.39-1.91,2.39-2.32,3.93a40.78,40.78,0,0,1,4.17,2.5L56.33,13.56C52,11.28,50.57,9,46.13,12.94,45.16,13.81,45.45,13,45.08,14.4Z" transform="translate(0.75 -5.63)"/><path class="cls-1" d="M-.75,39l.42,3.33c1.2-.1,10.41-4.27,11.25-5.42C9.32,30.94-.75,33-.75,39Z" transform="translate(0.75 -5.63)"/></svg>