<svg id="Layer_1" data-name="Layer 1" xmlns="http://www.w3.org/2000/svg" width="200" height="190.77" viewBox="0 0 200 190.77"><defs><style>.cls-1{fill:#394454;fill-rule:evenodd;}</style></defs><title>snowboarding_icon_drk</title><path class="cls-1" d="M143.15,96c1.58-1.93.4-1.45,2.81.38l15.27,11.33c-4.58,8.66-16,16.57-21.28,24.47-4.2-2-6.86-.55-9.57-4.26C148.07,126.42,151,99.52,143.15,96ZM7,11.93c.95,3.55,2.17,3.59,5.72,4.92,10,3.77,11.84,3.32,23.72,9.26C48.63,32.22,65.75,46.47,73,56.58c5.77,8.09,9.76,20.35,18,26.64,2,1.49,10.61,9,11.72,10.62-13.8,0-38.3,4.29-38.3,17,0,7.77-.14,7.27,4.26,13.83-6.77,10.12-7.45,8.83-7.45,20.21,0,10.27,13.82,15.95,24.91,14.34,6.81-1,11.45-1.33,17.45-2.83,3.94-1,12.2-3.73,16.15-4.06-3.38,5.05-30.82,21.31-14.15,39.68,15.61,17.19,33.48-6.36,38.88-11.75l38.84-39.88c8.53-9.23,23.66-24,23.66-33.79,0-11.48-7.69-19.15-19.15-19.15-10,0-11.24,5.7-17,9.57-2.55-1.87-4.39-5.47-6.69-8.2-10.17-12-29-24.71-43.32-31.15-6.87-3.08-14.85-4.83-21.66-8.12-5.17-2.5-14.49-14.91-32.57-27C53.18,13.6,15.38.47,7,11.93Z" transform="translate(-6.98 -7.46)"/><path class="cls-1" d="M43.15,69.38c0,6.09-.49,10.24,5,15.21,12.51,11.33,29,.71,29-12C77.19,47.37,43.15,51.63,43.15,69.38Z" transform="translate(-6.98 -7.46)"/></svg>