<?xml version="1.0" encoding="utf-8"?>
<!-- Generator: Adobe Illustrator 19.2.0, SVG Export Plug-In . SVG Version: 6.00 Build 0)  -->
<svg version="1.1" id="Layer_1" xmlns="http://www.w3.org/2000/svg" xmlns:xlink="http://www.w3.org/1999/xlink" x="0px" y="0px"
	 width="100px" height="100px" viewBox="0 0 100 100" style="enable-background:new 0 0 100 100;" xml:space="preserve">
<style type="text/css">
	.st0{fill:#FFFFFF;}
</style>
<path class="st0" d="M0,0"/>
<g>
	<path class="st0" d="M50,7.1c23.7,0,42.9,19.3,42.9,42.9S73.7,92.9,50,92.9S7.1,73.7,7.1,50S26.3,7.1,50,7.1 M50,0
		C22.4,0,0,22.4,0,50s22.4,50,50,50s50-22.4,50-50S77.6,0,50,0L50,0z"/>
</g>
<path class="st0" d="M46.5,77.1L23,53l15.6-29.8l33.1,5.7l5,33.2L46.5,77.1z M31.6,51.8l16.3,16.7l20.9-10.4l-3.4-23l-22.9-3.9
	L31.6,51.8z"/>
<rect x="31.6" y="3.7" transform="matrix(0.9016 -0.4326 0.4326 0.9016 -3.4842 16.7855)" class="st0" width="7.1" height="24.7"/>
<rect x="65.6" y="21.3" transform="matrix(0.7305 -0.6829 0.6829 0.7305 3.5246 58.6315)" class="st0" width="20.9" height="7.1"/>
<rect x="79.6" y="52.9" transform="matrix(0.3653 -0.9309 0.9309 0.3653 -6.8828 118.1483)" class="st0" width="7.1" height="22.5"/>
<rect x="30.2" y="81.9" transform="matrix(0.2571 -0.9664 0.9664 0.2571 -50.0347 105.8061)" class="st0" width="27.2" height="7.1"/>
<rect x="1.9" y="52.9" transform="matrix(0.9539 -0.3 0.3 0.9539 -16.2474 7.0744)" class="st0" width="26" height="7.1"/>
</svg>
