<svg id="Layer_1" data-name="Layer 1" xmlns="http://www.w3.org/2000/svg" width="200" height="200" viewBox="0 0 200 200"><defs><style>.cls-1{fill:#fff;}</style></defs><title>softball_icon_wht</title><path class="cls-1" d="M99,5A100,100,0,1,0,199,105,99.87,99.87,0,0,0,99,5ZM96.78,193.89A88.85,88.85,0,0,1,10.11,105v-.67c1.56,0,3.78.22,6.67.44l-.67,3.78a5,5,0,0,0,4,5.78h.44a5.15,5.15,0,0,0,5.78-4l.89-4.22,6,1.33-1.33,4.22a4.9,4.9,0,0,0,3.56,6h.22a4.68,4.68,0,0,0,5.78-3.11l1.33-3.78A54.28,54.28,0,0,1,48.11,113l-1.78,3.56A4.88,4.88,0,0,0,48.78,123H49a5,5,0,0,0,6.44-2l2-3.56a30.52,30.52,0,0,1,4.44,2.89l-2.44,3.33a5,5,0,0,0,1.11,6.89,4.79,4.79,0,0,0,6.44-.67l2.89-3.33c1.33,1.33,2.67,2.67,4.22,4L71,133.22a4.74,4.74,0,0,0-.67,6.89l.22.44a4.74,4.74,0,0,0,6.89.67l3.78-2.89c1.33,1.78,2.44,3.56,3.56,5.33l-4,2a5.12,5.12,0,0,0-2.22,6.67l.22.44A5.12,5.12,0,0,0,85.44,155l4-2c.89,2,1.78,4,2.44,6l-4.67,1.56a4.8,4.8,0,0,0-3.11,6.22l.22.44a4.8,4.8,0,0,0,6.22,3.11L94.78,169a60.29,60.29,0,0,1,1.33,8.44l-3.78.22a4.93,4.93,0,0,0-4.67,5.11v.44a4.93,4.93,0,0,0,5.11,4.67l4.22-.22A50.39,50.39,0,0,1,96.78,193.89Zm10.44-.22a56.27,56.27,0,0,0,.22-6.44l4.44-.22a5.22,5.22,0,0,0,4.89-5.56h0a5.22,5.22,0,0,0-5.56-4.89l-4.44.22a106.77,106.77,0,0,0-2-11.11l4-1.33a5.16,5.16,0,0,0,3.33-6.44h0a5,5,0,0,0-6.67-3.33l-3.56,1.11c-.89-2.44-2-4.89-3.11-7.56l3.56-1.78a5.12,5.12,0,1,0-4.67-9.11l-3.78,2A80.39,80.39,0,0,0,89,132.11L92.78,129a5.25,5.25,0,0,0,.67-7.33h0a5.25,5.25,0,0,0-7.33-.67l-3.78,3.11c-1.78-2-3.78-3.56-5.56-5.33L79.89,115a5.25,5.25,0,0,0-.67-7.33h0a5.25,5.25,0,0,0-7.33.67l-3.33,4c-2.22-1.56-4.44-2.89-6.44-4.22l2.22-4.67a5,5,0,0,0-2.44-6.89h0A5,5,0,0,0,55,99l-2.22,4.44c-2.44-1.11-4.89-2-7.33-2.89l1.33-4.89A5.1,5.1,0,0,0,43,89.44h0a5.1,5.1,0,0,0-6.22,3.78l-1.11,4.44C33.44,97,31,96.56,29,96.11l.89-4.44a5.12,5.12,0,0,0-4.22-6h0a5.12,5.12,0,0,0-6,4.22l-.89,4.89c-3.33-.22-6-.44-8-.44A89,89,0,0,1,89.89,16.78c-.22,2-.22,4.67-.22,8L85.22,25a5.32,5.32,0,0,0-4.89,5.33v.22a5.32,5.32,0,0,0,5.33,4.89l4.67-.22a106.77,106.77,0,0,0,2,11.11l-4,.89A5.16,5.16,0,0,0,85,53.67,5.31,5.31,0,0,0,91.22,57L95,55.89c.89,2.44,2,4.89,3.11,7.56l-3.56,1.78a5.17,5.17,0,0,0-2.22,6.89v.22a5.17,5.17,0,0,0,6.89,2.22l3.78-2a80.39,80.39,0,0,0,4.89,7.11l-3.78,3.11a5,5,0,0,0-.67,7.11v.22a5,5,0,0,0,7.11.67l4-3.11c1.78,2,3.78,3.56,5.56,5.33L117,96.78a5,5,0,0,0,.67,7.11h.22a5,5,0,0,0,7.11-.67l3.33-4c2.22,1.56,4.44,2.89,6.44,4.22l-2.22,4.67a5.17,5.17,0,0,0,2.22,6.89H135a5.17,5.17,0,0,0,6.89-2.22l2.22-4.67c2.44,1.11,4.89,2,7.33,2.89l-1.33,4.89a5.13,5.13,0,0,0,3.56,6.22h.22a5.13,5.13,0,0,0,6.22-3.56l1.11-4.44c2.22.67,4.67,1.11,6.67,1.56l-.89,4.44a5.38,5.38,0,0,0,4,6h.22a5.38,5.38,0,0,0,6-4l.89-4.89a69.5,69.5,0,0,0,8.67.44A88.58,88.58,0,0,1,107.22,193.67Zm73.11-86.89.44-4a5.07,5.07,0,0,0-4-5.33h0a5,5,0,0,0-6,4l-.67,3.78-6-1.33,1.11-4a5,5,0,0,0-3.11-6h0a5,5,0,0,0-6.22,2.89l-1.56,4A54.28,54.28,0,0,1,149,98.56l1.56-3.78a5,5,0,0,0-2.44-6.44,5.26,5.26,0,0,0-6.67,2l-2,3.56A30.52,30.52,0,0,1,135,91l2.22-3.11A5,5,0,0,0,136.11,81h0a4.85,4.85,0,0,0-6.67.67L126.78,85c-1.33-1.33-2.67-2.67-4.22-4l3.11-2.67a4.74,4.74,0,0,0,.67-6.89l-.22-.44a4.74,4.74,0,0,0-6.89-.67L115.89,73c-1.33-1.78-2.44-3.56-3.56-5.33l4-2A5.12,5.12,0,0,0,118.56,59l-.22-.44a5.12,5.12,0,0,0-6.67-2.22l-4,2c-.89-2-1.78-4-2.44-6l4.67-1.56A4.8,4.8,0,0,0,113,44.56l-.22-.44A4.8,4.8,0,0,0,106.56,41l-4.44,1.78a60.29,60.29,0,0,1-1.33-8.44l4-.22a5,5,0,0,0,4.67-5.33v-.44a5,5,0,0,0-5.33-4.67l-4.22.22c0-3.33.22-6,.22-7.78A88.92,88.92,0,0,1,187.89,105a7.56,7.56,0,0,1-.22,2.22A53.45,53.45,0,0,1,180.33,106.78Z" transform="translate(1 -5)"/></svg>