<svg id="Layer_1" data-name="Layer 1" xmlns="http://www.w3.org/2000/svg" width="200" height="163.69" viewBox="0 0 200 163.69"><defs><style>.cls-1{fill:#394454;fill-rule:evenodd;}</style></defs><title>sprint_icon_drk</title><path class="cls-1" d="M41.74,42.5c0,4.33,3.5,4.57,7,4.54,6.29,0,31.35-.84,34.16.5s3.36,5.3.66,7.08c-3.22,2.12-17.73-.14-22.41.7s-7,11.58-1,17.43c5.86,5.69,12.89,3,17.76-1.88l23.22-21.76,5.48,4.84a46.16,46.16,0,0,1,5.25,5.48c-2.12,3.17-16.52,16.64-20.74,20.95-2.47,2.53-1.42,2.2-6.08,2.17H17.81c-2.66,0-5.67-.14-8.28,0-4.46.19-6,5.6-2.48,7.89,2.48,1.6,13.66.8,16.94.8,5.72,0,62.87-.56,64.95.26,3.75,1.47,2.43,7.06-1.12,7.85-3.1.69-50.35.11-54.77.12-5.73,0-6.68,5.9-3.29,7.88,3.23,1.88,31.5.5,38.42.79,1.4.06,2,.18,2.77.94a6.47,6.47,0,0,1,1.33,2.79c0,5.91-7.28,4.54-13.21,4.54-2.35,4.44-8.23,11.6-11.54,16.11-1.2,1.63-33.78,26.09-39,29.93a11.74,11.74,0,0,0,4.07,20.65c6.63,1.74,10.25-2.09,14.1-5l5.64-4.26c2-1.64,3.76-2.87,5.86-4.46l11.43-8.79c14.67-11,11.15-6.92,20.75-19.69,1.54-2,2.74-3.58,4.2-5.71s2.9-3.78,4.37-5.95l8.59-11.63c2.51.58,26.63,7.39,29.3,8.67-1,1.54-4.47,4.25-6.09,5.88l-6.4,6c-4.25,4.29-10.22,7.51-10.22,15.37,0,3.62,2.73,7.12,4.88,8.74,7,5.27,13.49.81,18.54-4.3,1.22-1.24,2.24-2.35,3.5-3.52.84-.78,1-.76,1.84-1.46a26.09,26.09,0,0,0,1.88-1.84c2.42-2.43,4.6-4.18,7-6.6l8.88-8.46c3.77-3.32,10.83-8.59,10.83-13.93,0-12.48-8.43-12.67-20.87-16.27-1.69-.49-2.4-1-4.3-1.06.4-1.51,2.57-2.77,3.82-4l12.28-11.66a31.67,31.67,0,0,1,3.82,3.19c5.83,5.86,12.57,15.83,22.14,12.46,3.45-1.22,12-10.17,15.4-13.49l7.43-7c1.37-1.39,2.37-1.93,3.72-3.29,4.18-4.2,9-7,9-14.14,0-10.5-12.86-15.11-20.53-7.33-.82.83-1.41,1.5-2.26,2.28-1,.93-1.47,1.07-2.49,2.05-1.8,1.73-12.9,12.93-14.33,13.32-1.87-1.25-5.47-5.25-7.33-7.12L131,44.87c-1.45-1.46-2.53-2.09-3.93-3.5L112,26.72C107.65,22.36,106.45,21,99.93,21,94.23,21,89.55,28,85.59,31.46l-5.15,4.75c-.91.93-1.4,1.88-2.82,2.14-5,.9-30.44-1.36-33.83.83A5,5,0,0,0,41.74,42.5Z" transform="translate(-3.93 -19.8)"/><path class="cls-1" d="M139.55,37.55c0,6.82,1.26,10.09,5.88,14.76,12.11,12.22,31.68,1.76,31.68-11.87,0-6.4-.75-10.65-5.66-15.39a20.05,20.05,0,0,0-12.91-5.25C148,19.8,139.55,28.77,139.55,37.55Z" transform="translate(-3.93 -19.8)"/><path class="cls-1" d="M26.48,42.92c0,4.71,5.63,4.13,7.84,4.13,4.47,0,6.92-8.67-2.48-8.67A6.66,6.66,0,0,0,28,39.52,6.11,6.11,0,0,0,26.48,42.92Z" transform="translate(-3.93 -19.8)"/></svg>