<svg id="Layer_1" data-name="Layer 1" xmlns="http://www.w3.org/2000/svg" width="200" height="148.24" viewBox="0 0 200 148.24"><defs><style>.cls-1{fill:#fff;fill-rule:evenodd;}</style></defs><title>sqaush_icon_wht</title><path class="cls-1" d="M56.05,43.27c0,21.7,30,19.83,30,1.05a14.31,14.31,0,0,0-4.25-10.48,6.08,6.08,0,0,0-.8-.78c-.39-.35-.79-.66-1.17-.94a22.39,22.39,0,0,0-2.21-1.47c-6.2-3.23-13-1.25-17.31,3.19l-.26.27a13.79,13.79,0,0,0-4,9.15ZM42.18,113.9C38.86,118.12,32,121,24.15,121,13,121,4,115.22,4,108.06s9-13,20.19-13c7.4,0,13.87,2.56,17.38,6.36L61.31,98c3.21-4.8,6.32-9.12,9.78-13.9,1.78-2.46,3-4.33,4.74-6.83l10.07-13.6c1.24-1.13,1.85-1.31,3.17-2.61l8.69-8.68c2.25-1.9,4.34-3.3,8.27-3.3h60c8.65,0,13.79,16.23.75,19.69-4.16,1.11-30.05.3-36.53.3C136.13,77.85,155,89.34,155,98.52v38.94h38.94a13.66,13.66,0,0,1,6.94,2.54c5.85,4.91,3.22,17.46-5.88,17.46H143.4c-3.18,0-6.39-3.21-7.54-5.62-1.75-3.66-.88-33.24-.88-38.58l-22.25,8.8c-2.29.91-5.23,1.83-7.22,2.78,0,5.23.64,43.09-.55,46.28-3.64,9.72-19.44,7.77-19.44-4.18V118.52c0-5.86,3.66-8.66,8.42-10.53l13.68-5.26c-.54-2-2.16-3-3.55-4.34L92.88,87.47,79.06,107.32c-6,8-6.46,10.09-10.58,10.59l-26.29-4ZM15.54,88.52c3.42,0,5.7-.14,8.31-2.74,5.72-5.68,2.34-17.26-6.73-17.26A10.21,10.21,0,0,0,6.85,77.76C6.12,83.24,11.43,88.52,15.54,88.52Z" transform="translate(-3.96 -29.06)"/></svg>