<?xml version="1.0" encoding="utf-8"?>
<!-- Generator: Adobe Illustrator 20.0.0, SVG Export Plug-In . SVG Version: 6.00 Build 0)  -->
<svg version="1.1" id="Layer_1" xmlns="http://www.w3.org/2000/svg" xmlns:xlink="http://www.w3.org/1999/xlink" x="0px" y="0px"
	 width="1091.3px" height="235.3px" viewBox="0 0 1091.3 235.3" style="enable-background:new 0 0 1091.3 235.3;"
	 xml:space="preserve">
<style type="text/css">
	.st0{fill:none;enable-background:new    ;}
	.st1{fill:#FFFFFF;}
	.st2{fill:#D21E41;}
</style>
<path class="st0" d="M0,0"/>
<path class="st1" d="M0,145.1l36-5.5c1.5,7,4.6,12.3,9.3,15.9c4.7,3.6,11.2,5.4,19.7,5.4c9.3,0,16.3-1.7,21-5.1
	c3.2-2.4,4.7-5.6,4.7-9.6c0-2.7-0.9-5-2.6-6.8c-1.8-1.7-5.8-3.3-12-4.7c-29-6.4-47.3-12.2-55.1-17.5C10.4,109.8,5,99.6,5,86.6
	c0-11.8,4.6-21.7,13.9-29.7c9.3-8,23.7-12,43.2-12c18.6,0,32.4,3,41.4,9.1c9,6.1,15.2,15,18.7,26.9l-33.9,6.3
	c-1.4-5.3-4.2-9.3-8.2-12.2c-4-2.8-9.8-4.2-17.3-4.2c-9.5,0-16.2,1.3-20.3,4c-2.7,1.9-4.1,4.3-4.1,7.3c0,2.6,1.2,4.7,3.6,6.5
	c3.2,2.4,14.4,5.8,33.5,10.1c19.1,4.3,32.5,9.7,40.1,16c7.5,6.4,11.2,15.3,11.2,26.7c0,12.5-5.2,23.2-15.6,32.1
	c-10.4,9-25.8,13.4-46.1,13.4c-18.5,0-33.1-3.8-43.9-11.3C10.4,168.1,3.3,157.9,0,145.1z"/>
<path class="st1" d="M247.5,183.8v-20.3c-4.9,7.2-11.4,13-19.5,17.1c-8.1,4.2-16.5,6.3-25.5,6.3c-9.1,0-17.3-2-24.5-6
	c-7.2-4-12.5-9.6-15.7-16.9c-3.2-7.2-4.9-17.3-4.9-30.1V48h35.9v62.4c0,19.1,0.7,30.8,2,35.1c1.3,4.3,3.7,7.7,7.2,10.2
	c3.5,2.5,7.9,3.8,13.3,3.8c6.1,0,11.6-1.7,16.5-5.1c4.9-3.4,8.2-7.5,10-12.5s2.7-17.2,2.7-36.6V48h35.9v135.9H247.5z"/>
<path class="st1" d="M317.1,48h33.5v20c4.3-6.8,10.2-12.4,17.6-16.6c7.4-4.3,15.6-6.4,24.7-6.4c15.8,0,29.1,6.2,40.1,18.5
	c11,12.4,16.5,29.6,16.5,51.7c0,22.7-5.5,40.3-16.6,52.9c-11.1,12.6-24.5,18.9-40.3,18.9c-7.5,0-14.3-1.5-20.4-4.5
	c-6.1-3-12.5-8.1-19.2-15.3v68.4h-35.9V48z M352.6,113.6c0,15.3,3,26.5,9.1,33.8c6,7.3,13.4,10.9,22.1,10.9c8.3,0,15.3-3.3,20.8-10
	c5.5-6.7,8.3-17.7,8.3-32.9c0-14.2-2.9-24.8-8.6-31.7c-5.7-6.9-12.8-10.4-21.2-10.4c-8.8,0-16.1,3.4-21.9,10.2
	C355.5,90.2,352.6,100.3,352.6,113.6z"/>
<path class="st1" d="M469.7,114c0-11.9,2.9-23.5,8.8-34.7c5.9-11.2,14.2-19.7,25-25.6c10.8-5.9,22.8-8.8,36.1-8.8
	c20.5,0,37.4,6.7,50.5,20c13.1,13.3,19.7,30.2,19.7,50.6c0,20.6-6.6,37.6-19.9,51.1c-13.2,13.5-29.9,20.3-50,20.3
	c-12.4,0-24.3-2.8-35.6-8.4c-11.3-5.6-19.9-13.9-25.8-24.8C472.6,142.8,469.7,129.6,469.7,114z M506.5,115.9c0,13.5,3.2,23.8,9.6,31
	c6.4,7.2,14.3,10.7,23.6,10.7c9.4,0,17.2-3.6,23.6-10.7c6.3-7.2,9.5-17.6,9.5-31.2c0-13.3-3.2-23.5-9.5-30.7
	c-6.3-7.2-14.2-10.7-23.6-10.7c-9.4,0-17.3,3.6-23.6,10.7C509.7,92.1,506.5,102.4,506.5,115.9z"/>
<path class="st1" d="M700.1,48v28.7h-24.5v54.7c0,11.1,0.2,17.5,0.7,19.4c0.5,1.8,1.5,3.3,3.2,4.5c1.7,1.2,3.7,1.8,6.1,1.8
	c3.3,0,8.1-1.2,14.4-3.5l3.1,27.9c-8.4,3.6-17.8,5.4-28.4,5.4c-6.5,0-12.3-1.1-17.5-3.3c-5.2-2.2-9-5-11.4-8.4
	c-2.4-3.5-4.1-8.1-5-14c-0.8-4.2-1.2-12.6-1.2-25.3V76.6H623V48h16.5V21l36-21v48H700.1z"/>
<path class="st1" d="M712.3,145.1l36-5.5c1.5,7,4.6,12.3,9.3,15.9c4.7,3.6,11.2,5.4,19.7,5.4c9.3,0,16.3-1.7,21-5.1
	c3.2-2.4,4.7-5.6,4.7-9.6c0-2.7-0.9-5-2.6-6.8c-1.8-1.7-5.8-3.3-12-4.7c-29-6.4-47.3-12.2-55.1-17.5c-10.7-7.3-16.1-17.5-16.1-30.6
	c0-11.8,4.6-21.7,13.9-29.7c9.3-8,23.7-12,43.2-12c18.6,0,32.4,3,41.4,9.1c9,6.1,15.2,15,18.7,26.9l-33.9,6.3
	c-1.5-5.3-4.2-9.3-8.2-12.2c-4-2.8-9.8-4.2-17.3-4.2c-9.5,0-16.2,1.3-20.3,4c-2.7,1.9-4.1,4.3-4.1,7.3c0,2.6,1.2,4.7,3.6,6.5
	c3.2,2.4,14.4,5.8,33.5,10.1c19.1,4.3,32.5,9.7,40.1,16c7.5,6.4,11.2,15.3,11.2,26.7c0,12.5-5.2,23.2-15.6,32.1
	c-10.4,9-25.8,13.4-46.1,13.4c-18.5,0-33.1-3.8-43.9-11.3C722.7,168.1,715.7,157.9,712.3,145.1z"/>
<path class="st1" d="M959.9,183.8v-20.3c-4.9,7.2-11.4,13-19.5,17.1c-8.1,4.2-16.5,6.3-25.5,6.3c-9.1,0-17.3-2-24.5-6
	c-7.2-4-12.5-9.6-15.7-16.9c-3.2-7.2-4.9-17.3-4.9-30.1V48h35.9v62.4c0,19.1,0.7,30.8,2,35.1c1.3,4.3,3.7,7.7,7.2,10.2
	c3.5,2.5,7.9,3.8,13.3,3.8c6.1,0,11.6-1.7,16.5-5.1c4.9-3.4,8.2-7.5,10-12.5s2.7-17.2,2.7-36.6V48h35.9v135.9H959.9z"/>
<rect x="469.7" class="st2" width="140.1" height="29.2"/>
</svg>
