<svg id="Layer_1" data-name="Layer 1" xmlns="http://www.w3.org/2000/svg" width="200" height="200" viewBox="0 0 200 200"><defs><style>.cls-1{fill:#394454;fill-rule:evenodd;}</style></defs><title>surfing_icon_drk</title><path class="cls-1" d="M102.14,124.16c.64-.77-.23-.52,2.46,1,.9.53,1.33.82,2.14,1.37,1.5,1,2.79,1.72,4.3,2.73s2.81,1.73,4.31,2.72c2.13,1.4,1.87,2.08,2.66,4.76l6.78,22.13a33.15,33.15,0,0,1-3.91,1.17l-4,1.13L113,162.36c-1.64.45-2.71.91-4.21,1.26,0-8.2-1.38-19.12-1.56-27A10.65,10.65,0,0,0,106,132c-.5-1.24-3-7.49-3.85-7.87ZM127.53,35.1c5.5,0,10.67-1.14,14.56-5.37,11.06-12,2.23-30.57-12.21-30.57-6.28,0-9.66,1.19-14,5.56C104.38,16.4,114.42,35.1,127.53,35.1ZM1.75,199.16l139-1.16c-10.14,0-32.27-4-42-6.79-14-4.06-29.2-9.9-40.54-18.45-6-4.55-16.41-13.08-16.27-23.21.12-8.64,6.91-10.39,13.09-11.16,1.88-.23,3.71.36,3.73-1.32s-4.93-2.57-6.78-3C39.77,131.3,31,133,21.5,140.4,6.35,152.19,1.75,181,1.75,199.16ZM45.5,81.58c5.91,0,7-3.34,13-9.27l8.39-9.18c6.19-7,4.88-4.59,12.2-4.59-.53.8-1,1.34-1.65,2.26C69.79,72.16,62.29,92,62.29,105.41c0,11,9.9,15.61,14.36,20,7.62,7.52,7.81,14.63,10.17,24.6.76,3.21,1.43,6.47,2.07,9.65l1.92,9.8c-2.35.2-11.09,3.6-14.06,4.3,2.66,3.63,25.14,10,30.47,11.32,20.59,5,32.35,4.69,53.12,4.69,2.82,0,15.23-8.67,18.67-11,7.86-5.35,22.53-18.63,22.73-27.66-2.29-.19-4.9-.95-7.64-1.35-15.85-2.32-34.3,1.3-49.58,4.33a10.29,10.29,0,0,1-1.26.22l-.9-.08-3.52-20.31c-1.8-10.81-.66-12-7.25-17-4.76-3.57-9.22-6.71-13.95-10.27l-14-10.27c1.25-5.37,6.71-20.21,10.94-23a39.18,39.18,0,0,0,2.61,6c1,2.22,1.71,4,2.75,6.23,1.51,3.21,6.56,5.47,10.4,7.57s21.54,12.24,23.3,12.24H156c4.24,0,9.67-7.61,4.59-13.18a9.37,9.37,0,0,0-2-1.51c-1-.68-1.28-1-2.26-1.65-1.61-1.09-2.79-1.87-4.39-3l-13-8.92c-3.79-2.71-2.93-3.73-5-9.85-1.38-4.09-5.74-19.73-7.19-22.11-2.12-3.49-4-4.85-7.76-6.69-7.36-3.56-22-2.82-30-1.65-5.14.75-23.58,1.4-26.28,3-2.9,1.74-16.41,20.58-19.48,24.66-2.34,3.12-5.13,5.91-4.94,9.5C38.58,78.75,43.07,81.58,45.5,81.58Z" transform="translate(-1.75 0.84)"/></svg>