<svg id="Layer_1" data-name="Layer 1" xmlns="http://www.w3.org/2000/svg" width="200" height="144.35" viewBox="0 0 200 144.35"><defs><style>.cls-1{fill:#4da3c9;}</style></defs><title>swimming_icon</title><path class="cls-1" d="M201,179.26a29.34,29.34,0,0,1-12.3-2.72,30,30,0,0,0-25.38,0,29.17,29.17,0,0,1-24.6,0,30.05,30.05,0,0,0-25.4,0,29.24,29.24,0,0,1-24.63,0,29.94,29.94,0,0,0-25.35,0,29.25,29.25,0,0,1-24.63,0A30.61,30.61,0,0,0,26,173.73a30.64,30.64,0,0,0-12.65,2.82A29.69,29.69,0,0,1,1,179.26V160.6a30.78,30.78,0,0,0,12.35-2.68,29.46,29.46,0,0,1,25.35,0,29.66,29.66,0,0,0,24.63,0,29.46,29.46,0,0,1,25.35,0,29.66,29.66,0,0,0,24.63,0,29.58,29.58,0,0,1,25.4,0,29.59,29.59,0,0,0,24.6,0,29.53,29.53,0,0,1,25.38,0A30.39,30.39,0,0,0,201,160.6Z" transform="translate(-1 -34.91)"/><path class="cls-1" d="M172,126.47a24.09,24.09,0,1,0-23.8-24.11C148.23,115.64,157.93,126.47,172,126.47Z" transform="translate(-1 -34.91)"/><path class="cls-1" d="M33.46,140a29.37,29.37,0,0,1,5.24,1.85,29.23,29.23,0,0,0,24.63,0,29.4,29.4,0,0,1,25.35,0,29.22,29.22,0,0,0,24.63,0A30.61,30.61,0,0,1,126,139a31,31,0,0,1,12.7,2.87,29.62,29.62,0,0,0,12.3,2.72,30.36,30.36,0,0,0,9.16-1.47L120.49,70.7l46.16-8.52c6.77-1.31,11.7-6.69,11.7-13.58a13.64,13.64,0,0,0-13.59-13.69c-.54,0-1,0-1.55,0L91.9,48.09c-5,1.16-11.63,8.57-7.86,17.67l.61,1.47,18.61,34Z" transform="translate(-1 -34.91)"/></svg>