<svg id="Layer_1" data-name="Layer 1" xmlns="http://www.w3.org/2000/svg" width="200" height="199.9" viewBox="0 0 200 199.9"><defs><style>.cls-1{fill:#fff;fill-rule:evenodd;}</style></defs><title>table_tennis_icon_wht</title><path class="cls-1" d="M49.28,56.41l29,30.37c1,1,1.95,1.86,2.93,2.93l20.49,21.69c2.09,2.12,4,3.92,6.07,6l5.66,6.06C118,128,141.5,153,143,154.07c1.61-.85,9.11-5.21,10.16-6.64a22.28,22.28,0,0,0-2.46-2.22c-12.46-10.32-15.05-30.43-5.18-44.1,3.9-5.4,7.45-8.07,13.24-11,8.89-4.46,19.8-4,28.91.52l5.57,3.42c.83.63.93.87,1.72,1.4,3.17-6.61,3.91-20,3.91-27.73,0-10.48-4-23.87-8.66-31.57a58.72,58.72,0,0,0-3.16-5c-2.41-3.2-5.55-7.49-8.63-10.12-5.71-4.88-10.58-8.92-18.05-12L154.8,6.75A75.11,75.11,0,0,0,135.08,2.9h-7.65a93.61,93.61,0,0,0-26.34,5.71C87.64,13.37,76.81,22.52,67,32.29c-1.58,1.56-2.54,2.87-4.11,4.49-.87.9-1,1.25-1.76,2.14L52.24,50.78C51.28,52.25,49.67,54.72,49.28,56.41Z" transform="translate(1.11 -2.9)"/><path class="cls-1" d="M39.9,87.27c0,12.18,2.78,22.68,8.66,32.35l5,7.88L-1.11,182v.19l20.8,20.61,54.88-54.69c.49.44.88.78,1.37,1.16A93,93,0,0,0,87.16,156a58.35,58.35,0,0,0,42,3.68c1.59-.45,2.4-.66,3.89-1.19a31.32,31.32,0,0,1,3.76-1.32c-.51-1.91-9.53-10.3-11-12l-5.67-6.05c-1-1-2-1.88-2.93-2.93L91.56,109.44c-.94-.94-1.88-1.75-2.72-2.75a35.2,35.2,0,0,0-2.75-3.11c-2-2-4-3.81-5.86-5.85L60.49,76.84c-2.17-2.6-6-5.48-8.64-8.93-1-1.3-4.68-5.26-6.08-5.63a46.85,46.85,0,0,1-2,5.42C41.76,73.27,39.9,81.06,39.9,87.27Z" transform="translate(1.11 -2.9)"/><path class="cls-1" d="M146.54,120.08c0,6.36,2.73,13.54,7.13,17.87,2.53,2.5,3.64,3.72,7.06,5.44,9,4.53,19.85,3.8,27.62-2.21A26,26,0,0,0,184.44,97C165.95,87.77,146.54,102.64,146.54,120.08Z" transform="translate(1.11 -2.9)"/></svg>