<?xml version="1.0" encoding="utf-8"?>
<!-- Generator: Adobe Illustrator 19.2.1, SVG Export Plug-In . SVG Version: 6.00 Build 0)  -->
<svg version="1.1" id="Layer_1" xmlns="http://www.w3.org/2000/svg" xmlns:xlink="http://www.w3.org/1999/xlink" x="0px" y="0px"
	 width="100px" height="100px" viewBox="0 0 100 100" style="enable-background:new 0 0 100 100;" xml:space="preserve">
<style type="text/css">
	.st0{fill:#374352;}
</style>
<ellipse class="st0" cx="50" cy="25" rx="24.1" ry="25"/>
<g>
	<path class="st0" d="M82.4,51.2v17.6h14.9c-1.8-8.5-5.8-16.3-14.9-20.6c-5.3-2.5-6-2.1-9.8,2c-0.3,0.3-0.6,0.7-0.9,1H82.4z"/>
	<path class="st0" d="M99.1,82.4H82.4V100c5.9,0,11.8,0,17.6,0C100.4,99.1,99.9,90.7,99.1,82.4z"/>
	<path class="st0" d="M51.2,82.4V68.8h17.6V53.9c-6.6,5.7-14.5,8.5-24.4,6.5C37,59,31.1,55.1,26.9,49.3c-1.9-2.6-4-3-7.2-1.9
		C12.2,50.1,8,55.6,5.1,62.1C0.6,72.4-0.6,98.1,0,100c22.1,0,45.8,0,68.8,0V82.4H51.2z"/>
</g>
</svg>
