<?xml version="1.0" encoding="utf-8"?>
<!-- Generator: Adobe Illustrator 19.2.1, SVG Export Plug-In . SVG Version: 6.00 Build 0)  -->
<svg version="1.1" id="Layer_1" xmlns="http://www.w3.org/2000/svg" xmlns:xlink="http://www.w3.org/1999/xlink" x="0px" y="0px"
	 width="100px" height="100px" viewBox="0 0 100 100" style="enable-background:new 0 0 100 100;" xml:space="preserve">
<style type="text/css">
	.st0{fill:#999999;}
</style>
<circle class="st0" cx="39.7" cy="18.5" r="18.5"/>
<path class="st0" d="M34.5,57.1h22.6V39.3c-5.7,6-12.7,9.2-21.8,7.5c-5.9-1.1-10.6-4.2-13.9-8.7c-1.5-2-3.2-2.4-5.7-1.5
	C9.7,38.8,6.4,43,4.2,48c-3.6,8-4.5,27.8-4.1,29.3c11.1,0,22.7,0,34.4,0V57.1z"/>
<polygon class="st0" points="100,65.5 80.5,65.5 80.5,46 65.5,46 65.5,65.5 46,65.5 46,80.5 65.5,80.5 65.5,100 80.5,100 80.5,80.5 
	100,80.5 "/>
<path id="text_icon" class="st0" d="M224.7-11.5c0-1.5-0.5-2.9-1.6-3.9l-13-13c-2.2-2.1-5.6-2.1-7.8,0l-10.2,10.2L213,2.6l10.2-10.1
	C224.2-8.6,224.7-10,224.7-11.5z M124.7,70h20.8L207,8.6l-20.8-20.8l-61.5,61.5V70z"/>
</svg>
