<?xml version="1.0" encoding="utf-8"?>
<!-- Generator: Adobe Illustrator 19.2.0, SVG Export Plug-In . SVG Version: 6.00 Build 0)  -->
<svg version="1.1" id="Layer_1" xmlns="http://www.w3.org/2000/svg" xmlns:xlink="http://www.w3.org/1999/xlink" x="0px" y="0px"
	 width="100px" height="100px" viewBox="0 0 100 100" style="enable-background:new 0 0 100 100;" xml:space="preserve">
<style type="text/css">
	.st0{fill:#384353;}
</style>
<path class="st0" d="M50,7.1c23.7,0,42.9,19.3,42.9,42.9S73.7,92.9,50,92.9S7.1,73.7,7.1,50S26.3,7.1,50,7.1 M50,0
	C22.4,0,0,22.4,0,50s22.4,50,50,50s50-22.4,50-50S77.6,0,50,0L50,0z"/>
<g>
	<path class="st0" d="M54.9,45C45,35,28.8,35,18.8,45L2.5,61.3l0,0l3.9,6.2L23.8,50c3.6-3.6,8.4-5.4,13.1-5.4S46.4,46.4,50,50
		c7.2,7.2,7.2,18.9,0,26.1L33.9,92.2l1.6,0.7l6.6,1l12.8-12.8C64.9,71.2,64.9,55,54.9,45z"/>
	<path class="st0" d="M94.4,31.8c-3.5,3.5-8.2,5.4-13.1,5.4c-5,0-9.6-1.9-13.1-5.4c-6.6-6.6-7.1-16.9-1.7-24.1l-7-2.7
		c-2.6,4-3.9,8.7-3.9,13.7c0,6.9,2.7,13.3,7.5,18.1c4.8,4.9,11.3,7.5,18.1,7.5c4.7,0,9.3-1.2,13.2-3.6V31.8z"/>
</g>
<path class="st0" d="M0,0"/>
</svg>
