<?xml version="1.0" encoding="utf-8"?>
<!-- Generator: Adobe Illustrator 19.2.0, SVG Export Plug-In . SVG Version: 6.00 Build 0)  -->
<svg version="1.1" id="Layer_1" xmlns="http://www.w3.org/2000/svg" xmlns:xlink="http://www.w3.org/1999/xlink" x="0px" y="0px"
	 width="100px" height="100px" viewBox="0 0 100 100" style="enable-background:new 0 0 100 100;" xml:space="preserve">
<style type="text/css">
	.st0{fill:#4EA3C9;}
	.st1{clip-path:url(#SVGID_2_);}
	.st2{fill:none;enable-background:new    ;}
</style>
<path class="st0" d="M50,7.1c23.7,0,42.9,19.3,42.9,42.9S73.7,92.9,50,92.9S7.1,73.7,7.1,50S26.3,7.1,50,7.1 M50,0
	C22.4,0,0,22.4,0,50s22.4,50,50,50s50-22.4,50-50S77.6,0,50,0L50,0z"/>
<g>
	<defs>
		<circle id="SVGID_1_" cx="50" cy="50" r="50"/>
	</defs>
	<clipPath id="SVGID_2_">
		<use xlink:href="#SVGID_1_"  style="overflow:visible;"/>
	</clipPath>
	<g class="st1">
		<path class="st0" d="M81.2,44.3c-6.8,0-13.3-2.6-18.1-7.5c-4.8-4.8-7.5-11.2-7.5-18.1s2.6-13.3,7.5-18.1l37.6-37.6
			c4.8-4.8,11.2-7.5,18.1-7.5s13.3,2.6,18.1,7.5c4.8,4.8,7.5,11.2,7.5,18.1s-2.6,13.3-7.5,18.1L99.3,36.9
			C94.5,41.7,88,44.3,81.2,44.3z M118.8-37.2c-4.9,0-9.6,1.9-13.1,5.4L68.2,5.7c-7.2,7.2-7.2,18.9,0,26.1c3.5,3.5,8.1,5.4,13.1,5.4
			c4.9,0,9.6-1.9,13.1-5.4l37.6-37.6c7.2-7.2,7.2-18.9,0-26.1C128.4-35.3,123.7-37.2,118.8-37.2z"/>
		<path class="st0" d="M-0.7,126.2c-6.5,0-13.1-2.5-18.1-7.5c-4.8-4.8-7.5-11.2-7.5-18.1s2.6-13.3,7.5-18.1L18.8,45
			c10-10,26.2-10,36.1,0c10,10,10,26.2,0,36.1l-37.6,37.6C12.4,123.7,5.9,126.2-0.7,126.2z M36.9,44.6c-4.7,0-9.5,1.8-13.1,5.4
			l-37.6,37.6c-7.2,7.2-7.2,18.9,0,26.1c7.2,7.2,18.9,7.2,26.1,0L50,76.1c7.2-7.2,7.2-18.9,0-26.1C46.4,46.4,41.6,44.6,36.9,44.6z"
			/>
	</g>
</g>
<path class="st2" d="z"/>
</svg>
