<svg xmlns="http://www.w3.org/2000/svg" width="18.375" height="16.687" viewBox="0 0 18.375 16.687">
  <defs>
    <style>
      .cls-1 {
        fill: #999;
        fill-rule: evenodd;
      }
    </style>
  </defs>
  <path id="thumbs_up_icon" data-name="thumbs up icon" class="cls-1" d="M518.258,733.578a1.645,1.645,0,0,0-1.172-.488h-5.273l0.82-3.828v-0.274a1.166,1.166,0,0,0-.352-0.859l-0.9-.9-5.469,5.508a1.61,1.61,0,0,0-.508,1.172v8.32a1.738,1.738,0,0,0,1.68,1.68h7.5a1.49,1.49,0,0,0,1.523-1.015l2.539-5.86a1.747,1.747,0,0,0,.118-0.625v-1.6h-0.039l0.039-.079A1.55,1.55,0,0,0,518.258,733.578ZM503.766,743.91v-10h-3.36v10h3.36Z" transform="translate(-500.406 -727.219)"/>
</svg>
