<svg xmlns="http://www.w3.org/2000/svg" width="18.375" height="16.688" viewBox="0 0 18.375 16.688">
  <defs>
    <style>
      .cls-1 {
        fill: #999;
        fill-rule: evenodd;
      }
    </style>
  </defs>
  <path id="thumbs_down_icon" data-name="thumbs down icon" class="cls-1" d="M515.406,766.91h3.36v-10h-3.36v10Zm-10.82-10a1.489,1.489,0,0,0-1.523,1.016l-2.54,5.859a1.776,1.776,0,0,0-.117.625v1.6h0.039l-0.039.078a1.543,1.543,0,0,0,.508,1.152,1.638,1.638,0,0,0,1.172.488h5.273l-0.82,3.829v0.273a1.165,1.165,0,0,0,.352.859l0.9,0.9,5.469-5.508a1.611,1.611,0,0,0,.508-1.172v-8.32a1.738,1.738,0,0,0-1.68-1.68h-7.5Z" transform="translate(-500.406 -756.906)"/>
</svg>
