<?xml version="1.0" encoding="utf-8"?>
<!-- Generator: Adobe Illustrator 20.0.0, SVG Export Plug-In . SVG Version: 6.00 Build 0)  -->
<svg version="1.1" id="Layer_1" xmlns="http://www.w3.org/2000/svg" xmlns:xlink="http://www.w3.org/1999/xlink" x="0px" y="0px"
	 viewBox="0 0 100 100" style="enable-background:new 0 0 100 100;" xml:space="preserve">
<style type="text/css">
	.st0{fill:#394453;}
	.st1{fill:#FFFFFF;}
</style>
<g>
	<path class="st0" d="M79,49.1c-2.3-3.4-5.1-6.4-8.3-8.9c-2.9-2.4-6.1-4.3-9.6-5.6c-3-1.2-6.2-1.8-9.4-2c-1.9-0.1-3.9,0-5.8,0.2
		c-1.7,0.2-3.3,0.6-4.9,1.1c-3.5,1.1-6.8,2.8-9.8,4.9c-3,2.2-5.7,4.7-8.1,7.6c-0.9,1.1-1.8,2.3-2.6,3.5c-0.1,0.1-0.1,0.2,0,0.3
		c0.2,0.3,0.5,0.7,0.7,1c2.1,3,4.6,5.7,7.4,8.1c2.9,2.5,6.1,4.5,9.6,5.9c2.3,0.9,4.7,1.6,7.2,2c1.5,0.2,3,0.3,3.8,0.3
		c2.6,0,4.4-0.2,6.3-0.5c2-0.4,3.9-0.9,5.7-1.6c2.7-1.1,5.2-2.5,7.6-4.2c3.2-2.3,6-5,8.4-8c0.8-1,1.4-2,2.2-3c0.1-0.1,0.1-0.2,0-0.3
		C79.3,49.6,79.1,49.4,79,49.1z"/>
	<path class="st0" d="M50,2C23.5,2,2,23.5,2,50s21.5,48,48,48s48-21.5,48-48S76.5,2,50,2z"/>
</g>
<g>
	<path id="thumbs_up_icon" class="st1" d="M52.2,53.8c-0.6-0.6-1.4-0.9-2.2-0.9h-9.9l1.5-7.2v-0.5c0-0.6-0.2-1.2-0.7-1.6l-1.7-1.7
		L29,52.2c-0.6,0.6-1,1.4-1,2.2V70c0.1,1.7,1.4,3.1,3.1,3.1h14.1c1.3,0.1,2.5-0.7,2.9-1.9l4.8-11c0.1-0.4,0.2-0.8,0.2-1.2v-3H53
		l0.1-0.1C53.1,55.1,52.8,54.3,52.2,53.8z M25,73.1V54.4h-6.3v18.7H25z"/>
	<path id="thumbs_down_icon" class="st1" d="M75,45.6h6.3V26.9H75V45.6z M54.7,26.9c-1.3-0.1-2.5,0.7-2.9,1.9l-4.8,11
		c-0.1,0.4-0.2,0.8-0.2,1.2v3H47l-0.1,0.1c0,0.8,0.3,1.6,1,2.2c0.6,0.6,1.4,0.9,2.2,0.9h9.9l-1.5,7.2v0.5c0,0.6,0.2,1.2,0.7,1.6
		l1.7,1.7L71,47.8c0.6-0.6,1-1.4,1-2.2V30c-0.1-1.7-1.4-3.1-3.1-3.1L54.7,26.9L54.7,26.9z"/>
</g>
</svg>
