<svg id="Layer_1" data-name="Layer 1" xmlns="http://www.w3.org/2000/svg" width="200" height="183.59" viewBox="0 0 200 183.59"><defs><style>.cls-1{fill:#394454;fill-rule:evenodd;}</style></defs><title>triathalon_icon_drk</title><path class="cls-1" d="M158.23,110.06c14.37,0,25.24,6.33,31.52,18.87,13.8,27.59-16.85,59.66-46.24,43.51-4.69-2.58-9.9-7.22-12.49-12.12a42.25,42.25,0,0,1-2.09-4.16c-3.38-8.38-3.4-18.17,0-25.79a34.24,34.24,0,0,1,10.82-13.79c4.28-3.13,11.26-6.52,18.48-6.52ZM69.09,187.4a43.37,43.37,0,0,0,34.84-19.14c16.74-25.21,1.56-46.24,1.56-48a5.66,5.66,0,0,1,.39-2c3.09.72,2.8,0,5.86,0,2,0,2.8.41,4.27.37,3.31-.1,3.21-.88,7.05,0-11,16.43-9.81,38.86,3,53.23,9.69,10.85,20.06,15.52,35.65,15.52,21.53,0,42.19-19.91,42.19-44.14,0-28.22-26.73-49.39-54.3-43-.45-1.92-1.31-4.12-1.9-5.91-.89-2.67-5.73-17.12-5.52-17.92L152.65,65c3.58-3.69,4.4-5.11,4.4-10.83,0-5.29-5.08-9.77-10.55-9.77-11,0-12.7,13.67-25.39,13.67-6.36,0-12-4.67-17.85-7.93L62.51,26.48c-6.68-3.92-15.86-3.62-22.66.36-1.11.65-2.13,1-3.37,1.71-4.22,2.26-7.94,5.74-7.94,11.2,0,6.17,5.57,10.94,10.16,10.94,2.74,0,11.18-5.24,18.6-.24,3,2,3.31,5.73,2.5,9.22C37.47,54.47,34.45,68.31,17.66,62c-1.72-.65-6.13-2.68-8.26-2.68a5.6,5.6,0,0,0-5.47,5.47c0,4.77,4.37,5.12,7.93,6.52,10,3.94,19,4,29-.05,5.18-2.1,6.56-1.78,13.45-1.78L45.67,82.66c-1.11,1.33-.45.55-3.81,1.66C34.92,86.63,29.41,90,19.38,86c-4.94-2-8.21-3.89-11.53-.94a5.39,5.39,0,0,0,1.39,8.73,20.67,20.67,0,0,0,2.61.91c11.58,4,8.2,3.62,21.38,3.62a5.64,5.64,0,0,0,2-.39c-.37,1.37-2.37,3.95-3.28,5.31L14.16,129.67c-3.19,4.79-5.94,7.38-5.94,13.2,0,8,8.45,12.21,16,8.2,0,8.63,8.95,21.74,16.17,27.19a45,45,0,0,0,25.64,9.14ZM70.73,162a13.14,13.14,0,0,0,9.44-4.63l3.12-3.91,12.5-16c.8-1,2.81-3.38,3.07-4.35.89.66.63-.24,1.4,3.68,6.86,35-39.05,55.2-60,25.62a16.07,16.07,0,0,1-1.3-1.83,30.85,30.85,0,0,1-4.57-15c-.32-5.93-.44-3.92,3.36-8.76,5.29-6.74,12.64-14.76,17.75-21.32l7.25-8.76a13.64,13.64,0,0,1,1.61-1.9c8.15-8,12.22,6.39,12.22,14.18a25.2,25.2,0,0,1-4,13.21,60.6,60.6,0,0,1-3.72,4.88c-1.38,1.69-2.34,3.19-3.73,4.87-9.19,11.12-2.29,20,5.56,20Zm54.69-77.34c4,0,4-.46,7-1.17l7,20.7a9.87,9.87,0,0,0-3.11,1.58c-4.77,2.89-1.56,1.94-12.52,1.94H104.32c-.5-6-9.54-23.91-7-28.52,2.22-4.09,10.42.16,13.64,1.23C115.53,82,120.84,84.67,125.41,84.67Z" transform="translate(-3.93 -3.81)"/><path class="cls-1" d="M109.4,36.62h2.73c13,0,20.71-17.75,10.65-27.84a16.68,16.68,0,0,0-9.58-5h-4.26C97.67,5.33,88.62,18.68,98.61,31.39,100.57,33.88,105.56,36.62,109.4,36.62Z" transform="translate(-3.93 -3.81)"/></svg>