<svg xmlns="http://www.w3.org/2000/svg" width="101.505" height="82.343" viewBox="0 0 29.437 23.88">
  <defs>
    <style>
      .cls-1 {
        fill: #55acee;
        fill-rule: evenodd;
      }
    </style>
  </defs>
  <path id="twitter_icon" data-name="twitter icon" class="cls-1" d="M198.638,1111.85a15.111,15.111,0,0,1-3.456.96,6.183,6.183,0,0,0,2.624-3.33,12.614,12.614,0,0,1-3.84,1.41,5.947,5.947,0,0,0-4.352-1.86,6.025,6.025,0,0,0-6.079,6.02,4.493,4.493,0,0,0,.192,1.34,16.955,16.955,0,0,1-12.479-6.27,6.076,6.076,0,0,0-.832,3.01,6.138,6.138,0,0,0,2.688,5.06,6.308,6.308,0,0,1-2.688-.77v0.06a6.039,6.039,0,0,0,4.8,5.95,6.356,6.356,0,0,1-1.6.19,3.182,3.182,0,0,1-1.088-.12,6.051,6.051,0,0,0,5.632,4.22,12.17,12.17,0,0,1-7.487,2.56,11.565,11.565,0,0,1-1.472-.06,17.011,17.011,0,0,0,9.279,2.68c11.071,0,17.151-9.15,17.151-17.15v-0.76A14.015,14.015,0,0,0,198.638,1111.85Z" transform="translate(-169.188 -1109.03)"/>
</svg>
