<?xml version="1.0" encoding="utf-8"?>
<!-- Generator: Adobe Illustrator 19.2.0, SVG Export Plug-In . SVG Version: 6.00 Build 0)  -->
<svg version="1.1" id="Layer_1" xmlns="http://www.w3.org/2000/svg" xmlns:xlink="http://www.w3.org/1999/xlink" x="0px" y="0px"
	 width="150px" height="100px" viewBox="0 0 150 100" style="enable-background:new 0 0 150 100;" xml:space="preserve">
<style type="text/css">
	.st0{fill:#FFFFFF;}
</style>
<path id="twitter_icon" class="st0" d="M150,19c-3.8,1.5-7.7,2.6-11.7,3.3c4.2-2.6,7.4-6.6,8.9-11.3c-4.1,2.3-8.5,3.9-13,4.8
	c-3.8-4.1-9.2-6.3-14.8-6.3c-11.3-0.1-20.5,9-20.7,20.3c0,0.1,0,0.1,0,0.2c0,1.5,0.2,3.1,0.7,4.6C82.8,33.8,67.4,26,57,13.1
	c-1.8,3.1-2.8,6.6-2.8,10.2c0,6.9,3.4,13.3,9.1,17.2c-3.2-0.2-6.3-1.1-9.1-2.6v0.2c-0.1,9.8,6.8,18.2,16.3,20.2
	C68.7,58.8,66.8,59,65,59c-1.2,0.1-2.5-0.1-3.7-0.4C64,67,71.6,72.7,80.4,72.9c-7.3,5.7-16.2,8.7-25.4,8.7c-1.7,0-3.3,0-5-0.2
	c9.4,6,20.4,9.2,31.5,9.1c37.6,0,58.3-31.1,58.3-58.3v-2.6C143.7,26.7,147.2,23.1,150,19z"/>
</svg>
