<?xml version="1.0" encoding="utf-8"?>
<!-- Generator: Adobe Illustrator 20.0.0, SVG Export Plug-In . SVG Version: 6.00 Build 0)  -->
<svg version="1.1" id="Layer_1" xmlns="http://www.w3.org/2000/svg" xmlns:xlink="http://www.w3.org/1999/xlink" x="0px" y="0px"
	 viewBox="0 0 100 100" style="enable-background:new 0 0 100 100;" xml:space="preserve">
<style type="text/css">
	.st0{fill:#CCCCCC;}
</style>
<path class="st0" d="M50,1C22.9,1,1,22.9,1,50s21.9,49,49,49s49-21.9,49-49S77.1,1,50,1z M77.3,35.9c-12,12-24,24-36,36
	c-0.9,0.9-1.4,0.9-2.4,0c-5.7-5.7-11.4-11.4-17-17c-1-1-1-1.5,0-2.5c1.8-1.8,3.6-3.6,5.4-5.4c1-1,1.5-1,2.6,0
	c3.4,3.4,6.8,6.8,10.4,10.4c0.3-0.4,0.5-0.7,0.8-1c9.4-9.4,18.8-18.8,28.1-28.1c1.2-1.2,1.6-1.2,2.8,0c1.8,1.8,3.6,3.6,5.3,5.3
	C78.2,34.5,78.2,35,77.3,35.9z"/>
</svg>
