<?xml version="1.0" encoding="utf-8"?>
<!-- Generator: Adobe Illustrator 20.0.0, SVG Export Plug-In . SVG Version: 6.00 Build 0)  -->
<svg version="1.1" id="Layer_1" xmlns="http://www.w3.org/2000/svg" xmlns:xlink="http://www.w3.org/1999/xlink" x="0px" y="0px"
	 viewBox="0 0 100 100" style="enable-background:new 0 0 100 100;" xml:space="preserve">
<style type="text/css">
	.st0{fill:#4EA3C9;}
</style>
<path class="st0" d="M50,1C22.9,1,1,22.9,1,50s21.9,49,49,49s49-21.9,49-49S77.1,1,50,1z M54.2,77.4H39.6v-9.5h14.6V77.4z
	 M67.1,43.3c-0.7,1.9-1.7,3.5-3,4.9c-1.3,1.4-2.9,2.6-4.7,3.7c-1.8,1.1-3.9,2.1-6.2,3V63H40.5V50.8c1.7-0.5,3.3-0.9,4.6-1.4
	c1.4-0.5,2.8-1.3,4.3-2.3c1.4-1,2.5-2.1,3.3-3.4c0.8-1.3,1.2-2.7,1.2-4.3c0-2.4-0.8-4.1-2.3-5.2c-1.6-1-3.7-1.5-6.6-1.5
	c-1.7,0-3.7,0.4-5.9,1.1c-2.2,0.7-4.2,1.7-6,2.9h-1.4v-11c1.5-0.6,3.9-1.3,7.1-2c3.2-0.7,6.4-1.1,9.7-1.1c5.9,0,10.7,1.3,14.1,3.9
	c3.5,2.6,5.2,6.1,5.2,10.3C68.1,39.2,67.8,41.4,67.1,43.3z"/>
</svg>
