<svg xmlns="http://www.w3.org/2000/svg" width="102.082" height="92.36" viewBox="0 0 18.375 16.625">
  <defs>
    <style>
      .cls-1 {
        fill: #f1c40f;
        fill-rule: evenodd;
      }
    </style>
  </defs>
  <path id="video_icon" data-name="video icon" class="cls-1" d="M417.086,697.41l5.82-3.32-5.82-3.36v6.68Zm-5,1.68v-10h15v10h-15Zm8.672-11.68,2.734-2.734-0.586-.586-3.32,3.32-3.32-3.32-0.586.586,2.734,2.734h-6.328a1.639,1.639,0,0,0-1.172.489,1.586,1.586,0,0,0-.508,1.191v10a1.543,1.543,0,0,0,.508,1.152,1.638,1.638,0,0,0,1.172.488h15a1.641,1.641,0,0,0,1.172-.488,1.547,1.547,0,0,0,.508-1.152v-10a1.59,1.59,0,0,0-.508-1.191,1.642,1.642,0,0,0-1.172-.489h-6.328Z" transform="translate(-410.406 -684.094)"/>
</svg>
