<?xml version="1.0" encoding="utf-8"?>
<!-- Generator: Adobe Illustrator 21.0.0, SVG Export Plug-In . SVG Version: 6.00 Build 0)  -->
<svg version="1.1" id="Layer_1" xmlns="http://www.w3.org/2000/svg" xmlns:xlink="http://www.w3.org/1999/xlink" x="0px" y="0px"
	 width="200px" height="200px" viewBox="0 0 200 200" style="enable-background:new 0 0 200 200;" xml:space="preserve">
<style type="text/css">
	.st0{fill:#394454;}
</style>
<path class="st0" d="M101.7,3.7c-55.1,0-100,44.9-100,100s44.9,100,100,100s100-44.9,100-100S156.8,3.7,101.7,3.7z M105.5,105.4
	c4.1-2.8,15.9-10.1,31.9-13.4c-0.2,16-3.5,75.7-43.1,104.1c-10.7-0.8-20.9-3.5-30.3-7.7C107.1,162.6,106.3,116,105.5,105.4z
	 M101.7,103.7L101.7,103.7L101.7,103.7L101.7,103.7z M101.3,99.5c-4.4-2.1-16.2-8.5-27-20.3c14.3-8,67.4-34.2,111.5-14.6
	c4.2,9.1,7,18.9,8.1,29.3C150,69.5,110.1,93.5,101.3,99.5z M148.3,23.5c-51.8-3.2-81.5,12.6-92.4,20c-1.2-6-1.8-12.5-1.6-19.6
	c13.9-8.2,30-13,47.3-13C118.7,10.9,134.6,15.5,148.3,23.5z M47.1,28.7C48,79,88.8,101.5,98.3,106.1c0.4,5,1,18.9-4.2,34.4
	c-13.2-7.8-63.9-40.5-69-89.2C31.1,42.6,38.6,34.9,47.1,28.7z M8.9,105.2c23.1,46.3,51.4,63.4,62.9,68.7c-4.4,3.8-9.6,7.4-15.6,10.6
	C28.4,168.8,9.5,139.2,8.9,105.2z M149.3,183.3c28.4-42.9,29.4-75.9,28.3-88.8c5.5,1.9,11.2,4.6,16.9,8.1c0,0.4,0,0.7,0,1.1
	C194.4,137.4,176.3,167,149.3,183.3z"/>
</svg>
