<svg id="Layer_1" data-name="Layer 1" xmlns="http://www.w3.org/2000/svg" width="200" height="200" viewBox="0 0 200 200"><defs><style>.cls-1{fill:#4da3c9;}</style></defs><title>volleyball_icon</title><path class="cls-1" d="M101.67,3.67a100,100,0,1,0,100,100A100.11,100.11,0,0,0,101.67,3.67Zm3.82,101.71A90.79,90.79,0,0,1,137.38,92c-.17,16-3.54,75.68-43.05,104.1A92,92,0,0,1,64,188.43C107.13,162.56,106.29,116,105.48,105.38Zm-3.82-1.71h0Zm-.4-4.15a90.82,90.82,0,0,1-27-20.31c14.32-8,67.36-34.22,111.5-14.58a92,92,0,0,1,8.13,29.28C150,69.51,110.08,93.5,101.27,99.52Zm47.05-76C96.5,20.33,66.78,36.17,56,43.53A81.94,81.94,0,0,1,54.37,23.9a92.48,92.48,0,0,1,94-.37ZM47.09,28.71C48,79,88.8,101.54,98.32,106.11a88.65,88.65,0,0,1-4.19,34.36c-13.21-7.76-63.85-40.54-69-89.2A93.52,93.52,0,0,1,47.09,28.71ZM8.93,105.19c23.15,46.26,51.41,63.4,62.92,68.75a83.94,83.94,0,0,1-15.6,10.58A92.82,92.82,0,0,1,8.93,105.19Zm140.34,78.06c28.42-42.95,29.36-75.9,28.27-88.79a82.43,82.43,0,0,1,16.87,8.13c0,.36,0,.71,0,1.07A92.8,92.8,0,0,1,149.27,183.26Z" transform="translate(-1.67 -3.67)"/></svg>