<svg id="Layer_1" data-name="Layer 1" xmlns="http://www.w3.org/2000/svg" width="200" height="141.76" viewBox="0 0 200 141.76"><defs><style>.cls-1{fill:#4da3c9;fill-rule:evenodd;}</style></defs><title>waterpolo_icon</title><path class="cls-1" d="M34.69,47c0,5.18,4.41,12.58,7.31,16.64C50,74.85,58.14,82.94,70.43,90c1.17.67,2.2,1.06,3.46,1.82,1.51.9,2.43,1.11,3.83,1.85C73.6,101.48,66.31,126.3,63.78,135a33.82,33.82,0,0,0-1.48,6.64c10.92,0,26.38-5.24,36.9-8.57.52-.16,3.5-1.07,3.94-1.34,1.29-.8,3.48-10.42,4-12.25a150.26,150.26,0,0,1,5.92-16l13,1.22a260.55,260.55,0,0,0,35.7-.43c3.76-.28,13.43-.79,13.43-6.47,0-7.45-8.56-5.94-11.37-6.09l-28.31-1.74c-8-1-12.49-1.28-21.23-2.73a126.61,126.61,0,0,1-19.33-4.62c-8.87-3-16.66-6.06-24.27-11-1.38-.9-2.33-1.52-3.61-2.48a41.12,41.12,0,0,1-3.44-2.65A103.67,103.67,0,0,1,53.42,55.87L49.4,51c-3.15-3.82-6.76-12-12.94-7.47A4.74,4.74,0,0,0,34.69,47Z" transform="translate(-2.21 -20.21)"/><path class="cls-1" d="M59.86,149.72c-13.9,0-21.89.16-35.38-4a108.18,108.18,0,0,1-15.65-6.28c-.94-.47-6.63-4.26-6.63-1.08,0,1.65,7.82,8,9.45,9.23a74.6,74.6,0,0,0,25.79,12c16.54,4.15,34.82,2.52,51-1.54,35-8.79,63.6-27.77,104.13-14.32,1.37.45,7.14,2.79,8.17,2.79,2.25,0,1.44-2,.54-3-5.44-6-18.46-11.47-26.7-13.12-20.52-4.1-40.08.47-59.2,5.83-3.16.89-5.67,1.76-8.76,2.61C92,142.87,76.5,149.72,59.86,149.72Z" transform="translate(-2.21 -20.21)"/><path class="cls-1" d="M93.56,64.46c0,5.2,1.38,8.1,4.56,11.27C107,84.64,123.61,79.92,123.61,64A15.15,15.15,0,0,0,119,54C107.43,44.12,93.56,53.83,93.56,64.46Z" transform="translate(-2.21 -20.21)"/><path class="cls-1" d="M55.4,38.47V36c0-4.85,5.3-10.15,10.15-10.15H68c4.89,0,10.15,5.24,10.15,10.15v2.44c0,4.92-5.23,10.15-10.15,10.15H65.55c-4.85,0-10.15-5.3-10.15-10.15Zm-5.68-1.62a17.06,17.06,0,1,0,34.11.41,17,17,0,0,0-26.38-14.2C53,26,49.71,31.64,49.71,36.85Z" transform="translate(-2.21 -20.21)"/></svg>