<svg id="Layer_1" data-name="Layer 1" xmlns="http://www.w3.org/2000/svg" width="200" height="185.63" viewBox="0 0 200 185.63"><defs><style>.cls-1{fill:#4da3c9;fill-rule:evenodd;}</style></defs><title>water_skiing_icon</title><path class="cls-1" d="M84.44,128.65c0,3-.89,6-1.45,8.83l-5.7,26.05c-4.08,0-8.51.86-12.45,1.42l-35,4.8-.34.11-1,.39c23.14,5.39,47.28,4.26,70.6.38,11-1.83,20.3-2.62,30.67-4.22,13.89-2.15,25.24-3.31,35.26-12.6a29,29,0,0,0,2.44-2c2.61-2.88,6.39-7.48,6.39-11.5,0-4.36-6.86-6.46-9.39-2.23s-3.25,6-8,9.46c-10.39,7.63-23.66,7.93-37.45,10L98.3,160.41c0-4.59,5.81-29.87,5.81-35.33a16,16,0,0,0-5.24-11.75c-2.62-2.5-7.21-5-10.71-6.73l-23.85-11c1.18-5,11.85-30.78,12.08-33.54,14.82,3.45,17.55,3.6,32.72,5.3,6,.68,11.68.07,17.83.07,8.87,0,14.31.43,14.31-6.26,0-4.71-6.25-5.42-11.18-5.37-5.19.05-10.8-.91-15.67-1.33C82.54,51.7,72.92,40.65,62,39.76,52.47,39,48.58,50.45,45.84,57.41c-4.46,11.34-8.17,26.38-11.32,38.77-4,15.9,10.18,19,25.59,22.82l13.6,3.4c2.14.54,4.83,1.09,6.78,1.72C82.75,124.86,84.44,125.74,84.44,128.65Z" transform="translate(0.72 -7.11)"/><path class="cls-1" d="M173,182.33c4.91,0,8.65.2,13.42.45,4.12.21,8.37,1.34,12.52,1.34.66-2.84.8-2.28-3.87-4.63-10.42-5.23-28.05-7.87-40-7.88-3.12,0-5.29-.53-8.95-.48-2.3,0-2.47.36-4.45.47-3.55.19-9.86.05-13.74.57-9.17,1.21-15.25,1.64-25.68,3.39-29.86,5-69.61,7.31-96.41-8.58-2.86-1.7-4-3.27-6-3.44-1.73,2.58.29,4.57,3.69,7.94C17,184.72,30.85,189.19,50.25,191.92c8.67,1.22,16.1.73,25.26.71l12.32-1.1C118.23,187.39,139,182.33,173,182.33Z" transform="translate(0.72 -7.11)"/><path class="cls-1" d="M59.39,22.21a16.58,16.58,0,0,0,4.13,10.19c10,10.76,25.84,1.52,25.84-8.4,0-5.09-.65-9.48-4.59-12.85a18.46,18.46,0,0,0-4.34-2.81C70.92,4.05,59.39,11.52,59.39,22.21Z" transform="translate(0.72 -7.11)"/><path class="cls-1" d="M149.29,64.7h45.62c0-2,.41-1.45.36-3.09a29.51,29.51,0,0,1-.36-3.17H149.29A3.14,3.14,0,1,0,149.29,64.7Z" transform="translate(0.72 -7.11)"/></svg>