<svg xmlns:dc="http://purl.org/dc/elements/1.1/" xmlns:cc="http://web.resource.org/cc/" xmlns:rdf="http://www.w3.org/1999/02/22-rdf-syntax-ns#" xmlns:svg="http://www.w3.org/2000/svg" xmlns="http://www.w3.org/2000/svg" xmlns:sodipodi="http://sodipodi.sourceforge.net/DTD/sodipodi-0.dtd" xmlns:inkscape="http://www.inkscape.org/namespaces/inkscape" version="1.1" width="427" height="427" enable-background="new -0.5 -0.303 427 427" xml:space="preserve" sodipodi:version="0.32" inkscape:version="0.44" sodipodi:docname="trans.svg" sodipodi:docbase="C:\Documents and Settings\yamida\デスクトップ" style=""><rect id="backgroundrect" width="100%" height="100%" x="0" y="0" fill="none" stroke="none"/><metadata id="metadata13"><rdf:RDF><cc:Work rdf:about=""><dc:format>image/svg+xml</dc:format><dc:type rdf:resource="http://purl.org/dc/dcmitype/StillImage"/></cc:Work></rdf:RDF></metadata><sodipodi:namedview inkscape:window-height="572" inkscape:window-width="755" inkscape:pageshadow="2" inkscape:pageopacity="0.0" guidetolerance="10.0" gridtolerance="10.0" objecttolerance="10.0" borderopacity="1.0" bordercolor="#666666" pagecolor="#ffffff" id="base" inkscape:zoom="1.7704918" inkscape:cx="191.94009" inkscape:cy="213.99261" inkscape:window-x="234" inkscape:window-y="60" inkscape:current-layer="svg2"/>
<defs id="defs4">
</defs>


<g class="currentLayer" style=""><title>Layer 1</title><g id="g8" style="fill: #374353;" class="">
	<path d="M114.27442192440856,183.7453336336774 C83.48881159746652,183.7453336336774 65.49107017556196,214.90840657467572 35.6527093971412,278.8005360215468 L-0.3427734466679439,237.7717666218403 C17.18134320097598,195.49021037023456 29.021962557492145,170.27787497575852 49.8614526249606,143.96935108587044 C68.72092827426985,120.42666736826334 92.96130708267945,96.67664742666689 120.4327280517326,96.67664742666689 C164.45023050958144,96.67664742666689 188.13383734648508,129.8617966458092 224.63017838907487,176.54180923525567 C260.625661232884,222.58172604255978 285.728958330634,242.31507643943192 308.4617634332094,242.31507643943192 C318.40788369268296,242.31507643943192 336.1469786253638,233.6920075142462 347.7738037587786,218.19892954036786 C363.30799775798573,200.31580830018927 374.2967911173748,176.8569634276866 390.87365821649746,132.6942694187755 L427.34276583456733,179.3605796520294 C407.92415008988075,228.2192668761072 395.13628118484326,251.86561870570904 379.50666363424193,274.4157820398988 C355.351800146949,310.12020731903266 333.0914357566986,330.3233527853669 302.3058254297566,330.3233527853669 C219.36228683736084,330.32139530591087 182.7297786721711,183.7453336336774 114.27442192440856,183.7453336336774 z" id="path10" sodipodi:nodetypes="ccccssscccccc"/>
</g></g></svg>