<?xml version="1.0" encoding="utf-8"?>
<!-- Generator: Adobe Illustrator 19.2.1, SVG Export Plug-In . SVG Version: 6.00 Build 0)  -->
<svg version="1.1" id="Layer_1" xmlns="http://www.w3.org/2000/svg" xmlns:xlink="http://www.w3.org/1999/xlink" x="0px" y="0px"
	 width="300px" height="300px" viewBox="0 0 300 300" style="enable-background:new 0 0 300 300;" xml:space="preserve">
<style type="text/css">
	.st0{fill:#FFFFFF;}
</style>
<path class="st0" d="M150,300C67.6,300,0.4,233.2,0,150.8C-0.2,110.7,15.2,73,43.4,44.5S109.2,0.2,149.2,0h1.5
	c39.8,0.2,77.2,15.8,105.3,43.9s43.7,65.5,43.9,105.3c0.4,82.7-66.5,150.3-149.2,150.8C150.5,300,150.2,300,150,300z M157.3,209.9
	V284c21.2-18.2,37.4-40.6,47.8-65.7C189.6,213.3,173.5,210.6,157.3,209.9z M94.8,218.3c6.8,16.4,16.2,31.8,28,45.8
	c6,7.2,12.7,13.9,19.8,20V210C126.5,210.6,110.4,213.3,94.8,218.3z M49.1,240.1c18.3,20.4,42.6,35.3,70.1,41.7
	c-2.6-2.7-5.1-5.5-7.5-8.3c-12.9-15.3-23.2-32.2-30.6-50.3C70,227.7,59.3,233.4,49.1,240.1z M218.9,223.2
	c-8.9,21.6-21.7,41.4-38.1,58.6c27.5-6.4,51.8-21.3,70.1-41.7C240.7,233.4,230,227.7,218.9,223.2z M14.8,157.3
	c1.4,26.5,10.5,51,25.1,71.3c11.5-7.7,23.6-14.1,36.1-19.2c-5.4-16.8-8.5-34.3-9.1-52.2L14.8,157.3L14.8,157.3z M224,209.5
	c12.5,5.1,24.6,11.4,36.1,19.2c14.6-20.3,23.6-44.8,25.1-71.3h-52.1c-0.1,3.1-0.3,6.3-0.6,9.4C231.3,181.4,228.4,195.8,224,209.5z
	 M81.5,157.3c0.6,16.2,3.4,32,8.2,47.2c17.2-5.5,35-8.6,52.9-9.3v-37.9L81.5,157.3L81.5,157.3z M157.3,195.3
	c17.9,0.7,35.7,3.7,52.9,9.2c4-12.5,6.6-25.6,7.7-39c0.2-2.7,0.4-5.4,0.5-8.2h-61.1L157.3,195.3L157.3,195.3z M233.1,142.7h52.1
	c-1.4-25.9-10-50.5-25-71.4c-11.6,7.8-23.9,14.3-36.6,19.4C229.1,107.4,232.3,124.9,233.1,142.7z M157.3,142.7h61.1
	c-0.7-16.1-3.6-31.9-8.6-47.1c-17.1,5.4-34.7,8.5-52.5,9.1L157.3,142.7L157.3,142.7z M81.6,142.7h61.1v-37.9
	c-17.7-0.7-35.4-3.7-52.4-9.1c-4.2,12.9-7,26.4-8.2,40.3C81.9,138.2,81.7,140.5,81.6,142.7z M14.8,142.7H67c0.1-2.6,0.3-5.3,0.5-7.9
	c1.3-15.2,4.3-29.9,9-44.1c-12.7-5.1-25-11.6-36.6-19.4C24.9,92.2,16.2,116.8,14.8,142.7z M95.4,81.9c15.4,4.8,31.3,7.5,47.3,8.2
	V17.5C121.9,35.3,105.8,57.3,95.4,81.9z M157.3,17.5v72.6c16-0.6,31.9-3.4,47.3-8.2c-6.8-15.9-16-30.9-27.5-44.5
	C171.1,30.3,164.4,23.6,157.3,17.5z M179,17.7c3.2,3.3,6.4,6.7,9.3,10.3c12.6,15,22.7,31.5,30.1,49c11.3-4.5,22.2-10.3,32.6-17.1
	c-1.7-1.9-3.5-3.8-5.3-5.6C227.1,35.7,204.1,23.2,179,17.7z M49,59.9C59.4,66.7,70.3,72.4,81.6,77c9.2-22,22.5-42,39.4-59.3
	c-25.3,5.5-48.5,18.2-67.2,37C52.2,56.4,50.6,58.1,49,59.9z M157.3,14.8v0.5l0.4-0.5C157.6,14.8,157.4,14.8,157.3,14.8z M142.3,14.8
	l0.4,0.5v-0.5C142.6,14.8,142.4,14.8,142.3,14.8z"/>
</svg>
