<?xml version="1.0" encoding="utf-8"?>
<!-- Generator: Adobe Illustrator 20.0.0, SVG Export Plug-In . SVG Version: 6.00 Build 0)  -->
<svg version="1.1" id="Layer_1" xmlns="http://www.w3.org/2000/svg" xmlns:xlink="http://www.w3.org/1999/xlink" x="0px" y="0px"
	 width="100px" height="100px" viewBox="0 0 100 100" style="enable-background:new 0 0 100 100;" xml:space="preserve">
<style type="text/css">
	.st0{fill:#4ac;}
	.st1{fill:#FFFFFF;}
</style>
<g>
	<path class="st0" d="M50,2C23.5,2,2,23.5,2,50s21.5,48,48,48s48-21.5,48-48S76.5,2,50,2z"/>
</g>
<g id="p00HU0_1_">
	<g>
		<path class="st1" d="M20.4,35.9c0-1,0-2,0-3c0.1,0,0.3,0,0.4,0c3.6,0,7.2,0,10.8,0c0.5,0,0.6-0.1,0.6-0.6c0-0.8,0-1.6,0-2.4
			c11.9,0,23.8,0,35.7,0c0,0.8,0,1.6,0,2.4c0,0.5,0.1,0.6,0.6,0.6c3.2,0,6.5,0,9.7,0c0.5,0,1,0,1.5,0c0,1,0,2,0,3
			c0,0.2-0.1,0.3-0.1,0.5c-0.3,3.3-1,6.5-2.4,9.5c-1.1,2.3-2.5,4.3-4.4,5.9c-1.7,1.4-3.7,2.4-5.9,2.8c-1.7,0.4-3.4,0.5-5.1,0.4
			c-0.2,0-0.5,0.1-0.6,0.2c-0.4,0.4-0.7,0.9-1,1.3c-1.7,1.9-3.6,3.6-6,4.5c-0.4,0.1-0.5,0.3-0.5,0.7c0,2.5,0,5,0,7.5
			c0,0.5,0.2,0.6,0.6,0.6c2.5,0,4.9,0,7.4,0c0.2,0,0.4,0,0.6,0c0,0.2,0,0.4,0,0.6c0,1.4,0,2.8,0,4.3c0,0.4,0.1,0.5,0.5,0.5
			c0.8,0,1.5,0,2.3,0c0,1,0,2,0,2.9c-9.9,0-19.8,0-29.7,0c0-1,0-1.9,0-2.9c0.8,0,1.5,0,2.3,0c0.4,0,0.5-0.1,0.5-0.5
			c0-1.4,0-2.9,0-4.3c0-0.2,0-0.3,0-0.5c0.2,0,0.4,0,0.6,0c2.5,0,5,0,7.5,0c0.4,0,0.5-0.1,0.5-0.5c0-2.6,0-5.1,0-7.7
			c0-0.3-0.1-0.5-0.4-0.6c-0.6-0.3-1.3-0.6-1.9-0.9c-2-1.2-3.6-2.8-5-4.6C38.8,55,38.5,54.9,38,55c-1.9,0.2-3.7,0-5.5-0.5
			c-3.8-1-6.5-3.3-8.6-6.6c-1.8-2.9-2.7-6.1-3.2-9.5C20.6,37.6,20.5,36.7,20.4,35.9z M36.3,51.2c0-0.1,0-0.2,0-0.2
			c-0.1-0.1-0.1-0.3-0.2-0.4c-0.9-1.7-1.6-3.6-2.2-5.5c-0.8-2.6-1.2-5.2-1.5-7.8c0-0.4-0.2-0.5-0.5-0.5c-2.3,0-4.7,0-7,0
			c-0.1,0-0.3,0-0.4,0c0,0.1,0,0.2,0,0.3c0.3,2.8,1,5.4,2.3,7.9c1.6,2.9,3.8,5,7.1,5.8C34.7,51,35.5,51.1,36.3,51.2z M63.7,51.1
			c2-0.1,3.8-0.5,5.4-1.5c2.2-1.3,3.6-3.3,4.6-5.6c0.8-1.8,1.4-3.8,1.7-5.7c0.1-0.5,0.1-1,0.2-1.5c-0.1,0-0.1-0.1-0.2-0.1
			c-2.5,0-5,0-7.5,0c-0.3,0-0.3,0.1-0.4,0.4c-0.1,0.8-0.2,1.5-0.3,2.2c-0.4,2.7-1,5.4-2,8C64.8,48.6,64.3,49.8,63.7,51.1z"/>
	</g>
</g>
</svg>
