<?xml version="1.0" encoding="utf-8"?>
<!-- Generator: Adobe Illustrator 20.0.0, SVG Export Plug-In . SVG Version: 6.00 Build 0)  -->
<svg version="1.1" id="Layer_1" xmlns="http://www.w3.org/2000/svg" xmlns:xlink="http://www.w3.org/1999/xlink" x="0px" y="0px"
	 width="100px" height="100px" viewBox="0 0 100 100" style="enable-background:new 0 0 100 100;" xml:space="preserve">
<style type="text/css">
	.st0{fill:#FDB924;}
	.st1{fill:#FFFFFF;}
</style>
<g>
	<path class="st0" d="M50,2C23.5,2,2,23.5,2,50s21.5,48,48,48s48-21.5,48-48S76.5,2,50,2z"/>
</g>
<g>
	<path class="st1" d="M20,20"/>
	<g>
		<path class="st1" d="M50,24.3c14.2,0,25.7,11.6,25.7,25.7S64.2,75.7,50,75.7S24.3,64.2,24.3,50S35.8,24.3,50,24.3 M50,20
			c-16.6,0-30,13.4-30,30s13.4,30,30,30s30-13.4,30-30S66.6,20,50,20L50,20z"/>
	</g>
	<path class="st1" d="M47.9,66.3L33.8,51.8l9.4-17.9L63,37.3l3,19.9L47.9,66.3z M39,51.1l9.8,10l12.5-6.2l-2-13.8l-13.7-2.3L39,51.1
		z"/>
	<rect x="39" y="22.2" transform="matrix(0.9016 -0.4326 0.4326 0.9016 -8.7742 20.6914)" class="st1" width="4.3" height="14.8"/>
	
		<rect x="59.4" y="32.8" transform="matrix(0.7305 -0.6829 0.6829 0.7305 -6.1535 54.2269)" class="st1" width="12.5" height="4.3"/>
	
		<rect x="67.8" y="51.7" transform="matrix(0.3653 -0.9309 0.9309 0.3653 -10.0534 102.2009)" class="st1" width="4.3" height="13.5"/>
	
		<rect x="38.1" y="69.1" transform="matrix(0.2571 -0.9664 0.9664 0.2571 -34.4904 97.6695)" class="st1" width="16.3" height="4.3"/>
	<rect x="21.1" y="51.7" transform="matrix(0.9539 -0.3 0.3 0.9539 -14.8274 11.1661)" class="st1" width="15.6" height="4.3"/>
</g>
</svg>
