<svg id="Layer_1" data-name="Layer 1" xmlns="http://www.w3.org/2000/svg" width="200" height="199.26" viewBox="0 0 200 199.26"><defs><style>.cls-1{fill:#fff;fill-rule:evenodd;}</style></defs><title>wind_surfing_icon_wht</title><path class="cls-1" d="M116.55,161.51A14.4,14.4,0,0,0,120,158l6.83-7c6.73-6.76,19.77-16.57,28.29-20.79,14.58-7.23,22.43-9.73,38.95-9.73,3.18,0,4.61.41,7.71.41,0-23-10.12-44.88-24-62a57.07,57.07,0,0,0-3.89-4.63l-4.47-4.46a118.44,118.44,0,0,0-19-15.48c-7.44-5-9-5.42-16.11-9.45a16.92,16.92,0,0,0-2.94-1.52l-15-6.55A215.71,215.71,0,0,0,90.22,8.54c-2.13-.48-4.49-1.07-6.85-1.67S78.55,5.8,76,5.29L46,.46c.14,1.64.08,1,1,2.22,8.55,11.24,14.51,20.85,22.1,32.26l10.82,18c.92,1.65,1.77,3,2.69,4.61l2.58,4.72c.92,1.87,1.71,3,2.57,4.73l14,29.44C110.6,118.77,116.55,136.24,116.55,161.51Z" transform="translate(-1.75 -0.46)"/><path class="cls-1" d="M1.75,113.24c0,4.22,1.93,7.81,3.4,12s5.63,17.92,7.71,20.69,6.36,4.62,10.8,4.62c3.92,0,8.29-2.84,16.63-2.84,9.7,0,13-.23,22.47,3.09,5.32,1.85,13.38,6.9,17,11L83.93,167c2.74,3.8,3.95,8.35,10.31,8.35a9.7,9.7,0,0,0,5-1.91c6.66-5.84-.19-12.61-5.45-19.13-4.38-5.42-11.7-10.66-17.79-13.86-10.15-5.33-22.31-7.3-34.89-7.3-1.08-2.24-1.71-5.3-2.58-8a79,79,0,0,0-2.69-7.86c12.89,0,22.77-2.28,31.51-6.63,7.4-3.68,17.17-12.83,17.17-21C84.5,83,71.42,78.6,68,88.64c-4,11.78-20.83,13.79-32.2,14.46-2.71.16-3.84-.36-6.07-.42-4.65-.12-8.38-.9-12.25-.46-4.33.48-7.77.75-10.66,2.73C4.46,106.57,1.75,109.48,1.75,113.24Z" transform="translate(-1.75 -0.46)"/><path class="cls-1" d="M74.36,188.29c.66.9,2,1.24,3.13,1.74,35.13,14.87,77.32,12.67,110.23-6.84,3.07-1.82,10.36-5.84,12-8.29l-31.06,3.42c-9.23,1.28-22.17,2.15-31.53,3.36-5.24.67-10.4,1.11-15.37,1.67Z" transform="translate(-1.75 -0.46)"/><path class="cls-1" d="M31,77.13V74.7c0-6.8-6.55-13-13.39-13-3.94,0-6.21.3-9.75,2.83C-4.6,73.39,5.6,94.31,21.8,88.66a15.14,15.14,0,0,0,6-4.16C29.15,82.78,31,80.08,31,77.13Z" transform="translate(-1.75 -0.46)"/></svg>