<svg id="Layer_1" data-name="Layer 1" xmlns="http://www.w3.org/2000/svg" width="200" height="163.08" viewBox="0 0 200 163.08"><defs><style>.cls-1{fill:#4da3c9;}</style></defs><title>wrestling_icon</title><path class="cls-1" d="M204.78,174.6,171,144.17l7.57-38.09c.07-.38.13-.79.17-1.18a11.41,11.41,0,0,0-3-8.82A13.23,13.23,0,0,0,174,93.7L142.95,60.35a18.79,18.79,0,0,0-1.81-1.67,16.59,16.59,0,0,0-7.35-3.35A15.31,15.31,0,1,0,112.43,67.1l.36.14L100.23,71.1,73.3,54.56c-.1-.24-.22-.47-.33-.7a15.32,15.32,0,1,0-14.61-9.44A16.66,16.66,0,0,0,42.58,54.65L24.75,97.36a11.41,11.41,0,0,0-1.81,8.72l7.79,39.21L8.33,175.49a6.74,6.74,0,0,0,10.33,8.63l28.86-30.76a8,8,0,0,0,2.12-6.19l-.09-1L47.4,122.77l23.5,13.53,11.49,40.31a6.74,6.74,0,0,0,13.12-3l-7.76-45.51a8.08,8.08,0,0,0-3.32-5.24l-.74-.52L53.35,101.13,63.41,84.37,72,101a7.27,7.27,0,0,0,4.68,3.73l29.75,7.56a7.28,7.28,0,0,0,7.36-2.38L129.08,91.7l14.6,11.64L114,122.18l-.78.49a8.21,8.21,0,0,0-3.75,6.27l-3.57,45.29A6.74,6.74,0,0,0,119.25,176l7.61-39.74,27.35-14.37L152,146.17l-.09.93a8.36,8.36,0,0,0,3.35,7.47l41,30.44a6.74,6.74,0,0,0,8.53-10.41ZM105.55,97.1,83.41,91.47,73.2,71.57,95.41,85.21a7.26,7.26,0,0,0,5.94.76L117,81.16c.28.41.58.81.91,1.2Z" transform="translate(-7 -23.24)"/></svg>