<?xml version="1.0" encoding="utf-8"?>
<!-- Generator: Adobe Illustrator 20.0.0, SVG Export Plug-In . SVG Version: 6.00 Build 0)  -->
<svg version="1.1" id="Layer_1" xmlns="http://www.w3.org/2000/svg" xmlns:xlink="http://www.w3.org/1999/xlink" x="0px" y="0px"
	 viewBox="0 0 566.9 566.9" style="enable-background:new 0 0 566.9 566.9;" xml:space="preserve">
<style type="text/css">
	.st0{fill:#FFFFFF;}
	.st1{fill:#39B54A;}
	.st2{fill:#FFFFFF;stroke:#231F20;stroke-width:2.2674;stroke-miterlimit:10;}
	.st3{font-family:'Verdana';}
	.st4{font-size:50.3195px;}
</style>
<g>
	<g>
		<polygon class="st0" points="173.5,301 173.5,81.2 348.1,81.2 348.1,246.3 293.5,301 		"/>
		<path class="st1" d="M344.7,84.5v160.4l-52.6,52.8H176.9V84.5H344.7 M351.5,77.7H170.1v226.8h124.9l56.6-56.7V77.7L351.5,77.7z"/>
	</g>
	<g>
		<polygon class="st1" points="293.5,246.5 342.5,246.5 293.5,295.5 		"/>
		<path class="st1" d="M333.6,250.2l-36.4,36.4v-36.4H333.6 M351.5,242.7h-61.7v61.7L351.5,242.7L351.5,242.7z"/>
	</g>
	<path class="st2" d="M351.5,304.5"/>
	<g>
		<rect x="253.2" y="126.2" class="st1" width="140.2" height="64.4"/>
		<path class="st0" d="M390.1,129.5v57.6H256.6v-57.6H390.1 M396.9,122.7h-147v71.2h147V122.7L396.9,122.7z"/>
	</g>
	<text transform="matrix(1 0 0 1 274.0593 177.2195)" class="st0 st3 st4">XLS</text>
</g>
</svg>
