<?xml version="1.0" encoding="utf-8"?>
<!-- Generator: Adobe Illustrator 19.2.0, SVG Export Plug-In . SVG Version: 6.00 Build 0)  -->
<svg version="1.1" id="Layer_1" xmlns="http://www.w3.org/2000/svg" xmlns:xlink="http://www.w3.org/1999/xlink" x="0px" y="0px"
	 width="98px" height="97.8px" viewBox="0 0 98 97.8" style="enable-background:new 0 0 98 97.8;" xml:space="preserve">
<style type="text/css">
	.st0{fill:#FFD400;}
	.st1{clip-path:url(#SVGID_2_);}
	.st2{fill:#D71920;}
</style>
<path id="yellow_card_icon" class="st0" d="M9.7,17c-0.1-4.1,3.2-7.5,7.4-7.6c4.1-0.1,7.5,3.2,7.6,7.4c0.1,4.1-3.2,7.5-7.4,7.6
	c-2,0-4-0.8-5.4-2.2C10.4,20.8,9.6,19,9.7,17z M51,2.8C49.2,1,46.7,0,44.1,0H9.7C4.4,0.1,0.1,4.4,0,9.7v34.5
	c-0.1,2.6,0.9,5.1,2.8,6.9l44.1,44.1c3.9,3.7,9.9,3.7,13.8,0l34.5-34.5c3.7-3.9,3.7-9.9,0-13.8L51,2.8z"/>
<g>
	<g>
		<g>
			<defs>
				<path id="SVGID_1_" d="M9.7,17c-0.1-4.1,3.2-7.5,7.4-7.6c4.1-0.1,7.5,3.2,7.6,7.4c0.1,4.1-3.2,7.5-7.4,7.6c-2,0-4-0.8-5.4-2.2
					C10.5,20.8,9.7,19,9.7,17z M51.1,2.8C49.3,1,46.8,0,44.2,0H9.7C4.5,0.1,0.2,4.4,0.1,9.7v34.5C0,46.7,1,49.2,2.9,51L47,95.1
					c3.9,3.7,9.9,3.7,13.8,0l34.5-34.5c3.7-3.9,3.7-9.9,0-13.8L51.1,2.8z"/>
			</defs>
			<clipPath id="SVGID_2_">
				<use xlink:href="#SVGID_1_"  style="overflow:visible;"/>
			</clipPath>
			<g class="st1">
				
					<rect x="5.2" y="36.6" transform="matrix(0.7071 -0.7071 0.7071 0.7071 -30.0588 26.2521)" class="st2" width="22.9" height="25.6"/>
				
					<rect x="37.6" y="4.2" transform="matrix(0.7071 -0.7071 0.7071 0.7071 2.3278 39.6671)" class="st2" width="22.9" height="25.6"/>
				
					<rect x="39.2" y="38.2" transform="matrix(0.7071 -0.7071 0.7071 0.7071 -21.2483 50.7472)" class="st2" width="22.9" height="25.6"/>
				
					<rect x="41.1" y="72.5" transform="matrix(0.7071 -0.7071 0.7071 0.7071 -44.9242 62.1746)" class="st2" width="22.9" height="25.6"/>
				
					<rect x="73.5" y="40.1" transform="matrix(0.7071 -0.7071 0.7071 0.7071 -12.5377 75.5897)" class="st2" width="22.9" height="25.6"/>
			</g>
		</g>
	</g>
</g>
</svg>
