<svg id="Layer_1" data-name="Layer 1" xmlns="http://www.w3.org/2000/svg" width="200" height="174.86" viewBox="0 0 200 174.86"><defs><style>.cls-1{fill:#394454;}</style></defs><title>yoga_icon_drk</title><path class="cls-1" d="M89.9,76.32h21.46c12.76,0,46.58,35.6,54.39,42.72l26.8,4.75a10.08,10.08,0,0,1,8.11,11.67l-.2,1a10.08,10.08,0,0,1-11.67,8.11l-30.16-5.34a9.75,9.75,0,0,1-6.13-3.76c-.2-.2-.49-.4-.69-.59L129.76,115V150.3l41.44-6.92a15.32,15.32,0,0,1,17.6,12.56l.3,1.58a15.32,15.32,0,0,1-12.56,17.6l-25,4.15v.2l-.3,1.58a15.32,15.32,0,0,1-17.6,12.56L99.6,188l-34,5.64A15.32,15.32,0,0,1,48,181.05l-.3-1.58v-.2l-25-4.15a15.32,15.32,0,0,1-12.56-17.6l.3-1.58A15.32,15.32,0,0,1,28,143.37l43.52,7.22V115.38L49.85,135c-.2.2-.49.4-.69.59A10.47,10.47,0,0,1,43,139.32l-30.16,5.34a10.08,10.08,0,0,1-11.67-8.11l-.2-1A10.08,10.08,0,0,1,9.1,123.89l26.8-4.75c7.52-6.73,41.54-42.72,54-42.72ZM99.89,19A26.11,26.11,0,1,1,73.78,45.07,26.08,26.08,0,0,1,99.89,19Z" transform="translate(-0.83 -18.96)"/></svg>